<?xml version="1.0" standalone="no"?>
 <!DOCTYPE svg PUBLIC "-//W3C//DTD SVG 1.1//EN" 
 "http://www.w3.org/Graphics/SVG/1.1/DTD/svg11.dtd"> 
<svg
  xmlns:svg="http://www.w3.org/2000/svg"
  xmlns="http://www.w3.org/2000/svg"
  xmlns:xlink="http://www.w3.org/1999/xlink"
  version="1.1"
  width="12.268200cm" height="12.141200cm" viewBox="0 0 122682000 121412000">
<title>SVG Picture created as control board-F_Silkscreen.svg date 2023/05/24 00:56:44 </title>
  <desc>Picture generated by PCBNEW </desc>
<g style="fill:#000000; fill-opacity:1.000000;stroke:#000000; stroke-opacity:1.000000;
stroke-linecap:round; stroke-linejoin:round;"
 transform="translate(0 0) scale(1 1)">
</g>
<g style="fill:#000000; fill-opacity:0.0; 
stroke:#000000; stroke-width:0.000000; stroke-opacity:1; 
stroke-linecap:round; stroke-linejoin:round;">
</g>
<g style="fill:#000000; fill-opacity:0.0; 
stroke:#000000; stroke-width:10000.000000; stroke-opacity:1; 
stroke-linecap:round; stroke-linejoin:round;">
</g>
<g style="fill:#000000; fill-opacity:1.0; 
stroke:#000000; stroke-width:10000.000000; stroke-opacity:1; 
stroke-linecap:round; stroke-linejoin:round;">
<path style="fill:#000000; fill-opacity:1.0; 
stroke:#000000; stroke-width:10000.000000; stroke-opacity:1; 
stroke-linecap:round; stroke-linejoin:round;fill-rule:evenodd;"
d="M 49722307.000000,50228932.000000
49724214.000000,50209090.000000
49727149.000000,50189436.000000
49731096.000000,50170043.000000
49736042.000000,50150983.000000
49741972.000000,50132328.000000
49748873.000000,50114152.000000
49756729.000000,50096527.000000
49765526.000000,50079525.000000
49775346.000000,50063094.000000
49786269.000000,50047154.000000
49798234.000000,50031735.000000
49811185.000000,50016864.000000
49825063.000000,50002572.000000
49839811.000000,49988886.000000
49855370.000000,49975838.000000
49871682.000000,49963454.000000
49888689.000000,49951765.000000
49906334.000000,49940800.000000
49924558.000000,49930587.000000
49943302.000000,49921156.000000
49962510.000000,49912536.000000
49982122.000000,49904755.000000
50002082.000000,49897844.000000
50022331.000000,49891830.000000
50051965.000000,49884879.000000
50081599.000000,49878858.000000
50111234.000000,49873765.000000
50140870.000000,49869600.000000
50170506.000000,49866362.000000
50200142.000000,49864050.000000
50229778.000000,49862664.000000
50259415.000000,49862202.000000
50297565.000000,49863095.000000
50334260.000000,49865761.000000
50369553.000000,49870177.000000
50403492.000000,49876323.000000
50436129.000000,49884176.000000
50467515.000000,49893714.000000
50497700.000000,49904917.000000
50526734.000000,49917761.000000
50554669.000000,49932227.000000
50581555.000000,49948290.000000
50607442.000000,49965932.000000
50632382.000000,49985128.000000
50656424.000000,50005858.000000
50679620.000000,50028101.000000
50723675.000000,50077035.000000
50764951.000000,50131756.000000
50803853.000000,50192092.000000
50840788.000000,50257868.000000
50876158.000000,50328912.000000
50910371.000000,50405049.000000
50943830.000000,50486105.000000
51010108.000000,50662284.000000
51098992.000000,50919089.000000
51098992.000000,49131227.000000
51099853.000000,49097197.000000
51102407.000000,49063668.000000
51106611.000000,49030678.000000
51112421.000000,48998266.000000
51119793.000000,48966470.000000
51128685.000000,48935326.000000
51139053.000000,48904874.000000
51150853.000000,48875151.000000
51164043.000000,48846196.000000
51178578.000000,48818045.000000
51194415.000000,48790738.000000
51211512.000000,48764312.000000
51229824.000000,48738805.000000
51249307.000000,48714255.000000
51269920.000000,48690700.000000
51291618.000000,48668178.000000
51314357.000000,48646726.000000
51338095.000000,48626384.000000
51362788.000000,48607188.000000
51388392.000000,48589177.000000
51414865.000000,48572389.000000
51442162.000000,48556862.000000
51470241.000000,48542633.000000
51499057.000000,48529741.000000
51528568.000000,48518223.000000
51558730.000000,48508118.000000
51589500.000000,48499463.000000
51620833.000000,48492297.000000
51652688.000000,48486657.000000
51685020.000000,48482582.000000
51717786.000000,48480109.000000
51750943.000000,48479276.000000
51778597.000000,48479853.000000
51805992.000000,48481572.000000
51833098.000000,48484421.000000
51859887.000000,48488384.000000
51886328.000000,48493446.000000
51912394.000000,48499594.000000
51938056.000000,48506813.000000
51963283.000000,48515087.000000
51988049.000000,48524403.000000
52012322.000000,48534747.000000
52036075.000000,48546102.000000
52059279.000000,48558456.000000
52081904.000000,48571794.000000
52103922.000000,48586100.000000
52125303.000000,48601361.000000
52146019.000000,48617561.000000
52146019.000000,46879090.000000
52146880.000000,46845059.000000
52149434.000000,46811531.000000
52153638.000000,46778541.000000
52159447.000000,46746129.000000
52166820.000000,46714332.000000
52175712.000000,46683189.000000
52186080.000000,46652737.000000
52197880.000000,46623014.000000
52211070.000000,46594059.000000
52225605.000000,46565908.000000
52241442.000000,46538601.000000
52258539.000000,46512175.000000
52276850.000000,46486668.000000
52296334.000000,46462118.000000
52316947.000000,46438563.000000
52338644.000000,46416040.000000
52361384.000000,46394589.000000
52385122.000000,46374247.000000
52409815.000000,46355051.000000
52435419.000000,46337040.000000
52461892.000000,46320252.000000
52489189.000000,46304725.000000
52517267.000000,46290496.000000
52546084.000000,46277604.000000
52575595.000000,46266086.000000
52605757.000000,46255981.000000
52636526.000000,46247326.000000
52667860.000000,46240160.000000
52699715.000000,46234520.000000
52732047.000000,46230445.000000
52764813.000000,46227972.000000
52797970.000000,46227139.000000
52832000.000000,46228000.000000
52865529.000000,46230554.000000
52898519.000000,46234758.000000
52930931.000000,46240567.000000
52962727.000000,46247940.000000
52993871.000000,46256832.000000
53024323.000000,46267200.000000
53054045.000000,46279000.000000
53083001.000000,46292190.000000
53111151.000000,46306725.000000
53138458.000000,46322562.000000
53164885.000000,46339659.000000
53190392.000000,46357970.000000
53214942.000000,46377454.000000
53238497.000000,46398067.000000
53261019.000000,46419764.000000
53282470.000000,46442504.000000
53302813.000000,46466242.000000
53322009.000000,46490935.000000
53340019.000000,46516539.000000
53356808.000000,46543012.000000
53372335.000000,46570309.000000
53386564.000000,46598387.000000
53399456.000000,46627204.000000
53410974.000000,46656715.000000
53421079.000000,46686877.000000
53429733.000000,46717646.000000
53436900.000000,46748980.000000
53442539.000000,46780835.000000
53446615.000000,46813167.000000
53449088.000000,46845933.000000
53449921.000000,46879090.000000
53449921.000000,48607772.000000
53470636.000000,48591571.000000
53492017.000000,48576311.000000
53514034.000000,48562005.000000
53536658.000000,48548667.000000
53559862.000000,48536313.000000
53583614.000000,48524958.000000
53607888.000000,48514614.000000
53632653.000000,48505298.000000
53657880.000000,48497023.000000
53683542.000000,48489805.000000
53709608.000000,48483657.000000
53736050.000000,48478594.000000
53762839.000000,48474631.000000
53789945.000000,48471783.000000
53817341.000000,48470063.000000
53844997.000000,48469486.000000
53878215.000000,48470294.000000
53911143.000000,48472706.000000
53943722.000000,48476710.000000
53975895.000000,48482291.000000
54007605.000000,48489434.000000
54038792.000000,48498124.000000
54069400.000000,48508349.000000
54099371.000000,48520093.000000
54128646.000000,48533342.000000
54157169.000000,48548082.000000
54184881.000000,48564298.000000
54211724.000000,48581977.000000
54237640.000000,48601103.000000
54262572.000000,48621662.000000
54286463.000000,48643641.000000
54309253.000000,48667024.000000
54313413.000000,48671630.000000
54318502.000000,48677977.000000
54324520.000000,48685950.000000
54331465.000000,48695429.000000
54348136.000000,48718436.000000
54368509.000000,48746055.000000
54387765.000000,48782263.000000
54407839.000000,48824609.000000
54417856.000000,48848265.000000
54427687.000000,48873672.000000
54437200.000000,48900903.000000
54446265.000000,48930029.000000
54454752.000000,48961123.000000
54462531.000000,48994257.000000
54469471.000000,49029503.000000
54475441.000000,49066934.000000
54480312.000000,49106621.000000
54483952.000000,49148637.000000
54486232.000000,49193054.000000
54487021.000000,49239944.000000
54487021.000000,49279425.000000
54505560.000000,49264959.000000
54524172.000000,49251217.000000
54542928.000000,49238226.000000
54561900.000000,49226017.000000
54581162.000000,49214618.000000
54600784.000000,49204059.000000
54620841.000000,49194367.000000
54641402.000000,49185573.000000
54662542.000000,49177705.000000
54684333.000000,49170792.000000
54706846.000000,49164863.000000
54730153.000000,49159947.000000
54754328.000000,49156073.000000
54779442.000000,49153270.000000
54805568.000000,49151567.000000
54832778.000000,49150993.000000
54832778.000000,49150996.000000
54832777.000000,49150998.000000
54832776.000000,49151001.000000
54832775.000000,49151003.000000
54832772.000000,49151012.000000
54832771.000000,49151014.000000
54865616.000000,49151875.000000
54897471.000000,49154429.000000
54928332.000000,49158633.000000
54958193.000000,49164442.000000
54987048.000000,49171815.000000
55014892.000000,49180707.000000
55041719.000000,49191074.000000
55067525.000000,49202874.000000
55092303.000000,49216063.000000
55116049.000000,49230598.000000
55138757.000000,49246435.000000
55160421.000000,49263530.000000
55181036.000000,49281841.000000
55200597.000000,49301324.000000
55219098.000000,49321935.000000
55236534.000000,49343631.000000
55252899.000000,49366369.000000
55268188.000000,49390104.000000
55282396.000000,49414795.000000
55295516.000000,49440397.000000
55307544.000000,49466867.000000
55318475.000000,49494161.000000
55337021.000000,49551049.000000
55351110.000000,49610714.000000
55360700.000000,49672808.000000
55365747.000000,49736984.000000
55366207.000000,49802895.000000
55366207.000000,52074783.000000
55364220.000000,52219691.000000
55358182.000000,52361735.000000
55347977.000000,52500827.000000
55333490.000000,52636881.000000
55314604.000000,52769810.000000
55291203.000000,52899527.000000
55263173.000000,53025946.000000
55230396.000000,53148979.000000
55192758.000000,53268540.000000
55150142.000000,53384541.000000
55102433.000000,53496897.000000
55049515.000000,53605521.000000
54991272.000000,53710324.000000
54927589.000000,53811222.000000
54858348.000000,53908126.000000
54783436.000000,54000951.000000
54696823.000000,54097955.000000
54607242.000000,54188910.000000
54514507.000000,54273787.000000
54418429.000000,54352558.000000
54318819.000000,54425193.000000
54215491.000000,54491663.000000
54108255.000000,54551940.000000
53996924.000000,54605995.000000
53881311.000000,54653799.000000
53761226.000000,54695322.000000
53636481.000000,54730537.000000
53506890.000000,54759413.000000
53372263.000000,54781923.000000
53232413.000000,54798037.000000
53087152.000000,54807727.000000
52936292.000000,54810963.000000
52696189.000000,54804573.000000
52580771.000000,54796557.000000
52468413.000000,54785304.000000
52359094.000000,54770795.000000
52252791.000000,54753012.000000
52149483.000000,54731937.000000
52049148.000000,54707553.000000
51951765.000000,54679841.000000
51857312.000000,54648782.000000
51765767.000000,54614359.000000
51677109.000000,54576554.000000
51591316.000000,54535349.000000
51508365.000000,54490726.000000
51428237.000000,54442666.000000
51350908.000000,54391151.000000
51276357.000000,54336164.000000
51204563.000000,54277686.000000
51135503.000000,54215700.000000
51069156.000000,54150186.000000
51005501.000000,54081128.000000
50944516.000000,54008507.000000
50886178.000000,53932304.000000
50830467.000000,53852503.000000
50777361.000000,53769084.000000
50726837.000000,53682030.000000
50678875.000000,53591323.000000
50633453.000000,53496944.000000
50590548.000000,53398876.000000
50550139.000000,53297100.000000
50512205.000000,53191598.000000
50476724.000000,53082352.000000
50369142.000000,52712052.000000
50251374.000000,52288737.000000
50014914.000000,51408076.000000
49745751.000000,50385719.000000
49738924.000000,50366987.000000
49733239.000000,50347863.000000
49728682.000000,50328418.000000
49725238.000000,50308726.000000
49722892.000000,50288858.000000
49721632.000000,50268888.000000
49721533.000000,50258564.000000
49975382.000000,50258564.000000
49975498.000000,50265566.000000
49975844.000000,50272670.000000
49976422.000000,50279859.000000
49977230.000000,50287120.000000
49978269.000000,50294439.000000
49979539.000000,50301799.000000
49981040.000000,50309187.000000
49982772.000000,50316588.000000
50253170.000000,51343890.000000
50492555.000000,52227953.000000
50612769.000000,52652384.000000
50723605.000000,53023099.000000
50790671.000000,53216322.000000
50866100.000000,53396031.000000
50950153.000000,53562369.000000
51043090.000000,53715483.000000
51092971.000000,53787125.000000
51145171.000000,53855516.000000
51199723.000000,53920672.000000
51256658.000000,53982613.000000
51316010.000000,54041356.000000
51377810.000000,54096919.000000
51442092.000000,54149321.000000
51508889.000000,54198579.000000
51578231.000000,54244712.000000
51650153.000000,54287737.000000
51724687.000000,54327673.000000
51801865.000000,54364538.000000
51881720.000000,54398350.000000
51964284.000000,54429126.000000
52137671.000000,54481647.000000
52322286.000000,54522245.000000
52518390.000000,54551064.000000
52726243.000000,54568249.000000
52946105.000000,54573946.000000
53082378.000000,54570947.000000
53213501.000000,54562001.000000
53339646.000000,54547179.000000
53460987.000000,54526554.000000
53577699.000000,54500198.000000
53689955.000000,54468183.000000
53797927.000000,54430582.000000
53901791.000000,54387467.000000
54001720.000000,54338911.000000
54097886.000000,54284987.000000
54190464.000000,54225765.000000
54279628.000000,54161320.000000
54365550.000000,54091722.000000
54448405.000000,54017046.000000
54528367.000000,53937362.000000
54605608.000000,53852744.000000
54673348.000000,53767555.000000
54735879.000000,53678720.000000
54793315.000000,53586297.000000
54845773.000000,53490343.000000
54893368.000000,53390918.000000
54936216.000000,53288078.000000
54974434.000000,53181882.000000
55008137.000000,53072387.000000
55037441.000000,52959651.000000
55062462.000000,52843732.000000
55083315.000000,52724689.000000
55100117.000000,52602578.000000
55112984.000000,52477458.000000
55122031.000000,52349387.000000
55127374.000000,52218422.000000
55129129.000000,52084622.000000
55129129.000000,50672135.000000
55139016.000000,49803023.000000
55138075.000000,49762774.000000
55135196.000000,49723655.000000
55130291.000000,49685868.000000
55127051.000000,49667537.000000
55123272.000000,49649614.000000
55118944.000000,49632126.000000
55114055.000000,49615098.000000
55108594.000000,49598554.000000
55102551.000000,49582521.000000
55095915.000000,49567022.000000
55088674.000000,49552085.000000
55080819.000000,49537734.000000
55072337.000000,49523993.000000
55063219.000000,49510890.000000
55053454.000000,49498449.000000
55043030.000000,49486694.000000
55031936.000000,49475653.000000
55020163.000000,49465349.000000
55007699.000000,49455809.000000
54994533.000000,49447057.000000
54980654.000000,49439118.000000
54966052.000000,49432019.000000
54950715.000000,49425785.000000
54934633.000000,49420440.000000
54917795.000000,49416010.000000
54900190.000000,49412520.000000
54881807.000000,49409997.000000
54862636.000000,49408464.000000
54842665.000000,49407947.000000
54822552.000000,49408464.000000
54802968.000000,49409997.000000
54783919.000000,49412520.000000
54765412.000000,49416010.000000
54747455.000000,49420440.000000
54730056.000000,49425785.000000
54713220.000000,49432019.000000
54696956.000000,49439118.000000
54681271.000000,49447056.000000
54666172.000000,49455808.000000
54651666.000000,49465349.000000
54637761.000000,49475653.000000
54624463.000000,49486694.000000
54611781.000000,49498448.000000
54599720.000000,49510890.000000
54588289.000000,49523993.000000
54577495.000000,49537733.000000
54567345.000000,49552085.000000
54557846.000000,49567022.000000
54549005.000000,49582520.000000
54540830.000000,49598554.000000
54533328.000000,49615098.000000
54526506.000000,49632126.000000
54520371.000000,49649614.000000
54510193.000000,49685867.000000
54502851.000000,49723655.000000
54498403.000000,49762774.000000
54496908.000000,49803023.000000
54496908.000000,50672285.000000
54496736.000000,50678740.000000
54496225.000000,50685127.000000
54495386.000000,50691439.000000
54494227.000000,50697665.000000
54492756.000000,50703797.000000
54490984.000000,50709825.000000
54488918.000000,50715741.000000
54486568.000000,50721536.000000
54483944.000000,50727201.000000
54481054.000000,50732726.000000
54477906.000000,50738102.000000
54474511.000000,50743321.000000
54470877.000000,50748374.000000
54467014.000000,50753251.000000
54462929.000000,50757943.000000
54458633.000000,50762442.000000
54454135.000000,50766738.000000
54449442.000000,50770823.000000
54444565.000000,50774686.000000
54439513.000000,50778320.000000
54434294.000000,50781715.000000
54428917.000000,50784863.000000
54423392.000000,50787753.000000
54417727.000000,50790377.000000
54411932.000000,50792727.000000
54406016.000000,50794793.000000
54399988.000000,50796565.000000
54393856.000000,50798036.000000
54387629.000000,50799195.000000
54381318.000000,50800035.000000
54374930.000000,50800545.000000
54368475.000000,50800717.000000
54362021.000000,50800545.000000
54355633.000000,50800035.000000
54349322.000000,50799195.000000
54343096.000000,50798036.000000
54336964.000000,50796565.000000
54330935.000000,50794793.000000
54325019.000000,50792727.000000
54319224.000000,50790378.000000
54313560.000000,50787753.000000
54308035.000000,50784863.000000
54302658.000000,50781716.000000
54297439.000000,50778321.000000
54292387.000000,50774687.000000
54287510.000000,50770823.000000
54282817.000000,50766739.000000
54278319.000000,50762443.000000
54274023.000000,50757944.000000
54269938.000000,50753252.000000
54266074.000000,50748375.000000
54262441.000000,50743322.000000
54259045.000000,50738103.000000
54255898.000000,50732727.000000
54253008.000000,50727202.000000
54250383.000000,50721537.000000
54248034.000000,50715742.000000
54245968.000000,50709826.000000
54244196.000000,50703797.000000
54242725.000000,50697665.000000
54241565.000000,50691439.000000
54240726.000000,50685128.000000
54240216.000000,50678740.000000
54240044.000000,50672285.000000
54240044.000000,49121439.000000
54239527.000000,49101186.000000
54237994.000000,49081190.000000
54235470.000000,49061477.000000
54231981.000000,49042071.000000
54227551.000000,49022998.000000
54222206.000000,49004283.000000
54215971.000000,48985952.000000
54208872.000000,48968030.000000
54200934.000000,48950542.000000
54192182.000000,48933514.000000
54182642.000000,48916970.000000
54172338.000000,48900936.000000
54161296.000000,48885438.000000
54149542.000000,48870501.000000
54137101.000000,48856149.000000
54123997.000000,48842409.000000
54110257.000000,48829306.000000
54095906.000000,48816864.000000
54080968.000000,48805110.000000
54065470.000000,48794069.000000
54049437.000000,48783765.000000
54032893.000000,48774224.000000
54015864.000000,48765472.000000
53998376.000000,48757534.000000
53980454.000000,48750435.000000
53962123.000000,48744200.000000
53943409.000000,48738856.000000
53924336.000000,48734426.000000
53904930.000000,48730936.000000
53885216.000000,48728412.000000
53865221.000000,48726880.000000
53844968.000000,48726363.000000
53824715.000000,48726880.000000
53804719.000000,48728412.000000
53785005.000000,48730936.000000
53765599.000000,48734426.000000
53746527.000000,48738856.000000
53727812.000000,48744200.000000
53709481.000000,48750435.000000
53691559.000000,48757534.000000
53674071.000000,48765472.000000
53657042.000000,48774224.000000
53640498.000000,48783765.000000
53624465.000000,48794069.000000
53608967.000000,48805110.000000
53594029.000000,48816864.000000
53579678.000000,48829306.000000
53565938.000000,48842409.000000
53552834.000000,48856149.000000
53540393.000000,48870501.000000
53528639.000000,48885438.000000
53517597.000000,48900936.000000
53507293.000000,48916970.000000
53497753.000000,48933514.000000
53489001.000000,48950542.000000
53481063.000000,48968030.000000
53473964.000000,48985952.000000
53467729.000000,49004283.000000
53462384.000000,49022998.000000
53457954.000000,49042071.000000
53454465.000000,49061477.000000
53451941.000000,49081190.000000
53450408.000000,49101186.000000
53449892.000000,49121439.000000
53449892.000000,50672214.000000
53449720.000000,50678669.000000
53449209.000000,50685057.000000
53448370.000000,50691368.000000
53447210.000000,50697594.000000
53445740.000000,50703726.000000
53443967.000000,50709755.000000
53441902.000000,50715671.000000
53439552.000000,50721466.000000
53436928.000000,50727130.000000
53434037.000000,50732655.000000
53430890.000000,50738032.000000
53427495.000000,50743251.000000
53423861.000000,50748303.000000
53419998.000000,50753180.000000
53415913.000000,50757873.000000
53411617.000000,50762372.000000
53407118.000000,50766668.000000
53402426.000000,50770752.000000
53397549.000000,50774616.000000
53392497.000000,50778250.000000
53387277.000000,50781645.000000
53381901.000000,50784792.000000
53376376.000000,50787682.000000
53370711.000000,50790307.000000
53364916.000000,50792656.000000
53359000.000000,50794722.000000
53352971.000000,50796495.000000
53346839.000000,50797965.000000
53340613.000000,50799125.000000
53334302.000000,50799964.000000
53327914.000000,50800474.000000
53321459.000000,50800647.000000
53315005.000000,50800474.000000
53308617.000000,50799964.000000
53302306.000000,50799125.000000
53296080.000000,50797965.000000
53289948.000000,50796495.000000
53283919.000000,50794722.000000
53278003.000000,50792657.000000
53272208.000000,50790307.000000
53266544.000000,50787683.000000
53261019.000000,50784792.000000
53255642.000000,50781645.000000
53250423.000000,50778250.000000
53245371.000000,50774616.000000
53240494.000000,50770753.000000
53235801.000000,50766668.000000
53231302.000000,50762372.000000
53227006.000000,50757874.000000
53222922.000000,50753181.000000
53219058.000000,50748304.000000
53215424.000000,50743252.000000
53212029.000000,50738033.000000
53208882.000000,50732656.000000
53205992.000000,50727131.000000
53203367.000000,50721467.000000
53201018.000000,50715672.000000
53198952.000000,50709755.000000
53197179.000000,50703727.000000
53195709.000000,50697595.000000
53194549.000000,50691369.000000
53193710.000000,50685057.000000
53193200.000000,50678669.000000
53193028.000000,50672214.000000
53193028.000000,46879148.000000
53192511.000000,46858895.000000
53190978.000000,46838899.000000
53188454.000000,46819186.000000
53184965.000000,46799780.000000
53180535.000000,46780707.000000
53175190.000000,46761993.000000
53168955.000000,46743661.000000
53161856.000000,46725739.000000
53153918.000000,46708251.000000
53145166.000000,46691223.000000
53135626.000000,46674679.000000
53125322.000000,46658645.000000
53114280.000000,46643147.000000
53102526.000000,46628210.000000
53090085.000000,46613858.000000
53076981.000000,46600118.000000
53063241.000000,46587015.000000
53048890.000000,46574574.000000
53033952.000000,46562819.000000
53018454.000000,46551778.000000
53002420.000000,46541474.000000
52985877.000000,46531934.000000
52968848.000000,46523182.000000
52951360.000000,46515243.000000
52933438.000000,46508144.000000
52915107.000000,46501910.000000
52896392.000000,46496565.000000
52877320.000000,46492135.000000
52857914.000000,46488645.000000
52838200.000000,46486122.000000
52818204.000000,46484589.000000
52797952.000000,46484072.000000
52777699.000000,46484589.000000
52757703.000000,46486122.000000
52737989.000000,46488645.000000
52718583.000000,46492135.000000
52699511.000000,46496565.000000
52680796.000000,46501910.000000
52662465.000000,46508144.000000
52644543.000000,46515243.000000
52627055.000000,46523182.000000
52610026.000000,46531934.000000
52593482.000000,46541474.000000
52577449.000000,46551778.000000
52561951.000000,46562819.000000
52547013.000000,46574574.000000
52532662.000000,46587015.000000
52518922.000000,46600118.000000
52505818.000000,46613859.000000
52493377.000000,46628210.000000
52481622.000000,46643147.000000
52470581.000000,46658646.000000
52460277.000000,46674679.000000
52450737.000000,46691223.000000
52441985.000000,46708251.000000
52434046.000000,46725739.000000
52426947.000000,46743662.000000
52420713.000000,46761993.000000
52415368.000000,46780707.000000
52410938.000000,46799780.000000
52407448.000000,46819186.000000
52404925.000000,46838899.000000
52403392.000000,46858895.000000
52402875.000000,46879148.000000
52402806.000000,50662337.000000
52402634.000000,50668792.000000
52402124.000000,50675179.000000
52401284.000000,50681491.000000
52400125.000000,50687717.000000
52398654.000000,50693848.000000
52396882.000000,50699877.000000
52394816.000000,50705793.000000
52392466.000000,50711588.000000
52389842.000000,50717253.000000
52386952.000000,50722778.000000
52383804.000000,50728154.000000
52380409.000000,50733373.000000
52376775.000000,50738426.000000
52372912.000000,50743303.000000
52368827.000000,50747995.000000
52364531.000000,50752494.000000
52360032.000000,50756790.000000
52355340.000000,50760875.000000
52350463.000000,50764738.000000
52345410.000000,50768372.000000
52340191.000000,50771767.000000
52334815.000000,50774915.000000
52329290.000000,50777805.000000
52323625.000000,50780429.000000
52317830.000000,50782779.000000
52311914.000000,50784845.000000
52305886.000000,50786617.000000
52299754.000000,50788088.000000
52293528.000000,50789247.000000
52287216.000000,50790087.000000
52280829.000000,50790597.000000
52274374.000000,50790769.000000
52267919.000000,50790597.000000
52261532.000000,50790087.000000
52255221.000000,50789247.000000
52248994.000000,50788088.000000
52242863.000000,50786617.000000
52236834.000000,50784845.000000
52230918.000000,50782779.000000
52225123.000000,50780430.000000
52219459.000000,50777805.000000
52213934.000000,50774915.000000
52208557.000000,50771768.000000
52203338.000000,50768373.000000
52198285.000000,50764739.000000
52193408.000000,50760875.000000
52188716.000000,50756791.000000
52184217.000000,50752495.000000
52179921.000000,50747996.000000
52175837.000000,50743304.000000
52171973.000000,50738427.000000
52168339.000000,50733374.000000
52164944.000000,50728155.000000
52161797.000000,50722779.000000
52158906.000000,50717254.000000
52156282.000000,50711589.000000
52153932.000000,50705794.000000
52151866.000000,50699878.000000
52150094.000000,50693849.000000
52148623.000000,50687717.000000
52147464.000000,50681491.000000
52146624.000000,50675180.000000
52146114.000000,50668792.000000
52145942.000000,50662337.000000
52145942.000000,49121421.000000
52145425.000000,49101168.000000
52143893.000000,49081172.000000
52141369.000000,49061459.000000
52137879.000000,49042053.000000
52133449.000000,49022980.000000
52128104.000000,49004266.000000
52121870.000000,48985934.000000
52114771.000000,48968012.000000
52106833.000000,48950524.000000
52098081.000000,48933496.000000
52088540.000000,48916952.000000
52078236.000000,48900919.000000
52067195.000000,48885420.000000
52055441.000000,48870483.000000
52042999.000000,48856132.000000
52029896.000000,48842391.000000
52016156.000000,48829288.000000
52001804.000000,48816847.000000
51986867.000000,48805092.000000
51971369.000000,48794051.000000
51955335.000000,48783747.000000
51938791.000000,48774207.000000
51921763.000000,48765455.000000
51904275.000000,48757516.000000
51886353.000000,48750417.000000
51868022.000000,48744183.000000
51849307.000000,48738838.000000
51830234.000000,48734408.000000
51810828.000000,48730918.000000
51791115.000000,48728395.000000
51771119.000000,48726862.000000
51750866.000000,48726345.000000
51730613.000000,48726862.000000
51710617.000000,48728395.000000
51690904.000000,48730918.000000
51671498.000000,48734408.000000
51652425.000000,48738838.000000
51633710.000000,48744183.000000
51615379.000000,48750417.000000
51597457.000000,48757516.000000
51579969.000000,48765455.000000
51562941.000000,48774207.000000
51546397.000000,48783747.000000
51530363.000000,48794051.000000
51514865.000000,48805092.000000
51499928.000000,48816847.000000
51485576.000000,48829288.000000
51471836.000000,48842391.000000
51458733.000000,48856132.000000
51446291.000000,48870483.000000
51434537.000000,48885420.000000
51423496.000000,48900919.000000
51413192.000000,48916952.000000
51403651.000000,48933496.000000
51394899.000000,48950524.000000
51386961.000000,48968012.000000
51379862.000000,48985934.000000
51373628.000000,49004266.000000
51368283.000000,49022980.000000
51363853.000000,49042053.000000
51360363.000000,49061459.000000
51357839.000000,49081172.000000
51356307.000000,49101168.000000
51355790.000000,49121421.000000
51355721.000000,50830259.000000
51355721.000000,50958691.000000
51357234.000000,51049887.000000
51358050.000000,51131303.000000
51358171.000000,51203577.000000
51357596.000000,51267344.000000
51356325.000000,51323241.000000
51354359.000000,51371904.000000
51353115.000000,51393722.000000
51351697.000000,51413970.000000
51350105.000000,51432728.000000
51348340.000000,51450076.000000
51346401.000000,51466092.000000
51344288.000000,51480857.000000
51342001.000000,51494450.000000
51339541.000000,51506951.000000
51336906.000000,51518438.000000
51334098.000000,51528993.000000
51331117.000000,51538694.000000
51327961.000000,51547620.000000
51324632.000000,51555853.000000
51321129.000000,51563470.000000
51317452.000000,51570551.000000
51313602.000000,51577177.000000
51309578.000000,51583426.000000
51305381.000000,51589379.000000
51296465.000000,51600711.000000
51290907.000000,51606037.000000
51285332.000000,51610914.000000
51279728.000000,51615357.000000
51274079.000000,51619380.000000
51268372.000000,51622997.000000
51262592.000000,51626224.000000
51256725.000000,51629074.000000
51250757.000000,51631563.000000
51244673.000000,51633704.000000
51238460.000000,51635513.000000
51232103.000000,51637003.000000
51225587.000000,51638190.000000
51218899.000000,51639088.000000
51212025.000000,51639712.000000
51204949.000000,51640075.000000
51197659.000000,51640193.000000
51188575.000000,51639908.000000
51179833.000000,51639076.000000
51171426.000000,51637726.000000
51163350.000000,51635889.000000
51155599.000000,51633597.000000
51148168.000000,51630879.000000
51141052.000000,51627767.000000
51134244.000000,51624292.000000
51127740.000000,51620483.000000
51121534.000000,51616373.000000
51115621.000000,51611991.000000
51109996.000000,51607368.000000
51104652.000000,51602536.000000
51099585.000000,51597524.000000
51094789.000000,51592365.000000
51090259.000000,51587087.000000
51081975.000000,51576303.000000
51074689.000000,51565417.000000
51068358.000000,51554677.000000
51062939.000000,51544327.000000
51058389.000000,51534615.000000
51054665.000000,51525786.000000
51049521.000000,51511761.000000
50772943.000000,50751154.000000
50720879.000000,50610555.000000
50696706.000000,50546100.000000
50673097.000000,50485696.000000
50649546.000000,50429459.000000
50625546.000000,50377504.000000
50613219.000000,50353169.000000
50600590.000000,50329948.000000
50587596.000000,50307855.000000
50574173.000000,50286905.000000
50560257.000000,50267113.000000
50545787.000000,50248493.000000
50530697.000000,50231059.000000
50514926.000000,50214826.000000
50498409.000000,50199809.000000
50481083.000000,50186022.000000
50462885.000000,50173479.000000
50443753.000000,50162194.000000
50423621.000000,50152183.000000
50402428.000000,50143460.000000
50380109.000000,50136039.000000
50356602.000000,50129935.000000
50331843.000000,50125163.000000
50305768.000000,50121736.000000
50278316.000000,50119669.000000
50249421.000000,50118977.000000
50227201.000000,50119422.000000
50204981.000000,50120681.000000
50182760.000000,50122635.000000
50160540.000000,50125169.000000
50138319.000000,50128164.000000
50116098.000000,50131505.000000
50071656.000000,50138751.000000
50067984.000000,50139738.000000
50064369.000000,50140838.000000
50057313.000000,50143357.000000
50050487.000000,50146281.000000
50043893.000000,50149580.000000
50037529.000000,50153225.000000
50031397.000000,50157188.000000
50025495.000000,50161439.000000
50019824.000000,50165951.000000
50014384.000000,50170693.000000
50009176.000000,50175637.000000
50004198.000000,50180754.000000
49999451.000000,50186016.000000
49994935.000000,50191393.000000
49990649.000000,50196857.000000
49986595.000000,50202379.000000
49982772.000000,50207929.000000
49981040.000000,50213598.000000
49979539.000000,50219485.000000
49978269.000000,50225575.000000
49977230.000000,50231854.000000
49976422.000000,50238307.000000
49975844.000000,50244920.000000
49975498.000000,50251677.000000
49975382.000000,50258564.000000
49721533.000000,50258564.000000
49721441.000000,50248889.000000
Z" /> 
</g>
<g style="fill:#000000; fill-opacity:1.0; 
stroke:#000000; stroke-width:150000.000000; stroke-opacity:1; 
stroke-linecap:round; stroke-linejoin:round;">
</g>
<g style="fill:#000000; fill-opacity:0.0; 
stroke:#000000; stroke-width:150000.000000; stroke-opacity:1; 
stroke-linecap:round; stroke-linejoin:round;">
<text x="94488000.000000" y="95062000.000000"
textLength="28721429.000000" font-size="2666666.000000" lengthAdjust="spacingAndGlyphs"
text-anchor="middle" opacity="0">GORAK INDUSTRIES</text>
<g class="stroked-text"><desc>GORAK INDUSTRIES</desc>
<path d="M81726095 93062000
L81535619 92966761
L81249904 92966761
L80964190 93062000
L80773714 93252476
L80678476 93442952
L80583238 93823904
L80583238 94109619
L80678476 94490571
L80773714 94681047
L80964190 94871523
L81249904 94966761
L81440380 94966761
L81726095 94871523
L81821333 94776285
L81821333 94109619
L81440380 94109619
" />
<path d="M83059428 92966761
L83440380 92966761
L83630857 93062000
L83821333 93252476
L83916571 93633428
L83916571 94300095
L83821333 94681047
L83630857 94871523
L83440380 94966761
L83059428 94966761
L82868952 94871523
L82678476 94681047
L82583238 94300095
L82583238 93633428
L82678476 93252476
L82868952 93062000
L83059428 92966761
" />
<path d="M85916571 94966761
L85249904 94014380
" />
<path d="M84773714 94966761
L84773714 92966761
L85535619 92966761
L85726095 93062000
L85821333 93157238
L85916571 93347714
L85916571 93633428
L85821333 93823904
L85726095 93919142
L85535619 94014380
L84773714 94014380
" />
<path d="M86678476 94395333
L87630857 94395333
" />
<path d="M86488000 94966761
L87154666 92966761
L87821333 94966761
" />
<path d="M88488000 94966761
L88488000 92966761
" />
<path d="M89630857 94966761
L88773714 93823904
" />
<path d="M89630857 92966761
L88488000 94109619
" />
<path d="M92011809 94966761
L92011809 92966761
" />
<path d="M92964190 94966761
L92964190 92966761
L94107047 94966761
L94107047 92966761
" />
<path d="M95059428 94966761
L95059428 92966761
L95535619 92966761
L95821333 93062000
L96011809 93252476
L96107047 93442952
L96202285 93823904
L96202285 94109619
L96107047 94490571
L96011809 94681047
L95821333 94871523
L95535619 94966761
L95059428 94966761
" />
<path d="M97059428 92966761
L97059428 94585809
L97154666 94776285
L97249904 94871523
L97440380 94966761
L97821333 94966761
L98011809 94871523
L98107047 94776285
L98202285 94585809
L98202285 92966761
" />
<path d="M99059428 94871523
L99345142 94966761
L99821333 94966761
L100011809 94871523
L100107047 94776285
L100202285 94585809
L100202285 94395333
L100107047 94204857
L100011809 94109619
L99821333 94014380
L99440380 93919142
L99249904 93823904
L99154666 93728666
L99059428 93538190
L99059428 93347714
L99154666 93157238
L99249904 93062000
L99440380 92966761
L99916571 92966761
L100202285 93062000
" />
<path d="M100773714 92966761
L101916571 92966761
" />
<path d="M101345142 94966761
L101345142 92966761
" />
<path d="M103726095 94966761
L103059428 94014380
" />
<path d="M102583238 94966761
L102583238 92966761
L103345142 92966761
L103535619 93062000
L103630857 93157238
L103726095 93347714
L103726095 93633428
L103630857 93823904
L103535619 93919142
L103345142 94014380
L102583238 94014380
" />
<path d="M104583238 94966761
L104583238 92966761
" />
<path d="M105535619 93919142
L106202285 93919142
" />
<path d="M106487999 94966761
L105535619 94966761
L105535619 92966761
L106487999 92966761
" />
<path d="M107249904 94871523
L107535619 94966761
L108011809 94966761
L108202285 94871523
L108297523 94776285
L108392761 94585809
L108392761 94395333
L108297523 94204857
L108202285 94109619
L108011809 94014380
L107630857 93919142
L107440380 93823904
L107345142 93728666
L107249904 93538190
L107249904 93347714
L107345142 93157238
L107440380 93062000
L107630857 92966761
L108107047 92966761
L108392761 93062000
" />
</g><text x="94488000.000000" y="98282000.000000"
textLength="20766429.000000" font-size="2666666.000000" lengthAdjust="spacingAndGlyphs"
text-anchor="middle" opacity="0">Project FENIX</text>
<g class="stroked-text"><desc>Project FENIX</desc>
<path d="M84678476 98186761
L84678476 96186761
L85440380 96186761
L85630857 96282000
L85726095 96377238
L85821333 96567714
L85821333 96853428
L85726095 97043904
L85630857 97139142
L85440380 97234380
L84678476 97234380
" />
<path d="M86678476 98186761
L86678476 96853428
" />
<path d="M86678476 97234380
L86773714 97043904
L86868952 96948666
L87059428 96853428
L87249904 96853428
" />
<path d="M88202285 98186761
L88011809 98091523
L87916571 97996285
L87821333 97805809
L87821333 97234380
L87916571 97043904
L88011809 96948666
L88202285 96853428
L88488000 96853428
L88678476 96948666
L88773714 97043904
L88868952 97234380
L88868952 97805809
L88773714 97996285
L88678476 98091523
L88488000 98186761
L88202285 98186761
" />
<path d="M89726095 96853428
L89726095 98567714
L89630857 98758190
L89440380 98853428
L89345142 98853428
" />
<path d="M89726095 96186761
L89630857 96282000
L89726095 96377238
L89821333 96282000
L89726095 96186761
L89726095 96377238
" />
<path d="M91440380 98091523
L91249904 98186761
L90868952 98186761
L90678476 98091523
L90583238 97901047
L90583238 97139142
L90678476 96948666
L90868952 96853428
L91249904 96853428
L91440380 96948666
L91535619 97139142
L91535619 97329619
L90583238 97520095
" />
<path d="M93249904 98091523
L93059428 98186761
L92678476 98186761
L92488000 98091523
L92392761 97996285
L92297523 97805809
L92297523 97234380
L92392761 97043904
L92488000 96948666
L92678476 96853428
L93059428 96853428
L93249904 96948666
" />
<path d="M93821333 96853428
L94583238 96853428
" />
<path d="M94107047 96186761
L94107047 97901047
L94202285 98091523
L94392761 98186761
L94583238 98186761
" />
<path d="M97440380 97139142
L96773714 97139142
" />
<path d="M96773714 98186761
L96773714 96186761
L97726095 96186761
" />
<path d="M98488000 97139142
L99154666 97139142
" />
<path d="M99440380 98186761
L98488000 98186761
L98488000 96186761
L99440380 96186761
" />
<path d="M100297523 98186761
L100297523 96186761
L101440380 98186761
L101440380 96186761
" />
<path d="M102392761 98186761
L102392761 96186761
" />
<path d="M103154666 96186761
L104488000 98186761
" />
<path d="M104488000 96186761
L103154666 98186761
" />
</g><text x="94488000.000000" y="101502000.000000"
textLength="29052143.000000" font-size="2666666.000000" lengthAdjust="spacingAndGlyphs"
text-anchor="middle" opacity="0">Control board V1.0</text>
<g class="stroked-text"><desc>Control board V1.0</desc>
<path d="M81678476 101216285
L81583238 101311523
L81297523 101406761
L81107047 101406761
L80821333 101311523
L80630857 101121047
L80535619 100930571
L80440380 100549619
L80440380 100263904
L80535619 99882952
L80630857 99692476
L80821333 99502000
L81107047 99406761
L81297523 99406761
L81583238 99502000
L81678476 99597238
" />
<path d="M82821333 101406761
L82630857 101311523
L82535619 101216285
L82440380 101025809
L82440380 100454380
L82535619 100263904
L82630857 100168666
L82821333 100073428
L83107047 100073428
L83297523 100168666
L83392761 100263904
L83488000 100454380
L83488000 101025809
L83392761 101216285
L83297523 101311523
L83107047 101406761
L82821333 101406761
" />
<path d="M84345142 100073428
L84345142 101406761
" />
<path d="M84345142 100263904
L84440380 100168666
L84630857 100073428
L84916571 100073428
L85107047 100168666
L85202285 100359142
L85202285 101406761
" />
<path d="M85868952 100073428
L86630857 100073428
" />
<path d="M86154666 99406761
L86154666 101121047
L86249904 101311523
L86440380 101406761
L86630857 101406761
" />
<path d="M87297523 101406761
L87297523 100073428
" />
<path d="M87297523 100454380
L87392761 100263904
L87488000 100168666
L87678476 100073428
L87868952 100073428
" />
<path d="M88821333 101406761
L88630857 101311523
L88535619 101216285
L88440380 101025809
L88440380 100454380
L88535619 100263904
L88630857 100168666
L88821333 100073428
L89107047 100073428
L89297523 100168666
L89392761 100263904
L89488000 100454380
L89488000 101025809
L89392761 101216285
L89297523 101311523
L89107047 101406761
L88821333 101406761
" />
<path d="M90630857 101406761
L90440380 101311523
L90345142 101121047
L90345142 99406761
" />
<path d="M92916571 101406761
L92916571 99406761
" />
<path d="M92916571 100168666
L93107047 100073428
L93488000 100073428
L93678476 100168666
L93773714 100263904
L93868952 100454380
L93868952 101025809
L93773714 101216285
L93678476 101311523
L93488000 101406761
L93107047 101406761
L92916571 101311523
" />
<path d="M95011809 101406761
L94821333 101311523
L94726095 101216285
L94630857 101025809
L94630857 100454380
L94726095 100263904
L94821333 100168666
L95011809 100073428
L95297523 100073428
L95488000 100168666
L95583238 100263904
L95678476 100454380
L95678476 101025809
L95583238 101216285
L95488000 101311523
L95297523 101406761
L95011809 101406761
" />
<path d="M97392761 101406761
L97392761 100359142
L97297523 100168666
L97107047 100073428
L96726095 100073428
L96535619 100168666
" />
<path d="M97392761 101311523
L97202285 101406761
L96726095 101406761
L96535619 101311523
L96440380 101121047
L96440380 100930571
L96535619 100740095
L96726095 100644857
L97202285 100644857
L97392761 100549619
" />
<path d="M98345142 101406761
L98345142 100073428
" />
<path d="M98345142 100454380
L98440380 100263904
L98535619 100168666
L98726095 100073428
L98916571 100073428
" />
<path d="M100440380 101406761
L100440380 99406761
" />
<path d="M100440380 101311523
L100249904 101406761
L99868952 101406761
L99678476 101311523
L99583238 101216285
L99488000 101025809
L99488000 100454380
L99583238 100263904
L99678476 100168666
L99868952 100073428
L100249904 100073428
L100440380 100168666
" />
<path d="M102630857 99406761
L103297523 101406761
L103964190 99406761
" />
<path d="M105678476 101406761
L104535619 101406761
" />
<path d="M105107047 101406761
L105107047 99406761
L104916571 99692476
L104726095 99882952
L104535619 99978190
" />
<path d="M106535619 101216285
L106630857 101311523
L106535619 101406761
L106440380 101311523
L106535619 101216285
L106535619 101406761
" />
<path d="M107868952 99406761
L108059428 99406761
L108249904 99502000
L108345142 99597238
L108440380 99787714
L108535619 100168666
L108535619 100644857
L108440380 101025809
L108345142 101216285
L108249904 101311523
L108059428 101406761
L107868952 101406761
L107678476 101311523
L107583238 101216285
L107488000 101025809
L107392761 100644857
L107392761 100168666
L107488000 99787714
L107583238 99597238
L107678476 99502000
L107868952 99406761
" />
</g><text x="76962000.000000" y="72636000.000000"
textLength="3099762.000000" font-size="1333333.000000" lengthAdjust="spacingAndGlyphs"
text-anchor="middle" opacity="0">R10</text>
<g class="stroked-text"><desc>R10</desc>
<path d="M76319142 72588380
L75985809 72112190
" />
<path d="M75747714 72588380
L75747714 71588380
L76128666 71588380
L76223904 71636000
L76271523 71683619
L76319142 71778857
L76319142 71921714
L76271523 72016952
L76223904 72064571
L76128666 72112190
L75747714 72112190
" />
<path d="M77271523 72588380
L76700095 72588380
" />
<path d="M76985809 72588380
L76985809 71588380
L76890571 71731238
L76795333 71826476
L76700095 71874095
" />
<path d="M77890571 71588380
L77985809 71588380
L78081047 71636000
L78128666 71683619
L78176285 71778857
L78223904 71969333
L78223904 72207428
L78176285 72397904
L78128666 72493142
L78081047 72540761
L77985809 72588380
L77890571 72588380
L77795333 72540761
L77747714 72493142
L77700095 72397904
L77652476 72207428
L77652476 71969333
L77700095 71778857
L77747714 71683619
L77795333 71636000
L77890571 71588380
" />
</g><text x="31750000.000000" y="106553000.000000"
textLength="195000.000000" font-size="1693333.000000" lengthAdjust="spacingAndGlyphs"
text-anchor="middle" opacity="0"></text>
<g class="stroked-text"><desc></desc>
</g><text x="31750000.000000" y="106553000.000000"
textLength="150000.000000" font-size="1693333.000000" lengthAdjust="spacingAndGlyphs"
text-anchor="middle" opacity="0"></text>
<g class="stroked-text"><desc></desc>
</g><text x="34544000.000000" y="68924000.000000"
textLength="2102381.000000" font-size="1333333.000000" lengthAdjust="spacingAndGlyphs"
text-anchor="middle" opacity="0">C8</text>
<g class="stroked-text"><desc>C8</desc>
<path d="M34377333 68781142
L34329714 68828761
L34186857 68876380
L34091619 68876380
L33948761 68828761
L33853523 68733523
L33805904 68638285
L33758285 68447809
L33758285 68304952
L33805904 68114476
L33853523 68019238
L33948761 67924000
L34091619 67876380
L34186857 67876380
L34329714 67924000
L34377333 67971619
" />
<path d="M34948761 68304952
L34853523 68257333
L34805904 68209714
L34758285 68114476
L34758285 68066857
L34805904 67971619
L34853523 67924000
L34948761 67876380
L35139238 67876380
L35234476 67924000
L35282095 67971619
L35329714 68066857
L35329714 68114476
L35282095 68209714
L35234476 68257333
L35139238 68304952
L34948761 68304952
L34853523 68352571
L34805904 68400190
L34758285 68495428
L34758285 68685904
L34805904 68781142
L34853523 68828761
L34948761 68876380
L35139238 68876380
L35234476 68828761
L35282095 68781142
L35329714 68685904
L35329714 68495428
L35282095 68400190
L35234476 68352571
L35139238 68304952
" />
</g><text x="76708000.000000" y="13708000.000000"
textLength="2147381.000000" font-size="1333333.000000" lengthAdjust="spacingAndGlyphs"
text-anchor="middle" opacity="0">R2</text>
<g class="stroked-text"><desc>R2</desc>
<path d="M76541333 13660380
L76208000 13184190
" />
<path d="M75969904 13660380
L75969904 12660380
L76350857 12660380
L76446095 12708000
L76493714 12755619
L76541333 12850857
L76541333 12993714
L76493714 13088952
L76446095 13136571
L76350857 13184190
L75969904 13184190
" />
<path d="M76922285 12755619
L76969904 12708000
L77065142 12660380
L77303238 12660380
L77398476 12708000
L77446095 12755619
L77493714 12850857
L77493714 12946095
L77446095 13088952
L76874666 13660380
L77493714 13660380
" />
</g><text x="97864000.000000" y="17272000.000000"
textLength="3242619.000000" font-size="1333333.000000" lengthAdjust="spacingAndGlyphs"
text-anchor="middle" opacity="0">SW3</text>
<g class="stroked-text"><desc>SW3</desc>
<path d="M96530666 17176761
L96673523 17224380
L96911619 17224380
L97006857 17176761
L97054476 17129142
L97102095 17033904
L97102095 16938666
L97054476 16843428
L97006857 16795809
L96911619 16748190
L96721142 16700571
L96625904 16652952
L96578285 16605333
L96530666 16510095
L96530666 16414857
L96578285 16319619
L96625904 16272000
L96721142 16224380
L96959238 16224380
L97102095 16272000
" />
<path d="M97435428 16224380
L97673523 17224380
L97864000 16510095
L98054476 17224380
L98292571 16224380
" />
<path d="M98578285 16224380
L99197333 16224380
L98864000 16605333
L99006857 16605333
L99102095 16652952
L99149714 16700571
L99197333 16795809
L99197333 17033904
L99149714 17129142
L99102095 17176761
L99006857 17224380
L98721142 17224380
L98625904 17176761
L98578285 17129142
" />
</g><text x="96758000.000000" y="37584000.000000"
textLength="2147381.000000" font-size="1333333.000000" lengthAdjust="spacingAndGlyphs"
text-anchor="middle" opacity="0">C4</text>
<g class="stroked-text"><desc>C4</desc>
<path d="M96591333 37441142
L96543714 37488761
L96400857 37536380
L96305619 37536380
L96162761 37488761
L96067523 37393523
L96019904 37298285
L95972285 37107809
L95972285 36964952
L96019904 36774476
L96067523 36679238
L96162761 36584000
L96305619 36536380
L96400857 36536380
L96543714 36584000
L96591333 36631619
" />
<path d="M97448476 36869714
L97448476 37536380
" />
<path d="M97210380 36488761
L96972285 37203047
L97591333 37203047
" />
</g><text x="37864000.000000" y="76218000.000000"
textLength="3242619.000000" font-size="1333333.000000" lengthAdjust="spacingAndGlyphs"
text-anchor="middle" opacity="0">SW5</text>
<g class="stroked-text"><desc>SW5</desc>
<path d="M36530666 76122761
L36673523 76170380
L36911619 76170380
L37006857 76122761
L37054476 76075142
L37102095 75979904
L37102095 75884666
L37054476 75789428
L37006857 75741809
L36911619 75694190
L36721142 75646571
L36625904 75598952
L36578285 75551333
L36530666 75456095
L36530666 75360857
L36578285 75265619
L36625904 75218000
L36721142 75170380
L36959238 75170380
L37102095 75218000
" />
<path d="M37435428 75170380
L37673523 76170380
L37864000 75456095
L38054476 76170380
L38292571 75170380
" />
<path d="M39149714 75170380
L38673523 75170380
L38625904 75646571
L38673523 75598952
L38768761 75551333
L39006857 75551333
L39102095 75598952
L39149714 75646571
L39197333 75741809
L39197333 75979904
L39149714 76075142
L39102095 76122761
L39006857 76170380
L38768761 76170380
L38673523 76122761
L38625904 76075142
" />
</g><text x="47244000.000000" y="72890000.000000"
textLength="2147381.000000" font-size="1333333.000000" lengthAdjust="spacingAndGlyphs"
text-anchor="middle" opacity="0">R9</text>
<g class="stroked-text"><desc>R9</desc>
<path d="M47077333 72842380
L46744000 72366190
" />
<path d="M46505904 72842380
L46505904 71842380
L46886857 71842380
L46982095 71890000
L47029714 71937619
L47077333 72032857
L47077333 72175714
L47029714 72270952
L46982095 72318571
L46886857 72366190
L46505904 72366190
" />
<path d="M47553523 72842380
L47744000 72842380
L47839238 72794761
L47886857 72747142
L47982095 72604285
L48029714 72413809
L48029714 72032857
L47982095 71937619
L47934476 71890000
L47839238 71842380
L47648761 71842380
L47553523 71890000
L47505904 71937619
L47458285 72032857
L47458285 72270952
L47505904 72366190
L47553523 72413809
L47648761 72461428
L47839238 72461428
L47934476 72413809
L47982095 72366190
L48029714 72270952
" />
</g><text x="56777857.000000" y="34695400.000000"
textLength="2147381.000000" font-size="1333333.000000" lengthAdjust="spacingAndGlyphs"
text-anchor="middle" opacity="0">C6</text>
<g class="stroked-text"><desc>C6</desc>
<path d="M56611190 34552542
L56563571 34600161
L56420714 34647780
L56325476 34647780
L56182618 34600161
L56087380 34504923
L56039761 34409685
L55992142 34219209
L55992142 34076352
L56039761 33885876
L56087380 33790638
L56182618 33695400
L56325476 33647780
L56420714 33647780
L56563571 33695400
L56611190 33743019
" />
<path d="M57468333 33647780
L57277857 33647780
L57182618 33695400
L57134999 33743019
L57039761 33885876
L56992142 34076352
L56992142 34457304
L57039761 34552542
L57087380 34600161
L57182618 34647780
L57373095 34647780
L57468333 34600161
L57515952 34552542
L57563571 34457304
L57563571 34219209
L57515952 34123971
L57468333 34076352
L57373095 34028733
L57182618 34028733
L57087380 34076352
L57039761 34123971
L56992142 34219209
" />
</g><text x="67864000.000000" y="76218000.000000"
textLength="3242619.000000" font-size="1333333.000000" lengthAdjust="spacingAndGlyphs"
text-anchor="middle" opacity="0">SW6</text>
<g class="stroked-text"><desc>SW6</desc>
<path d="M66530666 76122761
L66673523 76170380
L66911619 76170380
L67006857 76122761
L67054476 76075142
L67102095 75979904
L67102095 75884666
L67054476 75789428
L67006857 75741809
L66911619 75694190
L66721142 75646571
L66625904 75598952
L66578285 75551333
L66530666 75456095
L66530666 75360857
L66578285 75265619
L66625904 75218000
L66721142 75170380
L66959238 75170380
L67102095 75218000
" />
<path d="M67435428 75170380
L67673523 76170380
L67864000 75456095
L68054476 76170380
L68292571 75170380
" />
<path d="M69102095 75170380
L68911619 75170380
L68816380 75218000
L68768761 75265619
L68673523 75408476
L68625904 75598952
L68625904 75979904
L68673523 76075142
L68721142 76122761
L68816380 76170380
L69006857 76170380
L69102095 76122761
L69149714 76075142
L69197333 75979904
L69197333 75741809
L69149714 75646571
L69102095 75598952
L69006857 75551333
L68816380 75551333
L68721142 75598952
L68673523 75646571
L68625904 75741809
" />
</g><text x="67864000.000000" y="46218000.000000"
textLength="3242619.000000" font-size="1333333.000000" lengthAdjust="spacingAndGlyphs"
text-anchor="middle" opacity="0">SW4</text>
<g class="stroked-text"><desc>SW4</desc>
<path d="M66530666 46122761
L66673523 46170380
L66911619 46170380
L67006857 46122761
L67054476 46075142
L67102095 45979904
L67102095 45884666
L67054476 45789428
L67006857 45741809
L66911619 45694190
L66721142 45646571
L66625904 45598952
L66578285 45551333
L66530666 45456095
L66530666 45360857
L66578285 45265619
L66625904 45218000
L66721142 45170380
L66959238 45170380
L67102095 45218000
" />
<path d="M67435428 45170380
L67673523 46170380
L67864000 45456095
L68054476 46170380
L68292571 45170380
" />
<path d="M69102095 45503714
L69102095 46170380
" />
<path d="M68864000 45122761
L68625904 45837047
L69244952 45837047
" />
</g><text x="37356000.000000" y="17010000.000000"
textLength="3242619.000000" font-size="1333333.000000" lengthAdjust="spacingAndGlyphs"
text-anchor="middle" opacity="0">SW1</text>
<g class="stroked-text"><desc>SW1</desc>
<path d="M36022666 16914761
L36165523 16962380
L36403619 16962380
L36498857 16914761
L36546476 16867142
L36594095 16771904
L36594095 16676666
L36546476 16581428
L36498857 16533809
L36403619 16486190
L36213142 16438571
L36117904 16390952
L36070285 16343333
L36022666 16248095
L36022666 16152857
L36070285 16057619
L36117904 16010000
L36213142 15962380
L36451238 15962380
L36594095 16010000
" />
<path d="M36927428 15962380
L37165523 16962380
L37356000 16248095
L37546476 16962380
L37784571 15962380
" />
<path d="M38689333 16962380
L38117904 16962380
" />
<path d="M38403619 16962380
L38403619 15962380
L38308380 16105238
L38213142 16200476
L38117904 16248095
" />
</g><text x="106934000.000000" y="72636000.000000"
textLength="3099762.000000" font-size="1333333.000000" lengthAdjust="spacingAndGlyphs"
text-anchor="middle" opacity="0">R11</text>
<g class="stroked-text"><desc>R11</desc>
<path d="M106291142 72588380
L105957809 72112190
" />
<path d="M105719714 72588380
L105719714 71588380
L106100666 71588380
L106195904 71636000
L106243523 71683619
L106291142 71778857
L106291142 71921714
L106243523 72016952
L106195904 72064571
L106100666 72112190
L105719714 72112190
" />
<path d="M107243523 72588380
L106672095 72588380
" />
<path d="M106957809 72588380
L106957809 71588380
L106862571 71731238
L106767333 71826476
L106672095 71874095
" />
<path d="M108195904 72588380
L107624476 72588380
" />
<path d="M107910190 72588380
L107910190 71588380
L107814952 71731238
L107719714 71826476
L107624476 71874095
" />
</g><text x="97864000.000000" y="76218000.000000"
textLength="3242619.000000" font-size="1333333.000000" lengthAdjust="spacingAndGlyphs"
text-anchor="middle" opacity="0">SW7</text>
<g class="stroked-text"><desc>SW7</desc>
<path d="M96530666 76122761
L96673523 76170380
L96911619 76170380
L97006857 76122761
L97054476 76075142
L97102095 75979904
L97102095 75884666
L97054476 75789428
L97006857 75741809
L96911619 75694190
L96721142 75646571
L96625904 75598952
L96578285 75551333
L96530666 75456095
L96530666 75360857
L96578285 75265619
L96625904 75218000
L96721142 75170380
L96959238 75170380
L97102095 75218000
" />
<path d="M97435428 75170380
L97673523 76170380
L97864000 75456095
L98054476 76170380
L98292571 75170380
" />
<path d="M98578285 75170380
L99244952 75170380
L98816380 76170380
" />
</g><text x="64516000.000000" y="11558000.000000"
textLength="2147381.000000" font-size="1333333.000000" lengthAdjust="spacingAndGlyphs"
text-anchor="middle" opacity="0">C2</text>
<g class="stroked-text"><desc>C2</desc>
<path d="M64349333 11415142
L64301714 11462761
L64158857 11510380
L64063619 11510380
L63920761 11462761
L63825523 11367523
L63777904 11272285
L63730285 11081809
L63730285 10938952
L63777904 10748476
L63825523 10653238
L63920761 10558000
L64063619 10510380
L64158857 10510380
L64301714 10558000
L64349333 10605619
" />
<path d="M64730285 10605619
L64777904 10558000
L64873142 10510380
L65111238 10510380
L65206476 10558000
L65254095 10605619
L65301714 10700857
L65301714 10796095
L65254095 10938952
L64682666 11510380
L65301714 11510380
" />
</g><text x="47244000.000000" y="13708000.000000"
textLength="2147381.000000" font-size="1333333.000000" lengthAdjust="spacingAndGlyphs"
text-anchor="middle" opacity="0">R1</text>
<g class="stroked-text"><desc>R1</desc>
<path d="M47077333 13660380
L46744000 13184190
" />
<path d="M46505904 13660380
L46505904 12660380
L46886857 12660380
L46982095 12708000
L47029714 12755619
L47077333 12850857
L47077333 12993714
L47029714 13088952
L46982095 13136571
L46886857 13184190
L46505904 13184190
" />
<path d="M48029714 13660380
L47458285 13660380
" />
<path d="M47744000 13660380
L47744000 12660380
L47648761 12803238
L47553523 12898476
L47458285 12946095
" />
</g><text x="38608000.000000" y="11812000.000000"
textLength="2147381.000000" font-size="1333333.000000" lengthAdjust="spacingAndGlyphs"
text-anchor="middle" opacity="0">C1</text>
<g class="stroked-text"><desc>C1</desc>
<path d="M38441333 11669142
L38393714 11716761
L38250857 11764380
L38155619 11764380
L38012761 11716761
L37917523 11621523
L37869904 11526285
L37822285 11335809
L37822285 11192952
L37869904 11002476
L37917523 10907238
L38012761 10812000
L38155619 10764380
L38250857 10764380
L38393714 10812000
L38441333 10859619
" />
<path d="M39393714 11764380
L38822285 11764380
" />
<path d="M39108000 11764380
L39108000 10764380
L39012761 10907238
L38917523 11002476
L38822285 11050095
" />
</g><text x="64389000.000000" y="38698000.000000"
textLength="2147381.000000" font-size="1333333.000000" lengthAdjust="spacingAndGlyphs"
text-anchor="middle" opacity="0">C5</text>
<g class="stroked-text"><desc>C5</desc>
<path d="M64222333 38555142
L64174714 38602761
L64031857 38650380
L63936619 38650380
L63793761 38602761
L63698523 38507523
L63650904 38412285
L63603285 38221809
L63603285 38078952
L63650904 37888476
L63698523 37793238
L63793761 37698000
L63936619 37650380
L64031857 37650380
L64174714 37698000
L64222333 37745619
" />
<path d="M65127095 37650380
L64650904 37650380
L64603285 38126571
L64650904 38078952
L64746142 38031333
L64984238 38031333
L65079476 38078952
L65127095 38126571
L65174714 38221809
L65174714 38459904
L65127095 38555142
L65079476 38602761
L64984238 38650380
L64746142 38650380
L64650904 38602761
L64603285 38555142
" />
</g><text x="96504000.000000" y="33774000.000000"
textLength="2147381.000000" font-size="1333333.000000" lengthAdjust="spacingAndGlyphs"
text-anchor="middle" opacity="0">R8</text>
<g class="stroked-text"><desc>R8</desc>
<path d="M96337333 33726380
L96004000 33250190
" />
<path d="M95765904 33726380
L95765904 32726380
L96146857 32726380
L96242095 32774000
L96289714 32821619
L96337333 32916857
L96337333 33059714
L96289714 33154952
L96242095 33202571
L96146857 33250190
L95765904 33250190
" />
<path d="M96908761 33154952
L96813523 33107333
L96765904 33059714
L96718285 32964476
L96718285 32916857
L96765904 32821619
L96813523 32774000
L96908761 32726380
L97099238 32726380
L97194476 32774000
L97242095 32821619
L97289714 32916857
L97289714 32964476
L97242095 33059714
L97194476 33107333
L97099238 33154952
L96908761 33154952
L96813523 33202571
L96765904 33250190
L96718285 33345428
L96718285 33535904
L96765904 33631142
L96813523 33678761
L96908761 33726380
L97099238 33726380
L97194476 33678761
L97242095 33631142
L97289714 33535904
L97289714 33345428
L97242095 33250190
L97194476 33202571
L97099238 33154952
" />
</g><text x="94488000.000000" y="68924000.000000"
textLength="3099762.000000" font-size="1333333.000000" lengthAdjust="spacingAndGlyphs"
text-anchor="middle" opacity="0">C10</text>
<g class="stroked-text"><desc>C10</desc>
<path d="M93845142 68781142
L93797523 68828761
L93654666 68876380
L93559428 68876380
L93416571 68828761
L93321333 68733523
L93273714 68638285
L93226095 68447809
L93226095 68304952
L93273714 68114476
L93321333 68019238
L93416571 67924000
L93559428 67876380
L93654666 67876380
L93797523 67924000
L93845142 67971619
" />
<path d="M94797523 68876380
L94226095 68876380
" />
<path d="M94511809 68876380
L94511809 67876380
L94416571 68019238
L94321333 68114476
L94226095 68162095
" />
<path d="M95416571 67876380
L95511809 67876380
L95607047 67924000
L95654666 67971619
L95702285 68066857
L95749904 68257333
L95749904 68495428
L95702285 68685904
L95654666 68781142
L95607047 68828761
L95511809 68876380
L95416571 68876380
L95321333 68828761
L95273714 68781142
L95226095 68685904
L95178476 68495428
L95178476 68257333
L95226095 68066857
L95273714 67971619
L95321333 67924000
L95416571 67876380
" />
</g><text x="67864000.000000" y="17272000.000000"
textLength="3242619.000000" font-size="1333333.000000" lengthAdjust="spacingAndGlyphs"
text-anchor="middle" opacity="0">SW2</text>
<g class="stroked-text"><desc>SW2</desc>
<path d="M66530666 17176761
L66673523 17224380
L66911619 17224380
L67006857 17176761
L67054476 17129142
L67102095 17033904
L67102095 16938666
L67054476 16843428
L67006857 16795809
L66911619 16748190
L66721142 16700571
L66625904 16652952
L66578285 16605333
L66530666 16510095
L66530666 16414857
L66578285 16319619
L66625904 16272000
L66721142 16224380
L66959238 16224380
L67102095 16272000
" />
<path d="M67435428 16224380
L67673523 17224380
L67864000 16510095
L68054476 17224380
L68292571 16224380
" />
<path d="M68625904 16319619
L68673523 16272000
L68768761 16224380
L69006857 16224380
L69102095 16272000
L69149714 16319619
L69197333 16414857
L69197333 16510095
L69149714 16652952
L68578285 17224380
L69197333 17224380
" />
</g><text x="105918000.000000" y="106553000.000000"
textLength="195000.000000" font-size="1693333.000000" lengthAdjust="spacingAndGlyphs"
text-anchor="middle" opacity="0"></text>
<g class="stroked-text"><desc></desc>
</g><text x="105918000.000000" y="106553000.000000"
textLength="150000.000000" font-size="1693333.000000" lengthAdjust="spacingAndGlyphs"
text-anchor="middle" opacity="0"></text>
<g class="stroked-text"><desc></desc>
</g><text x="105918000.000000" y="10795000.000000"
textLength="150000.000000" font-size="1693333.000000" lengthAdjust="spacingAndGlyphs"
text-anchor="middle" opacity="0"></text>
<g class="stroked-text"><desc></desc>
</g><text x="105918000.000000" y="10795000.000000"
textLength="150000.000000" font-size="1693333.000000" lengthAdjust="spacingAndGlyphs"
text-anchor="middle" opacity="0"></text>
<g class="stroked-text"><desc></desc>
</g><text x="74168000.000000" y="102354000.000000"
textLength="3054762.000000" font-size="1333333.000000" lengthAdjust="spacingAndGlyphs"
text-anchor="middle" opacity="0">R13</text>
<g class="stroked-text"><desc>R13</desc>
<path d="M73525142 102306380
L73191809 101830190
" />
<path d="M72953714 102306380
L72953714 101306380
L73334666 101306380
L73429904 101354000
L73477523 101401619
L73525142 101496857
L73525142 101639714
L73477523 101734952
L73429904 101782571
L73334666 101830190
L72953714 101830190
" />
<path d="M74477523 102306380
L73906095 102306380
" />
<path d="M74191809 102306380
L74191809 101306380
L74096571 101449238
L74001333 101544476
L73906095 101592095
" />
<path d="M74810857 101306380
L75429904 101306380
L75096571 101687333
L75239428 101687333
L75334666 101734952
L75382285 101782571
L75429904 101877809
L75429904 102115904
L75382285 102211142
L75334666 102258761
L75239428 102306380
L74953714 102306380
L74858476 102258761
L74810857 102211142
" />
</g><text x="76708000.000000" y="42664000.000000"
textLength="2147381.000000" font-size="1333333.000000" lengthAdjust="spacingAndGlyphs"
text-anchor="middle" opacity="0">R7</text>
<g class="stroked-text"><desc>R7</desc>
<path d="M76541333 42616380
L76208000 42140190
" />
<path d="M75969904 42616380
L75969904 41616380
L76350857 41616380
L76446095 41664000
L76493714 41711619
L76541333 41806857
L76541333 41949714
L76493714 42044952
L76446095 42092571
L76350857 42140190
L75969904 42140190
" />
<path d="M76874666 41616380
L77541333 41616380
L77112761 42616380
" />
</g><text x="94234000.000000" y="11558000.000000"
textLength="2147381.000000" font-size="1333333.000000" lengthAdjust="spacingAndGlyphs"
text-anchor="middle" opacity="0">C3</text>
<g class="stroked-text"><desc>C3</desc>
<path d="M94067333 11415142
L94019714 11462761
L93876857 11510380
L93781619 11510380
L93638761 11462761
L93543523 11367523
L93495904 11272285
L93448285 11081809
L93448285 10938952
L93495904 10748476
L93543523 10653238
L93638761 10558000
L93781619 10510380
L93876857 10510380
L94019714 10558000
L94067333 10605619
" />
<path d="M94400666 10510380
L95019714 10510380
L94686380 10891333
L94829238 10891333
L94924476 10938952
L94972095 10986571
L95019714 11081809
L95019714 11319904
L94972095 11415142
L94924476 11462761
L94829238 11510380
L94543523 11510380
L94448285 11462761
L94400666 11415142
" />
</g><text x="108584000.000000" y="15486000.000000"
textLength="2147381.000000" font-size="1333333.000000" lengthAdjust="spacingAndGlyphs"
text-anchor="middle" opacity="0">R3</text>
<g class="stroked-text"><desc>R3</desc>
<path d="M108417333 15438380
L108084000 14962190
" />
<path d="M107845904 15438380
L107845904 14438380
L108226857 14438380
L108322095 14486000
L108369714 14533619
L108417333 14628857
L108417333 14771714
L108369714 14866952
L108322095 14914571
L108226857 14962190
L107845904 14962190
" />
<path d="M108750666 14438380
L109369714 14438380
L109036380 14819333
L109179238 14819333
L109274476 14866952
L109322095 14914571
L109369714 15009809
L109369714 15247904
L109322095 15343142
L109274476 15390761
L109179238 15438380
L108893523 15438380
L108798285 15390761
L108750666 15343142
" />
</g><text x="96266000.000000" y="53586000.000000"
textLength="3099762.000000" font-size="1333333.000000" lengthAdjust="spacingAndGlyphs"
text-anchor="middle" opacity="0">R14</text>
<g class="stroked-text"><desc>R14</desc>
<path d="M95623142 53538380
L95289809 53062190
" />
<path d="M95051714 53538380
L95051714 52538380
L95432666 52538380
L95527904 52586000
L95575523 52633619
L95623142 52728857
L95623142 52871714
L95575523 52966952
L95527904 53014571
L95432666 53062190
L95051714 53062190
" />
<path d="M96575523 53538380
L96004095 53538380
" />
<path d="M96289809 53538380
L96289809 52538380
L96194571 52681238
L96099333 52776476
L96004095 52824095
" />
<path d="M97432666 52871714
L97432666 53538380
" />
<path d="M97194571 52490761
L96956476 53205047
L97575523 53205047
" />
</g><text x="47498000.000000" y="34536000.000000"
textLength="2147381.000000" font-size="1333333.000000" lengthAdjust="spacingAndGlyphs"
text-anchor="middle" opacity="0">R6</text>
<g class="stroked-text"><desc>R6</desc>
<path d="M47331333 34488380
L46998000 34012190
" />
<path d="M46759904 34488380
L46759904 33488380
L47140857 33488380
L47236095 33536000
L47283714 33583619
L47331333 33678857
L47331333 33821714
L47283714 33916952
L47236095 33964571
L47140857 34012190
L46759904 34012190
" />
<path d="M48188476 33488380
L47998000 33488380
L47902761 33536000
L47855142 33583619
L47759904 33726476
L47712285 33916952
L47712285 34297904
L47759904 34393142
L47807523 34440761
L47902761 34488380
L48093238 34488380
L48188476 34440761
L48236095 34393142
L48283714 34297904
L48283714 34059809
L48236095 33964571
L48188476 33916952
L48093238 33869333
L47902761 33869333
L47807523 33916952
L47759904 33964571
L47712285 34059809
" />
</g><text x="31750000.000000" y="10795000.000000"
textLength="195000.000000" font-size="1693333.000000" lengthAdjust="spacingAndGlyphs"
text-anchor="middle" opacity="0"></text>
<g class="stroked-text"><desc></desc>
</g><text x="31750000.000000" y="10795000.000000"
textLength="150000.000000" font-size="1693333.000000" lengthAdjust="spacingAndGlyphs"
text-anchor="middle" opacity="0"></text>
<g class="stroked-text"><desc></desc>
</g><text x="67864000.000000" y="106218000.000000"
textLength="3197619.000000" font-size="1333333.000000" lengthAdjust="spacingAndGlyphs"
text-anchor="middle" opacity="0">SW8</text>
<g class="stroked-text"><desc>SW8</desc>
<path d="M66530666 106122761
L66673523 106170380
L66911619 106170380
L67006857 106122761
L67054476 106075142
L67102095 105979904
L67102095 105884666
L67054476 105789428
L67006857 105741809
L66911619 105694190
L66721142 105646571
L66625904 105598952
L66578285 105551333
L66530666 105456095
L66530666 105360857
L66578285 105265619
L66625904 105218000
L66721142 105170380
L66959238 105170380
L67102095 105218000
" />
<path d="M67435428 105170380
L67673523 106170380
L67864000 105456095
L68054476 106170380
L68292571 105170380
" />
<path d="M68816380 105598952
L68721142 105551333
L68673523 105503714
L68625904 105408476
L68625904 105360857
L68673523 105265619
L68721142 105218000
L68816380 105170380
L69006857 105170380
L69102095 105218000
L69149714 105265619
L69197333 105360857
L69197333 105408476
L69149714 105503714
L69102095 105551333
L69006857 105598952
L68816380 105598952
L68721142 105646571
L68673523 105694190
L68625904 105789428
L68625904 105979904
L68673523 106075142
L68721142 106122761
L68816380 106170380
L69006857 106170380
L69102095 106122761
L69149714 106075142
L69197333 105979904
L69197333 105789428
L69149714 105694190
L69102095 105646571
L69006857 105598952
" />
</g><text x="96250000.000000" y="44188000.000000"
textLength="3099762.000000" font-size="1333333.000000" lengthAdjust="spacingAndGlyphs"
text-anchor="middle" opacity="0">R12</text>
<g class="stroked-text"><desc>R12</desc>
<path d="M95607142 44140380
L95273809 43664190
" />
<path d="M95035714 44140380
L95035714 43140380
L95416666 43140380
L95511904 43188000
L95559523 43235619
L95607142 43330857
L95607142 43473714
L95559523 43568952
L95511904 43616571
L95416666 43664190
L95035714 43664190
" />
<path d="M96559523 44140380
L95988095 44140380
" />
<path d="M96273809 44140380
L96273809 43140380
L96178571 43283238
L96083333 43378476
L95988095 43426095
" />
<path d="M96940476 43235619
L96988095 43188000
L97083333 43140380
L97321428 43140380
L97416666 43188000
L97464285 43235619
L97511904 43330857
L97511904 43426095
L97464285 43568952
L96892857 44140380
L97511904 44140380
" />
</g><text x="96282000.000000" y="57396000.000000"
textLength="3099762.000000" font-size="1333333.000000" lengthAdjust="spacingAndGlyphs"
text-anchor="middle" opacity="0">C11</text>
<g class="stroked-text"><desc>C11</desc>
<path d="M95639142 57253142
L95591523 57300761
L95448666 57348380
L95353428 57348380
L95210571 57300761
L95115333 57205523
L95067714 57110285
L95020095 56919809
L95020095 56776952
L95067714 56586476
L95115333 56491238
L95210571 56396000
L95353428 56348380
L95448666 56348380
L95591523 56396000
L95639142 56443619
" />
<path d="M96591523 57348380
L96020095 57348380
" />
<path d="M96305809 57348380
L96305809 56348380
L96210571 56491238
L96115333 56586476
L96020095 56634095
" />
<path d="M97543904 57348380
L96972476 57348380
" />
<path d="M97258190 57348380
L97258190 56348380
L97162952 56491238
L97067714 56586476
L96972476 56634095
" />
</g><text x="96504000.000000" y="47490000.000000"
textLength="2147381.000000" font-size="1333333.000000" lengthAdjust="spacingAndGlyphs"
text-anchor="middle" opacity="0">C7</text>
<g class="stroked-text"><desc>C7</desc>
<path d="M96337333 47347142
L96289714 47394761
L96146857 47442380
L96051619 47442380
L95908761 47394761
L95813523 47299523
L95765904 47204285
L95718285 47013809
L95718285 46870952
L95765904 46680476
L95813523 46585238
L95908761 46490000
L96051619 46442380
L96146857 46442380
L96289714 46490000
L96337333 46537619
" />
<path d="M96670666 46442380
L97337333 46442380
L96908761 47442380
" />
</g><text x="64389000.000000" y="98896000.000000"
textLength="3099762.000000" font-size="1333333.000000" lengthAdjust="spacingAndGlyphs"
text-anchor="middle" opacity="0">C12</text>
<g class="stroked-text"><desc>C12</desc>
<path d="M63746142 98753142
L63698523 98800761
L63555666 98848380
L63460428 98848380
L63317571 98800761
L63222333 98705523
L63174714 98610285
L63127095 98419809
L63127095 98276952
L63174714 98086476
L63222333 97991238
L63317571 97896000
L63460428 97848380
L63555666 97848380
L63698523 97896000
L63746142 97943619
" />
<path d="M64698523 98848380
L64127095 98848380
" />
<path d="M64412809 98848380
L64412809 97848380
L64317571 97991238
L64222333 98086476
L64127095 98134095
" />
<path d="M65079476 97943619
L65127095 97896000
L65222333 97848380
L65460428 97848380
L65555666 97896000
L65603285 97943619
L65650904 98038857
L65650904 98134095
L65603285 98276952
L65031857 98848380
L65650904 98848380
" />
</g><text x="64516000.000000" y="68924000.000000"
textLength="2147381.000000" font-size="1333333.000000" lengthAdjust="spacingAndGlyphs"
text-anchor="middle" opacity="0">C9</text>
<g class="stroked-text"><desc>C9</desc>
<path d="M64349333 68781142
L64301714 68828761
L64158857 68876380
L64063619 68876380
L63920761 68828761
L63825523 68733523
L63777904 68638285
L63730285 68447809
L63730285 68304952
L63777904 68114476
L63825523 68019238
L63920761 67924000
L64063619 67876380
L64158857 67876380
L64301714 67924000
L64349333 67971619
" />
<path d="M64825523 68876380
L65016000 68876380
L65111238 68828761
L65158857 68781142
L65254095 68638285
L65301714 68447809
L65301714 68066857
L65254095 67971619
L65206476 67924000
L65111238 67876380
L64920761 67876380
L64825523 67924000
L64777904 67971619
L64730285 68066857
L64730285 68304952
L64777904 68400190
L64825523 68447809
L64920761 68495428
L65111238 68495428
L65206476 68447809
L65254095 68400190
L65301714 68304952
" />
</g><text x="50620666.000000" y="34790000.000000"
textLength="2147381.000000" font-size="1333333.000000" lengthAdjust="spacingAndGlyphs"
text-anchor="middle" opacity="0">R4</text>
<g class="stroked-text"><desc>R4</desc>
<path d="M50453999 34742380
L50120666 34266190
" />
<path d="M49882570 34742380
L49882570 33742380
L50263523 33742380
L50358761 33790000
L50406380 33837619
L50453999 33932857
L50453999 34075714
L50406380 34170952
L50358761 34218571
L50263523 34266190
L49882570 34266190
" />
<path d="M51311142 34075714
L51311142 34742380
" />
<path d="M51073046 33694761
L50834951 34409047
L51453999 34409047
" />
</g><text x="53997332.000000" y="34790000.000000"
textLength="2147381.000000" font-size="1333333.000000" lengthAdjust="spacingAndGlyphs"
text-anchor="middle" opacity="0">R5</text>
<g class="stroked-text"><desc>R5</desc>
<path d="M53830665 34742380
L53497332 34266190
" />
<path d="M53259236 34742380
L53259236 33742380
L53640189 33742380
L53735427 33790000
L53783046 33837619
L53830665 33932857
L53830665 34075714
L53783046 34170952
L53735427 34218571
L53640189 34266190
L53259236 34266190
" />
<path d="M54735427 33742380
L54259236 33742380
L54211617 34218571
L54259236 34170952
L54354474 34123333
L54592570 34123333
L54687808 34170952
L54735427 34218571
L54783046 34313809
L54783046 34551904
L54735427 34647142
L54687808 34694761
L54592570 34742380
L54354474 34742380
L54259236 34694761
L54211617 34647142
" />
</g><text x="52578000.000000" y="40110000.000000"
textLength="2195000.000000" font-size="1333333.000000" lengthAdjust="spacingAndGlyphs"
text-anchor="middle" opacity="0">U1</text>
<g class="stroked-text"><desc>U1</desc>
<path d="M51816095 39062380
L51816095 39871904
L51863714 39967142
L51911333 40014761
L52006571 40062380
L52197047 40062380
L52292285 40014761
L52339904 39967142
L52387523 39871904
L52387523 39062380
" />
<path d="M53387523 40062380
L52816095 40062380
" />
<path d="M53101809 40062380
L53101809 39062380
L53006571 39205238
L52911333 39300476
L52816095 39348095
" />
</g></g>
<g style="fill:#000000; fill-opacity:0.0; 
stroke:#000000; stroke-width:120000.000000; stroke-opacity:1; 
stroke-linecap:round; stroke-linejoin:round;">
<path d="M75973000 74702936
L75973000 75157064
" />
<path d="M77443000 74702936
L77443000 75157064
" />
<path d="M34282748 70839000
L34805252 70839000
" />
<path d="M34282748 69369000
L34805252 69369000
" />
<path d="M77443000 15812936
L77443000 16267064
" />
<path d="M75973000 15812936
L75973000 16267064
" />
<path d="M94864000 14272000
L100864000 14272000
" />
<path d="M100864000 14272000
L100864000 20272000
" />
<path d="M100864000 20272000
L94864000 20272000
" />
<path d="M94864000 20272000
L94864000 14272000
" />
<path d="M99813252 36095000
L99290748 36095000
" />
<path d="M99813252 37565000
L99290748 37565000
" />
<path d="M34864000 73218000
L40864000 73218000
" />
<path d="M40864000 73218000
L40864000 79218000
" />
<path d="M40864000 79218000
L34864000 79218000
" />
<path d="M34864000 79218000
L34864000 73218000
" />
<path d="M46509000 74956936
L46509000 75411064
" />
<path d="M47979000 74956936
L47979000 75411064
" />
<path d="M57786605 35238400
L58309109 35238400
" />
<path d="M57786605 36708400
L58309109 36708400
" />
<path d="M64864000 73218000
L70864000 73218000
" />
<path d="M70864000 73218000
L70864000 79218000
" />
<path d="M70864000 79218000
L64864000 79218000
" />
<path d="M64864000 79218000
L64864000 73218000
" />
<path d="M64864000 43218000
L70864000 43218000
" />
<path d="M70864000 43218000
L70864000 49218000
" />
<path d="M70864000 49218000
L64864000 49218000
" />
<path d="M64864000 49218000
L64864000 43218000
" />
<path d="M34864000 14272000
L40864000 14272000
" />
<path d="M40864000 14272000
L40864000 20272000
" />
<path d="M40864000 20272000
L34864000 20272000
" />
<path d="M34864000 20272000
L34864000 14272000
" />
<path d="M107669000 74702936
L107669000 75157064
" />
<path d="M106199000 74702936
L106199000 75157064
" />
<path d="M94864000 73218000
L100864000 73218000
" />
<path d="M100864000 73218000
L100864000 79218000
" />
<path d="M100864000 79218000
L94864000 79218000
" />
<path d="M94864000 79218000
L94864000 73218000
" />
<path d="M64254748 12003000
L64777252 12003000
" />
<path d="M64254748 13473000
L64777252 13473000
" />
<path d="M46509000 15812936
L46509000 16267064
" />
<path d="M47979000 15812936
L47979000 16267064
" />
<path d="M38346748 13727000
L38869252 13727000
" />
<path d="M38346748 12257000
L38869252 12257000
" />
<path d="M64127748 40613000
L64650252 40613000
" />
<path d="M64127748 39143000
L64650252 39143000
" />
<path d="M99779064 32539000
L99324936 32539000
" />
<path d="M99779064 34009000
L99324936 34009000
" />
<path d="M94226748 69369000
L94749252 69369000
" />
<path d="M94226748 70839000
L94749252 70839000
" />
<path d="M64864000 14272000
L70864000 14272000
" />
<path d="M70864000 14272000
L70864000 20272000
" />
<path d="M70864000 20272000
L64864000 20272000
" />
<path d="M64864000 20272000
L64864000 14272000
" />
<path d="M77443000 103097064
L77443000 102642936
" />
<path d="M75973000 103097064
L75973000 102642936
" />
<path d="M77443000 44730936
L77443000 45185064
" />
<path d="M75973000 44730936
L75973000 45185064
" />
<path d="M93972748 13473000
L94495252 13473000
" />
<path d="M93972748 12003000
L94495252 12003000
" />
<path d="M107669000 15812936
L107669000 16267064
" />
<path d="M106199000 15812936
L106199000 16267064
" />
<path d="M99779064 52351000
L99324936 52351000
" />
<path d="M99779064 53821000
L99324936 53821000
" />
<path d="M46763000 37057064
L46763000 36602936
" />
<path d="M48233000 37057064
L48233000 36602936
" />
<path d="M64864000 103218000
L70864000 103218000
" />
<path d="M70864000 103218000
L70864000 109218000
" />
<path d="M70864000 109218000
L64864000 109218000
" />
<path d="M64864000 109218000
L64864000 103218000
" />
<path d="M99779064 42699000
L99324936 42699000
" />
<path d="M99779064 44169000
L99324936 44169000
" />
<path d="M99829252 55907000
L99306748 55907000
" />
<path d="M99829252 57377000
L99306748 57377000
" />
<path d="M99813252 47471000
L99290748 47471000
" />
<path d="M99813252 46001000
L99290748 46001000
" />
<path d="M64127748 99341000
L64650252 99341000
" />
<path d="M64127748 100811000
L64650252 100811000
" />
<path d="M64254748 69369000
L64777252 69369000
" />
<path d="M64254748 70839000
L64777252 70839000
" />
<path d="M51609666 37057064
L51609666 36602936
" />
<path d="M50139666 37057064
L50139666 36602936
" />
<path d="M54986332 37057064
L54986332 36602936
" />
<path d="M53516332 37057064
L53516332 36602936
" />
<path d="M56438000 56070000
L56438000 55805000
" />
<path d="M48718000 40450000
L48718000 40715000
" />
<path d="M56438000 40450000
L56438000 40715000
" />
<path d="M52578000 56070000
L48718000 56070000
" />
<path d="M52578000 40450000
L56438000 40450000
" />
<path d="M52578000 40450000
L48718000 40450000
" />
<path d="M48718000 40715000
L46903000 40715000
" />
<path d="M48718000 56070000
L48718000 55805000
" />
<path d="M52578000 56070000
L56438000 56070000
" />
<g >
</g>
<g >
</g>
<g >
</g>
<g >
</g>
<g >
</g>
<g >
</g>
<g >
</g>
<g >
</g>
<g >
</g>
<g >
</g>
<g >
</g>
<g >
</g>
<g >
</g>
<g >
</g>
<g >
</g>
<g >
</g>
<g >
</g>
<g >
</g>
<g >
</g>
<g >
</g>
<g >
</g>
<g >
</g>
<g >
</g>
<g >
</g>
<g >
</g>
<g >
</g>
<g >
</g>
<g >
</g>
<g >
</g>
<g >
</g>
<g >
</g>
<g >
</g>
<g >
</g>
<g >
</g>
<g >
</g>
<g >
</g>
<g >
</g>
<g >
</g>
<g >
</g>
<g >
</g>
<g >
</g>
<g >
</g>
<g >
</g>
<g >
</g>
<g >
</g>
<g >
</g>
</g>
<g style="fill:#000000; fill-opacity:0.0; 
stroke:#000000; stroke-width:120000.000000; stroke-opacity:1; 
stroke-linecap:round; stroke-linejoin:round;">
</g>
<g style="fill:#000000; fill-opacity:0.0; 
stroke:#000000; stroke-width:100000.000000; stroke-opacity:1; 
stroke-linecap:round; stroke-linejoin:round;">
<path d="M27432000 6350000
L109728000 6350000
" />
<path d="M109728000 6350000
L109728000 110236000
" />
<path d="M109728000 110236000
L27432000 110236000
" />
<path d="M27432000 110236000
L27432000 6350000
" />
<g >
</g>
<g >
</g>
<g >
</g>
<g >
</g>
<g >
</g>
<g >
</g>
<g >
</g>
<g >
</g>
<g >
</g>
<g >
</g>
<g >
</g>
<g >
</g>
<g >
</g>
<g >
</g>
<g >
</g>
<g >
</g>
<g >
</g>
<g >
</g>
<g >
</g>
<g >
</g>
<g >
</g>
<g >
</g>
<g >
</g>
<g >
</g>
<g >
</g>
<g >
</g>
<g >
</g>
<g >
</g>
<g >
</g>
<g >
</g>
<g >
</g>
<g >
</g>
<g >
</g>
<g >
</g>
<g >
</g>
<g >
</g>
<g >
</g>
<g >
</g>
<g >
</g>
<g >
</g>
<g >
</g>
<g >
</g>
<g >
</g>
<g >
</g>
<g >
</g>
<g >
</g>
</g> 
</svg>
