%TF.GenerationSoftware,KiCad,Pcbnew,(6.0.7)*%
%TF.CreationDate,2023-04-15T21:14:02+02:00*%
%TF.ProjectId,LED board,4c454420-626f-4617-9264-2e6b69636164,rev?*%
%TF.SameCoordinates,Original*%
%TF.FileFunction,Copper,L2,Bot*%
%TF.FilePolarity,Positive*%
%FSLAX46Y46*%
G04 Gerber Fmt 4.6, Leading zero omitted, Abs format (unit mm)*
G04 Created by KiCad (PCBNEW (6.0.7)) date 2023-04-15 21:14:02*
%MOMM*%
%LPD*%
G01*
G04 APERTURE LIST*
%TA.AperFunction,ComponentPad*%
%ADD10C,6.400000*%
%TD*%
%TA.AperFunction,ComponentPad*%
%ADD11R,1.700000X1.700000*%
%TD*%
%TA.AperFunction,ComponentPad*%
%ADD12O,1.700000X1.700000*%
%TD*%
%TA.AperFunction,ViaPad*%
%ADD13C,1.200000*%
%TD*%
%TA.AperFunction,ViaPad*%
%ADD14C,0.800000*%
%TD*%
%TA.AperFunction,Conductor*%
%ADD15C,0.500000*%
%TD*%
G04 APERTURE END LIST*
D10*
%TO.P,,1*%
%TO.N,GND*%
X125730000Y-129032000D03*
%TD*%
D11*
%TO.P,J1,1,Pin_1*%
%TO.N,+5V*%
X120142000Y-79502000D03*
D12*
%TO.P,J1,2,Pin_2*%
%TO.N,GND*%
X120142000Y-82042000D03*
%TO.P,J1,3,Pin_3*%
%TO.N,CS*%
X120142000Y-84582000D03*
%TO.P,J1,4,Pin_4*%
%TO.N,RESET*%
X120142000Y-87122000D03*
%TO.P,J1,5,Pin_5*%
%TO.N,DC{slash}RS*%
X120142000Y-89662000D03*
%TO.P,J1,6,Pin_6*%
%TO.N,MOSI*%
X120142000Y-92202000D03*
%TO.P,J1,7,Pin_7*%
%TO.N,SCK*%
X120142000Y-94742000D03*
%TO.P,J1,8,Pin_8*%
%TO.N,LED_back*%
X120142000Y-97282000D03*
%TO.P,J1,9,Pin_9*%
%TO.N,MISO*%
X120142000Y-99822000D03*
%TO.P,J1,10,Pin_10*%
%TO.N,unconnected-(J1-Pad10)*%
X120142000Y-102362000D03*
%TO.P,J1,11,Pin_11*%
%TO.N,unconnected-(J1-Pad11)*%
X120142000Y-104902000D03*
%TO.P,J1,12,Pin_12*%
%TO.N,unconnected-(J1-Pad12)*%
X120142000Y-107442000D03*
%TO.P,J1,13,Pin_13*%
%TO.N,unconnected-(J1-Pad13)*%
X120142000Y-109982000D03*
%TO.P,J1,14,Pin_14*%
%TO.N,unconnected-(J1-Pad14)*%
X120142000Y-112522000D03*
%TD*%
D11*
%TO.P,J2,1,Pin_1*%
%TO.N,+5V*%
X122174000Y-136906000D03*
D12*
%TO.P,J2,2,Pin_2*%
%TO.N,N_in*%
X122174000Y-139446000D03*
%TO.P,J2,3,Pin_3*%
%TO.N,CS*%
X124714000Y-136906000D03*
%TO.P,J2,4,Pin_4*%
%TO.N,RESET*%
X124714000Y-139446000D03*
%TO.P,J2,5,Pin_5*%
%TO.N,DC{slash}RS*%
X127254000Y-136906000D03*
%TO.P,J2,6,Pin_6*%
%TO.N,LED_back*%
X127254000Y-139446000D03*
%TO.P,J2,7,Pin_7*%
%TO.N,MISO*%
X129794000Y-136906000D03*
%TO.P,J2,8,Pin_8*%
%TO.N,SCK*%
X129794000Y-139446000D03*
%TO.P,J2,9,Pin_9*%
%TO.N,MOSI*%
X132334000Y-136906000D03*
%TO.P,J2,10,Pin_10*%
%TO.N,GND*%
X132334000Y-139446000D03*
%TD*%
D10*
%TO.P,,1*%
%TO.N,GND*%
X212090000Y-145796000D03*
%TD*%
%TO.P,,1*%
%TO.N,GND*%
X121412000Y-71120000D03*
%TD*%
D13*
%TO.N,+5V*%
X137668000Y-134366000D03*
D14*
%TO.N,GND*%
X149606000Y-94742000D03*
X127733615Y-87868829D03*
X172720000Y-145034000D03*
X205740000Y-145288000D03*
X119634000Y-134112000D03*
X141928905Y-125390650D03*
X163568157Y-75966318D03*
X209144609Y-95524716D03*
X118618000Y-146304000D03*
X172001595Y-93730368D03*
X129032000Y-147320000D03*
X128778000Y-103886000D03*
X149352000Y-115062000D03*
X147828000Y-145542000D03*
X125348534Y-109520635D03*
X162814000Y-144526000D03*
X145445237Y-77760666D03*
X122908811Y-147534240D03*
X196596000Y-73914000D03*
X128270000Y-76200000D03*
X165354000Y-87884000D03*
X210938958Y-81528798D03*
X185279774Y-122081074D03*
%TO.N,LED_back*%
X127254000Y-97282000D03*
%TD*%
D15*
%TO.N,+5V*%
X135091000Y-144055000D02*
X137414000Y-141732000D01*
X137414000Y-134620000D02*
X137668000Y-134366000D01*
X122194000Y-144055000D02*
X135091000Y-144055000D01*
X122174000Y-136906000D02*
X122174000Y-136963000D01*
X122174000Y-136963000D02*
X120416000Y-138721000D01*
X137414000Y-141732000D02*
X137414000Y-134620000D01*
X120416000Y-138721000D02*
X120416000Y-142277000D01*
X120416000Y-142277000D02*
X122194000Y-144055000D01*
%TO.N,RESET*%
X126512000Y-143293000D02*
X134386000Y-143293000D01*
X124714000Y-139446000D02*
X124714000Y-141495000D01*
X134386000Y-143293000D02*
X136398000Y-141281000D01*
X124714000Y-141495000D02*
X126512000Y-143293000D01*
X136398000Y-141281000D02*
X136398000Y-103378000D01*
X136398000Y-103378000D02*
X120142000Y-87122000D01*
%TO.N,DC{slash}RS*%
X127254000Y-136906000D02*
X117602000Y-127254000D01*
X117602000Y-127254000D02*
X117602000Y-126746000D01*
X117602000Y-92202000D02*
X120142000Y-89662000D01*
X117602000Y-126746000D02*
X117602000Y-92202000D01*
%TO.N,SCK*%
X129794000Y-141619000D02*
X129794000Y-139446000D01*
X134874000Y-107188000D02*
X134874000Y-140799050D01*
X134874000Y-140799050D02*
X133780050Y-141893000D01*
X130068000Y-141893000D02*
X129794000Y-141619000D01*
X122428000Y-94742000D02*
X134874000Y-107188000D01*
X120142000Y-94742000D02*
X122428000Y-94742000D01*
X133780050Y-141893000D02*
X130068000Y-141893000D01*
%TO.N,LED_back*%
X134070000Y-142593000D02*
X127528000Y-142593000D01*
X135636000Y-105664000D02*
X135636000Y-141027000D01*
X127254000Y-97282000D02*
X135636000Y-105664000D01*
X127528000Y-142593000D02*
X127254000Y-142319000D01*
X127254000Y-142319000D02*
X127254000Y-139446000D01*
X135636000Y-141027000D02*
X134070000Y-142593000D01*
%TD*%
%TA.AperFunction,Conductor*%
%TO.N,GND*%
G36*
X215841621Y-66060502D02*
G01*
X215888114Y-66114158D01*
X215899500Y-66166500D01*
X215899500Y-144729569D01*
X215879498Y-144797690D01*
X215825842Y-144844183D01*
X215755568Y-144854287D01*
X215690988Y-144824793D01*
X215651793Y-144762180D01*
X215622212Y-144651785D01*
X215620171Y-144645502D01*
X215483260Y-144288836D01*
X215480578Y-144282811D01*
X215307128Y-143942397D01*
X215303831Y-143936687D01*
X215095747Y-143616265D01*
X215091877Y-143610939D01*
X214898522Y-143372165D01*
X214886267Y-143363700D01*
X214875176Y-143370034D01*
X212462022Y-145783188D01*
X212454408Y-145797132D01*
X212454539Y-145798965D01*
X212458790Y-145805580D01*
X214874310Y-148221100D01*
X214887386Y-148228241D01*
X214897753Y-148220784D01*
X215091877Y-147981061D01*
X215095747Y-147975735D01*
X215303831Y-147655313D01*
X215307128Y-147649603D01*
X215480578Y-147309189D01*
X215483260Y-147303164D01*
X215620171Y-146946498D01*
X215622212Y-146940215D01*
X215651793Y-146829820D01*
X215688745Y-146769197D01*
X215752606Y-146738176D01*
X215823100Y-146746604D01*
X215877847Y-146791807D01*
X215899500Y-146862431D01*
X215899500Y-149479500D01*
X215879498Y-149547621D01*
X215825842Y-149594114D01*
X215773500Y-149605500D01*
X213156431Y-149605500D01*
X213088310Y-149585498D01*
X213041817Y-149531842D01*
X213031713Y-149461568D01*
X213061207Y-149396988D01*
X213123820Y-149357793D01*
X213234215Y-149328212D01*
X213240498Y-149326171D01*
X213597164Y-149189260D01*
X213603189Y-149186578D01*
X213943606Y-149013127D01*
X213949315Y-149009830D01*
X214269728Y-148801751D01*
X214275065Y-148797874D01*
X214513835Y-148604522D01*
X214522300Y-148592267D01*
X214515966Y-148581176D01*
X212102812Y-146168022D01*
X212088868Y-146160408D01*
X212087035Y-146160539D01*
X212080420Y-146164790D01*
X209664900Y-148580310D01*
X209657759Y-148593386D01*
X209665216Y-148603753D01*
X209904935Y-148797874D01*
X209910272Y-148801751D01*
X210230685Y-149009830D01*
X210236394Y-149013127D01*
X210576811Y-149186578D01*
X210582836Y-149189260D01*
X210939502Y-149326171D01*
X210945785Y-149328212D01*
X211056180Y-149357793D01*
X211116803Y-149394745D01*
X211147824Y-149458606D01*
X211139396Y-149529100D01*
X211094193Y-149583847D01*
X211023569Y-149605500D01*
X117728500Y-149605500D01*
X117660379Y-149585498D01*
X117613886Y-149531842D01*
X117602500Y-149479500D01*
X117602500Y-145799301D01*
X208377084Y-145799301D01*
X208397080Y-146180833D01*
X208397766Y-146187371D01*
X208457535Y-146564734D01*
X208458906Y-146571184D01*
X208557788Y-146940216D01*
X208559829Y-146946498D01*
X208696740Y-147303164D01*
X208699422Y-147309189D01*
X208872872Y-147649603D01*
X208876169Y-147655313D01*
X209084253Y-147975735D01*
X209088123Y-147981061D01*
X209281478Y-148219835D01*
X209293733Y-148228300D01*
X209304824Y-148221966D01*
X211717978Y-145808812D01*
X211725592Y-145794868D01*
X211725461Y-145793035D01*
X211721210Y-145786420D01*
X209305690Y-143370900D01*
X209292614Y-143363759D01*
X209282247Y-143371216D01*
X209088123Y-143610939D01*
X209084253Y-143616265D01*
X208876169Y-143936687D01*
X208872872Y-143942397D01*
X208699422Y-144282811D01*
X208696740Y-144288836D01*
X208559829Y-144645502D01*
X208557788Y-144651784D01*
X208458906Y-145020816D01*
X208457535Y-145027266D01*
X208397766Y-145404629D01*
X208397080Y-145411167D01*
X208377084Y-145792699D01*
X208377084Y-145799301D01*
X117602500Y-145799301D01*
X117602500Y-128631371D01*
X117622502Y-128563250D01*
X117676158Y-128516757D01*
X117746432Y-128506653D01*
X117811012Y-128536147D01*
X117817595Y-128542276D01*
X124618603Y-135343284D01*
X124652629Y-135405596D01*
X124647564Y-135476411D01*
X124605017Y-135533247D01*
X124548567Y-135556929D01*
X124547914Y-135557029D01*
X124398091Y-135579955D01*
X124185756Y-135649357D01*
X123987607Y-135752507D01*
X123983474Y-135755610D01*
X123983471Y-135755612D01*
X123813100Y-135883530D01*
X123808965Y-135886635D01*
X123752537Y-135945684D01*
X123728283Y-135971064D01*
X123666759Y-136006494D01*
X123595846Y-136003037D01*
X123538060Y-135961791D01*
X123519207Y-135928243D01*
X123477767Y-135817703D01*
X123474615Y-135809295D01*
X123387261Y-135692739D01*
X123270705Y-135605385D01*
X123134316Y-135554255D01*
X123072134Y-135547500D01*
X121275866Y-135547500D01*
X121213684Y-135554255D01*
X121077295Y-135605385D01*
X120960739Y-135692739D01*
X120873385Y-135809295D01*
X120822255Y-135945684D01*
X120815500Y-136007866D01*
X120815500Y-137196629D01*
X120795498Y-137264750D01*
X120778595Y-137285724D01*
X119927089Y-138137230D01*
X119912677Y-138149616D01*
X119901082Y-138158149D01*
X119901077Y-138158154D01*
X119895182Y-138162492D01*
X119890443Y-138168070D01*
X119890440Y-138168073D01*
X119860965Y-138202768D01*
X119854035Y-138210284D01*
X119848340Y-138215979D01*
X119846060Y-138218861D01*
X119830719Y-138238251D01*
X119827928Y-138241655D01*
X119788453Y-138288120D01*
X119780667Y-138297285D01*
X119777339Y-138303801D01*
X119773972Y-138308850D01*
X119770805Y-138313979D01*
X119766266Y-138319716D01*
X119735345Y-138385875D01*
X119733442Y-138389769D01*
X119700231Y-138454808D01*
X119698492Y-138461916D01*
X119696393Y-138467559D01*
X119694476Y-138473322D01*
X119691378Y-138479950D01*
X119689888Y-138487112D01*
X119689888Y-138487113D01*
X119676514Y-138551412D01*
X119675544Y-138555696D01*
X119658192Y-138626610D01*
X119657500Y-138637764D01*
X119657464Y-138637762D01*
X119657225Y-138641755D01*
X119656851Y-138645947D01*
X119655360Y-138653115D01*
X119655558Y-138660432D01*
X119657454Y-138730521D01*
X119657500Y-138733928D01*
X119657500Y-142209930D01*
X119656067Y-142228880D01*
X119654434Y-142239617D01*
X119652801Y-142250349D01*
X119653394Y-142257641D01*
X119653394Y-142257644D01*
X119657085Y-142303018D01*
X119657500Y-142313233D01*
X119657500Y-142321293D01*
X119657925Y-142324937D01*
X119660789Y-142349507D01*
X119661222Y-142353882D01*
X119667140Y-142426637D01*
X119669396Y-142433601D01*
X119670587Y-142439560D01*
X119671971Y-142445415D01*
X119672818Y-142452681D01*
X119697735Y-142521327D01*
X119699152Y-142525455D01*
X119721649Y-142594899D01*
X119725445Y-142601154D01*
X119727951Y-142606628D01*
X119730670Y-142612058D01*
X119733167Y-142618937D01*
X119737180Y-142625057D01*
X119737180Y-142625058D01*
X119773186Y-142679976D01*
X119775523Y-142683680D01*
X119813405Y-142746107D01*
X119817121Y-142750315D01*
X119817122Y-142750316D01*
X119820803Y-142754484D01*
X119820776Y-142754508D01*
X119823429Y-142757500D01*
X119826132Y-142760733D01*
X119830144Y-142766852D01*
X119858932Y-142794123D01*
X119886383Y-142820128D01*
X119888825Y-142822506D01*
X121610230Y-144543911D01*
X121622616Y-144558323D01*
X121631149Y-144569918D01*
X121631154Y-144569923D01*
X121635492Y-144575818D01*
X121641070Y-144580557D01*
X121641073Y-144580560D01*
X121675768Y-144610035D01*
X121683284Y-144616965D01*
X121688980Y-144622661D01*
X121691841Y-144624924D01*
X121691846Y-144624929D01*
X121711266Y-144640293D01*
X121714667Y-144643082D01*
X121770285Y-144690333D01*
X121776798Y-144693659D01*
X121781837Y-144697020D01*
X121786979Y-144700196D01*
X121792716Y-144704734D01*
X121858875Y-144735655D01*
X121862769Y-144737558D01*
X121927808Y-144770769D01*
X121934917Y-144772508D01*
X121940551Y-144774604D01*
X121946321Y-144776523D01*
X121952950Y-144779622D01*
X121960113Y-144781112D01*
X121960116Y-144781113D01*
X122010830Y-144791661D01*
X122024435Y-144794491D01*
X122028701Y-144795457D01*
X122099610Y-144812808D01*
X122105212Y-144813156D01*
X122105215Y-144813156D01*
X122110764Y-144813500D01*
X122110762Y-144813535D01*
X122114734Y-144813775D01*
X122118955Y-144814152D01*
X122126115Y-144815641D01*
X122203542Y-144813546D01*
X122206950Y-144813500D01*
X135023930Y-144813500D01*
X135042880Y-144814933D01*
X135057115Y-144817099D01*
X135057119Y-144817099D01*
X135064349Y-144818199D01*
X135071641Y-144817606D01*
X135071644Y-144817606D01*
X135117018Y-144813915D01*
X135127233Y-144813500D01*
X135135293Y-144813500D01*
X135152680Y-144811473D01*
X135163507Y-144810211D01*
X135167882Y-144809778D01*
X135233339Y-144804454D01*
X135233342Y-144804453D01*
X135240637Y-144803860D01*
X135247601Y-144801604D01*
X135253560Y-144800413D01*
X135259415Y-144799029D01*
X135266681Y-144798182D01*
X135335327Y-144773265D01*
X135339455Y-144771848D01*
X135401936Y-144751607D01*
X135401938Y-144751606D01*
X135408899Y-144749351D01*
X135415154Y-144745555D01*
X135420628Y-144743049D01*
X135426058Y-144740330D01*
X135432937Y-144737833D01*
X135445542Y-144729569D01*
X135493976Y-144697814D01*
X135497680Y-144695477D01*
X135560107Y-144657595D01*
X135568484Y-144650197D01*
X135568508Y-144650224D01*
X135571500Y-144647571D01*
X135574733Y-144644868D01*
X135580852Y-144640856D01*
X135634128Y-144584617D01*
X135636506Y-144582175D01*
X137218948Y-142999733D01*
X209657700Y-142999733D01*
X209664034Y-143010824D01*
X212077188Y-145423978D01*
X212091132Y-145431592D01*
X212092965Y-145431461D01*
X212099580Y-145427210D01*
X214515100Y-143011690D01*
X214522241Y-142998614D01*
X214514784Y-142988247D01*
X214275065Y-142794126D01*
X214269728Y-142790249D01*
X213949315Y-142582170D01*
X213943606Y-142578873D01*
X213603189Y-142405422D01*
X213597164Y-142402740D01*
X213240498Y-142265829D01*
X213234216Y-142263788D01*
X212865184Y-142164906D01*
X212858734Y-142163535D01*
X212481371Y-142103766D01*
X212474833Y-142103080D01*
X212093301Y-142083084D01*
X212086699Y-142083084D01*
X211705167Y-142103080D01*
X211698629Y-142103766D01*
X211321266Y-142163535D01*
X211314816Y-142164906D01*
X210945784Y-142263788D01*
X210939502Y-142265829D01*
X210582836Y-142402740D01*
X210576811Y-142405422D01*
X210236397Y-142578872D01*
X210230687Y-142582169D01*
X209910265Y-142790253D01*
X209904939Y-142794123D01*
X209666165Y-142987478D01*
X209657700Y-142999733D01*
X137218948Y-142999733D01*
X137902911Y-142315770D01*
X137917323Y-142303384D01*
X137928918Y-142294851D01*
X137928923Y-142294846D01*
X137934818Y-142290508D01*
X137939557Y-142284930D01*
X137939560Y-142284927D01*
X137969035Y-142250232D01*
X137975965Y-142242716D01*
X137981660Y-142237021D01*
X137988101Y-142228880D01*
X137999281Y-142214749D01*
X138002072Y-142211345D01*
X138044591Y-142161297D01*
X138044592Y-142161295D01*
X138049333Y-142155715D01*
X138052661Y-142149199D01*
X138056028Y-142144150D01*
X138059195Y-142139021D01*
X138063734Y-142133284D01*
X138094655Y-142067125D01*
X138096561Y-142063225D01*
X138108162Y-142040506D01*
X138129769Y-141998192D01*
X138131508Y-141991084D01*
X138133607Y-141985441D01*
X138135524Y-141979678D01*
X138138622Y-141973050D01*
X138153487Y-141901583D01*
X138154457Y-141897299D01*
X138169227Y-141836937D01*
X138171808Y-141826390D01*
X138172500Y-141815236D01*
X138172536Y-141815238D01*
X138172775Y-141811245D01*
X138173149Y-141807053D01*
X138174640Y-141799885D01*
X138172546Y-141722479D01*
X138172500Y-141719072D01*
X138172500Y-135427899D01*
X138192502Y-135359778D01*
X138236931Y-135317967D01*
X138298551Y-135283458D01*
X138455186Y-135153186D01*
X138585458Y-134996551D01*
X138685004Y-134818799D01*
X138686860Y-134813332D01*
X138686862Y-134813327D01*
X138748634Y-134631352D01*
X138748635Y-134631347D01*
X138750490Y-134625883D01*
X138779723Y-134424263D01*
X138781249Y-134366000D01*
X138762608Y-134163126D01*
X138707307Y-133967047D01*
X138617201Y-133784329D01*
X138495305Y-133621091D01*
X138345703Y-133482800D01*
X138299675Y-133453759D01*
X138178288Y-133377169D01*
X138178283Y-133377167D01*
X138173404Y-133374088D01*
X137984180Y-133298595D01*
X137784366Y-133258849D01*
X137778592Y-133258773D01*
X137778588Y-133258773D01*
X137675452Y-133257424D01*
X137580655Y-133256183D01*
X137574958Y-133257162D01*
X137574957Y-133257162D01*
X137385567Y-133289705D01*
X137379870Y-133290684D01*
X137326110Y-133310517D01*
X137255278Y-133315329D01*
X137193087Y-133281082D01*
X137159285Y-133218649D01*
X137156500Y-133192305D01*
X137156500Y-121135869D01*
X211170689Y-121135869D01*
X211187238Y-121422883D01*
X211188063Y-121427088D01*
X211188064Y-121427096D01*
X211220010Y-121589921D01*
X211242586Y-121704995D01*
X211243973Y-121709045D01*
X211243974Y-121709050D01*
X211319557Y-121929807D01*
X211335710Y-121976986D01*
X211337637Y-121980817D01*
X211425310Y-122155135D01*
X211464885Y-122233822D01*
X211627721Y-122470750D01*
X211821206Y-122683388D01*
X211824501Y-122686143D01*
X211824502Y-122686144D01*
X211875258Y-122728582D01*
X212041759Y-122867798D01*
X212285298Y-123020571D01*
X212547318Y-123138877D01*
X212551437Y-123140097D01*
X212818857Y-123219311D01*
X212818862Y-123219312D01*
X212822970Y-123220529D01*
X212827204Y-123221177D01*
X212827209Y-123221178D01*
X213075811Y-123259219D01*
X213107153Y-123264015D01*
X213253485Y-123266314D01*
X213390317Y-123268464D01*
X213390323Y-123268464D01*
X213394608Y-123268531D01*
X213398860Y-123268016D01*
X213398868Y-123268016D01*
X213675756Y-123234508D01*
X213675761Y-123234507D01*
X213680017Y-123233992D01*
X213958097Y-123161039D01*
X214223704Y-123051021D01*
X214471922Y-122905974D01*
X214698159Y-122728582D01*
X214739285Y-122686144D01*
X214895244Y-122525206D01*
X214898227Y-122522128D01*
X214900760Y-122518680D01*
X214900764Y-122518675D01*
X215065887Y-122293886D01*
X215068425Y-122290431D01*
X215205604Y-122037779D01*
X215307225Y-121768848D01*
X215371407Y-121488613D01*
X215385675Y-121328748D01*
X215396743Y-121204726D01*
X215396743Y-121204724D01*
X215396963Y-121202260D01*
X215397427Y-121158000D01*
X215377873Y-120871175D01*
X215373336Y-120849264D01*
X215320443Y-120593855D01*
X215319574Y-120589658D01*
X215223607Y-120318657D01*
X215091750Y-120063188D01*
X215078488Y-120044317D01*
X214928904Y-119831482D01*
X214926441Y-119827977D01*
X214730740Y-119617378D01*
X214508268Y-119435287D01*
X214263142Y-119285073D01*
X214245048Y-119277130D01*
X214003830Y-119171243D01*
X213999898Y-119169517D01*
X213973963Y-119162129D01*
X213727534Y-119091932D01*
X213727535Y-119091932D01*
X213723406Y-119090756D01*
X213510704Y-119060485D01*
X213443036Y-119050854D01*
X213443034Y-119050854D01*
X213438784Y-119050249D01*
X213434495Y-119050227D01*
X213434488Y-119050226D01*
X213155583Y-119048765D01*
X213155576Y-119048765D01*
X213151297Y-119048743D01*
X213147053Y-119049302D01*
X213147049Y-119049302D01*
X213021660Y-119065810D01*
X212866266Y-119086268D01*
X212862126Y-119087401D01*
X212862124Y-119087401D01*
X212785311Y-119108415D01*
X212588964Y-119162129D01*
X212585016Y-119163813D01*
X212328476Y-119273237D01*
X212328472Y-119273239D01*
X212324524Y-119274923D01*
X212199960Y-119349473D01*
X212081521Y-119420357D01*
X212081517Y-119420360D01*
X212077839Y-119422561D01*
X211853472Y-119602313D01*
X211655577Y-119810851D01*
X211487814Y-120044317D01*
X211353288Y-120298392D01*
X211254489Y-120568373D01*
X211193245Y-120849264D01*
X211192909Y-120853534D01*
X211171196Y-121129428D01*
X211171195Y-121129428D01*
X211171196Y-121129430D01*
X211170689Y-121135869D01*
X137156500Y-121135869D01*
X137156500Y-103445070D01*
X137157933Y-103426120D01*
X137160099Y-103411885D01*
X137160099Y-103411881D01*
X137161199Y-103404651D01*
X137156915Y-103351982D01*
X137156500Y-103341767D01*
X137156500Y-103333707D01*
X137153209Y-103305480D01*
X137152778Y-103301121D01*
X137147454Y-103235662D01*
X137147453Y-103235659D01*
X137146860Y-103228364D01*
X137144604Y-103221400D01*
X137143417Y-103215461D01*
X137142030Y-103209590D01*
X137141182Y-103202319D01*
X137138686Y-103195443D01*
X137138684Y-103195434D01*
X137116275Y-103133702D01*
X137114865Y-103129598D01*
X137092352Y-103060101D01*
X137088556Y-103053846D01*
X137086057Y-103048387D01*
X137083329Y-103042939D01*
X137080833Y-103036063D01*
X137040805Y-102975010D01*
X137038481Y-102971327D01*
X137003504Y-102913686D01*
X137003501Y-102913682D01*
X137000595Y-102908893D01*
X136996886Y-102904694D01*
X136996883Y-102904689D01*
X136993197Y-102900516D01*
X136993224Y-102900492D01*
X136990571Y-102897500D01*
X136987868Y-102894267D01*
X136983856Y-102888148D01*
X136927617Y-102834872D01*
X136925175Y-102832494D01*
X121521609Y-87428928D01*
X121487583Y-87366616D01*
X121485782Y-87323389D01*
X121503529Y-87188590D01*
X121505156Y-87122000D01*
X121486852Y-86899361D01*
X121432431Y-86682702D01*
X121343354Y-86477840D01*
X121222014Y-86290277D01*
X121071670Y-86125051D01*
X121067619Y-86121852D01*
X121067615Y-86121848D01*
X120900414Y-85989800D01*
X120900410Y-85989798D01*
X120896359Y-85986598D01*
X120855053Y-85963796D01*
X120805084Y-85913364D01*
X120790312Y-85843921D01*
X120815428Y-85777516D01*
X120842780Y-85750909D01*
X120886603Y-85719650D01*
X121021860Y-85623173D01*
X121180096Y-85465489D01*
X121239594Y-85382689D01*
X121307435Y-85288277D01*
X121310453Y-85284077D01*
X121409430Y-85083811D01*
X121474370Y-84870069D01*
X121503529Y-84648590D01*
X121505156Y-84582000D01*
X121486852Y-84359361D01*
X121432431Y-84142702D01*
X121343354Y-83937840D01*
X121222014Y-83750277D01*
X121071670Y-83585051D01*
X121067619Y-83581852D01*
X121067615Y-83581848D01*
X120900414Y-83449800D01*
X120900410Y-83449798D01*
X120896359Y-83446598D01*
X120854569Y-83423529D01*
X120804598Y-83373097D01*
X120789826Y-83303654D01*
X120814942Y-83237248D01*
X120842294Y-83210641D01*
X121017328Y-83085792D01*
X121025200Y-83079139D01*
X121176052Y-82928812D01*
X121182730Y-82920965D01*
X121307003Y-82748020D01*
X121312313Y-82739183D01*
X121406670Y-82548267D01*
X121410469Y-82538672D01*
X121472377Y-82334910D01*
X121474555Y-82324837D01*
X121475986Y-82313962D01*
X121473775Y-82299778D01*
X121460617Y-82296000D01*
X118825225Y-82296000D01*
X118811694Y-82299973D01*
X118810257Y-82309966D01*
X118840565Y-82444446D01*
X118843645Y-82454275D01*
X118923770Y-82651603D01*
X118928413Y-82660794D01*
X119039694Y-82842388D01*
X119045777Y-82850699D01*
X119185213Y-83011667D01*
X119192580Y-83018883D01*
X119356434Y-83154916D01*
X119364881Y-83160831D01*
X119433969Y-83201203D01*
X119482693Y-83252842D01*
X119495764Y-83322625D01*
X119469033Y-83388396D01*
X119428584Y-83421752D01*
X119415607Y-83428507D01*
X119411474Y-83431610D01*
X119411471Y-83431612D01*
X119387247Y-83449800D01*
X119236965Y-83562635D01*
X119082629Y-83724138D01*
X118956743Y-83908680D01*
X118862688Y-84111305D01*
X118802989Y-84326570D01*
X118779251Y-84548695D01*
X118779548Y-84553848D01*
X118779548Y-84553851D01*
X118785011Y-84648590D01*
X118792110Y-84771715D01*
X118793247Y-84776761D01*
X118793248Y-84776767D01*
X118813119Y-84864939D01*
X118841222Y-84989639D01*
X118925266Y-85196616D01*
X119041987Y-85387088D01*
X119188250Y-85555938D01*
X119360126Y-85698632D01*
X119430595Y-85739811D01*
X119433445Y-85741476D01*
X119482169Y-85793114D01*
X119495240Y-85862897D01*
X119468509Y-85928669D01*
X119428055Y-85962027D01*
X119415607Y-85968507D01*
X119411474Y-85971610D01*
X119411471Y-85971612D01*
X119387247Y-85989800D01*
X119236965Y-86102635D01*
X119082629Y-86264138D01*
X118956743Y-86448680D01*
X118862688Y-86651305D01*
X118802989Y-86866570D01*
X118779251Y-87088695D01*
X118779548Y-87093848D01*
X118779548Y-87093851D01*
X118785011Y-87188590D01*
X118792110Y-87311715D01*
X118793247Y-87316761D01*
X118793248Y-87316767D01*
X118808624Y-87384991D01*
X118841222Y-87529639D01*
X118925266Y-87736616D01*
X119041987Y-87927088D01*
X119188250Y-88095938D01*
X119360126Y-88238632D01*
X119430595Y-88279811D01*
X119433445Y-88281476D01*
X119482169Y-88333114D01*
X119495240Y-88402897D01*
X119468509Y-88468669D01*
X119428055Y-88502027D01*
X119415607Y-88508507D01*
X119411474Y-88511610D01*
X119411471Y-88511612D01*
X119241100Y-88639530D01*
X119236965Y-88642635D01*
X119082629Y-88804138D01*
X118956743Y-88988680D01*
X118862688Y-89191305D01*
X118802989Y-89406570D01*
X118779251Y-89628695D01*
X118792110Y-89851715D01*
X118793247Y-89856760D01*
X118793966Y-89861877D01*
X118792518Y-89862081D01*
X118788398Y-89926274D01*
X118759119Y-89972200D01*
X117817595Y-90913724D01*
X117755283Y-90947750D01*
X117684468Y-90942685D01*
X117627632Y-90900138D01*
X117602821Y-90833618D01*
X117602500Y-90824629D01*
X117602500Y-80400134D01*
X118783500Y-80400134D01*
X118790255Y-80462316D01*
X118841385Y-80598705D01*
X118928739Y-80715261D01*
X119045295Y-80802615D01*
X119053704Y-80805767D01*
X119053705Y-80805768D01*
X119162960Y-80846726D01*
X119219725Y-80889367D01*
X119244425Y-80955929D01*
X119229218Y-81025278D01*
X119209825Y-81051759D01*
X119086590Y-81180717D01*
X119080104Y-81188727D01*
X118960098Y-81364649D01*
X118955000Y-81373623D01*
X118865338Y-81566783D01*
X118861775Y-81576470D01*
X118806389Y-81776183D01*
X118807912Y-81784607D01*
X118820292Y-81788000D01*
X121460344Y-81788000D01*
X121473875Y-81784027D01*
X121475180Y-81774947D01*
X121433214Y-81607875D01*
X121429894Y-81598124D01*
X121344972Y-81402814D01*
X121340105Y-81393739D01*
X121224426Y-81214926D01*
X121218136Y-81206757D01*
X121074293Y-81048677D01*
X121043241Y-80984831D01*
X121051635Y-80914333D01*
X121096812Y-80859564D01*
X121123256Y-80845895D01*
X121230297Y-80805767D01*
X121238705Y-80802615D01*
X121355261Y-80715261D01*
X121442615Y-80598705D01*
X121493745Y-80462316D01*
X121500500Y-80400134D01*
X121500500Y-78603866D01*
X121493745Y-78541684D01*
X121442615Y-78405295D01*
X121355261Y-78288739D01*
X121238705Y-78201385D01*
X121102316Y-78150255D01*
X121040134Y-78143500D01*
X119243866Y-78143500D01*
X119181684Y-78150255D01*
X119045295Y-78201385D01*
X118928739Y-78288739D01*
X118841385Y-78405295D01*
X118790255Y-78541684D01*
X118783500Y-78603866D01*
X118783500Y-80400134D01*
X117602500Y-80400134D01*
X117602500Y-73917386D01*
X118979759Y-73917386D01*
X118987216Y-73927753D01*
X119226935Y-74121874D01*
X119232272Y-74125751D01*
X119552685Y-74333830D01*
X119558394Y-74337127D01*
X119898811Y-74510578D01*
X119904836Y-74513260D01*
X120261502Y-74650171D01*
X120267784Y-74652212D01*
X120636816Y-74751094D01*
X120643266Y-74752465D01*
X121020629Y-74812234D01*
X121027167Y-74812920D01*
X121408699Y-74832916D01*
X121415301Y-74832916D01*
X121796833Y-74812920D01*
X121803371Y-74812234D01*
X122180734Y-74752465D01*
X122187184Y-74751094D01*
X122556216Y-74652212D01*
X122562498Y-74650171D01*
X122919164Y-74513260D01*
X122925189Y-74510578D01*
X123265606Y-74337127D01*
X123271315Y-74333830D01*
X123591728Y-74125751D01*
X123597065Y-74121874D01*
X123835835Y-73928522D01*
X123844300Y-73916267D01*
X123837966Y-73905176D01*
X121424812Y-71492022D01*
X121410868Y-71484408D01*
X121409035Y-71484539D01*
X121402420Y-71488790D01*
X118986900Y-73904310D01*
X118979759Y-73917386D01*
X117602500Y-73917386D01*
X117602500Y-72186431D01*
X117622502Y-72118310D01*
X117676158Y-72071817D01*
X117746432Y-72061713D01*
X117811012Y-72091207D01*
X117850207Y-72153820D01*
X117879788Y-72264215D01*
X117881829Y-72270498D01*
X118018740Y-72627164D01*
X118021422Y-72633189D01*
X118194872Y-72973603D01*
X118198169Y-72979313D01*
X118406253Y-73299735D01*
X118410123Y-73305061D01*
X118603478Y-73543835D01*
X118615733Y-73552300D01*
X118626824Y-73545966D01*
X121039978Y-71132812D01*
X121046356Y-71121132D01*
X121776408Y-71121132D01*
X121776539Y-71122965D01*
X121780790Y-71129580D01*
X124196310Y-73545100D01*
X124209386Y-73552241D01*
X124219753Y-73544784D01*
X124413877Y-73305061D01*
X124417747Y-73299735D01*
X124625831Y-72979313D01*
X124629128Y-72973603D01*
X124802578Y-72633189D01*
X124805260Y-72627164D01*
X124942171Y-72270498D01*
X124944212Y-72264216D01*
X125043094Y-71895184D01*
X125044465Y-71888734D01*
X125104234Y-71511371D01*
X125104920Y-71504833D01*
X125124916Y-71123301D01*
X125124916Y-71116699D01*
X125123929Y-71097869D01*
X211170689Y-71097869D01*
X211187238Y-71384883D01*
X211188063Y-71389088D01*
X211188064Y-71389096D01*
X211208258Y-71492022D01*
X211242586Y-71666995D01*
X211243973Y-71671045D01*
X211243974Y-71671050D01*
X211319557Y-71891807D01*
X211335710Y-71938986D01*
X211337637Y-71942817D01*
X211425901Y-72118310D01*
X211464885Y-72195822D01*
X211627721Y-72432750D01*
X211821206Y-72645388D01*
X211824501Y-72648143D01*
X211824502Y-72648144D01*
X211875258Y-72690582D01*
X212041759Y-72829798D01*
X212285298Y-72982571D01*
X212547318Y-73100877D01*
X212551437Y-73102097D01*
X212818857Y-73181311D01*
X212818862Y-73181312D01*
X212822970Y-73182529D01*
X212827204Y-73183177D01*
X212827209Y-73183178D01*
X213075811Y-73221219D01*
X213107153Y-73226015D01*
X213253485Y-73228314D01*
X213390317Y-73230464D01*
X213390323Y-73230464D01*
X213394608Y-73230531D01*
X213398860Y-73230016D01*
X213398868Y-73230016D01*
X213675756Y-73196508D01*
X213675761Y-73196507D01*
X213680017Y-73195992D01*
X213958097Y-73123039D01*
X214223704Y-73013021D01*
X214471922Y-72867974D01*
X214698159Y-72690582D01*
X214739285Y-72648144D01*
X214895244Y-72487206D01*
X214898227Y-72484128D01*
X214900760Y-72480680D01*
X214900764Y-72480675D01*
X215065887Y-72255886D01*
X215068425Y-72252431D01*
X215119655Y-72158078D01*
X215203554Y-72003555D01*
X215203555Y-72003553D01*
X215205604Y-71999779D01*
X215307225Y-71730848D01*
X215361923Y-71492022D01*
X215370449Y-71454797D01*
X215370450Y-71454793D01*
X215371407Y-71450613D01*
X215385675Y-71290748D01*
X215396743Y-71166726D01*
X215396743Y-71166724D01*
X215396963Y-71164260D01*
X215397427Y-71120000D01*
X215377873Y-70833175D01*
X215373336Y-70811264D01*
X215320443Y-70555855D01*
X215319574Y-70551658D01*
X215223607Y-70280657D01*
X215112656Y-70065692D01*
X215093715Y-70028995D01*
X215093715Y-70028994D01*
X215091750Y-70025188D01*
X215078488Y-70006317D01*
X214928904Y-69793482D01*
X214926441Y-69789977D01*
X214761831Y-69612836D01*
X214733661Y-69582521D01*
X214733658Y-69582519D01*
X214730740Y-69579378D01*
X214508268Y-69397287D01*
X214263142Y-69247073D01*
X214245048Y-69239130D01*
X214003830Y-69133243D01*
X213999898Y-69131517D01*
X213973963Y-69124129D01*
X213727534Y-69053932D01*
X213727535Y-69053932D01*
X213723406Y-69052756D01*
X213510704Y-69022485D01*
X213443036Y-69012854D01*
X213443034Y-69012854D01*
X213438784Y-69012249D01*
X213434495Y-69012227D01*
X213434488Y-69012226D01*
X213155583Y-69010765D01*
X213155576Y-69010765D01*
X213151297Y-69010743D01*
X213147053Y-69011302D01*
X213147049Y-69011302D01*
X213021660Y-69027810D01*
X212866266Y-69048268D01*
X212862126Y-69049401D01*
X212862124Y-69049401D01*
X212785311Y-69070415D01*
X212588964Y-69124129D01*
X212585016Y-69125813D01*
X212328476Y-69235237D01*
X212328472Y-69235239D01*
X212324524Y-69236923D01*
X212275277Y-69266397D01*
X212081521Y-69382357D01*
X212081517Y-69382360D01*
X212077839Y-69384561D01*
X211853472Y-69564313D01*
X211655577Y-69772851D01*
X211487814Y-70006317D01*
X211353288Y-70260392D01*
X211254489Y-70530373D01*
X211193245Y-70811264D01*
X211192909Y-70815534D01*
X211171196Y-71091428D01*
X211171195Y-71091428D01*
X211171196Y-71091430D01*
X211170689Y-71097869D01*
X125123929Y-71097869D01*
X125104920Y-70735167D01*
X125104234Y-70728629D01*
X125044465Y-70351266D01*
X125043094Y-70344816D01*
X124944212Y-69975784D01*
X124942171Y-69969502D01*
X124805260Y-69612836D01*
X124802578Y-69606811D01*
X124629128Y-69266397D01*
X124625831Y-69260687D01*
X124417747Y-68940265D01*
X124413877Y-68934939D01*
X124220522Y-68696165D01*
X124208267Y-68687700D01*
X124197176Y-68694034D01*
X121784022Y-71107188D01*
X121776408Y-71121132D01*
X121046356Y-71121132D01*
X121047592Y-71118868D01*
X121047461Y-71117035D01*
X121043210Y-71110420D01*
X118627690Y-68694900D01*
X118614614Y-68687759D01*
X118604247Y-68695216D01*
X118410123Y-68934939D01*
X118406253Y-68940265D01*
X118198169Y-69260687D01*
X118194872Y-69266397D01*
X118021422Y-69606811D01*
X118018740Y-69612836D01*
X117881829Y-69969502D01*
X117879788Y-69975785D01*
X117850207Y-70086180D01*
X117813255Y-70146803D01*
X117749394Y-70177824D01*
X117678900Y-70169396D01*
X117624153Y-70124193D01*
X117602500Y-70053569D01*
X117602500Y-68323733D01*
X118979700Y-68323733D01*
X118986034Y-68334824D01*
X121399188Y-70747978D01*
X121413132Y-70755592D01*
X121414965Y-70755461D01*
X121421580Y-70751210D01*
X123837100Y-68335690D01*
X123844241Y-68322614D01*
X123836784Y-68312247D01*
X123597065Y-68118126D01*
X123591728Y-68114249D01*
X123271315Y-67906170D01*
X123265606Y-67902873D01*
X122925189Y-67729422D01*
X122919164Y-67726740D01*
X122562498Y-67589829D01*
X122556216Y-67587788D01*
X122187184Y-67488906D01*
X122180734Y-67487535D01*
X121803371Y-67427766D01*
X121796833Y-67427080D01*
X121415301Y-67407084D01*
X121408699Y-67407084D01*
X121027167Y-67427080D01*
X121020629Y-67427766D01*
X120643266Y-67487535D01*
X120636816Y-67488906D01*
X120267784Y-67587788D01*
X120261502Y-67589829D01*
X119904836Y-67726740D01*
X119898811Y-67729422D01*
X119558397Y-67902872D01*
X119552687Y-67906169D01*
X119232265Y-68114253D01*
X119226939Y-68118123D01*
X118988165Y-68311478D01*
X118979700Y-68323733D01*
X117602500Y-68323733D01*
X117602500Y-66166500D01*
X117622502Y-66098379D01*
X117676158Y-66051886D01*
X117728500Y-66040500D01*
X215773500Y-66040500D01*
X215841621Y-66060502D01*
G37*
%TD.AperFunction*%
%TA.AperFunction,Conductor*%
G36*
X118709783Y-92271064D02*
G01*
X118766619Y-92313611D01*
X118791542Y-92381865D01*
X118792110Y-92391715D01*
X118793247Y-92396761D01*
X118793248Y-92396767D01*
X118811843Y-92479276D01*
X118841222Y-92609639D01*
X118925266Y-92816616D01*
X119041987Y-93007088D01*
X119188250Y-93175938D01*
X119360126Y-93318632D01*
X119430595Y-93359811D01*
X119433445Y-93361476D01*
X119482169Y-93413114D01*
X119495240Y-93482897D01*
X119468509Y-93548669D01*
X119428055Y-93582027D01*
X119415607Y-93588507D01*
X119411474Y-93591610D01*
X119411471Y-93591612D01*
X119387247Y-93609800D01*
X119236965Y-93722635D01*
X119082629Y-93884138D01*
X118956743Y-94068680D01*
X118945795Y-94092266D01*
X118871144Y-94253089D01*
X118862688Y-94271305D01*
X118802989Y-94486570D01*
X118779251Y-94708695D01*
X118792110Y-94931715D01*
X118793247Y-94936761D01*
X118793248Y-94936767D01*
X118817304Y-95043508D01*
X118841222Y-95149639D01*
X118925266Y-95356616D01*
X119041987Y-95547088D01*
X119188250Y-95715938D01*
X119360126Y-95858632D01*
X119430595Y-95899811D01*
X119433445Y-95901476D01*
X119482169Y-95953114D01*
X119495240Y-96022897D01*
X119468509Y-96088669D01*
X119428055Y-96122027D01*
X119415607Y-96128507D01*
X119411474Y-96131610D01*
X119411471Y-96131612D01*
X119387247Y-96149800D01*
X119236965Y-96262635D01*
X119082629Y-96424138D01*
X118956743Y-96608680D01*
X118862688Y-96811305D01*
X118802989Y-97026570D01*
X118779251Y-97248695D01*
X118779548Y-97253848D01*
X118779548Y-97253851D01*
X118785011Y-97348590D01*
X118792110Y-97471715D01*
X118793247Y-97476761D01*
X118793248Y-97476767D01*
X118813119Y-97564939D01*
X118841222Y-97689639D01*
X118925266Y-97896616D01*
X119041987Y-98087088D01*
X119188250Y-98255938D01*
X119360126Y-98398632D01*
X119430595Y-98439811D01*
X119433445Y-98441476D01*
X119482169Y-98493114D01*
X119495240Y-98562897D01*
X119468509Y-98628669D01*
X119428055Y-98662027D01*
X119415607Y-98668507D01*
X119411474Y-98671610D01*
X119411471Y-98671612D01*
X119387247Y-98689800D01*
X119236965Y-98802635D01*
X119082629Y-98964138D01*
X118956743Y-99148680D01*
X118862688Y-99351305D01*
X118802989Y-99566570D01*
X118779251Y-99788695D01*
X118779548Y-99793848D01*
X118779548Y-99793851D01*
X118785011Y-99888590D01*
X118792110Y-100011715D01*
X118793247Y-100016761D01*
X118793248Y-100016767D01*
X118813119Y-100104939D01*
X118841222Y-100229639D01*
X118925266Y-100436616D01*
X119041987Y-100627088D01*
X119188250Y-100795938D01*
X119360126Y-100938632D01*
X119430595Y-100979811D01*
X119433445Y-100981476D01*
X119482169Y-101033114D01*
X119495240Y-101102897D01*
X119468509Y-101168669D01*
X119428055Y-101202027D01*
X119415607Y-101208507D01*
X119411474Y-101211610D01*
X119411471Y-101211612D01*
X119387247Y-101229800D01*
X119236965Y-101342635D01*
X119082629Y-101504138D01*
X118956743Y-101688680D01*
X118862688Y-101891305D01*
X118802989Y-102106570D01*
X118779251Y-102328695D01*
X118779548Y-102333848D01*
X118779548Y-102333851D01*
X118785011Y-102428590D01*
X118792110Y-102551715D01*
X118793247Y-102556761D01*
X118793248Y-102556767D01*
X118813119Y-102644939D01*
X118841222Y-102769639D01*
X118925266Y-102976616D01*
X118927965Y-102981020D01*
X119020271Y-103131650D01*
X119041987Y-103167088D01*
X119188250Y-103335938D01*
X119360126Y-103478632D01*
X119430595Y-103519811D01*
X119433445Y-103521476D01*
X119482169Y-103573114D01*
X119495240Y-103642897D01*
X119468509Y-103708669D01*
X119428055Y-103742027D01*
X119415607Y-103748507D01*
X119411474Y-103751610D01*
X119411471Y-103751612D01*
X119387247Y-103769800D01*
X119236965Y-103882635D01*
X119082629Y-104044138D01*
X118956743Y-104228680D01*
X118941003Y-104262590D01*
X118874786Y-104405243D01*
X118862688Y-104431305D01*
X118802989Y-104646570D01*
X118779251Y-104868695D01*
X118779548Y-104873848D01*
X118779548Y-104873851D01*
X118785011Y-104968590D01*
X118792110Y-105091715D01*
X118793247Y-105096761D01*
X118793248Y-105096767D01*
X118813119Y-105184939D01*
X118841222Y-105309639D01*
X118925266Y-105516616D01*
X119041987Y-105707088D01*
X119188250Y-105875938D01*
X119360126Y-106018632D01*
X119430595Y-106059811D01*
X119433445Y-106061476D01*
X119482169Y-106113114D01*
X119495240Y-106182897D01*
X119468509Y-106248669D01*
X119428055Y-106282027D01*
X119415607Y-106288507D01*
X119411474Y-106291610D01*
X119411471Y-106291612D01*
X119387247Y-106309800D01*
X119236965Y-106422635D01*
X119082629Y-106584138D01*
X118956743Y-106768680D01*
X118862688Y-106971305D01*
X118802989Y-107186570D01*
X118779251Y-107408695D01*
X118779548Y-107413848D01*
X118779548Y-107413851D01*
X118785011Y-107508590D01*
X118792110Y-107631715D01*
X118793247Y-107636761D01*
X118793248Y-107636767D01*
X118813119Y-107724939D01*
X118841222Y-107849639D01*
X118925266Y-108056616D01*
X119041987Y-108247088D01*
X119188250Y-108415938D01*
X119360126Y-108558632D01*
X119430595Y-108599811D01*
X119433445Y-108601476D01*
X119482169Y-108653114D01*
X119495240Y-108722897D01*
X119468509Y-108788669D01*
X119428055Y-108822027D01*
X119415607Y-108828507D01*
X119411474Y-108831610D01*
X119411471Y-108831612D01*
X119387247Y-108849800D01*
X119236965Y-108962635D01*
X119082629Y-109124138D01*
X118956743Y-109308680D01*
X118862688Y-109511305D01*
X118802989Y-109726570D01*
X118779251Y-109948695D01*
X118779548Y-109953848D01*
X118779548Y-109953851D01*
X118785011Y-110048590D01*
X118792110Y-110171715D01*
X118793247Y-110176761D01*
X118793248Y-110176767D01*
X118813119Y-110264939D01*
X118841222Y-110389639D01*
X118925266Y-110596616D01*
X119041987Y-110787088D01*
X119188250Y-110955938D01*
X119360126Y-111098632D01*
X119430595Y-111139811D01*
X119433445Y-111141476D01*
X119482169Y-111193114D01*
X119495240Y-111262897D01*
X119468509Y-111328669D01*
X119428055Y-111362027D01*
X119415607Y-111368507D01*
X119411474Y-111371610D01*
X119411471Y-111371612D01*
X119387247Y-111389800D01*
X119236965Y-111502635D01*
X119082629Y-111664138D01*
X118956743Y-111848680D01*
X118862688Y-112051305D01*
X118802989Y-112266570D01*
X118779251Y-112488695D01*
X118779548Y-112493848D01*
X118779548Y-112493851D01*
X118785011Y-112588590D01*
X118792110Y-112711715D01*
X118793247Y-112716761D01*
X118793248Y-112716767D01*
X118813119Y-112804939D01*
X118841222Y-112929639D01*
X118925266Y-113136616D01*
X119041987Y-113327088D01*
X119188250Y-113495938D01*
X119360126Y-113638632D01*
X119553000Y-113751338D01*
X119761692Y-113831030D01*
X119766760Y-113832061D01*
X119766763Y-113832062D01*
X119874017Y-113853883D01*
X119980597Y-113875567D01*
X119985772Y-113875757D01*
X119985774Y-113875757D01*
X120198673Y-113883564D01*
X120198677Y-113883564D01*
X120203837Y-113883753D01*
X120208957Y-113883097D01*
X120208959Y-113883097D01*
X120420288Y-113856025D01*
X120420289Y-113856025D01*
X120425416Y-113855368D01*
X120430366Y-113853883D01*
X120634429Y-113792661D01*
X120634434Y-113792659D01*
X120639384Y-113791174D01*
X120839994Y-113692896D01*
X121021860Y-113563173D01*
X121180096Y-113405489D01*
X121239594Y-113322689D01*
X121307435Y-113228277D01*
X121310453Y-113224077D01*
X121409430Y-113023811D01*
X121474370Y-112810069D01*
X121503529Y-112588590D01*
X121505156Y-112522000D01*
X121486852Y-112299361D01*
X121432431Y-112082702D01*
X121343354Y-111877840D01*
X121222014Y-111690277D01*
X121071670Y-111525051D01*
X121067619Y-111521852D01*
X121067615Y-111521848D01*
X120900414Y-111389800D01*
X120900410Y-111389798D01*
X120896359Y-111386598D01*
X120855053Y-111363796D01*
X120805084Y-111313364D01*
X120790312Y-111243921D01*
X120815428Y-111177516D01*
X120842780Y-111150909D01*
X120886603Y-111119650D01*
X121021860Y-111023173D01*
X121180096Y-110865489D01*
X121239594Y-110782689D01*
X121307435Y-110688277D01*
X121310453Y-110684077D01*
X121409430Y-110483811D01*
X121474370Y-110270069D01*
X121503529Y-110048590D01*
X121505156Y-109982000D01*
X121486852Y-109759361D01*
X121432431Y-109542702D01*
X121343354Y-109337840D01*
X121222014Y-109150277D01*
X121071670Y-108985051D01*
X121067619Y-108981852D01*
X121067615Y-108981848D01*
X120900414Y-108849800D01*
X120900410Y-108849798D01*
X120896359Y-108846598D01*
X120855053Y-108823796D01*
X120805084Y-108773364D01*
X120790312Y-108703921D01*
X120815428Y-108637516D01*
X120842780Y-108610909D01*
X120886603Y-108579650D01*
X121021860Y-108483173D01*
X121180096Y-108325489D01*
X121239594Y-108242689D01*
X121307435Y-108148277D01*
X121310453Y-108144077D01*
X121409430Y-107943811D01*
X121474370Y-107730069D01*
X121503529Y-107508590D01*
X121505156Y-107442000D01*
X121486852Y-107219361D01*
X121432431Y-107002702D01*
X121343354Y-106797840D01*
X121222014Y-106610277D01*
X121071670Y-106445051D01*
X121067619Y-106441852D01*
X121067615Y-106441848D01*
X120900414Y-106309800D01*
X120900410Y-106309798D01*
X120896359Y-106306598D01*
X120855053Y-106283796D01*
X120805084Y-106233364D01*
X120790312Y-106163921D01*
X120815428Y-106097516D01*
X120842780Y-106070909D01*
X120886603Y-106039650D01*
X121021860Y-105943173D01*
X121180096Y-105785489D01*
X121239594Y-105702689D01*
X121307435Y-105608277D01*
X121310453Y-105604077D01*
X121409430Y-105403811D01*
X121474370Y-105190069D01*
X121503529Y-104968590D01*
X121505156Y-104902000D01*
X121486852Y-104679361D01*
X121432431Y-104462702D01*
X121343354Y-104257840D01*
X121222014Y-104070277D01*
X121071670Y-103905051D01*
X121067619Y-103901852D01*
X121067615Y-103901848D01*
X120900414Y-103769800D01*
X120900410Y-103769798D01*
X120896359Y-103766598D01*
X120855053Y-103743796D01*
X120805084Y-103693364D01*
X120790312Y-103623921D01*
X120815428Y-103557516D01*
X120842780Y-103530909D01*
X120886603Y-103499650D01*
X121021860Y-103403173D01*
X121027698Y-103397356D01*
X121176435Y-103249137D01*
X121180096Y-103245489D01*
X121187158Y-103235662D01*
X121307435Y-103068277D01*
X121310453Y-103064077D01*
X121318208Y-103048387D01*
X121407136Y-102868453D01*
X121407137Y-102868451D01*
X121409430Y-102863811D01*
X121474370Y-102650069D01*
X121503529Y-102428590D01*
X121505156Y-102362000D01*
X121486852Y-102139361D01*
X121432431Y-101922702D01*
X121343354Y-101717840D01*
X121222014Y-101530277D01*
X121071670Y-101365051D01*
X121067619Y-101361852D01*
X121067615Y-101361848D01*
X120900414Y-101229800D01*
X120900410Y-101229798D01*
X120896359Y-101226598D01*
X120855053Y-101203796D01*
X120805084Y-101153364D01*
X120790312Y-101083921D01*
X120815428Y-101017516D01*
X120842780Y-100990909D01*
X120886603Y-100959650D01*
X121021860Y-100863173D01*
X121180096Y-100705489D01*
X121239594Y-100622689D01*
X121307435Y-100528277D01*
X121310453Y-100524077D01*
X121409430Y-100323811D01*
X121474370Y-100110069D01*
X121503529Y-99888590D01*
X121505156Y-99822000D01*
X121486852Y-99599361D01*
X121432431Y-99382702D01*
X121343354Y-99177840D01*
X121222014Y-98990277D01*
X121071670Y-98825051D01*
X121067619Y-98821852D01*
X121067615Y-98821848D01*
X120900414Y-98689800D01*
X120900410Y-98689798D01*
X120896359Y-98686598D01*
X120855053Y-98663796D01*
X120805084Y-98613364D01*
X120790312Y-98543921D01*
X120815428Y-98477516D01*
X120842780Y-98450909D01*
X120886603Y-98419650D01*
X121021860Y-98323173D01*
X121180096Y-98165489D01*
X121190656Y-98150794D01*
X121307435Y-97988277D01*
X121310453Y-97984077D01*
X121409430Y-97783811D01*
X121474370Y-97570069D01*
X121503529Y-97348590D01*
X121505156Y-97282000D01*
X121486852Y-97059361D01*
X121432431Y-96842702D01*
X121343354Y-96637840D01*
X121303906Y-96576862D01*
X121224822Y-96454617D01*
X121224820Y-96454614D01*
X121222014Y-96450277D01*
X121071670Y-96285051D01*
X121067619Y-96281852D01*
X121067615Y-96281848D01*
X120900414Y-96149800D01*
X120900410Y-96149798D01*
X120896359Y-96146598D01*
X120855053Y-96123796D01*
X120805084Y-96073364D01*
X120790312Y-96003921D01*
X120815428Y-95937516D01*
X120842780Y-95910909D01*
X120886603Y-95879650D01*
X121021860Y-95783173D01*
X121180096Y-95625489D01*
X121232203Y-95552974D01*
X121288198Y-95509326D01*
X121334526Y-95500500D01*
X122061629Y-95500500D01*
X122129750Y-95520502D01*
X122150724Y-95537405D01*
X134078595Y-107465276D01*
X134112621Y-107527588D01*
X134115500Y-107554371D01*
X134115500Y-140432679D01*
X134095498Y-140500800D01*
X134078595Y-140521774D01*
X133502774Y-141097595D01*
X133440462Y-141131621D01*
X133413679Y-141134500D01*
X130678500Y-141134500D01*
X130610379Y-141114498D01*
X130563886Y-141060842D01*
X130552500Y-141008500D01*
X130552500Y-140638632D01*
X130572502Y-140570511D01*
X130605331Y-140536054D01*
X130673860Y-140487173D01*
X130832096Y-140329489D01*
X130962453Y-140148077D01*
X130963640Y-140148930D01*
X131010960Y-140105362D01*
X131080897Y-140093145D01*
X131146338Y-140120678D01*
X131174166Y-140152511D01*
X131231694Y-140246388D01*
X131237777Y-140254699D01*
X131377213Y-140415667D01*
X131384580Y-140422883D01*
X131548434Y-140558916D01*
X131556881Y-140564831D01*
X131740756Y-140672279D01*
X131750042Y-140676729D01*
X131949001Y-140752703D01*
X131958899Y-140755579D01*
X132062250Y-140776606D01*
X132076299Y-140775410D01*
X132080000Y-140765065D01*
X132080000Y-140764517D01*
X132588000Y-140764517D01*
X132592064Y-140778359D01*
X132605478Y-140780393D01*
X132612184Y-140779534D01*
X132622262Y-140777392D01*
X132826255Y-140716191D01*
X132835842Y-140712433D01*
X133027095Y-140618739D01*
X133035945Y-140613464D01*
X133209328Y-140489792D01*
X133217200Y-140483139D01*
X133368052Y-140332812D01*
X133374730Y-140324965D01*
X133499003Y-140152020D01*
X133504313Y-140143183D01*
X133598670Y-139952267D01*
X133602469Y-139942672D01*
X133664377Y-139738910D01*
X133666555Y-139728837D01*
X133667986Y-139717962D01*
X133665775Y-139703778D01*
X133652617Y-139700000D01*
X132606115Y-139700000D01*
X132590876Y-139704475D01*
X132589671Y-139705865D01*
X132588000Y-139713548D01*
X132588000Y-140764517D01*
X132080000Y-140764517D01*
X132080000Y-139318000D01*
X132100002Y-139249879D01*
X132153658Y-139203386D01*
X132206000Y-139192000D01*
X133652344Y-139192000D01*
X133665875Y-139188027D01*
X133667180Y-139178947D01*
X133625214Y-139011875D01*
X133621894Y-139002124D01*
X133536972Y-138806814D01*
X133532105Y-138797739D01*
X133416426Y-138618926D01*
X133410136Y-138610757D01*
X133266806Y-138453240D01*
X133259273Y-138446215D01*
X133092139Y-138314222D01*
X133083556Y-138308520D01*
X133046602Y-138288120D01*
X132996631Y-138237687D01*
X132981859Y-138168245D01*
X133006975Y-138101839D01*
X133034327Y-138075232D01*
X133057797Y-138058491D01*
X133213860Y-137947173D01*
X133372096Y-137789489D01*
X133502453Y-137608077D01*
X133523320Y-137565857D01*
X133599136Y-137412453D01*
X133599137Y-137412451D01*
X133601430Y-137407811D01*
X133666370Y-137194069D01*
X133695529Y-136972590D01*
X133697156Y-136906000D01*
X133678852Y-136683361D01*
X133624431Y-136466702D01*
X133535354Y-136261840D01*
X133414014Y-136074277D01*
X133263670Y-135909051D01*
X133259619Y-135905852D01*
X133259615Y-135905848D01*
X133092414Y-135773800D01*
X133092410Y-135773798D01*
X133088359Y-135770598D01*
X132892789Y-135662638D01*
X132887920Y-135660914D01*
X132887916Y-135660912D01*
X132687087Y-135589795D01*
X132687083Y-135589794D01*
X132682212Y-135588069D01*
X132677119Y-135587162D01*
X132677116Y-135587161D01*
X132467373Y-135549800D01*
X132467367Y-135549799D01*
X132462284Y-135548894D01*
X132388452Y-135547992D01*
X132244081Y-135546228D01*
X132244079Y-135546228D01*
X132238911Y-135546165D01*
X132018091Y-135579955D01*
X131805756Y-135649357D01*
X131607607Y-135752507D01*
X131603474Y-135755610D01*
X131603471Y-135755612D01*
X131433100Y-135883530D01*
X131428965Y-135886635D01*
X131425393Y-135890373D01*
X131317729Y-136003037D01*
X131274629Y-136048138D01*
X131167201Y-136205621D01*
X131112293Y-136250621D01*
X131041768Y-136258792D01*
X130978021Y-136227538D01*
X130957324Y-136203054D01*
X130876822Y-136078617D01*
X130876820Y-136078614D01*
X130874014Y-136074277D01*
X130723670Y-135909051D01*
X130719619Y-135905852D01*
X130719615Y-135905848D01*
X130552414Y-135773800D01*
X130552410Y-135773798D01*
X130548359Y-135770598D01*
X130352789Y-135662638D01*
X130347920Y-135660914D01*
X130347916Y-135660912D01*
X130147087Y-135589795D01*
X130147083Y-135589794D01*
X130142212Y-135588069D01*
X130137119Y-135587162D01*
X130137116Y-135587161D01*
X129927373Y-135549800D01*
X129927367Y-135549799D01*
X129922284Y-135548894D01*
X129848452Y-135547992D01*
X129704081Y-135546228D01*
X129704079Y-135546228D01*
X129698911Y-135546165D01*
X129478091Y-135579955D01*
X129265756Y-135649357D01*
X129067607Y-135752507D01*
X129063474Y-135755610D01*
X129063471Y-135755612D01*
X128893100Y-135883530D01*
X128888965Y-135886635D01*
X128885393Y-135890373D01*
X128777729Y-136003037D01*
X128734629Y-136048138D01*
X128627201Y-136205621D01*
X128572293Y-136250621D01*
X128501768Y-136258792D01*
X128438021Y-136227538D01*
X128417324Y-136203054D01*
X128336822Y-136078617D01*
X128336820Y-136078614D01*
X128334014Y-136074277D01*
X128183670Y-135909051D01*
X128179619Y-135905852D01*
X128179615Y-135905848D01*
X128012414Y-135773800D01*
X128012410Y-135773798D01*
X128008359Y-135770598D01*
X127812789Y-135662638D01*
X127807920Y-135660914D01*
X127807916Y-135660912D01*
X127607087Y-135589795D01*
X127607083Y-135589794D01*
X127602212Y-135588069D01*
X127597119Y-135587162D01*
X127597116Y-135587161D01*
X127387373Y-135549800D01*
X127387367Y-135549799D01*
X127382284Y-135548894D01*
X127311770Y-135548033D01*
X127164082Y-135546228D01*
X127164080Y-135546228D01*
X127158911Y-135546165D01*
X127135156Y-135549800D01*
X127055385Y-135562006D01*
X126985023Y-135552538D01*
X126947232Y-135526551D01*
X124017723Y-132597042D01*
X123983697Y-132534730D01*
X123988762Y-132463915D01*
X124031309Y-132407079D01*
X124097829Y-132382268D01*
X124164021Y-132395680D01*
X124216811Y-132422578D01*
X124222836Y-132425260D01*
X124579502Y-132562171D01*
X124585784Y-132564212D01*
X124954816Y-132663094D01*
X124961266Y-132664465D01*
X125338629Y-132724234D01*
X125345167Y-132724920D01*
X125726699Y-132744916D01*
X125733301Y-132744916D01*
X126114833Y-132724920D01*
X126121371Y-132724234D01*
X126498734Y-132664465D01*
X126505184Y-132663094D01*
X126874216Y-132564212D01*
X126880498Y-132562171D01*
X127237164Y-132425260D01*
X127243189Y-132422578D01*
X127583606Y-132249127D01*
X127589315Y-132245830D01*
X127909728Y-132037751D01*
X127915065Y-132033874D01*
X128153835Y-131840522D01*
X128162300Y-131828267D01*
X128155966Y-131817176D01*
X125371922Y-129033132D01*
X126094408Y-129033132D01*
X126094539Y-129034965D01*
X126098790Y-129041580D01*
X128514310Y-131457100D01*
X128527386Y-131464241D01*
X128537753Y-131456784D01*
X128731877Y-131217061D01*
X128735747Y-131211735D01*
X128943831Y-130891313D01*
X128947128Y-130885603D01*
X129120578Y-130545189D01*
X129123260Y-130539164D01*
X129260171Y-130182498D01*
X129262212Y-130176216D01*
X129361094Y-129807184D01*
X129362465Y-129800734D01*
X129422234Y-129423371D01*
X129422920Y-129416833D01*
X129442916Y-129035301D01*
X129442916Y-129028699D01*
X129422920Y-128647167D01*
X129422234Y-128640629D01*
X129362465Y-128263266D01*
X129361094Y-128256816D01*
X129262212Y-127887784D01*
X129260171Y-127881502D01*
X129123260Y-127524836D01*
X129120578Y-127518811D01*
X128947128Y-127178397D01*
X128943831Y-127172687D01*
X128735747Y-126852265D01*
X128731877Y-126846939D01*
X128538522Y-126608165D01*
X128526267Y-126599700D01*
X128515176Y-126606034D01*
X126102022Y-129019188D01*
X126094408Y-129033132D01*
X125371922Y-129033132D01*
X122945690Y-126606900D01*
X122932614Y-126599759D01*
X122922247Y-126607216D01*
X122728123Y-126846939D01*
X122724253Y-126852265D01*
X122516169Y-127172687D01*
X122512872Y-127178397D01*
X122339422Y-127518811D01*
X122336740Y-127524836D01*
X122199829Y-127881502D01*
X122197788Y-127887784D01*
X122098906Y-128256816D01*
X122097535Y-128263266D01*
X122037766Y-128640629D01*
X122037080Y-128647167D01*
X122017084Y-129028699D01*
X122017084Y-129035301D01*
X122037080Y-129416833D01*
X122037766Y-129423371D01*
X122097535Y-129800734D01*
X122098906Y-129807184D01*
X122197788Y-130176216D01*
X122199829Y-130182498D01*
X122336740Y-130539164D01*
X122339422Y-130545189D01*
X122366320Y-130597979D01*
X122379424Y-130667756D01*
X122352724Y-130733540D01*
X122294697Y-130774447D01*
X122223765Y-130777488D01*
X122164958Y-130744277D01*
X118397405Y-126976724D01*
X118363379Y-126914412D01*
X118360500Y-126887629D01*
X118360500Y-126235733D01*
X123297700Y-126235733D01*
X123304034Y-126246824D01*
X125717188Y-128659978D01*
X125731132Y-128667592D01*
X125732965Y-128667461D01*
X125739580Y-128663210D01*
X128155100Y-126247690D01*
X128162241Y-126234614D01*
X128154784Y-126224247D01*
X127915065Y-126030126D01*
X127909728Y-126026249D01*
X127589315Y-125818170D01*
X127583606Y-125814873D01*
X127243189Y-125641422D01*
X127237164Y-125638740D01*
X126880498Y-125501829D01*
X126874216Y-125499788D01*
X126505184Y-125400906D01*
X126498734Y-125399535D01*
X126121371Y-125339766D01*
X126114833Y-125339080D01*
X125733301Y-125319084D01*
X125726699Y-125319084D01*
X125345167Y-125339080D01*
X125338629Y-125339766D01*
X124961266Y-125399535D01*
X124954816Y-125400906D01*
X124585784Y-125499788D01*
X124579502Y-125501829D01*
X124222836Y-125638740D01*
X124216811Y-125641422D01*
X123876397Y-125814872D01*
X123870687Y-125818169D01*
X123550265Y-126026253D01*
X123544939Y-126030123D01*
X123306165Y-126223478D01*
X123297700Y-126235733D01*
X118360500Y-126235733D01*
X118360500Y-92568371D01*
X118380502Y-92500250D01*
X118397405Y-92479276D01*
X118576656Y-92300025D01*
X118638968Y-92265999D01*
X118709783Y-92271064D01*
G37*
%TD.AperFunction*%
%TD*%
M02*
