M48
; DRILL file {KiCad (6.0.7)} date Sat Apr 15 21:14:06 2023
; FORMAT={-:-/ absolute / metric / decimal}
; #@! TF.CreationDate,2023-04-15T21:14:06+02:00
; #@! TF.GenerationSoftware,Kicad,Pcbnew,(6.0.7)
; #@! TF.FileFunction,Plated,1,2,PTH
FMAT,2
METRIC
; #@! TA.AperFunction,Plated,PTH,ViaDrill
T1C0.400
; #@! TA.AperFunction,Plated,PTH,ViaDrill
T2C0.800
; #@! TA.AperFunction,Plated,PTH,ComponentDrill
T3C1.000
; #@! TA.AperFunction,Plated,PTH,ComponentDrill
T4C3.200
%
G90
G05
T1
X118.618Y-146.304
X119.634Y-134.112
X122.909Y-147.534
X125.349Y-109.521
X127.254Y-97.282
X127.734Y-87.869
X128.27Y-76.2
X128.778Y-103.886
X129.032Y-147.32
X141.929Y-125.391
X145.445Y-77.761
X147.828Y-145.542
X149.352Y-115.062
X149.606Y-94.742
X162.814Y-144.526
X163.568Y-75.966
X165.354Y-87.884
X172.002Y-93.73
X172.72Y-145.034
X185.28Y-122.081
X196.596Y-73.914
X205.74Y-145.288
X209.145Y-95.525
X210.939Y-81.529
T2
X137.668Y-134.366
T3
X120.142Y-79.502
X120.142Y-82.042
X120.142Y-84.582
X120.142Y-87.122
X120.142Y-89.662
X120.142Y-92.202
X120.142Y-94.742
X120.142Y-97.282
X120.142Y-99.822
X120.142Y-102.362
X120.142Y-104.902
X120.142Y-107.442
X120.142Y-109.982
X120.142Y-112.522
X122.174Y-136.906
X122.174Y-139.446
X124.714Y-136.906
X124.714Y-139.446
X127.254Y-136.906
X127.254Y-139.446
X129.794Y-136.906
X129.794Y-139.446
X132.334Y-136.906
X132.334Y-139.446
T4
X121.412Y-71.12
X125.73Y-129.032
X212.09Y-145.796
T0
M30
