%TF.GenerationSoftware,KiCad,Pcbnew,(6.0.7)*%
%TF.CreationDate,2023-04-15T21:14:02+02:00*%
%TF.ProjectId,LED board,4c454420-626f-4617-9264-2e6b69636164,rev?*%
%TF.SameCoordinates,Original*%
%TF.FileFunction,Copper,L1,Top*%
%TF.FilePolarity,Positive*%
%FSLAX46Y46*%
G04 Gerber Fmt 4.6, Leading zero omitted, Abs format (unit mm)*
G04 Created by KiCad (PCBNEW (6.0.7)) date 2023-04-15 21:14:02*
%MOMM*%
%LPD*%
G01*
G04 APERTURE LIST*
%TA.AperFunction,SMDPad,CuDef*%
%ADD10R,1.500000X1.000000*%
%TD*%
%TA.AperFunction,ComponentPad*%
%ADD11C,6.400000*%
%TD*%
%TA.AperFunction,ComponentPad*%
%ADD12R,1.700000X1.700000*%
%TD*%
%TA.AperFunction,ComponentPad*%
%ADD13O,1.700000X1.700000*%
%TD*%
%TA.AperFunction,ViaPad*%
%ADD14C,1.200000*%
%TD*%
%TA.AperFunction,ViaPad*%
%ADD15C,0.800000*%
%TD*%
%TA.AperFunction,Conductor*%
%ADD16C,0.500000*%
%TD*%
G04 APERTURE END LIST*
D10*
%TO.P,D4,1,VDD*%
%TO.N,+5V*%
X174461000Y-135052000D03*
%TO.P,D4,2,DOUT*%
%TO.N,Net-(D4-Pad2)*%
X174461000Y-138252000D03*
%TO.P,D4,3,VSS*%
%TO.N,GND*%
X179361000Y-138252000D03*
%TO.P,D4,4,DIN*%
%TO.N,Net-(D3-Pad2)*%
X179361000Y-135052000D03*
%TD*%
D11*
%TO.P,,1*%
%TO.N,GND*%
X125730000Y-129032000D03*
%TD*%
D12*
%TO.P,J1,1,Pin_1*%
%TO.N,+5V*%
X120142000Y-79502000D03*
D13*
%TO.P,J1,2,Pin_2*%
%TO.N,GND*%
X120142000Y-82042000D03*
%TO.P,J1,3,Pin_3*%
%TO.N,CS*%
X120142000Y-84582000D03*
%TO.P,J1,4,Pin_4*%
%TO.N,RESET*%
X120142000Y-87122000D03*
%TO.P,J1,5,Pin_5*%
%TO.N,DC{slash}RS*%
X120142000Y-89662000D03*
%TO.P,J1,6,Pin_6*%
%TO.N,MOSI*%
X120142000Y-92202000D03*
%TO.P,J1,7,Pin_7*%
%TO.N,SCK*%
X120142000Y-94742000D03*
%TO.P,J1,8,Pin_8*%
%TO.N,LED_back*%
X120142000Y-97282000D03*
%TO.P,J1,9,Pin_9*%
%TO.N,MISO*%
X120142000Y-99822000D03*
%TO.P,J1,10,Pin_10*%
%TO.N,unconnected-(J1-Pad10)*%
X120142000Y-102362000D03*
%TO.P,J1,11,Pin_11*%
%TO.N,unconnected-(J1-Pad11)*%
X120142000Y-104902000D03*
%TO.P,J1,12,Pin_12*%
%TO.N,unconnected-(J1-Pad12)*%
X120142000Y-107442000D03*
%TO.P,J1,13,Pin_13*%
%TO.N,unconnected-(J1-Pad13)*%
X120142000Y-109982000D03*
%TO.P,J1,14,Pin_14*%
%TO.N,unconnected-(J1-Pad14)*%
X120142000Y-112522000D03*
%TD*%
D12*
%TO.P,J2,1,Pin_1*%
%TO.N,+5V*%
X122174000Y-136906000D03*
D13*
%TO.P,J2,2,Pin_2*%
%TO.N,N_in*%
X122174000Y-139446000D03*
%TO.P,J2,3,Pin_3*%
%TO.N,CS*%
X124714000Y-136906000D03*
%TO.P,J2,4,Pin_4*%
%TO.N,RESET*%
X124714000Y-139446000D03*
%TO.P,J2,5,Pin_5*%
%TO.N,DC{slash}RS*%
X127254000Y-136906000D03*
%TO.P,J2,6,Pin_6*%
%TO.N,LED_back*%
X127254000Y-139446000D03*
%TO.P,J2,7,Pin_7*%
%TO.N,MISO*%
X129794000Y-136906000D03*
%TO.P,J2,8,Pin_8*%
%TO.N,SCK*%
X129794000Y-139446000D03*
%TO.P,J2,9,Pin_9*%
%TO.N,MOSI*%
X132334000Y-136906000D03*
%TO.P,J2,10,Pin_10*%
%TO.N,GND*%
X132334000Y-139446000D03*
%TD*%
D10*
%TO.P,D3,1,VDD*%
%TO.N,+5V*%
X162904000Y-135052000D03*
%TO.P,D3,2,DOUT*%
%TO.N,Net-(D3-Pad2)*%
X162904000Y-138252000D03*
%TO.P,D3,3,VSS*%
%TO.N,GND*%
X167804000Y-138252000D03*
%TO.P,D3,4,DIN*%
%TO.N,Net-(D2-Pad2)*%
X167804000Y-135052000D03*
%TD*%
%TO.P,D6,1,VDD*%
%TO.N,+5V*%
X197575000Y-135052000D03*
%TO.P,D6,2,DOUT*%
%TO.N,Net-(D6-Pad2)*%
X197575000Y-138252000D03*
%TO.P,D6,3,VSS*%
%TO.N,GND*%
X202475000Y-138252000D03*
%TO.P,D6,4,DIN*%
%TO.N,Net-(D5-Pad2)*%
X202475000Y-135052000D03*
%TD*%
%TO.P,D2,1,VDD*%
%TO.N,+5V*%
X151347000Y-135052000D03*
%TO.P,D2,2,DOUT*%
%TO.N,Net-(D2-Pad2)*%
X151347000Y-138252000D03*
%TO.P,D2,3,VSS*%
%TO.N,GND*%
X156247000Y-138252000D03*
%TO.P,D2,4,DIN*%
%TO.N,Net-(D1-Pad2)*%
X156247000Y-135052000D03*
%TD*%
D11*
%TO.P,,1*%
%TO.N,GND*%
X212090000Y-145796000D03*
%TD*%
D10*
%TO.P,D1,1,VDD*%
%TO.N,+5V*%
X139790000Y-135052000D03*
%TO.P,D1,2,DOUT*%
%TO.N,Net-(D1-Pad2)*%
X139790000Y-138252000D03*
%TO.P,D1,3,VSS*%
%TO.N,GND*%
X144690000Y-138252000D03*
%TO.P,D1,4,DIN*%
%TO.N,N_in*%
X144690000Y-135052000D03*
%TD*%
%TO.P,D5,1,VDD*%
%TO.N,+5V*%
X186018000Y-135052000D03*
%TO.P,D5,2,DOUT*%
%TO.N,Net-(D5-Pad2)*%
X186018000Y-138252000D03*
%TO.P,D5,3,VSS*%
%TO.N,GND*%
X190918000Y-138252000D03*
%TO.P,D5,4,DIN*%
%TO.N,Net-(D4-Pad2)*%
X190918000Y-135052000D03*
%TD*%
%TO.P,D7,1,VDD*%
%TO.N,+5V*%
X209132000Y-135052000D03*
%TO.P,D7,2,DOUT*%
%TO.N,N_out*%
X209132000Y-138252000D03*
%TO.P,D7,3,VSS*%
%TO.N,GND*%
X214032000Y-138252000D03*
%TO.P,D7,4,DIN*%
%TO.N,Net-(D6-Pad2)*%
X214032000Y-135052000D03*
%TD*%
D11*
%TO.P,,1*%
%TO.N,GND*%
X121412000Y-71120000D03*
%TD*%
D14*
%TO.N,+5V*%
X137668000Y-134366000D03*
D15*
%TO.N,GND*%
X149606000Y-94742000D03*
X127733615Y-87868829D03*
X172720000Y-145034000D03*
X205740000Y-145288000D03*
X119634000Y-134112000D03*
X141928905Y-125390650D03*
X163568157Y-75966318D03*
X209144609Y-95524716D03*
X118618000Y-146304000D03*
X172001595Y-93730368D03*
X129032000Y-147320000D03*
X128778000Y-103886000D03*
X149352000Y-115062000D03*
X147828000Y-145542000D03*
X125348534Y-109520635D03*
X162814000Y-144526000D03*
X145445237Y-77760666D03*
X122908811Y-147534240D03*
X196596000Y-73914000D03*
X128270000Y-76200000D03*
X165354000Y-87884000D03*
X210938958Y-81528798D03*
X185279774Y-122081074D03*
%TO.N,LED_back*%
X127254000Y-97282000D03*
%TD*%
D16*
%TO.N,+5V*%
X139790000Y-133948000D02*
X139446000Y-133604000D01*
X197575000Y-135052000D02*
X197575000Y-134329000D01*
X162052000Y-133604000D02*
X171450000Y-133604000D01*
X171450000Y-133604000D02*
X172974000Y-133604000D01*
X150876000Y-133604000D02*
X139446000Y-133604000D01*
X174461000Y-135052000D02*
X174461000Y-134329000D01*
X117602000Y-82042000D02*
X120142000Y-79502000D01*
X162306000Y-133604000D02*
X162052000Y-133604000D01*
X185166000Y-133604000D02*
X196088000Y-133604000D01*
X186018000Y-135052000D02*
X186018000Y-134456000D01*
X159766000Y-133604000D02*
X162052000Y-133604000D01*
X139790000Y-135052000D02*
X139790000Y-133948000D01*
X122174000Y-136906000D02*
X119888000Y-136906000D01*
X172974000Y-133604000D02*
X183642000Y-133604000D01*
X150876000Y-133604000D02*
X159766000Y-133604000D01*
X174461000Y-134329000D02*
X173736000Y-133604000D01*
X196850000Y-133604000D02*
X208026000Y-133604000D01*
X117602000Y-134620000D02*
X117602000Y-82042000D01*
X151347000Y-135052000D02*
X151347000Y-134075000D01*
X151347000Y-134075000D02*
X150876000Y-133604000D01*
X173736000Y-133604000D02*
X172974000Y-133604000D01*
X186018000Y-134456000D02*
X185166000Y-133604000D01*
X119888000Y-136906000D02*
X117602000Y-134620000D01*
X138430000Y-133604000D02*
X139446000Y-133604000D01*
X183642000Y-133604000D02*
X185166000Y-133604000D01*
X209132000Y-135052000D02*
X209132000Y-134710000D01*
X196088000Y-133604000D02*
X196850000Y-133604000D01*
X162904000Y-135052000D02*
X162904000Y-134202000D01*
X209132000Y-134710000D02*
X208026000Y-133604000D01*
X137668000Y-134366000D02*
X138430000Y-133604000D01*
X197575000Y-134329000D02*
X196850000Y-133604000D01*
X162904000Y-134202000D02*
X162306000Y-133604000D01*
%TO.N,Net-(D1-Pad2)*%
X154139000Y-137160000D02*
X156247000Y-135052000D01*
X139790000Y-138252000D02*
X140882000Y-137160000D01*
X140882000Y-137160000D02*
X154139000Y-137160000D01*
%TO.N,N_in*%
X133926000Y-141410000D02*
X138938000Y-136398000D01*
X138938000Y-136398000D02*
X143344000Y-136398000D01*
X133926000Y-141515000D02*
X133926000Y-141410000D01*
X143344000Y-136398000D02*
X144690000Y-135052000D01*
X124243000Y-141515000D02*
X133926000Y-141515000D01*
X122174000Y-139446000D02*
X124243000Y-141515000D01*
%TO.N,Net-(D2-Pad2)*%
X156205000Y-136144000D02*
X166712000Y-136144000D01*
X154097000Y-138252000D02*
X156205000Y-136144000D01*
X151347000Y-138252000D02*
X154097000Y-138252000D01*
X166712000Y-136144000D02*
X167804000Y-135052000D01*
%TO.N,Net-(D3-Pad2)*%
X162904000Y-138252000D02*
X164250000Y-136906000D01*
X164250000Y-136906000D02*
X177507000Y-136906000D01*
X177507000Y-136906000D02*
X179361000Y-135052000D01*
%TO.N,Net-(D4-Pad2)*%
X190918000Y-135052000D02*
X190918000Y-135218000D01*
X177211000Y-138252000D02*
X179319000Y-136144000D01*
X174461000Y-138252000D02*
X177211000Y-138252000D01*
X190918000Y-135218000D02*
X189992000Y-136144000D01*
X179319000Y-136144000D02*
X189992000Y-136144000D01*
%TO.N,Net-(D5-Pad2)*%
X187376000Y-138252000D02*
X188722000Y-136906000D01*
X186018000Y-138252000D02*
X187376000Y-138252000D01*
X188722000Y-136906000D02*
X200621000Y-136906000D01*
X200621000Y-136906000D02*
X202475000Y-135052000D01*
%TO.N,Net-(D6-Pad2)*%
X197575000Y-138252000D02*
X200325000Y-138252000D01*
X201925000Y-136652000D02*
X212432000Y-136652000D01*
X212432000Y-136652000D02*
X214032000Y-135052000D01*
X200325000Y-138252000D02*
X201925000Y-136652000D01*
%TO.N,CS*%
X118635000Y-130048000D02*
X118635000Y-130827000D01*
X119380000Y-84582000D02*
X118618000Y-85344000D01*
X118618000Y-130031000D02*
X118635000Y-130048000D01*
X120142000Y-84582000D02*
X119380000Y-84582000D01*
X118618000Y-85344000D02*
X118618000Y-130031000D01*
X118635000Y-130827000D02*
X124714000Y-136906000D01*
%TO.N,MOSI*%
X132334000Y-99822000D02*
X132334000Y-136906000D01*
X120142000Y-92202000D02*
X124714000Y-92202000D01*
X124714000Y-92202000D02*
X132334000Y-99822000D01*
%TO.N,LED_back*%
X127254000Y-97282000D02*
X120142000Y-97282000D01*
%TO.N,MISO*%
X129794000Y-109474000D02*
X129794000Y-136906000D01*
X120142000Y-99822000D02*
X129794000Y-109474000D01*
%TD*%
%TA.AperFunction,Conductor*%
%TO.N,GND*%
G36*
X215841621Y-66060502D02*
G01*
X215888114Y-66114158D01*
X215899500Y-66166500D01*
X215899500Y-144729569D01*
X215879498Y-144797690D01*
X215825842Y-144844183D01*
X215755568Y-144854287D01*
X215690988Y-144824793D01*
X215651793Y-144762180D01*
X215622212Y-144651785D01*
X215620171Y-144645502D01*
X215483260Y-144288836D01*
X215480578Y-144282811D01*
X215307128Y-143942397D01*
X215303831Y-143936687D01*
X215095747Y-143616265D01*
X215091877Y-143610939D01*
X214898522Y-143372165D01*
X214886267Y-143363700D01*
X214875176Y-143370034D01*
X212462022Y-145783188D01*
X212454408Y-145797132D01*
X212454539Y-145798965D01*
X212458790Y-145805580D01*
X214874310Y-148221100D01*
X214887386Y-148228241D01*
X214897753Y-148220784D01*
X215091877Y-147981061D01*
X215095747Y-147975735D01*
X215303831Y-147655313D01*
X215307128Y-147649603D01*
X215480578Y-147309189D01*
X215483260Y-147303164D01*
X215620171Y-146946498D01*
X215622212Y-146940215D01*
X215651793Y-146829820D01*
X215688745Y-146769197D01*
X215752606Y-146738176D01*
X215823100Y-146746604D01*
X215877847Y-146791807D01*
X215899500Y-146862431D01*
X215899500Y-149479500D01*
X215879498Y-149547621D01*
X215825842Y-149594114D01*
X215773500Y-149605500D01*
X213156431Y-149605500D01*
X213088310Y-149585498D01*
X213041817Y-149531842D01*
X213031713Y-149461568D01*
X213061207Y-149396988D01*
X213123820Y-149357793D01*
X213234215Y-149328212D01*
X213240498Y-149326171D01*
X213597164Y-149189260D01*
X213603189Y-149186578D01*
X213943606Y-149013127D01*
X213949315Y-149009830D01*
X214269728Y-148801751D01*
X214275065Y-148797874D01*
X214513835Y-148604522D01*
X214522300Y-148592267D01*
X214515966Y-148581176D01*
X212102812Y-146168022D01*
X212088868Y-146160408D01*
X212087035Y-146160539D01*
X212080420Y-146164790D01*
X209664900Y-148580310D01*
X209657759Y-148593386D01*
X209665216Y-148603753D01*
X209904935Y-148797874D01*
X209910272Y-148801751D01*
X210230685Y-149009830D01*
X210236394Y-149013127D01*
X210576811Y-149186578D01*
X210582836Y-149189260D01*
X210939502Y-149326171D01*
X210945785Y-149328212D01*
X211056180Y-149357793D01*
X211116803Y-149394745D01*
X211147824Y-149458606D01*
X211139396Y-149529100D01*
X211094193Y-149583847D01*
X211023569Y-149605500D01*
X117728500Y-149605500D01*
X117660379Y-149585498D01*
X117613886Y-149531842D01*
X117602500Y-149479500D01*
X117602500Y-145799301D01*
X208377084Y-145799301D01*
X208397080Y-146180833D01*
X208397766Y-146187371D01*
X208457535Y-146564734D01*
X208458906Y-146571184D01*
X208557788Y-146940216D01*
X208559829Y-146946498D01*
X208696740Y-147303164D01*
X208699422Y-147309189D01*
X208872872Y-147649603D01*
X208876169Y-147655313D01*
X209084253Y-147975735D01*
X209088123Y-147981061D01*
X209281478Y-148219835D01*
X209293733Y-148228300D01*
X209304824Y-148221966D01*
X211717978Y-145808812D01*
X211725592Y-145794868D01*
X211725461Y-145793035D01*
X211721210Y-145786420D01*
X209305690Y-143370900D01*
X209292614Y-143363759D01*
X209282247Y-143371216D01*
X209088123Y-143610939D01*
X209084253Y-143616265D01*
X208876169Y-143936687D01*
X208872872Y-143942397D01*
X208699422Y-144282811D01*
X208696740Y-144288836D01*
X208559829Y-144645502D01*
X208557788Y-144651784D01*
X208458906Y-145020816D01*
X208457535Y-145027266D01*
X208397766Y-145404629D01*
X208397080Y-145411167D01*
X208377084Y-145792699D01*
X208377084Y-145799301D01*
X117602500Y-145799301D01*
X117602500Y-142999733D01*
X209657700Y-142999733D01*
X209664034Y-143010824D01*
X212077188Y-145423978D01*
X212091132Y-145431592D01*
X212092965Y-145431461D01*
X212099580Y-145427210D01*
X214515100Y-143011690D01*
X214522241Y-142998614D01*
X214514784Y-142988247D01*
X214275065Y-142794126D01*
X214269728Y-142790249D01*
X213949315Y-142582170D01*
X213943606Y-142578873D01*
X213603189Y-142405422D01*
X213597164Y-142402740D01*
X213240498Y-142265829D01*
X213234216Y-142263788D01*
X212865184Y-142164906D01*
X212858734Y-142163535D01*
X212481371Y-142103766D01*
X212474833Y-142103080D01*
X212093301Y-142083084D01*
X212086699Y-142083084D01*
X211705167Y-142103080D01*
X211698629Y-142103766D01*
X211321266Y-142163535D01*
X211314816Y-142164906D01*
X210945784Y-142263788D01*
X210939502Y-142265829D01*
X210582836Y-142402740D01*
X210576811Y-142405422D01*
X210236397Y-142578872D01*
X210230687Y-142582169D01*
X209910265Y-142790253D01*
X209904939Y-142794123D01*
X209666165Y-142987478D01*
X209657700Y-142999733D01*
X117602500Y-142999733D01*
X117602500Y-135997371D01*
X117622502Y-135929250D01*
X117676158Y-135882757D01*
X117746432Y-135872653D01*
X117811012Y-135902147D01*
X117817595Y-135908276D01*
X119304230Y-137394911D01*
X119316616Y-137409323D01*
X119325149Y-137420918D01*
X119325154Y-137420923D01*
X119329492Y-137426818D01*
X119335070Y-137431557D01*
X119335073Y-137431560D01*
X119369768Y-137461035D01*
X119377284Y-137467965D01*
X119382979Y-137473660D01*
X119385861Y-137475940D01*
X119405251Y-137491281D01*
X119408655Y-137494072D01*
X119458703Y-137536591D01*
X119464285Y-137541333D01*
X119470801Y-137544661D01*
X119475850Y-137548028D01*
X119480979Y-137551195D01*
X119486716Y-137555734D01*
X119552875Y-137586655D01*
X119556769Y-137588558D01*
X119621808Y-137621769D01*
X119628916Y-137623508D01*
X119634559Y-137625607D01*
X119640322Y-137627524D01*
X119646950Y-137630622D01*
X119654112Y-137632112D01*
X119654113Y-137632112D01*
X119718412Y-137645486D01*
X119722696Y-137646456D01*
X119793610Y-137663808D01*
X119799212Y-137664156D01*
X119799215Y-137664156D01*
X119804764Y-137664500D01*
X119804762Y-137664536D01*
X119808755Y-137664775D01*
X119812947Y-137665149D01*
X119820115Y-137666640D01*
X119897520Y-137664546D01*
X119900928Y-137664500D01*
X120689500Y-137664500D01*
X120757621Y-137684502D01*
X120804114Y-137738158D01*
X120815500Y-137790500D01*
X120815500Y-137804134D01*
X120822255Y-137866316D01*
X120873385Y-138002705D01*
X120960739Y-138119261D01*
X121077295Y-138206615D01*
X121085704Y-138209767D01*
X121085705Y-138209768D01*
X121194451Y-138250535D01*
X121251216Y-138293176D01*
X121275916Y-138359738D01*
X121260709Y-138429087D01*
X121241316Y-138455568D01*
X121114629Y-138588138D01*
X120988743Y-138772680D01*
X120949369Y-138857505D01*
X120897371Y-138969526D01*
X120894688Y-138975305D01*
X120834989Y-139190570D01*
X120811251Y-139412695D01*
X120824110Y-139635715D01*
X120825247Y-139640761D01*
X120825248Y-139640767D01*
X120838597Y-139700000D01*
X120873222Y-139853639D01*
X120957266Y-140060616D01*
X121007863Y-140143183D01*
X121071291Y-140246688D01*
X121073987Y-140251088D01*
X121220250Y-140419938D01*
X121392126Y-140562632D01*
X121585000Y-140675338D01*
X121793692Y-140755030D01*
X121798760Y-140756061D01*
X121798763Y-140756062D01*
X121906379Y-140777957D01*
X122012597Y-140799567D01*
X122017772Y-140799757D01*
X122017774Y-140799757D01*
X122230673Y-140807564D01*
X122230677Y-140807564D01*
X122235837Y-140807753D01*
X122375908Y-140789809D01*
X122446017Y-140800993D01*
X122481012Y-140825693D01*
X123659230Y-142003911D01*
X123671616Y-142018323D01*
X123680149Y-142029918D01*
X123680154Y-142029923D01*
X123684492Y-142035818D01*
X123690070Y-142040557D01*
X123690073Y-142040560D01*
X123724768Y-142070035D01*
X123732284Y-142076965D01*
X123737979Y-142082660D01*
X123740861Y-142084940D01*
X123760251Y-142100281D01*
X123763655Y-142103072D01*
X123802661Y-142136210D01*
X123819285Y-142150333D01*
X123825801Y-142153661D01*
X123830850Y-142157028D01*
X123835979Y-142160195D01*
X123841716Y-142164734D01*
X123907875Y-142195655D01*
X123911769Y-142197558D01*
X123976808Y-142230769D01*
X123983917Y-142232508D01*
X123989551Y-142234604D01*
X123995321Y-142236523D01*
X124001950Y-142239622D01*
X124009113Y-142241112D01*
X124009116Y-142241113D01*
X124057160Y-142251106D01*
X124073435Y-142254491D01*
X124077701Y-142255457D01*
X124148610Y-142272808D01*
X124154212Y-142273156D01*
X124154215Y-142273156D01*
X124159764Y-142273500D01*
X124159762Y-142273535D01*
X124163734Y-142273775D01*
X124167955Y-142274152D01*
X124175115Y-142275641D01*
X124252542Y-142273546D01*
X124255950Y-142273500D01*
X133898165Y-142273500D01*
X133905966Y-142273742D01*
X133967298Y-142277547D01*
X134030889Y-142266620D01*
X134037610Y-142265652D01*
X134058535Y-142263212D01*
X134094411Y-142259030D01*
X134094414Y-142259029D01*
X134101681Y-142258182D01*
X134110607Y-142254942D01*
X134132258Y-142249201D01*
X134141614Y-142247594D01*
X134200996Y-142222327D01*
X134207289Y-142219848D01*
X134267937Y-142197833D01*
X134274739Y-142193374D01*
X134275878Y-142192627D01*
X134295615Y-142182067D01*
X134297623Y-142181213D01*
X134297635Y-142181206D01*
X134304364Y-142178343D01*
X134310256Y-142174007D01*
X134310261Y-142174004D01*
X134356332Y-142140100D01*
X134361928Y-142136210D01*
X134366986Y-142132894D01*
X134415852Y-142100856D01*
X134422384Y-142093961D01*
X134439166Y-142079139D01*
X134446818Y-142073508D01*
X134451553Y-142067935D01*
X134451560Y-142067928D01*
X134488581Y-142024351D01*
X134493133Y-142019277D01*
X134532457Y-141977766D01*
X134532458Y-141977765D01*
X134537490Y-141972453D01*
X134541165Y-141966126D01*
X134541172Y-141966117D01*
X134542267Y-141964232D01*
X134555185Y-141945953D01*
X134556594Y-141944294D01*
X134556596Y-141944291D01*
X134561333Y-141938715D01*
X134564659Y-141932201D01*
X134564662Y-141932197D01*
X134590670Y-141881264D01*
X134593932Y-141875281D01*
X134622649Y-141825841D01*
X134622650Y-141825839D01*
X134626326Y-141819510D01*
X134628447Y-141812506D01*
X134628449Y-141812502D01*
X134629078Y-141810425D01*
X134637451Y-141789649D01*
X134641769Y-141781192D01*
X134641769Y-141781191D01*
X134641993Y-141781306D01*
X134668211Y-141740470D01*
X138316405Y-138092276D01*
X138378717Y-138058250D01*
X138449532Y-138063315D01*
X138506368Y-138105862D01*
X138531179Y-138172382D01*
X138531500Y-138181371D01*
X138531500Y-138800134D01*
X138538255Y-138862316D01*
X138589385Y-138998705D01*
X138676739Y-139115261D01*
X138793295Y-139202615D01*
X138929684Y-139253745D01*
X138991866Y-139260500D01*
X140588134Y-139260500D01*
X140650316Y-139253745D01*
X140786705Y-139202615D01*
X140903261Y-139115261D01*
X140990615Y-138998705D01*
X141041745Y-138862316D01*
X141048500Y-138800134D01*
X141048500Y-138796669D01*
X143432001Y-138796669D01*
X143432371Y-138803490D01*
X143437895Y-138854352D01*
X143441521Y-138869604D01*
X143486676Y-138990054D01*
X143495214Y-139005649D01*
X143571715Y-139107724D01*
X143584276Y-139120285D01*
X143686351Y-139196786D01*
X143701946Y-139205324D01*
X143822394Y-139250478D01*
X143837649Y-139254105D01*
X143888514Y-139259631D01*
X143895328Y-139260000D01*
X144417885Y-139260000D01*
X144433124Y-139255525D01*
X144434329Y-139254135D01*
X144436000Y-139246452D01*
X144436000Y-139241884D01*
X144944000Y-139241884D01*
X144948475Y-139257123D01*
X144949865Y-139258328D01*
X144957548Y-139259999D01*
X145484669Y-139259999D01*
X145491490Y-139259629D01*
X145542352Y-139254105D01*
X145557604Y-139250479D01*
X145678054Y-139205324D01*
X145693649Y-139196786D01*
X145795724Y-139120285D01*
X145808285Y-139107724D01*
X145884786Y-139005649D01*
X145893324Y-138990054D01*
X145938478Y-138869606D01*
X145942105Y-138854351D01*
X145947631Y-138803486D01*
X145948000Y-138796672D01*
X145948000Y-138524115D01*
X145943525Y-138508876D01*
X145942135Y-138507671D01*
X145934452Y-138506000D01*
X144962115Y-138506000D01*
X144946876Y-138510475D01*
X144945671Y-138511865D01*
X144944000Y-138519548D01*
X144944000Y-139241884D01*
X144436000Y-139241884D01*
X144436000Y-138524115D01*
X144431525Y-138508876D01*
X144430135Y-138507671D01*
X144422452Y-138506000D01*
X143450116Y-138506000D01*
X143434877Y-138510475D01*
X143433672Y-138511865D01*
X143432001Y-138519548D01*
X143432001Y-138796669D01*
X141048500Y-138796669D01*
X141048500Y-138118371D01*
X141068502Y-138050250D01*
X141085405Y-138029276D01*
X141159276Y-137955405D01*
X141221588Y-137921379D01*
X141248371Y-137918500D01*
X143319654Y-137918500D01*
X143387775Y-137938502D01*
X143434268Y-137992158D01*
X143434849Y-137993715D01*
X143437865Y-137996329D01*
X143445548Y-137998000D01*
X145929884Y-137998000D01*
X145945123Y-137993525D01*
X145967388Y-137967830D01*
X145967806Y-137968193D01*
X145974791Y-137955402D01*
X146037104Y-137921379D01*
X146063884Y-137918500D01*
X149962500Y-137918500D01*
X150030621Y-137938502D01*
X150077114Y-137992158D01*
X150088500Y-138044500D01*
X150088500Y-138800134D01*
X150095255Y-138862316D01*
X150146385Y-138998705D01*
X150233739Y-139115261D01*
X150350295Y-139202615D01*
X150486684Y-139253745D01*
X150548866Y-139260500D01*
X152145134Y-139260500D01*
X152207316Y-139253745D01*
X152343705Y-139202615D01*
X152460261Y-139115261D01*
X152500976Y-139060935D01*
X152557835Y-139018420D01*
X152601802Y-139010500D01*
X154029930Y-139010500D01*
X154048880Y-139011933D01*
X154063115Y-139014099D01*
X154063119Y-139014099D01*
X154070349Y-139015199D01*
X154077641Y-139014606D01*
X154077644Y-139014606D01*
X154123018Y-139010915D01*
X154133233Y-139010500D01*
X154141293Y-139010500D01*
X154154583Y-139008951D01*
X154169507Y-139007211D01*
X154173882Y-139006778D01*
X154239339Y-139001454D01*
X154239342Y-139001453D01*
X154246637Y-139000860D01*
X154253601Y-138998604D01*
X154259560Y-138997413D01*
X154265415Y-138996029D01*
X154272681Y-138995182D01*
X154341327Y-138970265D01*
X154345455Y-138968848D01*
X154407936Y-138948607D01*
X154407938Y-138948606D01*
X154414899Y-138946351D01*
X154421154Y-138942555D01*
X154426628Y-138940049D01*
X154432058Y-138937330D01*
X154438937Y-138934833D01*
X154499976Y-138894814D01*
X154503680Y-138892477D01*
X154566107Y-138854595D01*
X154574484Y-138847197D01*
X154574508Y-138847224D01*
X154577500Y-138844571D01*
X154580733Y-138841868D01*
X154586852Y-138837856D01*
X154640128Y-138781617D01*
X154642506Y-138779175D01*
X154773906Y-138647775D01*
X154836218Y-138613749D01*
X154907033Y-138618814D01*
X154963869Y-138661361D01*
X154988680Y-138727881D01*
X154989001Y-138736870D01*
X154989001Y-138796669D01*
X154989371Y-138803490D01*
X154994895Y-138854352D01*
X154998521Y-138869604D01*
X155043676Y-138990054D01*
X155052214Y-139005649D01*
X155128715Y-139107724D01*
X155141276Y-139120285D01*
X155243351Y-139196786D01*
X155258946Y-139205324D01*
X155379394Y-139250478D01*
X155394649Y-139254105D01*
X155445514Y-139259631D01*
X155452328Y-139260000D01*
X155974885Y-139260000D01*
X155990124Y-139255525D01*
X155991329Y-139254135D01*
X155993000Y-139246452D01*
X155993000Y-139241884D01*
X156501000Y-139241884D01*
X156505475Y-139257123D01*
X156506865Y-139258328D01*
X156514548Y-139259999D01*
X157041669Y-139259999D01*
X157048490Y-139259629D01*
X157099352Y-139254105D01*
X157114604Y-139250479D01*
X157235054Y-139205324D01*
X157250649Y-139196786D01*
X157352724Y-139120285D01*
X157365285Y-139107724D01*
X157441786Y-139005649D01*
X157450324Y-138990054D01*
X157495478Y-138869606D01*
X157499105Y-138854351D01*
X157504631Y-138803486D01*
X157505000Y-138796672D01*
X157505000Y-138524115D01*
X157500525Y-138508876D01*
X157499135Y-138507671D01*
X157491452Y-138506000D01*
X156519115Y-138506000D01*
X156503876Y-138510475D01*
X156502671Y-138511865D01*
X156501000Y-138519548D01*
X156501000Y-139241884D01*
X155993000Y-139241884D01*
X155993000Y-138124000D01*
X156013002Y-138055879D01*
X156066658Y-138009386D01*
X156119000Y-137998000D01*
X157486884Y-137998000D01*
X157502123Y-137993525D01*
X157503328Y-137992135D01*
X157504999Y-137984452D01*
X157504999Y-137707331D01*
X157504629Y-137700510D01*
X157499105Y-137649648D01*
X157495479Y-137634396D01*
X157450324Y-137513946D01*
X157441786Y-137498351D01*
X157365285Y-137396276D01*
X157352724Y-137383715D01*
X157250649Y-137307214D01*
X157235054Y-137298676D01*
X157114606Y-137253522D01*
X157099351Y-137249895D01*
X157048486Y-137244369D01*
X157041672Y-137244000D01*
X156481870Y-137244001D01*
X156413749Y-137223999D01*
X156367256Y-137170343D01*
X156357152Y-137100070D01*
X156386645Y-137035489D01*
X156392775Y-137028906D01*
X156482276Y-136939405D01*
X156544588Y-136905379D01*
X156571371Y-136902500D01*
X162876629Y-136902500D01*
X162944750Y-136922502D01*
X162991243Y-136976158D01*
X163001347Y-137046432D01*
X162971853Y-137111012D01*
X162965724Y-137117595D01*
X162876724Y-137206595D01*
X162814412Y-137240621D01*
X162787629Y-137243500D01*
X162105866Y-137243500D01*
X162043684Y-137250255D01*
X161907295Y-137301385D01*
X161790739Y-137388739D01*
X161703385Y-137505295D01*
X161652255Y-137641684D01*
X161645500Y-137703866D01*
X161645500Y-138800134D01*
X161652255Y-138862316D01*
X161703385Y-138998705D01*
X161790739Y-139115261D01*
X161907295Y-139202615D01*
X162043684Y-139253745D01*
X162105866Y-139260500D01*
X163702134Y-139260500D01*
X163764316Y-139253745D01*
X163900705Y-139202615D01*
X164017261Y-139115261D01*
X164104615Y-138998705D01*
X164155745Y-138862316D01*
X164162500Y-138800134D01*
X164162500Y-138796669D01*
X166546001Y-138796669D01*
X166546371Y-138803490D01*
X166551895Y-138854352D01*
X166555521Y-138869604D01*
X166600676Y-138990054D01*
X166609214Y-139005649D01*
X166685715Y-139107724D01*
X166698276Y-139120285D01*
X166800351Y-139196786D01*
X166815946Y-139205324D01*
X166936394Y-139250478D01*
X166951649Y-139254105D01*
X167002514Y-139259631D01*
X167009328Y-139260000D01*
X167531885Y-139260000D01*
X167547124Y-139255525D01*
X167548329Y-139254135D01*
X167550000Y-139246452D01*
X167550000Y-139241884D01*
X168058000Y-139241884D01*
X168062475Y-139257123D01*
X168063865Y-139258328D01*
X168071548Y-139259999D01*
X168598669Y-139259999D01*
X168605490Y-139259629D01*
X168656352Y-139254105D01*
X168671604Y-139250479D01*
X168792054Y-139205324D01*
X168807649Y-139196786D01*
X168909724Y-139120285D01*
X168922285Y-139107724D01*
X168998786Y-139005649D01*
X169007324Y-138990054D01*
X169052478Y-138869606D01*
X169056105Y-138854351D01*
X169061631Y-138803486D01*
X169062000Y-138796672D01*
X169062000Y-138524115D01*
X169057525Y-138508876D01*
X169056135Y-138507671D01*
X169048452Y-138506000D01*
X168076115Y-138506000D01*
X168060876Y-138510475D01*
X168059671Y-138511865D01*
X168058000Y-138519548D01*
X168058000Y-139241884D01*
X167550000Y-139241884D01*
X167550000Y-138524115D01*
X167545525Y-138508876D01*
X167544135Y-138507671D01*
X167536452Y-138506000D01*
X166564116Y-138506000D01*
X166548877Y-138510475D01*
X166547672Y-138511865D01*
X166546001Y-138519548D01*
X166546001Y-138796669D01*
X164162500Y-138796669D01*
X164162500Y-138118371D01*
X164182502Y-138050250D01*
X164199405Y-138029276D01*
X164527276Y-137701405D01*
X164589588Y-137667379D01*
X164616371Y-137664500D01*
X166420000Y-137664500D01*
X166488121Y-137684502D01*
X166534614Y-137738158D01*
X166546000Y-137790500D01*
X166546000Y-137979885D01*
X166550475Y-137995124D01*
X166551865Y-137996329D01*
X166559548Y-137998000D01*
X169043884Y-137998000D01*
X169059123Y-137993525D01*
X169060328Y-137992135D01*
X169061999Y-137984452D01*
X169061999Y-137790500D01*
X169082001Y-137722379D01*
X169135657Y-137675886D01*
X169187999Y-137664500D01*
X173076500Y-137664500D01*
X173144621Y-137684502D01*
X173191114Y-137738158D01*
X173202500Y-137790500D01*
X173202500Y-138800134D01*
X173209255Y-138862316D01*
X173260385Y-138998705D01*
X173347739Y-139115261D01*
X173464295Y-139202615D01*
X173600684Y-139253745D01*
X173662866Y-139260500D01*
X175259134Y-139260500D01*
X175321316Y-139253745D01*
X175457705Y-139202615D01*
X175574261Y-139115261D01*
X175614976Y-139060935D01*
X175671835Y-139018420D01*
X175715802Y-139010500D01*
X177143930Y-139010500D01*
X177162880Y-139011933D01*
X177177115Y-139014099D01*
X177177119Y-139014099D01*
X177184349Y-139015199D01*
X177191641Y-139014606D01*
X177191644Y-139014606D01*
X177237018Y-139010915D01*
X177247233Y-139010500D01*
X177255293Y-139010500D01*
X177268583Y-139008951D01*
X177283507Y-139007211D01*
X177287882Y-139006778D01*
X177353339Y-139001454D01*
X177353342Y-139001453D01*
X177360637Y-139000860D01*
X177367601Y-138998604D01*
X177373560Y-138997413D01*
X177379415Y-138996029D01*
X177386681Y-138995182D01*
X177455327Y-138970265D01*
X177459455Y-138968848D01*
X177521936Y-138948607D01*
X177521938Y-138948606D01*
X177528899Y-138946351D01*
X177535154Y-138942555D01*
X177540628Y-138940049D01*
X177546058Y-138937330D01*
X177552937Y-138934833D01*
X177613976Y-138894814D01*
X177617680Y-138892477D01*
X177680107Y-138854595D01*
X177688484Y-138847197D01*
X177688508Y-138847224D01*
X177691500Y-138844571D01*
X177694733Y-138841868D01*
X177700852Y-138837856D01*
X177754128Y-138781617D01*
X177756506Y-138779175D01*
X177887906Y-138647775D01*
X177950218Y-138613749D01*
X178021033Y-138618814D01*
X178077869Y-138661361D01*
X178102680Y-138727881D01*
X178103001Y-138736870D01*
X178103001Y-138796669D01*
X178103371Y-138803490D01*
X178108895Y-138854352D01*
X178112521Y-138869604D01*
X178157676Y-138990054D01*
X178166214Y-139005649D01*
X178242715Y-139107724D01*
X178255276Y-139120285D01*
X178357351Y-139196786D01*
X178372946Y-139205324D01*
X178493394Y-139250478D01*
X178508649Y-139254105D01*
X178559514Y-139259631D01*
X178566328Y-139260000D01*
X179088885Y-139260000D01*
X179104124Y-139255525D01*
X179105329Y-139254135D01*
X179107000Y-139246452D01*
X179107000Y-139241884D01*
X179615000Y-139241884D01*
X179619475Y-139257123D01*
X179620865Y-139258328D01*
X179628548Y-139259999D01*
X180155669Y-139259999D01*
X180162490Y-139259629D01*
X180213352Y-139254105D01*
X180228604Y-139250479D01*
X180349054Y-139205324D01*
X180364649Y-139196786D01*
X180466724Y-139120285D01*
X180479285Y-139107724D01*
X180555786Y-139005649D01*
X180564324Y-138990054D01*
X180609478Y-138869606D01*
X180613105Y-138854351D01*
X180618631Y-138803486D01*
X180619000Y-138796672D01*
X180619000Y-138524115D01*
X180614525Y-138508876D01*
X180613135Y-138507671D01*
X180605452Y-138506000D01*
X179633115Y-138506000D01*
X179617876Y-138510475D01*
X179616671Y-138511865D01*
X179615000Y-138519548D01*
X179615000Y-139241884D01*
X179107000Y-139241884D01*
X179107000Y-138124000D01*
X179127002Y-138055879D01*
X179180658Y-138009386D01*
X179233000Y-137998000D01*
X180600884Y-137998000D01*
X180616123Y-137993525D01*
X180617328Y-137992135D01*
X180618999Y-137984452D01*
X180618999Y-137707331D01*
X180618629Y-137700510D01*
X180613105Y-137649648D01*
X180609479Y-137634396D01*
X180564324Y-137513946D01*
X180555786Y-137498351D01*
X180479285Y-137396276D01*
X180466724Y-137383715D01*
X180364649Y-137307214D01*
X180349054Y-137298676D01*
X180228606Y-137253522D01*
X180213351Y-137249895D01*
X180162486Y-137244369D01*
X180155672Y-137244000D01*
X179595870Y-137244001D01*
X179527749Y-137223999D01*
X179481256Y-137170343D01*
X179471152Y-137100070D01*
X179500645Y-137035489D01*
X179506775Y-137028906D01*
X179596276Y-136939405D01*
X179658588Y-136905379D01*
X179685371Y-136902500D01*
X187348629Y-136902500D01*
X187416750Y-136922502D01*
X187463243Y-136976158D01*
X187473347Y-137046432D01*
X187443853Y-137111012D01*
X187437724Y-137117595D01*
X187228695Y-137326624D01*
X187166383Y-137360650D01*
X187095568Y-137355585D01*
X187064036Y-137338356D01*
X187038579Y-137319278D01*
X187014705Y-137301385D01*
X186878316Y-137250255D01*
X186816134Y-137243500D01*
X185219866Y-137243500D01*
X185157684Y-137250255D01*
X185021295Y-137301385D01*
X184904739Y-137388739D01*
X184817385Y-137505295D01*
X184766255Y-137641684D01*
X184759500Y-137703866D01*
X184759500Y-138800134D01*
X184766255Y-138862316D01*
X184817385Y-138998705D01*
X184904739Y-139115261D01*
X185021295Y-139202615D01*
X185157684Y-139253745D01*
X185219866Y-139260500D01*
X186816134Y-139260500D01*
X186878316Y-139253745D01*
X187014705Y-139202615D01*
X187131261Y-139115261D01*
X187171976Y-139060935D01*
X187228835Y-139018420D01*
X187272802Y-139010500D01*
X187308930Y-139010500D01*
X187327880Y-139011933D01*
X187342115Y-139014099D01*
X187342119Y-139014099D01*
X187349349Y-139015199D01*
X187356641Y-139014606D01*
X187356644Y-139014606D01*
X187402018Y-139010915D01*
X187412233Y-139010500D01*
X187420293Y-139010500D01*
X187433583Y-139008951D01*
X187448507Y-139007211D01*
X187452882Y-139006778D01*
X187518339Y-139001454D01*
X187518342Y-139001453D01*
X187525637Y-139000860D01*
X187532601Y-138998604D01*
X187538560Y-138997413D01*
X187544415Y-138996029D01*
X187551681Y-138995182D01*
X187620327Y-138970265D01*
X187624455Y-138968848D01*
X187686936Y-138948607D01*
X187686938Y-138948606D01*
X187693899Y-138946351D01*
X187700154Y-138942555D01*
X187705628Y-138940049D01*
X187711058Y-138937330D01*
X187717937Y-138934833D01*
X187778976Y-138894814D01*
X187782680Y-138892477D01*
X187845107Y-138854595D01*
X187853484Y-138847197D01*
X187853508Y-138847224D01*
X187856500Y-138844571D01*
X187859733Y-138841868D01*
X187865852Y-138837856D01*
X187904869Y-138796669D01*
X189660001Y-138796669D01*
X189660371Y-138803490D01*
X189665895Y-138854352D01*
X189669521Y-138869604D01*
X189714676Y-138990054D01*
X189723214Y-139005649D01*
X189799715Y-139107724D01*
X189812276Y-139120285D01*
X189914351Y-139196786D01*
X189929946Y-139205324D01*
X190050394Y-139250478D01*
X190065649Y-139254105D01*
X190116514Y-139259631D01*
X190123328Y-139260000D01*
X190645885Y-139260000D01*
X190661124Y-139255525D01*
X190662329Y-139254135D01*
X190664000Y-139246452D01*
X190664000Y-139241884D01*
X191172000Y-139241884D01*
X191176475Y-139257123D01*
X191177865Y-139258328D01*
X191185548Y-139259999D01*
X191712669Y-139259999D01*
X191719490Y-139259629D01*
X191770352Y-139254105D01*
X191785604Y-139250479D01*
X191906054Y-139205324D01*
X191921649Y-139196786D01*
X192023724Y-139120285D01*
X192036285Y-139107724D01*
X192112786Y-139005649D01*
X192121324Y-138990054D01*
X192166478Y-138869606D01*
X192170105Y-138854351D01*
X192175631Y-138803486D01*
X192176000Y-138796672D01*
X192176000Y-138524115D01*
X192171525Y-138508876D01*
X192170135Y-138507671D01*
X192162452Y-138506000D01*
X191190115Y-138506000D01*
X191174876Y-138510475D01*
X191173671Y-138511865D01*
X191172000Y-138519548D01*
X191172000Y-139241884D01*
X190664000Y-139241884D01*
X190664000Y-138524115D01*
X190659525Y-138508876D01*
X190658135Y-138507671D01*
X190650452Y-138506000D01*
X189678116Y-138506000D01*
X189662877Y-138510475D01*
X189661672Y-138511865D01*
X189660001Y-138519548D01*
X189660001Y-138796669D01*
X187904869Y-138796669D01*
X187919128Y-138781617D01*
X187921506Y-138779175D01*
X188999276Y-137701405D01*
X189061588Y-137667379D01*
X189088371Y-137664500D01*
X189534000Y-137664500D01*
X189602121Y-137684502D01*
X189648614Y-137738158D01*
X189660000Y-137790500D01*
X189660000Y-137979885D01*
X189664475Y-137995124D01*
X189665865Y-137996329D01*
X189673548Y-137998000D01*
X192157884Y-137998000D01*
X192173123Y-137993525D01*
X192174328Y-137992135D01*
X192175999Y-137984452D01*
X192175999Y-137790500D01*
X192196001Y-137722379D01*
X192249657Y-137675886D01*
X192301999Y-137664500D01*
X196190500Y-137664500D01*
X196258621Y-137684502D01*
X196305114Y-137738158D01*
X196316500Y-137790500D01*
X196316500Y-138800134D01*
X196323255Y-138862316D01*
X196374385Y-138998705D01*
X196461739Y-139115261D01*
X196578295Y-139202615D01*
X196714684Y-139253745D01*
X196776866Y-139260500D01*
X198373134Y-139260500D01*
X198435316Y-139253745D01*
X198571705Y-139202615D01*
X198688261Y-139115261D01*
X198728976Y-139060935D01*
X198785835Y-139018420D01*
X198829802Y-139010500D01*
X200257930Y-139010500D01*
X200276880Y-139011933D01*
X200291115Y-139014099D01*
X200291119Y-139014099D01*
X200298349Y-139015199D01*
X200305641Y-139014606D01*
X200305644Y-139014606D01*
X200351018Y-139010915D01*
X200361233Y-139010500D01*
X200369293Y-139010500D01*
X200382583Y-139008951D01*
X200397507Y-139007211D01*
X200401882Y-139006778D01*
X200467339Y-139001454D01*
X200467342Y-139001453D01*
X200474637Y-139000860D01*
X200481601Y-138998604D01*
X200487560Y-138997413D01*
X200493415Y-138996029D01*
X200500681Y-138995182D01*
X200569327Y-138970265D01*
X200573455Y-138968848D01*
X200635936Y-138948607D01*
X200635938Y-138948606D01*
X200642899Y-138946351D01*
X200649154Y-138942555D01*
X200654628Y-138940049D01*
X200660058Y-138937330D01*
X200666937Y-138934833D01*
X200727976Y-138894814D01*
X200731680Y-138892477D01*
X200794107Y-138854595D01*
X200802484Y-138847197D01*
X200802508Y-138847224D01*
X200805500Y-138844571D01*
X200808733Y-138841868D01*
X200814852Y-138837856D01*
X200868128Y-138781617D01*
X200870506Y-138779175D01*
X201001906Y-138647775D01*
X201064218Y-138613749D01*
X201135033Y-138618814D01*
X201191869Y-138661361D01*
X201216680Y-138727881D01*
X201217001Y-138736870D01*
X201217001Y-138796669D01*
X201217371Y-138803490D01*
X201222895Y-138854352D01*
X201226521Y-138869604D01*
X201271676Y-138990054D01*
X201280214Y-139005649D01*
X201356715Y-139107724D01*
X201369276Y-139120285D01*
X201471351Y-139196786D01*
X201486946Y-139205324D01*
X201607394Y-139250478D01*
X201622649Y-139254105D01*
X201673514Y-139259631D01*
X201680328Y-139260000D01*
X202202885Y-139260000D01*
X202218124Y-139255525D01*
X202219329Y-139254135D01*
X202221000Y-139246452D01*
X202221000Y-139241884D01*
X202729000Y-139241884D01*
X202733475Y-139257123D01*
X202734865Y-139258328D01*
X202742548Y-139259999D01*
X203269669Y-139259999D01*
X203276490Y-139259629D01*
X203327352Y-139254105D01*
X203342604Y-139250479D01*
X203463054Y-139205324D01*
X203478649Y-139196786D01*
X203580724Y-139120285D01*
X203593285Y-139107724D01*
X203669786Y-139005649D01*
X203678324Y-138990054D01*
X203723478Y-138869606D01*
X203727105Y-138854351D01*
X203732631Y-138803486D01*
X203733000Y-138796672D01*
X203733000Y-138524115D01*
X203728525Y-138508876D01*
X203727135Y-138507671D01*
X203719452Y-138506000D01*
X202747115Y-138506000D01*
X202731876Y-138510475D01*
X202730671Y-138511865D01*
X202729000Y-138519548D01*
X202729000Y-139241884D01*
X202221000Y-139241884D01*
X202221000Y-138124000D01*
X202241002Y-138055879D01*
X202294658Y-138009386D01*
X202347000Y-137998000D01*
X203714884Y-137998000D01*
X203730123Y-137993525D01*
X203731328Y-137992135D01*
X203732999Y-137984452D01*
X203732999Y-137707331D01*
X203732629Y-137700510D01*
X203727105Y-137649648D01*
X203723479Y-137634397D01*
X203703360Y-137580730D01*
X203698177Y-137509923D01*
X203732097Y-137447554D01*
X203794352Y-137413425D01*
X203821342Y-137410500D01*
X207785124Y-137410500D01*
X207853245Y-137430502D01*
X207899738Y-137484158D01*
X207909842Y-137554432D01*
X207903107Y-137580727D01*
X207880255Y-137641684D01*
X207873500Y-137703866D01*
X207873500Y-138800134D01*
X207880255Y-138862316D01*
X207931385Y-138998705D01*
X208018739Y-139115261D01*
X208135295Y-139202615D01*
X208271684Y-139253745D01*
X208333866Y-139260500D01*
X209930134Y-139260500D01*
X209992316Y-139253745D01*
X210128705Y-139202615D01*
X210245261Y-139115261D01*
X210332615Y-138998705D01*
X210383745Y-138862316D01*
X210390500Y-138800134D01*
X210390500Y-138796669D01*
X212774001Y-138796669D01*
X212774371Y-138803490D01*
X212779895Y-138854352D01*
X212783521Y-138869604D01*
X212828676Y-138990054D01*
X212837214Y-139005649D01*
X212913715Y-139107724D01*
X212926276Y-139120285D01*
X213028351Y-139196786D01*
X213043946Y-139205324D01*
X213164394Y-139250478D01*
X213179649Y-139254105D01*
X213230514Y-139259631D01*
X213237328Y-139260000D01*
X213759885Y-139260000D01*
X213775124Y-139255525D01*
X213776329Y-139254135D01*
X213778000Y-139246452D01*
X213778000Y-139241884D01*
X214286000Y-139241884D01*
X214290475Y-139257123D01*
X214291865Y-139258328D01*
X214299548Y-139259999D01*
X214826669Y-139259999D01*
X214833490Y-139259629D01*
X214884352Y-139254105D01*
X214899604Y-139250479D01*
X215020054Y-139205324D01*
X215035649Y-139196786D01*
X215137724Y-139120285D01*
X215150285Y-139107724D01*
X215226786Y-139005649D01*
X215235324Y-138990054D01*
X215280478Y-138869606D01*
X215284105Y-138854351D01*
X215289631Y-138803486D01*
X215290000Y-138796672D01*
X215290000Y-138524115D01*
X215285525Y-138508876D01*
X215284135Y-138507671D01*
X215276452Y-138506000D01*
X214304115Y-138506000D01*
X214288876Y-138510475D01*
X214287671Y-138511865D01*
X214286000Y-138519548D01*
X214286000Y-139241884D01*
X213778000Y-139241884D01*
X213778000Y-138524115D01*
X213773525Y-138508876D01*
X213772135Y-138507671D01*
X213764452Y-138506000D01*
X212792116Y-138506000D01*
X212776877Y-138510475D01*
X212775672Y-138511865D01*
X212774001Y-138519548D01*
X212774001Y-138796669D01*
X210390500Y-138796669D01*
X210390500Y-137703866D01*
X210383745Y-137641684D01*
X210360894Y-137580729D01*
X210355711Y-137509923D01*
X210389631Y-137447554D01*
X210451887Y-137413425D01*
X210478876Y-137410500D01*
X212364930Y-137410500D01*
X212383880Y-137411933D01*
X212398115Y-137414099D01*
X212398119Y-137414099D01*
X212405349Y-137415199D01*
X212412641Y-137414606D01*
X212412644Y-137414606D01*
X212458018Y-137410915D01*
X212468233Y-137410500D01*
X212476293Y-137410500D01*
X212489777Y-137408928D01*
X212504507Y-137407211D01*
X212508882Y-137406778D01*
X212574339Y-137401454D01*
X212574342Y-137401453D01*
X212581637Y-137400860D01*
X212588601Y-137398604D01*
X212594560Y-137397413D01*
X212600414Y-137396029D01*
X212607681Y-137395182D01*
X212658105Y-137376879D01*
X212728962Y-137372438D01*
X212790973Y-137407011D01*
X212824448Y-137469620D01*
X212819078Y-137539548D01*
X212783522Y-137634394D01*
X212779895Y-137649649D01*
X212774369Y-137700514D01*
X212774000Y-137707328D01*
X212774000Y-137979885D01*
X212778475Y-137995124D01*
X212779865Y-137996329D01*
X212787548Y-137998000D01*
X213759885Y-137998000D01*
X213775124Y-137993525D01*
X213776329Y-137992135D01*
X213778000Y-137984452D01*
X213778000Y-137979885D01*
X214286000Y-137979885D01*
X214290475Y-137995124D01*
X214291865Y-137996329D01*
X214299548Y-137998000D01*
X215271884Y-137998000D01*
X215287123Y-137993525D01*
X215288328Y-137992135D01*
X215289999Y-137984452D01*
X215289999Y-137707331D01*
X215289629Y-137700510D01*
X215284105Y-137649648D01*
X215280479Y-137634396D01*
X215235324Y-137513946D01*
X215226786Y-137498351D01*
X215150285Y-137396276D01*
X215137724Y-137383715D01*
X215035649Y-137307214D01*
X215020054Y-137298676D01*
X214899606Y-137253522D01*
X214884351Y-137249895D01*
X214833486Y-137244369D01*
X214826672Y-137244000D01*
X214304115Y-137244000D01*
X214288876Y-137248475D01*
X214287671Y-137249865D01*
X214286000Y-137257548D01*
X214286000Y-137979885D01*
X213778000Y-137979885D01*
X213778000Y-137262116D01*
X213773525Y-137246877D01*
X213772135Y-137245672D01*
X213764452Y-137244001D01*
X213237331Y-137244001D01*
X213230516Y-137244370D01*
X213229239Y-137244509D01*
X213228941Y-137244456D01*
X213227123Y-137244554D01*
X213227100Y-137244126D01*
X213159356Y-137231985D01*
X213107337Y-137183667D01*
X213089699Y-137114897D01*
X213112041Y-137047507D01*
X213126529Y-137030152D01*
X214059276Y-136097405D01*
X214121588Y-136063379D01*
X214148371Y-136060500D01*
X214830134Y-136060500D01*
X214892316Y-136053745D01*
X215028705Y-136002615D01*
X215145261Y-135915261D01*
X215232615Y-135798705D01*
X215283745Y-135662316D01*
X215290500Y-135600134D01*
X215290500Y-134503866D01*
X215283745Y-134441684D01*
X215232615Y-134305295D01*
X215145261Y-134188739D01*
X215028705Y-134101385D01*
X214892316Y-134050255D01*
X214830134Y-134043500D01*
X213233866Y-134043500D01*
X213171684Y-134050255D01*
X213035295Y-134101385D01*
X212918739Y-134188739D01*
X212831385Y-134305295D01*
X212780255Y-134441684D01*
X212773500Y-134503866D01*
X212773500Y-135185629D01*
X212753498Y-135253750D01*
X212736595Y-135274724D01*
X212154724Y-135856595D01*
X212092412Y-135890621D01*
X212065629Y-135893500D01*
X210478876Y-135893500D01*
X210410755Y-135873498D01*
X210364262Y-135819842D01*
X210354158Y-135749568D01*
X210360894Y-135723270D01*
X210361021Y-135722931D01*
X210383745Y-135662316D01*
X210390500Y-135600134D01*
X210390500Y-134503866D01*
X210383745Y-134441684D01*
X210332615Y-134305295D01*
X210245261Y-134188739D01*
X210128705Y-134101385D01*
X209992316Y-134050255D01*
X209930134Y-134043500D01*
X209590371Y-134043500D01*
X209522250Y-134023498D01*
X209501276Y-134006595D01*
X208609770Y-133115089D01*
X208597384Y-133100677D01*
X208588851Y-133089082D01*
X208588846Y-133089077D01*
X208584508Y-133083182D01*
X208578930Y-133078443D01*
X208578927Y-133078440D01*
X208544232Y-133048965D01*
X208536716Y-133042035D01*
X208531021Y-133036340D01*
X208514736Y-133023456D01*
X208508749Y-133018719D01*
X208505345Y-133015928D01*
X208455297Y-132973409D01*
X208455295Y-132973408D01*
X208449715Y-132968667D01*
X208443199Y-132965339D01*
X208438150Y-132961972D01*
X208433021Y-132958805D01*
X208427284Y-132954266D01*
X208361125Y-132923345D01*
X208357225Y-132921439D01*
X208292192Y-132888231D01*
X208285084Y-132886492D01*
X208279441Y-132884393D01*
X208273678Y-132882476D01*
X208267050Y-132879378D01*
X208195583Y-132864513D01*
X208191299Y-132863543D01*
X208120390Y-132846192D01*
X208114788Y-132845844D01*
X208114785Y-132845844D01*
X208109236Y-132845500D01*
X208109238Y-132845464D01*
X208105245Y-132845225D01*
X208101053Y-132844851D01*
X208093885Y-132843360D01*
X208033225Y-132845001D01*
X208016479Y-132845454D01*
X208013072Y-132845500D01*
X196937941Y-132845500D01*
X196926740Y-132845001D01*
X196925050Y-132844850D01*
X196917885Y-132843360D01*
X196846767Y-132845284D01*
X196840479Y-132845454D01*
X196837072Y-132845500D01*
X185253941Y-132845500D01*
X185242740Y-132845001D01*
X185241050Y-132844850D01*
X185233885Y-132843360D01*
X185162767Y-132845284D01*
X185156479Y-132845454D01*
X185153072Y-132845500D01*
X173823941Y-132845500D01*
X173812740Y-132845001D01*
X173811050Y-132844850D01*
X173803885Y-132843360D01*
X173732767Y-132845284D01*
X173726479Y-132845454D01*
X173723072Y-132845500D01*
X162393941Y-132845500D01*
X162382740Y-132845001D01*
X162381050Y-132844850D01*
X162373885Y-132843360D01*
X162302767Y-132845284D01*
X162296479Y-132845454D01*
X162293072Y-132845500D01*
X150963941Y-132845500D01*
X150952740Y-132845001D01*
X150951050Y-132844850D01*
X150943885Y-132843360D01*
X150872767Y-132845284D01*
X150866479Y-132845454D01*
X150863072Y-132845500D01*
X139533941Y-132845500D01*
X139522740Y-132845001D01*
X139521050Y-132844850D01*
X139513885Y-132843360D01*
X139442767Y-132845284D01*
X139436479Y-132845454D01*
X139433072Y-132845500D01*
X138497070Y-132845500D01*
X138478120Y-132844067D01*
X138463885Y-132841901D01*
X138463881Y-132841901D01*
X138456651Y-132840801D01*
X138449359Y-132841394D01*
X138449356Y-132841394D01*
X138403982Y-132845085D01*
X138393767Y-132845500D01*
X138385707Y-132845500D01*
X138382073Y-132845924D01*
X138382067Y-132845924D01*
X138369042Y-132847443D01*
X138357480Y-132848791D01*
X138353132Y-132849221D01*
X138280364Y-132855140D01*
X138273403Y-132857395D01*
X138267463Y-132858582D01*
X138261588Y-132859971D01*
X138254319Y-132860818D01*
X138185670Y-132885736D01*
X138181542Y-132887153D01*
X138119064Y-132907393D01*
X138119062Y-132907394D01*
X138112101Y-132909649D01*
X138105846Y-132913445D01*
X138100372Y-132915951D01*
X138094942Y-132918670D01*
X138088063Y-132921167D01*
X138081943Y-132925180D01*
X138081942Y-132925180D01*
X138027024Y-132961186D01*
X138023320Y-132963523D01*
X137960893Y-133001405D01*
X137952516Y-133008803D01*
X137952492Y-133008776D01*
X137949500Y-133011429D01*
X137946267Y-133014132D01*
X137940148Y-133018144D01*
X137910951Y-133048965D01*
X137886872Y-133074383D01*
X137884494Y-133076825D01*
X137741118Y-133220201D01*
X137678806Y-133254227D01*
X137650375Y-133257095D01*
X137615335Y-133256637D01*
X137580655Y-133256183D01*
X137574958Y-133257162D01*
X137574957Y-133257162D01*
X137385567Y-133289705D01*
X137379870Y-133290684D01*
X137188734Y-133361198D01*
X137013649Y-133465363D01*
X136860478Y-133599690D01*
X136856911Y-133604215D01*
X136856906Y-133604220D01*
X136770331Y-133714040D01*
X136734351Y-133759681D01*
X136639492Y-133939978D01*
X136579078Y-134134543D01*
X136555132Y-134336859D01*
X136568457Y-134540151D01*
X136618605Y-134737610D01*
X136703898Y-134922624D01*
X136821479Y-135088997D01*
X136967410Y-135231157D01*
X136972206Y-135234362D01*
X136972209Y-135234364D01*
X137009828Y-135259500D01*
X137136803Y-135344342D01*
X137142106Y-135346620D01*
X137142109Y-135346622D01*
X137231115Y-135384862D01*
X137323987Y-135424763D01*
X137396817Y-135441243D01*
X137517055Y-135468450D01*
X137517060Y-135468451D01*
X137522692Y-135469725D01*
X137528463Y-135469952D01*
X137528465Y-135469952D01*
X137591470Y-135472427D01*
X137726263Y-135477723D01*
X137927883Y-135448490D01*
X137933347Y-135446635D01*
X137933352Y-135446634D01*
X138115327Y-135384862D01*
X138115332Y-135384860D01*
X138120799Y-135383004D01*
X138136674Y-135374114D01*
X138219692Y-135327621D01*
X138298551Y-135283458D01*
X138324931Y-135261518D01*
X138390095Y-135233337D01*
X138460150Y-135244861D01*
X138512854Y-135292429D01*
X138531500Y-135358392D01*
X138531500Y-135600134D01*
X138531869Y-135603531D01*
X138538255Y-135662316D01*
X138536276Y-135662531D01*
X138533126Y-135722931D01*
X138491684Y-135780577D01*
X138479618Y-135788896D01*
X138468892Y-135795405D01*
X138460516Y-135802803D01*
X138460493Y-135802777D01*
X138457503Y-135805426D01*
X138454264Y-135808134D01*
X138448148Y-135812144D01*
X138443121Y-135817451D01*
X138443117Y-135817454D01*
X138394872Y-135868383D01*
X138392494Y-135870825D01*
X133543724Y-140719595D01*
X133481412Y-140753621D01*
X133454629Y-140756500D01*
X133229040Y-140756500D01*
X133160919Y-140736498D01*
X133114426Y-140682842D01*
X133104322Y-140612568D01*
X133133816Y-140547988D01*
X133155872Y-140527921D01*
X133209328Y-140489792D01*
X133217200Y-140483139D01*
X133368052Y-140332812D01*
X133374730Y-140324965D01*
X133499003Y-140152020D01*
X133504313Y-140143183D01*
X133598670Y-139952267D01*
X133602469Y-139942672D01*
X133664377Y-139738910D01*
X133666555Y-139728837D01*
X133667986Y-139717962D01*
X133665775Y-139703778D01*
X133652617Y-139700000D01*
X132206000Y-139700000D01*
X132137879Y-139679998D01*
X132091386Y-139626342D01*
X132080000Y-139574000D01*
X132080000Y-139318000D01*
X132100002Y-139249879D01*
X132153658Y-139203386D01*
X132206000Y-139192000D01*
X133652344Y-139192000D01*
X133665875Y-139188027D01*
X133667180Y-139178947D01*
X133625214Y-139011875D01*
X133621894Y-139002124D01*
X133536972Y-138806814D01*
X133532105Y-138797739D01*
X133416426Y-138618926D01*
X133410136Y-138610757D01*
X133266806Y-138453240D01*
X133259273Y-138446215D01*
X133092139Y-138314222D01*
X133083556Y-138308520D01*
X133046602Y-138288120D01*
X132996631Y-138237687D01*
X132981859Y-138168245D01*
X133006975Y-138101839D01*
X133034327Y-138075232D01*
X133061459Y-138055879D01*
X133213860Y-137947173D01*
X133222562Y-137938502D01*
X133357616Y-137803918D01*
X133372096Y-137789489D01*
X133460372Y-137666640D01*
X133499435Y-137612277D01*
X133502453Y-137608077D01*
X133512099Y-137588561D01*
X133599136Y-137412453D01*
X133599137Y-137412451D01*
X133601430Y-137407811D01*
X133649418Y-137249865D01*
X133664865Y-137199023D01*
X133664865Y-137199021D01*
X133666370Y-137194069D01*
X133695529Y-136972590D01*
X133697156Y-136906000D01*
X133678852Y-136683361D01*
X133624431Y-136466702D01*
X133535354Y-136261840D01*
X133428976Y-136097405D01*
X133416822Y-136078617D01*
X133416820Y-136078614D01*
X133414014Y-136074277D01*
X133263670Y-135909051D01*
X133259615Y-135905848D01*
X133140407Y-135811703D01*
X133099345Y-135753785D01*
X133092500Y-135712821D01*
X133092500Y-121135869D01*
X211170689Y-121135869D01*
X211187238Y-121422883D01*
X211188063Y-121427088D01*
X211188064Y-121427096D01*
X211220010Y-121589921D01*
X211242586Y-121704995D01*
X211243973Y-121709045D01*
X211243974Y-121709050D01*
X211319557Y-121929807D01*
X211335710Y-121976986D01*
X211337637Y-121980817D01*
X211425310Y-122155135D01*
X211464885Y-122233822D01*
X211627721Y-122470750D01*
X211821206Y-122683388D01*
X211824501Y-122686143D01*
X211824502Y-122686144D01*
X211875258Y-122728582D01*
X212041759Y-122867798D01*
X212285298Y-123020571D01*
X212547318Y-123138877D01*
X212551437Y-123140097D01*
X212818857Y-123219311D01*
X212818862Y-123219312D01*
X212822970Y-123220529D01*
X212827204Y-123221177D01*
X212827209Y-123221178D01*
X213075811Y-123259219D01*
X213107153Y-123264015D01*
X213253485Y-123266314D01*
X213390317Y-123268464D01*
X213390323Y-123268464D01*
X213394608Y-123268531D01*
X213398860Y-123268016D01*
X213398868Y-123268016D01*
X213675756Y-123234508D01*
X213675761Y-123234507D01*
X213680017Y-123233992D01*
X213958097Y-123161039D01*
X214223704Y-123051021D01*
X214471922Y-122905974D01*
X214698159Y-122728582D01*
X214739285Y-122686144D01*
X214895244Y-122525206D01*
X214898227Y-122522128D01*
X214900760Y-122518680D01*
X214900764Y-122518675D01*
X215065887Y-122293886D01*
X215068425Y-122290431D01*
X215205604Y-122037779D01*
X215307225Y-121768848D01*
X215371407Y-121488613D01*
X215385675Y-121328748D01*
X215396743Y-121204726D01*
X215396743Y-121204724D01*
X215396963Y-121202260D01*
X215397427Y-121158000D01*
X215377873Y-120871175D01*
X215373336Y-120849264D01*
X215320443Y-120593855D01*
X215319574Y-120589658D01*
X215223607Y-120318657D01*
X215091750Y-120063188D01*
X215078488Y-120044317D01*
X214928904Y-119831482D01*
X214926441Y-119827977D01*
X214730740Y-119617378D01*
X214508268Y-119435287D01*
X214263142Y-119285073D01*
X214245048Y-119277130D01*
X214003830Y-119171243D01*
X213999898Y-119169517D01*
X213973963Y-119162129D01*
X213727534Y-119091932D01*
X213727535Y-119091932D01*
X213723406Y-119090756D01*
X213510704Y-119060485D01*
X213443036Y-119050854D01*
X213443034Y-119050854D01*
X213438784Y-119050249D01*
X213434495Y-119050227D01*
X213434488Y-119050226D01*
X213155583Y-119048765D01*
X213155576Y-119048765D01*
X213151297Y-119048743D01*
X213147053Y-119049302D01*
X213147049Y-119049302D01*
X213021660Y-119065810D01*
X212866266Y-119086268D01*
X212862126Y-119087401D01*
X212862124Y-119087401D01*
X212785311Y-119108415D01*
X212588964Y-119162129D01*
X212585016Y-119163813D01*
X212328476Y-119273237D01*
X212328472Y-119273239D01*
X212324524Y-119274923D01*
X212199960Y-119349473D01*
X212081521Y-119420357D01*
X212081517Y-119420360D01*
X212077839Y-119422561D01*
X211853472Y-119602313D01*
X211655577Y-119810851D01*
X211487814Y-120044317D01*
X211353288Y-120298392D01*
X211254489Y-120568373D01*
X211193245Y-120849264D01*
X211192909Y-120853534D01*
X211171196Y-121129428D01*
X211171195Y-121129428D01*
X211171196Y-121129430D01*
X211170689Y-121135869D01*
X133092500Y-121135869D01*
X133092500Y-99889063D01*
X133093933Y-99870114D01*
X133096097Y-99855886D01*
X133097198Y-99848651D01*
X133095031Y-99822000D01*
X133092915Y-99795991D01*
X133092500Y-99785777D01*
X133092500Y-99777707D01*
X133092078Y-99774087D01*
X133092077Y-99774069D01*
X133089208Y-99749461D01*
X133088775Y-99745086D01*
X133083454Y-99679661D01*
X133083453Y-99679658D01*
X133082860Y-99672363D01*
X133080604Y-99665399D01*
X133079413Y-99659440D01*
X133078029Y-99653585D01*
X133077182Y-99646319D01*
X133052265Y-99577673D01*
X133050848Y-99573545D01*
X133030607Y-99511064D01*
X133030606Y-99511062D01*
X133028351Y-99504101D01*
X133024555Y-99497846D01*
X133022049Y-99492372D01*
X133019330Y-99486942D01*
X133016833Y-99480063D01*
X132976809Y-99419016D01*
X132974472Y-99415312D01*
X132939509Y-99357693D01*
X132939505Y-99357688D01*
X132936595Y-99352892D01*
X132929197Y-99344516D01*
X132929223Y-99344493D01*
X132926574Y-99341503D01*
X132923866Y-99338264D01*
X132919856Y-99332148D01*
X132914549Y-99327121D01*
X132914546Y-99327117D01*
X132863617Y-99278872D01*
X132861175Y-99276494D01*
X125297770Y-91713089D01*
X125285384Y-91698677D01*
X125276851Y-91687082D01*
X125276846Y-91687077D01*
X125272508Y-91681182D01*
X125266930Y-91676443D01*
X125266927Y-91676440D01*
X125232232Y-91646965D01*
X125224716Y-91640035D01*
X125219021Y-91634340D01*
X125212880Y-91629482D01*
X125196749Y-91616719D01*
X125193345Y-91613928D01*
X125143297Y-91571409D01*
X125143295Y-91571408D01*
X125137715Y-91566667D01*
X125131199Y-91563339D01*
X125126150Y-91559972D01*
X125121021Y-91556805D01*
X125115284Y-91552266D01*
X125049125Y-91521345D01*
X125045225Y-91519439D01*
X124980192Y-91486231D01*
X124973084Y-91484492D01*
X124967441Y-91482393D01*
X124961678Y-91480476D01*
X124955050Y-91477378D01*
X124883583Y-91462513D01*
X124879299Y-91461543D01*
X124808390Y-91444192D01*
X124802788Y-91443844D01*
X124802785Y-91443844D01*
X124797236Y-91443500D01*
X124797238Y-91443464D01*
X124793245Y-91443225D01*
X124789053Y-91442851D01*
X124781885Y-91441360D01*
X124715675Y-91443151D01*
X124704479Y-91443454D01*
X124701072Y-91443500D01*
X121337939Y-91443500D01*
X121269818Y-91423498D01*
X121232147Y-91385941D01*
X121224818Y-91374612D01*
X121222014Y-91370277D01*
X121071670Y-91205051D01*
X121067619Y-91201852D01*
X121067615Y-91201848D01*
X120900414Y-91069800D01*
X120900410Y-91069798D01*
X120896359Y-91066598D01*
X120855053Y-91043796D01*
X120805084Y-90993364D01*
X120790312Y-90923921D01*
X120815428Y-90857516D01*
X120842780Y-90830909D01*
X120902656Y-90788200D01*
X121021860Y-90703173D01*
X121180096Y-90545489D01*
X121310453Y-90364077D01*
X121409430Y-90163811D01*
X121474370Y-89950069D01*
X121503529Y-89728590D01*
X121505156Y-89662000D01*
X121486852Y-89439361D01*
X121432431Y-89222702D01*
X121343354Y-89017840D01*
X121222014Y-88830277D01*
X121071670Y-88665051D01*
X121067619Y-88661852D01*
X121067615Y-88661848D01*
X120900414Y-88529800D01*
X120900410Y-88529798D01*
X120896359Y-88526598D01*
X120855053Y-88503796D01*
X120805084Y-88453364D01*
X120790312Y-88383921D01*
X120815428Y-88317516D01*
X120842780Y-88290909D01*
X120902656Y-88248200D01*
X121021860Y-88163173D01*
X121180096Y-88005489D01*
X121310453Y-87824077D01*
X121409430Y-87623811D01*
X121474370Y-87410069D01*
X121503529Y-87188590D01*
X121505156Y-87122000D01*
X121486852Y-86899361D01*
X121432431Y-86682702D01*
X121343354Y-86477840D01*
X121222014Y-86290277D01*
X121071670Y-86125051D01*
X121067619Y-86121852D01*
X121067615Y-86121848D01*
X120900414Y-85989800D01*
X120900410Y-85989798D01*
X120896359Y-85986598D01*
X120855053Y-85963796D01*
X120805084Y-85913364D01*
X120790312Y-85843921D01*
X120815428Y-85777516D01*
X120842780Y-85750909D01*
X120902656Y-85708200D01*
X121021860Y-85623173D01*
X121180096Y-85465489D01*
X121310453Y-85284077D01*
X121409430Y-85083811D01*
X121474370Y-84870069D01*
X121503529Y-84648590D01*
X121505156Y-84582000D01*
X121486852Y-84359361D01*
X121432431Y-84142702D01*
X121343354Y-83937840D01*
X121222014Y-83750277D01*
X121071670Y-83585051D01*
X121067619Y-83581852D01*
X121067615Y-83581848D01*
X120900414Y-83449800D01*
X120900410Y-83449798D01*
X120896359Y-83446598D01*
X120854569Y-83423529D01*
X120804598Y-83373097D01*
X120789826Y-83303654D01*
X120814942Y-83237248D01*
X120842294Y-83210641D01*
X121017328Y-83085792D01*
X121025200Y-83079139D01*
X121176052Y-82928812D01*
X121182730Y-82920965D01*
X121307003Y-82748020D01*
X121312313Y-82739183D01*
X121406670Y-82548267D01*
X121410469Y-82538672D01*
X121472377Y-82334910D01*
X121474555Y-82324837D01*
X121475986Y-82313962D01*
X121473775Y-82299778D01*
X121460617Y-82296000D01*
X120014000Y-82296000D01*
X119945879Y-82275998D01*
X119899386Y-82222342D01*
X119888000Y-82170000D01*
X119888000Y-81914000D01*
X119908002Y-81845879D01*
X119961658Y-81799386D01*
X120014000Y-81788000D01*
X121460344Y-81788000D01*
X121473875Y-81784027D01*
X121475180Y-81774947D01*
X121433214Y-81607875D01*
X121429894Y-81598124D01*
X121344972Y-81402814D01*
X121340105Y-81393739D01*
X121224426Y-81214926D01*
X121218136Y-81206757D01*
X121074293Y-81048677D01*
X121043241Y-80984831D01*
X121051635Y-80914333D01*
X121096812Y-80859564D01*
X121123256Y-80845895D01*
X121230297Y-80805767D01*
X121238705Y-80802615D01*
X121355261Y-80715261D01*
X121442615Y-80598705D01*
X121493745Y-80462316D01*
X121500500Y-80400134D01*
X121500500Y-78603866D01*
X121493745Y-78541684D01*
X121442615Y-78405295D01*
X121355261Y-78288739D01*
X121238705Y-78201385D01*
X121102316Y-78150255D01*
X121040134Y-78143500D01*
X119243866Y-78143500D01*
X119181684Y-78150255D01*
X119045295Y-78201385D01*
X118928739Y-78288739D01*
X118841385Y-78405295D01*
X118790255Y-78541684D01*
X118783500Y-78603866D01*
X118783500Y-79735629D01*
X118763498Y-79803750D01*
X118746595Y-79824724D01*
X117817595Y-80753724D01*
X117755283Y-80787750D01*
X117684468Y-80782685D01*
X117627632Y-80740138D01*
X117602821Y-80673618D01*
X117602500Y-80664629D01*
X117602500Y-73917386D01*
X118979759Y-73917386D01*
X118987216Y-73927753D01*
X119226935Y-74121874D01*
X119232272Y-74125751D01*
X119552685Y-74333830D01*
X119558394Y-74337127D01*
X119898811Y-74510578D01*
X119904836Y-74513260D01*
X120261502Y-74650171D01*
X120267784Y-74652212D01*
X120636816Y-74751094D01*
X120643266Y-74752465D01*
X121020629Y-74812234D01*
X121027167Y-74812920D01*
X121408699Y-74832916D01*
X121415301Y-74832916D01*
X121796833Y-74812920D01*
X121803371Y-74812234D01*
X122180734Y-74752465D01*
X122187184Y-74751094D01*
X122556216Y-74652212D01*
X122562498Y-74650171D01*
X122919164Y-74513260D01*
X122925189Y-74510578D01*
X123265606Y-74337127D01*
X123271315Y-74333830D01*
X123591728Y-74125751D01*
X123597065Y-74121874D01*
X123835835Y-73928522D01*
X123844300Y-73916267D01*
X123837966Y-73905176D01*
X121424812Y-71492022D01*
X121410868Y-71484408D01*
X121409035Y-71484539D01*
X121402420Y-71488790D01*
X118986900Y-73904310D01*
X118979759Y-73917386D01*
X117602500Y-73917386D01*
X117602500Y-72186431D01*
X117622502Y-72118310D01*
X117676158Y-72071817D01*
X117746432Y-72061713D01*
X117811012Y-72091207D01*
X117850207Y-72153820D01*
X117879788Y-72264215D01*
X117881829Y-72270498D01*
X118018740Y-72627164D01*
X118021422Y-72633189D01*
X118194872Y-72973603D01*
X118198169Y-72979313D01*
X118406253Y-73299735D01*
X118410123Y-73305061D01*
X118603478Y-73543835D01*
X118615733Y-73552300D01*
X118626824Y-73545966D01*
X121039978Y-71132812D01*
X121046356Y-71121132D01*
X121776408Y-71121132D01*
X121776539Y-71122965D01*
X121780790Y-71129580D01*
X124196310Y-73545100D01*
X124209386Y-73552241D01*
X124219753Y-73544784D01*
X124413877Y-73305061D01*
X124417747Y-73299735D01*
X124625831Y-72979313D01*
X124629128Y-72973603D01*
X124802578Y-72633189D01*
X124805260Y-72627164D01*
X124942171Y-72270498D01*
X124944212Y-72264216D01*
X125043094Y-71895184D01*
X125044465Y-71888734D01*
X125104234Y-71511371D01*
X125104920Y-71504833D01*
X125124916Y-71123301D01*
X125124916Y-71116699D01*
X125123929Y-71097869D01*
X211170689Y-71097869D01*
X211187238Y-71384883D01*
X211188063Y-71389088D01*
X211188064Y-71389096D01*
X211208258Y-71492022D01*
X211242586Y-71666995D01*
X211243973Y-71671045D01*
X211243974Y-71671050D01*
X211319557Y-71891807D01*
X211335710Y-71938986D01*
X211337637Y-71942817D01*
X211425901Y-72118310D01*
X211464885Y-72195822D01*
X211627721Y-72432750D01*
X211821206Y-72645388D01*
X211824501Y-72648143D01*
X211824502Y-72648144D01*
X211875258Y-72690582D01*
X212041759Y-72829798D01*
X212285298Y-72982571D01*
X212547318Y-73100877D01*
X212551437Y-73102097D01*
X212818857Y-73181311D01*
X212818862Y-73181312D01*
X212822970Y-73182529D01*
X212827204Y-73183177D01*
X212827209Y-73183178D01*
X213075811Y-73221219D01*
X213107153Y-73226015D01*
X213253485Y-73228314D01*
X213390317Y-73230464D01*
X213390323Y-73230464D01*
X213394608Y-73230531D01*
X213398860Y-73230016D01*
X213398868Y-73230016D01*
X213675756Y-73196508D01*
X213675761Y-73196507D01*
X213680017Y-73195992D01*
X213958097Y-73123039D01*
X214223704Y-73013021D01*
X214471922Y-72867974D01*
X214698159Y-72690582D01*
X214739285Y-72648144D01*
X214895244Y-72487206D01*
X214898227Y-72484128D01*
X214900760Y-72480680D01*
X214900764Y-72480675D01*
X215065887Y-72255886D01*
X215068425Y-72252431D01*
X215119655Y-72158078D01*
X215203554Y-72003555D01*
X215203555Y-72003553D01*
X215205604Y-71999779D01*
X215307225Y-71730848D01*
X215361923Y-71492022D01*
X215370449Y-71454797D01*
X215370450Y-71454793D01*
X215371407Y-71450613D01*
X215385675Y-71290748D01*
X215396743Y-71166726D01*
X215396743Y-71166724D01*
X215396963Y-71164260D01*
X215397427Y-71120000D01*
X215377873Y-70833175D01*
X215373336Y-70811264D01*
X215320443Y-70555855D01*
X215319574Y-70551658D01*
X215223607Y-70280657D01*
X215112656Y-70065692D01*
X215093715Y-70028995D01*
X215093715Y-70028994D01*
X215091750Y-70025188D01*
X215078488Y-70006317D01*
X214928904Y-69793482D01*
X214926441Y-69789977D01*
X214761831Y-69612836D01*
X214733661Y-69582521D01*
X214733658Y-69582519D01*
X214730740Y-69579378D01*
X214508268Y-69397287D01*
X214263142Y-69247073D01*
X214245048Y-69239130D01*
X214003830Y-69133243D01*
X213999898Y-69131517D01*
X213973963Y-69124129D01*
X213727534Y-69053932D01*
X213727535Y-69053932D01*
X213723406Y-69052756D01*
X213510704Y-69022485D01*
X213443036Y-69012854D01*
X213443034Y-69012854D01*
X213438784Y-69012249D01*
X213434495Y-69012227D01*
X213434488Y-69012226D01*
X213155583Y-69010765D01*
X213155576Y-69010765D01*
X213151297Y-69010743D01*
X213147053Y-69011302D01*
X213147049Y-69011302D01*
X213021660Y-69027810D01*
X212866266Y-69048268D01*
X212862126Y-69049401D01*
X212862124Y-69049401D01*
X212785311Y-69070415D01*
X212588964Y-69124129D01*
X212585016Y-69125813D01*
X212328476Y-69235237D01*
X212328472Y-69235239D01*
X212324524Y-69236923D01*
X212275277Y-69266397D01*
X212081521Y-69382357D01*
X212081517Y-69382360D01*
X212077839Y-69384561D01*
X211853472Y-69564313D01*
X211655577Y-69772851D01*
X211487814Y-70006317D01*
X211353288Y-70260392D01*
X211254489Y-70530373D01*
X211193245Y-70811264D01*
X211192909Y-70815534D01*
X211171196Y-71091428D01*
X211171195Y-71091428D01*
X211171196Y-71091430D01*
X211170689Y-71097869D01*
X125123929Y-71097869D01*
X125104920Y-70735167D01*
X125104234Y-70728629D01*
X125044465Y-70351266D01*
X125043094Y-70344816D01*
X124944212Y-69975784D01*
X124942171Y-69969502D01*
X124805260Y-69612836D01*
X124802578Y-69606811D01*
X124629128Y-69266397D01*
X124625831Y-69260687D01*
X124417747Y-68940265D01*
X124413877Y-68934939D01*
X124220522Y-68696165D01*
X124208267Y-68687700D01*
X124197176Y-68694034D01*
X121784022Y-71107188D01*
X121776408Y-71121132D01*
X121046356Y-71121132D01*
X121047592Y-71118868D01*
X121047461Y-71117035D01*
X121043210Y-71110420D01*
X118627690Y-68694900D01*
X118614614Y-68687759D01*
X118604247Y-68695216D01*
X118410123Y-68934939D01*
X118406253Y-68940265D01*
X118198169Y-69260687D01*
X118194872Y-69266397D01*
X118021422Y-69606811D01*
X118018740Y-69612836D01*
X117881829Y-69969502D01*
X117879788Y-69975785D01*
X117850207Y-70086180D01*
X117813255Y-70146803D01*
X117749394Y-70177824D01*
X117678900Y-70169396D01*
X117624153Y-70124193D01*
X117602500Y-70053569D01*
X117602500Y-68323733D01*
X118979700Y-68323733D01*
X118986034Y-68334824D01*
X121399188Y-70747978D01*
X121413132Y-70755592D01*
X121414965Y-70755461D01*
X121421580Y-70751210D01*
X123837100Y-68335690D01*
X123844241Y-68322614D01*
X123836784Y-68312247D01*
X123597065Y-68118126D01*
X123591728Y-68114249D01*
X123271315Y-67906170D01*
X123265606Y-67902873D01*
X122925189Y-67729422D01*
X122919164Y-67726740D01*
X122562498Y-67589829D01*
X122556216Y-67587788D01*
X122187184Y-67488906D01*
X122180734Y-67487535D01*
X121803371Y-67427766D01*
X121796833Y-67427080D01*
X121415301Y-67407084D01*
X121408699Y-67407084D01*
X121027167Y-67427080D01*
X121020629Y-67427766D01*
X120643266Y-67487535D01*
X120636816Y-67488906D01*
X120267784Y-67587788D01*
X120261502Y-67589829D01*
X119904836Y-67726740D01*
X119898811Y-67729422D01*
X119558397Y-67902872D01*
X119552687Y-67906169D01*
X119232265Y-68114253D01*
X119226939Y-68118123D01*
X118988165Y-68311478D01*
X118979700Y-68323733D01*
X117602500Y-68323733D01*
X117602500Y-66166500D01*
X117622502Y-66098379D01*
X117676158Y-66051886D01*
X117728500Y-66040500D01*
X215773500Y-66040500D01*
X215841621Y-66060502D01*
G37*
%TD.AperFunction*%
%TA.AperFunction,Conductor*%
G36*
X121704250Y-102456931D02*
G01*
X128998595Y-109751276D01*
X129032621Y-109813588D01*
X129035500Y-109840371D01*
X129035500Y-126888475D01*
X129015498Y-126956596D01*
X128961842Y-127003089D01*
X128891568Y-127013193D01*
X128826988Y-126983699D01*
X128803828Y-126957100D01*
X128735751Y-126852270D01*
X128731877Y-126846939D01*
X128538522Y-126608165D01*
X128526267Y-126599700D01*
X128515176Y-126606034D01*
X126102022Y-129019188D01*
X126094408Y-129033132D01*
X126094539Y-129034965D01*
X126098790Y-129041580D01*
X128514310Y-131457100D01*
X128527386Y-131464241D01*
X128537753Y-131456784D01*
X128731877Y-131217061D01*
X128735751Y-131211730D01*
X128803828Y-131106900D01*
X128857704Y-131060664D01*
X128928025Y-131050894D01*
X128992465Y-131080694D01*
X129030564Y-131140603D01*
X129035500Y-131175525D01*
X129035500Y-135713655D01*
X129015498Y-135781776D01*
X128985153Y-135814415D01*
X128894130Y-135882757D01*
X128888965Y-135886635D01*
X128734629Y-136048138D01*
X128627201Y-136205621D01*
X128572293Y-136250621D01*
X128501768Y-136258792D01*
X128438021Y-136227538D01*
X128417324Y-136203054D01*
X128336822Y-136078617D01*
X128336820Y-136078614D01*
X128334014Y-136074277D01*
X128183670Y-135909051D01*
X128179619Y-135905852D01*
X128179615Y-135905848D01*
X128012414Y-135773800D01*
X128012410Y-135773798D01*
X128008359Y-135770598D01*
X127812789Y-135662638D01*
X127807920Y-135660914D01*
X127807916Y-135660912D01*
X127607087Y-135589795D01*
X127607083Y-135589794D01*
X127602212Y-135588069D01*
X127597119Y-135587162D01*
X127597116Y-135587161D01*
X127387373Y-135549800D01*
X127387367Y-135549799D01*
X127382284Y-135548894D01*
X127308452Y-135547992D01*
X127164081Y-135546228D01*
X127164079Y-135546228D01*
X127158911Y-135546165D01*
X126938091Y-135579955D01*
X126725756Y-135649357D01*
X126527607Y-135752507D01*
X126523474Y-135755610D01*
X126523471Y-135755612D01*
X126354130Y-135882757D01*
X126348965Y-135886635D01*
X126194629Y-136048138D01*
X126087201Y-136205621D01*
X126032293Y-136250621D01*
X125961768Y-136258792D01*
X125898021Y-136227538D01*
X125877324Y-136203054D01*
X125796822Y-136078617D01*
X125796820Y-136078614D01*
X125794014Y-136074277D01*
X125643670Y-135909051D01*
X125639619Y-135905852D01*
X125639615Y-135905848D01*
X125472414Y-135773800D01*
X125472410Y-135773798D01*
X125468359Y-135770598D01*
X125272789Y-135662638D01*
X125267920Y-135660914D01*
X125267916Y-135660912D01*
X125067087Y-135589795D01*
X125067083Y-135589794D01*
X125062212Y-135588069D01*
X125057119Y-135587162D01*
X125057116Y-135587161D01*
X124847373Y-135549800D01*
X124847367Y-135549799D01*
X124842284Y-135548894D01*
X124771770Y-135548033D01*
X124624082Y-135546228D01*
X124624080Y-135546228D01*
X124618911Y-135546165D01*
X124595156Y-135549800D01*
X124515385Y-135562006D01*
X124445023Y-135552538D01*
X124407232Y-135526551D01*
X120710067Y-131829386D01*
X123297759Y-131829386D01*
X123305216Y-131839753D01*
X123544935Y-132033874D01*
X123550272Y-132037751D01*
X123870685Y-132245830D01*
X123876394Y-132249127D01*
X124216811Y-132422578D01*
X124222836Y-132425260D01*
X124579502Y-132562171D01*
X124585784Y-132564212D01*
X124954816Y-132663094D01*
X124961266Y-132664465D01*
X125338629Y-132724234D01*
X125345167Y-132724920D01*
X125726699Y-132744916D01*
X125733301Y-132744916D01*
X126114833Y-132724920D01*
X126121371Y-132724234D01*
X126498734Y-132664465D01*
X126505184Y-132663094D01*
X126874216Y-132564212D01*
X126880498Y-132562171D01*
X127237164Y-132425260D01*
X127243189Y-132422578D01*
X127583606Y-132249127D01*
X127589315Y-132245830D01*
X127909728Y-132037751D01*
X127915065Y-132033874D01*
X128153835Y-131840522D01*
X128162300Y-131828267D01*
X128155966Y-131817176D01*
X125742812Y-129404022D01*
X125728868Y-129396408D01*
X125727035Y-129396539D01*
X125720420Y-129400790D01*
X123304900Y-131816310D01*
X123297759Y-131829386D01*
X120710067Y-131829386D01*
X119430405Y-130549724D01*
X119396379Y-130487412D01*
X119393500Y-130460629D01*
X119393500Y-130115070D01*
X119394933Y-130096120D01*
X119397099Y-130081885D01*
X119397099Y-130081881D01*
X119398199Y-130074651D01*
X119393915Y-130021982D01*
X119393500Y-130011767D01*
X119393500Y-130003707D01*
X119390209Y-129975480D01*
X119389778Y-129971121D01*
X119384454Y-129905662D01*
X119384453Y-129905659D01*
X119383860Y-129898364D01*
X119381604Y-129891400D01*
X119380417Y-129885461D01*
X119379880Y-129883188D01*
X119379208Y-129877424D01*
X119378282Y-129873178D01*
X119378175Y-129872256D01*
X119378600Y-129872207D01*
X119376500Y-129854199D01*
X119376500Y-129035301D01*
X122017084Y-129035301D01*
X122037080Y-129416833D01*
X122037766Y-129423371D01*
X122097535Y-129800734D01*
X122098906Y-129807184D01*
X122197788Y-130176216D01*
X122199829Y-130182498D01*
X122336740Y-130539164D01*
X122339422Y-130545189D01*
X122512872Y-130885603D01*
X122516169Y-130891313D01*
X122724253Y-131211735D01*
X122728123Y-131217061D01*
X122921478Y-131455835D01*
X122933733Y-131464300D01*
X122944824Y-131457966D01*
X125357978Y-129044812D01*
X125365592Y-129030868D01*
X125365461Y-129029035D01*
X125361210Y-129022420D01*
X122945690Y-126606900D01*
X122932614Y-126599759D01*
X122922247Y-126607216D01*
X122728123Y-126846939D01*
X122724253Y-126852265D01*
X122516169Y-127172687D01*
X122512872Y-127178397D01*
X122339422Y-127518811D01*
X122336740Y-127524836D01*
X122199829Y-127881502D01*
X122197788Y-127887784D01*
X122098906Y-128256816D01*
X122097535Y-128263266D01*
X122037766Y-128640629D01*
X122037080Y-128647167D01*
X122017084Y-129028699D01*
X122017084Y-129035301D01*
X119376500Y-129035301D01*
X119376500Y-126235733D01*
X123297700Y-126235733D01*
X123304034Y-126246824D01*
X125717188Y-128659978D01*
X125731132Y-128667592D01*
X125732965Y-128667461D01*
X125739580Y-128663210D01*
X128155100Y-126247690D01*
X128162241Y-126234614D01*
X128154784Y-126224247D01*
X127915065Y-126030126D01*
X127909728Y-126026249D01*
X127589315Y-125818170D01*
X127583606Y-125814873D01*
X127243189Y-125641422D01*
X127237164Y-125638740D01*
X126880498Y-125501829D01*
X126874216Y-125499788D01*
X126505184Y-125400906D01*
X126498734Y-125399535D01*
X126121371Y-125339766D01*
X126114833Y-125339080D01*
X125733301Y-125319084D01*
X125726699Y-125319084D01*
X125345167Y-125339080D01*
X125338629Y-125339766D01*
X124961266Y-125399535D01*
X124954816Y-125400906D01*
X124585784Y-125499788D01*
X124579502Y-125501829D01*
X124222836Y-125638740D01*
X124216811Y-125641422D01*
X123876397Y-125814872D01*
X123870687Y-125818169D01*
X123550265Y-126026253D01*
X123544939Y-126030123D01*
X123306165Y-126223478D01*
X123297700Y-126235733D01*
X119376500Y-126235733D01*
X119376500Y-113866388D01*
X119396502Y-113798267D01*
X119450158Y-113751774D01*
X119520432Y-113741670D01*
X119552924Y-113751537D01*
X119553000Y-113751338D01*
X119555845Y-113752425D01*
X119555853Y-113752427D01*
X119761692Y-113831030D01*
X119766760Y-113832061D01*
X119766763Y-113832062D01*
X119874017Y-113853883D01*
X119980597Y-113875567D01*
X119985772Y-113875757D01*
X119985774Y-113875757D01*
X120198673Y-113883564D01*
X120198677Y-113883564D01*
X120203837Y-113883753D01*
X120208957Y-113883097D01*
X120208959Y-113883097D01*
X120420288Y-113856025D01*
X120420289Y-113856025D01*
X120425416Y-113855368D01*
X120430366Y-113853883D01*
X120634429Y-113792661D01*
X120634434Y-113792659D01*
X120639384Y-113791174D01*
X120839994Y-113692896D01*
X121021860Y-113563173D01*
X121180096Y-113405489D01*
X121310453Y-113224077D01*
X121409430Y-113023811D01*
X121474370Y-112810069D01*
X121503529Y-112588590D01*
X121505156Y-112522000D01*
X121486852Y-112299361D01*
X121432431Y-112082702D01*
X121343354Y-111877840D01*
X121222014Y-111690277D01*
X121071670Y-111525051D01*
X121067619Y-111521852D01*
X121067615Y-111521848D01*
X120900414Y-111389800D01*
X120900410Y-111389798D01*
X120896359Y-111386598D01*
X120855053Y-111363796D01*
X120805084Y-111313364D01*
X120790312Y-111243921D01*
X120815428Y-111177516D01*
X120842780Y-111150909D01*
X120902656Y-111108200D01*
X121021860Y-111023173D01*
X121180096Y-110865489D01*
X121310453Y-110684077D01*
X121409430Y-110483811D01*
X121474370Y-110270069D01*
X121503529Y-110048590D01*
X121505156Y-109982000D01*
X121486852Y-109759361D01*
X121432431Y-109542702D01*
X121343354Y-109337840D01*
X121270707Y-109225545D01*
X121224822Y-109154617D01*
X121224820Y-109154614D01*
X121222014Y-109150277D01*
X121071670Y-108985051D01*
X121067619Y-108981852D01*
X121067615Y-108981848D01*
X120900414Y-108849800D01*
X120900410Y-108849798D01*
X120896359Y-108846598D01*
X120855053Y-108823796D01*
X120805084Y-108773364D01*
X120790312Y-108703921D01*
X120815428Y-108637516D01*
X120842780Y-108610909D01*
X120902656Y-108568200D01*
X121021860Y-108483173D01*
X121180096Y-108325489D01*
X121310453Y-108144077D01*
X121409430Y-107943811D01*
X121474370Y-107730069D01*
X121503529Y-107508590D01*
X121505156Y-107442000D01*
X121486852Y-107219361D01*
X121432431Y-107002702D01*
X121343354Y-106797840D01*
X121222014Y-106610277D01*
X121071670Y-106445051D01*
X121067619Y-106441852D01*
X121067615Y-106441848D01*
X120900414Y-106309800D01*
X120900410Y-106309798D01*
X120896359Y-106306598D01*
X120855053Y-106283796D01*
X120805084Y-106233364D01*
X120790312Y-106163921D01*
X120815428Y-106097516D01*
X120842780Y-106070909D01*
X120902656Y-106028200D01*
X121021860Y-105943173D01*
X121180096Y-105785489D01*
X121310453Y-105604077D01*
X121409430Y-105403811D01*
X121474370Y-105190069D01*
X121503529Y-104968590D01*
X121505156Y-104902000D01*
X121486852Y-104679361D01*
X121432431Y-104462702D01*
X121343354Y-104257840D01*
X121222014Y-104070277D01*
X121071670Y-103905051D01*
X121067619Y-103901852D01*
X121067615Y-103901848D01*
X120900414Y-103769800D01*
X120900410Y-103769798D01*
X120896359Y-103766598D01*
X120855053Y-103743796D01*
X120805084Y-103693364D01*
X120790312Y-103623921D01*
X120815428Y-103557516D01*
X120842780Y-103530909D01*
X120902656Y-103488200D01*
X121021860Y-103403173D01*
X121180096Y-103245489D01*
X121310453Y-103064077D01*
X121409430Y-102863811D01*
X121474370Y-102650069D01*
X121490233Y-102529580D01*
X121518956Y-102464652D01*
X121578221Y-102425561D01*
X121649212Y-102424716D01*
X121704250Y-102456931D01*
G37*
%TD.AperFunction*%
%TA.AperFunction,Conductor*%
G36*
X128293853Y-96867615D02*
G01*
X128333901Y-96894582D01*
X131538595Y-100099276D01*
X131572621Y-100161588D01*
X131575500Y-100188371D01*
X131575500Y-135713655D01*
X131555498Y-135781776D01*
X131525153Y-135814415D01*
X131434130Y-135882757D01*
X131428965Y-135886635D01*
X131274629Y-136048138D01*
X131167201Y-136205621D01*
X131112293Y-136250621D01*
X131041768Y-136258792D01*
X130978021Y-136227538D01*
X130957324Y-136203054D01*
X130876822Y-136078617D01*
X130876820Y-136078614D01*
X130874014Y-136074277D01*
X130723670Y-135909051D01*
X130719615Y-135905848D01*
X130600407Y-135811703D01*
X130559345Y-135753785D01*
X130552500Y-135712821D01*
X130552500Y-109541069D01*
X130553933Y-109522118D01*
X130556099Y-109507883D01*
X130556099Y-109507881D01*
X130557199Y-109500651D01*
X130552915Y-109447982D01*
X130552500Y-109437767D01*
X130552500Y-109429707D01*
X130549211Y-109401493D01*
X130548778Y-109397118D01*
X130543454Y-109331661D01*
X130543453Y-109331658D01*
X130542860Y-109324363D01*
X130540604Y-109317399D01*
X130539413Y-109311440D01*
X130538029Y-109305585D01*
X130537182Y-109298319D01*
X130512265Y-109229673D01*
X130510848Y-109225545D01*
X130490607Y-109163064D01*
X130490606Y-109163062D01*
X130488351Y-109156101D01*
X130484555Y-109149846D01*
X130482049Y-109144372D01*
X130479330Y-109138942D01*
X130476833Y-109132063D01*
X130436809Y-109071016D01*
X130434472Y-109067312D01*
X130399509Y-109009693D01*
X130399505Y-109009688D01*
X130396595Y-109004892D01*
X130389197Y-108996516D01*
X130389223Y-108996493D01*
X130386574Y-108993503D01*
X130383866Y-108990264D01*
X130379856Y-108984148D01*
X130374549Y-108979121D01*
X130374546Y-108979117D01*
X130323617Y-108930872D01*
X130321175Y-108928494D01*
X121521609Y-100128928D01*
X121487583Y-100066616D01*
X121485782Y-100023389D01*
X121503529Y-99888590D01*
X121503750Y-99879534D01*
X121505074Y-99825365D01*
X121505074Y-99825361D01*
X121505156Y-99822000D01*
X121486852Y-99599361D01*
X121432431Y-99382702D01*
X121343354Y-99177840D01*
X121222014Y-98990277D01*
X121071670Y-98825051D01*
X121067619Y-98821852D01*
X121067615Y-98821848D01*
X120900414Y-98689800D01*
X120900410Y-98689798D01*
X120896359Y-98686598D01*
X120855053Y-98663796D01*
X120805084Y-98613364D01*
X120790312Y-98543921D01*
X120815428Y-98477516D01*
X120842780Y-98450909D01*
X120902656Y-98408200D01*
X121021860Y-98323173D01*
X121180096Y-98165489D01*
X121189670Y-98152166D01*
X121232203Y-98092974D01*
X121288198Y-98049326D01*
X121334526Y-98040500D01*
X126711413Y-98040500D01*
X126785472Y-98064563D01*
X126791902Y-98069235D01*
X126791909Y-98069239D01*
X126797248Y-98073118D01*
X126803276Y-98075802D01*
X126803278Y-98075803D01*
X126965681Y-98148109D01*
X126971712Y-98150794D01*
X127058009Y-98169137D01*
X127152056Y-98189128D01*
X127152061Y-98189128D01*
X127158513Y-98190500D01*
X127349487Y-98190500D01*
X127355939Y-98189128D01*
X127355944Y-98189128D01*
X127449991Y-98169137D01*
X127536288Y-98150794D01*
X127542319Y-98148109D01*
X127704722Y-98075803D01*
X127704724Y-98075802D01*
X127710752Y-98073118D01*
X127716097Y-98069235D01*
X127766157Y-98032864D01*
X127865253Y-97960866D01*
X127993040Y-97818944D01*
X128088527Y-97653556D01*
X128147542Y-97471928D01*
X128167504Y-97282000D01*
X128147542Y-97092072D01*
X128124973Y-97022612D01*
X128122945Y-96951646D01*
X128159607Y-96890848D01*
X128223320Y-96859523D01*
X128293853Y-96867615D01*
G37*
%TD.AperFunction*%
%TA.AperFunction,Conductor*%
G36*
X118569012Y-131834147D02*
G01*
X118575595Y-131840276D01*
X122067724Y-135332405D01*
X122101750Y-135394717D01*
X122096685Y-135465532D01*
X122054138Y-135522368D01*
X121987618Y-135547179D01*
X121978629Y-135547500D01*
X121275866Y-135547500D01*
X121213684Y-135554255D01*
X121077295Y-135605385D01*
X120960739Y-135692739D01*
X120873385Y-135809295D01*
X120822255Y-135945684D01*
X120815500Y-136007866D01*
X120815500Y-136021500D01*
X120795498Y-136089621D01*
X120741842Y-136136114D01*
X120689500Y-136147500D01*
X120254371Y-136147500D01*
X120186250Y-136127498D01*
X120165276Y-136110595D01*
X118397405Y-134342724D01*
X118363379Y-134280412D01*
X118360500Y-134253629D01*
X118360500Y-131929371D01*
X118380502Y-131861250D01*
X118434158Y-131814757D01*
X118504432Y-131804653D01*
X118569012Y-131834147D01*
G37*
%TD.AperFunction*%
%TD*%
M02*
