M48
; DRILL file {KiCad (6.0.7)} date Sat Apr 15 21:10:22 2023
; FORMAT={-:-/ absolute / metric / decimal}
; #@! TF.CreationDate,2023-04-15T21:10:22+02:00
; #@! TF.GenerationSoftware,Kicad,Pcbnew,(6.0.7)
; #@! TF.FileFunction,Plated,1,2,PTH
FMAT,2
METRIC
; #@! TA.AperFunction,Plated,PTH,ViaDrill
T1C0.400
; #@! TA.AperFunction,Plated,PTH,ComponentDrill
T2C1.000
; #@! TA.AperFunction,Plated,PTH,ComponentDrill
T3C3.200
%
G90
G05
T1
X103.892Y-56.474
X104.648Y-65.786
X104.902Y-99.314
X105.664Y-50.584
X109.728Y-90.678
X110.198Y-74.923
X110.669Y-120.667
X113.792Y-74.676
X113.963Y-55.345
X115.062Y-74.676
X115.281Y-42.92
X116.332Y-74.676
X117.856Y-73.406
X125.222Y-109.982
X125.729Y-100.242
X125.73Y-63.754
X126.387Y-75.079
X126.873Y-77.597
X127.0Y-79.248
X131.572Y-79.756
X131.572Y-81.026
X131.628Y-82.135
X132.588Y-62.23
X133.096Y-48.806
X139.941Y-121.138
X141.437Y-79.399
X146.05Y-63.246
X146.05Y-71.628
X148.59Y-42.418
X149.26Y-56.003
X156.507Y-103.16
X158.75Y-118.618
X159.237Y-72.569
X160.528Y-59.182
X163.068Y-46.52
X165.073Y-84.523
X166.624Y-80.264
X171.473Y-97.513
X172.212Y-43.18
X174.297Y-62.78
X177.027Y-94.971
X178.816Y-62.484
T2
X103.104Y-75.976
X103.104Y-78.516
X103.104Y-81.056
X103.104Y-83.596
X103.104Y-86.136
X105.644Y-75.976
X105.644Y-78.516
X105.644Y-81.056
X105.644Y-83.596
X105.644Y-86.136
X179.349Y-67.46
X179.349Y-70.0
X179.349Y-77.704
X179.349Y-80.244
X179.349Y-87.356
X179.349Y-89.896
T3
X103.886Y-43.942
X103.886Y-139.7
X178.054Y-43.942
X178.054Y-139.7
T0
M30
