%TF.GenerationSoftware,KiCad,Pcbnew,(6.0.7)*%
%TF.CreationDate,2023-04-15T21:10:14+02:00*%
%TF.ProjectId,control board,636f6e74-726f-46c2-9062-6f6172642e6b,rev?*%
%TF.SameCoordinates,Original*%
%TF.FileFunction,Copper,L2,Bot*%
%TF.FilePolarity,Positive*%
%FSLAX46Y46*%
G04 Gerber Fmt 4.6, Leading zero omitted, Abs format (unit mm)*
G04 Created by KiCad (PCBNEW (6.0.7)) date 2023-04-15 21:10:14*
%MOMM*%
%LPD*%
G01*
G04 APERTURE LIST*
%TA.AperFunction,ComponentPad*%
%ADD10C,6.400000*%
%TD*%
%TA.AperFunction,ComponentPad*%
%ADD11R,1.700000X1.700000*%
%TD*%
%TA.AperFunction,ComponentPad*%
%ADD12O,1.700000X1.700000*%
%TD*%
%TA.AperFunction,ViaPad*%
%ADD13C,0.800000*%
%TD*%
%TA.AperFunction,Conductor*%
%ADD14C,0.300000*%
%TD*%
%TA.AperFunction,Conductor*%
%ADD15C,0.500000*%
%TD*%
G04 APERTURE END LIST*
D10*
%TO.P,,1*%
%TO.N,GND*%
X103886000Y-139700000D03*
%TD*%
%TO.P,,1*%
%TO.N,GND*%
X178054000Y-139700000D03*
%TD*%
%TO.P,,1*%
%TO.N,GND*%
X178054000Y-43942000D03*
%TD*%
%TO.P,,1*%
%TO.N,GND*%
X103886000Y-43942000D03*
%TD*%
D11*
%TO.P,J1,1,Pin_1*%
%TO.N,GND*%
X179349000Y-70000000D03*
D12*
%TO.P,J1,2,Pin_2*%
%TO.N,BTN1*%
X179349000Y-67460000D03*
%TD*%
D11*
%TO.P,J4,1,Pin_1*%
%TO.N,GND*%
X179349000Y-89896000D03*
D12*
%TO.P,J4,2,Pin_2*%
%TO.N,BTN3*%
X179349000Y-87356000D03*
%TD*%
D11*
%TO.P,J3,1,Pin_1*%
%TO.N,+3.3V*%
X103104000Y-75976000D03*
D12*
%TO.P,J3,2,Pin_2*%
%TO.N,INT*%
X105644000Y-75976000D03*
%TO.P,J3,3,Pin_3*%
%TO.N,SDA*%
X103104000Y-78516000D03*
%TO.P,J3,4,Pin_4*%
%TO.N,SCL*%
X105644000Y-78516000D03*
%TO.P,J3,5,Pin_5*%
%TO.N,GND*%
X103104000Y-81056000D03*
%TO.P,J3,6,Pin_6*%
%TO.N,unconnected-(J3-Pad6)*%
X105644000Y-81056000D03*
%TO.P,J3,7,Pin_7*%
%TO.N,unconnected-(J3-Pad7)*%
X103104000Y-83596000D03*
%TO.P,J3,8,Pin_8*%
%TO.N,unconnected-(J3-Pad8)*%
X105644000Y-83596000D03*
%TO.P,J3,9,Pin_9*%
%TO.N,unconnected-(J3-Pad9)*%
X103104000Y-86136000D03*
%TO.P,J3,10,Pin_10*%
%TO.N,unconnected-(J3-Pad10)*%
X105644000Y-86136000D03*
%TD*%
D11*
%TO.P,J2,1,Pin_1*%
%TO.N,GND*%
X179349000Y-80244000D03*
D12*
%TO.P,J2,2,Pin_2*%
%TO.N,BTN2*%
X179349000Y-77704000D03*
%TD*%
D13*
%TO.N,GND*%
X174297007Y-62780492D03*
X156507388Y-103160106D03*
X110668526Y-120667351D03*
X171473258Y-97512607D03*
X127000000Y-79248000D03*
X109728000Y-90678000D03*
X113962900Y-55344620D03*
X141436934Y-79398779D03*
X148590000Y-42418000D03*
X178816000Y-62484000D03*
X177026632Y-94971233D03*
X165072760Y-84523361D03*
X139941392Y-121137975D03*
X104902000Y-99314000D03*
X160528000Y-59182000D03*
X104648000Y-65786000D03*
X149259765Y-56003494D03*
X115280650Y-42920123D03*
X166624000Y-80264000D03*
X158750000Y-118618000D03*
X132588000Y-62230000D03*
X103891528Y-56474119D03*
X146050000Y-63246000D03*
X125730000Y-63754000D03*
X117856000Y-73406000D03*
X110197901Y-74922614D03*
X159237012Y-72569490D03*
X125728522Y-100242232D03*
X172212000Y-43180000D03*
X146050000Y-71628000D03*
%TO.N,MENU*%
X105664000Y-50584000D03*
X113792000Y-74676000D03*
%TO.N,HOME*%
X133096000Y-48806000D03*
X116332000Y-74676000D03*
%TO.N,BACK*%
X163068000Y-46520000D03*
X115062000Y-74676000D03*
%TO.N,BTN1*%
X131572000Y-79756000D03*
%TO.N,BTN2*%
X131572000Y-81026000D03*
%TO.N,BTN3*%
X131628065Y-82135441D03*
%TO.N,+3.3V*%
X125222000Y-109982000D03*
%TO.N,SDA*%
X126387332Y-75079332D03*
%TO.N,SCL*%
X126873000Y-77597000D03*
%TD*%
D14*
%TO.N,MENU*%
X113792000Y-74676000D02*
X113792000Y-57658000D01*
X105664000Y-50584000D02*
X106718000Y-50584000D01*
X106718000Y-50584000D02*
X113792000Y-57658000D01*
%TO.N,HOME*%
X116332000Y-57658000D02*
X116332000Y-74676000D01*
X133096000Y-48806000D02*
X125184000Y-48806000D01*
X125184000Y-48806000D02*
X116332000Y-57658000D01*
%TO.N,BACK*%
X115062000Y-74676000D02*
X115062000Y-57658000D01*
X126200000Y-46520000D02*
X163068000Y-46520000D01*
X115062000Y-57658000D02*
X126200000Y-46520000D01*
D15*
%TO.N,BTN1*%
X143868000Y-67460000D02*
X179349000Y-67460000D01*
X131572000Y-79756000D02*
X143868000Y-67460000D01*
%TO.N,BTN2*%
X178353000Y-76708000D02*
X179349000Y-77704000D01*
X135890000Y-76708000D02*
X178353000Y-76708000D01*
X135890000Y-76708000D02*
X131572000Y-81026000D01*
%TO.N,BTN3*%
X179349000Y-85623000D02*
X179349000Y-87356000D01*
X175861441Y-82135441D02*
X179349000Y-85623000D01*
X131628065Y-82135441D02*
X175861441Y-82135441D01*
%TO.N,+3.3V*%
X125222000Y-107696000D02*
X125222000Y-109982000D01*
X116078000Y-104394000D02*
X121920000Y-104394000D01*
X100584000Y-77724000D02*
X100584000Y-88900000D01*
X121920000Y-104394000D02*
X125222000Y-107696000D01*
X102332000Y-75976000D02*
X100584000Y-77724000D01*
X103104000Y-75976000D02*
X102332000Y-75976000D01*
X100584000Y-88900000D02*
X116078000Y-104394000D01*
D14*
%TO.N,SDA*%
X124482331Y-77193669D02*
X126387332Y-75288668D01*
X103104000Y-78516000D02*
X104426331Y-77193669D01*
X126387332Y-75288668D02*
X126387332Y-75079332D01*
X104426331Y-77193669D02*
X124482331Y-77193669D01*
%TO.N,SCL*%
X125954000Y-78516000D02*
X126873000Y-77597000D01*
X105644000Y-78516000D02*
X125954000Y-78516000D01*
%TD*%
%TA.AperFunction,Conductor*%
%TO.N,GND*%
G36*
X101804437Y-40660502D02*
G01*
X101850930Y-40714158D01*
X101861034Y-40784432D01*
X101831540Y-40849012D01*
X101804940Y-40872173D01*
X101706265Y-40936253D01*
X101700939Y-40940123D01*
X101462165Y-41133478D01*
X101453700Y-41145733D01*
X101460034Y-41156824D01*
X103873188Y-43569978D01*
X103887132Y-43577592D01*
X103888965Y-43577461D01*
X103895580Y-43573210D01*
X106311100Y-41157690D01*
X106318241Y-41144614D01*
X106310784Y-41134247D01*
X106071065Y-40940126D01*
X106065728Y-40936249D01*
X105967059Y-40872172D01*
X105920822Y-40818296D01*
X105911053Y-40747975D01*
X105940853Y-40683535D01*
X106000762Y-40645436D01*
X106035684Y-40640500D01*
X175904316Y-40640500D01*
X175972437Y-40660502D01*
X176018930Y-40714158D01*
X176029034Y-40784432D01*
X175999540Y-40849012D01*
X175972940Y-40872173D01*
X175874265Y-40936253D01*
X175868939Y-40940123D01*
X175630165Y-41133478D01*
X175621700Y-41145733D01*
X175628034Y-41156824D01*
X178041188Y-43569978D01*
X178055132Y-43577592D01*
X178056965Y-43577461D01*
X178063580Y-43573210D01*
X180479100Y-41157690D01*
X180486241Y-41144614D01*
X180478784Y-41134247D01*
X180239065Y-40940126D01*
X180233728Y-40936249D01*
X180135059Y-40872172D01*
X180088822Y-40818296D01*
X180079053Y-40747975D01*
X180108853Y-40683535D01*
X180168762Y-40645436D01*
X180203684Y-40640500D01*
X181229500Y-40640500D01*
X181297621Y-40660502D01*
X181344114Y-40714158D01*
X181355500Y-40766500D01*
X181355500Y-41792316D01*
X181335498Y-41860437D01*
X181281842Y-41906930D01*
X181211568Y-41917034D01*
X181146988Y-41887540D01*
X181123827Y-41860940D01*
X181059747Y-41762265D01*
X181055877Y-41756939D01*
X180862522Y-41518165D01*
X180850267Y-41509700D01*
X180839176Y-41516034D01*
X178426022Y-43929188D01*
X178418408Y-43943132D01*
X178418539Y-43944965D01*
X178422790Y-43951580D01*
X180838310Y-46367100D01*
X180851386Y-46374241D01*
X180861753Y-46366784D01*
X181055877Y-46127061D01*
X181059747Y-46121735D01*
X181123827Y-46023060D01*
X181177704Y-45976823D01*
X181248025Y-45967053D01*
X181312465Y-45996853D01*
X181350564Y-46056761D01*
X181355500Y-46091684D01*
X181355500Y-137550316D01*
X181335498Y-137618437D01*
X181281842Y-137664930D01*
X181211568Y-137675034D01*
X181146988Y-137645540D01*
X181123827Y-137618940D01*
X181059747Y-137520265D01*
X181055877Y-137514939D01*
X180862522Y-137276165D01*
X180850267Y-137267700D01*
X180839176Y-137274034D01*
X178426022Y-139687188D01*
X178418408Y-139701132D01*
X178418539Y-139702965D01*
X178422790Y-139709580D01*
X180838310Y-142125100D01*
X180851386Y-142132241D01*
X180861753Y-142124784D01*
X181055877Y-141885061D01*
X181059747Y-141879735D01*
X181123827Y-141781060D01*
X181177704Y-141734823D01*
X181248025Y-141725053D01*
X181312465Y-141754853D01*
X181350564Y-141814761D01*
X181355500Y-141849684D01*
X181355500Y-143383500D01*
X181335498Y-143451621D01*
X181281842Y-143498114D01*
X181229500Y-143509500D01*
X179120431Y-143509500D01*
X179052310Y-143489498D01*
X179005817Y-143435842D01*
X178995713Y-143365568D01*
X179025207Y-143300988D01*
X179087820Y-143261793D01*
X179198215Y-143232212D01*
X179204498Y-143230171D01*
X179561164Y-143093260D01*
X179567189Y-143090578D01*
X179907606Y-142917127D01*
X179913315Y-142913830D01*
X180233728Y-142705751D01*
X180239065Y-142701874D01*
X180477835Y-142508522D01*
X180486300Y-142496267D01*
X180479966Y-142485176D01*
X178066812Y-140072022D01*
X178052868Y-140064408D01*
X178051035Y-140064539D01*
X178044420Y-140068790D01*
X175628900Y-142484310D01*
X175621759Y-142497386D01*
X175629216Y-142507753D01*
X175868935Y-142701874D01*
X175874272Y-142705751D01*
X176194685Y-142913830D01*
X176200394Y-142917127D01*
X176540811Y-143090578D01*
X176546836Y-143093260D01*
X176903502Y-143230171D01*
X176909785Y-143232212D01*
X177020180Y-143261793D01*
X177080803Y-143298745D01*
X177111824Y-143362606D01*
X177103396Y-143433100D01*
X177058193Y-143487847D01*
X176987569Y-143509500D01*
X104952431Y-143509500D01*
X104884310Y-143489498D01*
X104837817Y-143435842D01*
X104827713Y-143365568D01*
X104857207Y-143300988D01*
X104919820Y-143261793D01*
X105030215Y-143232212D01*
X105036498Y-143230171D01*
X105393164Y-143093260D01*
X105399189Y-143090578D01*
X105739606Y-142917127D01*
X105745315Y-142913830D01*
X106065728Y-142705751D01*
X106071065Y-142701874D01*
X106309835Y-142508522D01*
X106318300Y-142496267D01*
X106311966Y-142485176D01*
X103898812Y-140072022D01*
X103884868Y-140064408D01*
X103883035Y-140064539D01*
X103876420Y-140068790D01*
X101460900Y-142484310D01*
X101453759Y-142497386D01*
X101461216Y-142507753D01*
X101700935Y-142701874D01*
X101706272Y-142705751D01*
X102026685Y-142913830D01*
X102032394Y-142917127D01*
X102372811Y-143090578D01*
X102378836Y-143093260D01*
X102735502Y-143230171D01*
X102741785Y-143232212D01*
X102852180Y-143261793D01*
X102912803Y-143298745D01*
X102943824Y-143362606D01*
X102935396Y-143433100D01*
X102890193Y-143487847D01*
X102819569Y-143509500D01*
X100202500Y-143509500D01*
X100134379Y-143489498D01*
X100087886Y-143435842D01*
X100076500Y-143383500D01*
X100076500Y-140766431D01*
X100096502Y-140698310D01*
X100150158Y-140651817D01*
X100220432Y-140641713D01*
X100285012Y-140671207D01*
X100324207Y-140733820D01*
X100353788Y-140844215D01*
X100355829Y-140850498D01*
X100492740Y-141207164D01*
X100495422Y-141213189D01*
X100668872Y-141553603D01*
X100672169Y-141559313D01*
X100880253Y-141879735D01*
X100884123Y-141885061D01*
X101077478Y-142123835D01*
X101089733Y-142132300D01*
X101100824Y-142125966D01*
X103513978Y-139712812D01*
X103520356Y-139701132D01*
X104250408Y-139701132D01*
X104250539Y-139702965D01*
X104254790Y-139709580D01*
X106670310Y-142125100D01*
X106683386Y-142132241D01*
X106693753Y-142124784D01*
X106887877Y-141885061D01*
X106891747Y-141879735D01*
X107099831Y-141559313D01*
X107103128Y-141553603D01*
X107276578Y-141213189D01*
X107279260Y-141207164D01*
X107416171Y-140850498D01*
X107418212Y-140844216D01*
X107517094Y-140475184D01*
X107518465Y-140468734D01*
X107578234Y-140091371D01*
X107578920Y-140084833D01*
X107598916Y-139703301D01*
X174341084Y-139703301D01*
X174361080Y-140084833D01*
X174361766Y-140091371D01*
X174421535Y-140468734D01*
X174422906Y-140475184D01*
X174521788Y-140844216D01*
X174523829Y-140850498D01*
X174660740Y-141207164D01*
X174663422Y-141213189D01*
X174836872Y-141553603D01*
X174840169Y-141559313D01*
X175048253Y-141879735D01*
X175052123Y-141885061D01*
X175245478Y-142123835D01*
X175257733Y-142132300D01*
X175268824Y-142125966D01*
X177681978Y-139712812D01*
X177689592Y-139698868D01*
X177689461Y-139697035D01*
X177685210Y-139690420D01*
X175269690Y-137274900D01*
X175256614Y-137267759D01*
X175246247Y-137275216D01*
X175052123Y-137514939D01*
X175048253Y-137520265D01*
X174840169Y-137840687D01*
X174836872Y-137846397D01*
X174663422Y-138186811D01*
X174660740Y-138192836D01*
X174523829Y-138549502D01*
X174521788Y-138555784D01*
X174422906Y-138924816D01*
X174421535Y-138931266D01*
X174361766Y-139308629D01*
X174361080Y-139315167D01*
X174341084Y-139696699D01*
X174341084Y-139703301D01*
X107598916Y-139703301D01*
X107598916Y-139696699D01*
X107578920Y-139315167D01*
X107578234Y-139308629D01*
X107518465Y-138931266D01*
X107517094Y-138924816D01*
X107418212Y-138555784D01*
X107416171Y-138549502D01*
X107279260Y-138192836D01*
X107276578Y-138186811D01*
X107103128Y-137846397D01*
X107099831Y-137840687D01*
X106891747Y-137520265D01*
X106887877Y-137514939D01*
X106694522Y-137276165D01*
X106682267Y-137267700D01*
X106671176Y-137274034D01*
X104258022Y-139687188D01*
X104250408Y-139701132D01*
X103520356Y-139701132D01*
X103521592Y-139698868D01*
X103521461Y-139697035D01*
X103517210Y-139690420D01*
X101101690Y-137274900D01*
X101088614Y-137267759D01*
X101078247Y-137275216D01*
X100884123Y-137514939D01*
X100880253Y-137520265D01*
X100672169Y-137840687D01*
X100668872Y-137846397D01*
X100495422Y-138186811D01*
X100492740Y-138192836D01*
X100355829Y-138549502D01*
X100353788Y-138555785D01*
X100324207Y-138666180D01*
X100287255Y-138726803D01*
X100223394Y-138757824D01*
X100152900Y-138749396D01*
X100098153Y-138704193D01*
X100076500Y-138633569D01*
X100076500Y-136903733D01*
X101453700Y-136903733D01*
X101460034Y-136914824D01*
X103873188Y-139327978D01*
X103887132Y-139335592D01*
X103888965Y-139335461D01*
X103895580Y-139331210D01*
X106311100Y-136915690D01*
X106317630Y-136903733D01*
X175621700Y-136903733D01*
X175628034Y-136914824D01*
X178041188Y-139327978D01*
X178055132Y-139335592D01*
X178056965Y-139335461D01*
X178063580Y-139331210D01*
X180479100Y-136915690D01*
X180486241Y-136902614D01*
X180478784Y-136892247D01*
X180239065Y-136698126D01*
X180233728Y-136694249D01*
X179913315Y-136486170D01*
X179907606Y-136482873D01*
X179567189Y-136309422D01*
X179561164Y-136306740D01*
X179204498Y-136169829D01*
X179198216Y-136167788D01*
X178829184Y-136068906D01*
X178822734Y-136067535D01*
X178445371Y-136007766D01*
X178438833Y-136007080D01*
X178057301Y-135987084D01*
X178050699Y-135987084D01*
X177669167Y-136007080D01*
X177662629Y-136007766D01*
X177285266Y-136067535D01*
X177278816Y-136068906D01*
X176909784Y-136167788D01*
X176903502Y-136169829D01*
X176546836Y-136306740D01*
X176540811Y-136309422D01*
X176200397Y-136482872D01*
X176194687Y-136486169D01*
X175874265Y-136694253D01*
X175868939Y-136698123D01*
X175630165Y-136891478D01*
X175621700Y-136903733D01*
X106317630Y-136903733D01*
X106318241Y-136902614D01*
X106310784Y-136892247D01*
X106071065Y-136698126D01*
X106065728Y-136694249D01*
X105745315Y-136486170D01*
X105739606Y-136482873D01*
X105399189Y-136309422D01*
X105393164Y-136306740D01*
X105036498Y-136169829D01*
X105030216Y-136167788D01*
X104661184Y-136068906D01*
X104654734Y-136067535D01*
X104277371Y-136007766D01*
X104270833Y-136007080D01*
X103889301Y-135987084D01*
X103882699Y-135987084D01*
X103501167Y-136007080D01*
X103494629Y-136007766D01*
X103117266Y-136067535D01*
X103110816Y-136068906D01*
X102741784Y-136167788D01*
X102735502Y-136169829D01*
X102378836Y-136306740D01*
X102372811Y-136309422D01*
X102032397Y-136482872D01*
X102026687Y-136486169D01*
X101706265Y-136694253D01*
X101700939Y-136698123D01*
X101462165Y-136891478D01*
X101453700Y-136903733D01*
X100076500Y-136903733D01*
X100076500Y-89769371D01*
X100096502Y-89701250D01*
X100150158Y-89654757D01*
X100220432Y-89644653D01*
X100285012Y-89674147D01*
X100291595Y-89680276D01*
X115494230Y-104882911D01*
X115506616Y-104897323D01*
X115515149Y-104908918D01*
X115515154Y-104908923D01*
X115519492Y-104914818D01*
X115525070Y-104919557D01*
X115525073Y-104919560D01*
X115559768Y-104949035D01*
X115567284Y-104955965D01*
X115572979Y-104961660D01*
X115575861Y-104963940D01*
X115595251Y-104979281D01*
X115598655Y-104982072D01*
X115648703Y-105024591D01*
X115654285Y-105029333D01*
X115660801Y-105032661D01*
X115665850Y-105036028D01*
X115670979Y-105039195D01*
X115676716Y-105043734D01*
X115742875Y-105074655D01*
X115746769Y-105076558D01*
X115811808Y-105109769D01*
X115818916Y-105111508D01*
X115824559Y-105113607D01*
X115830322Y-105115524D01*
X115836950Y-105118622D01*
X115844112Y-105120112D01*
X115844113Y-105120112D01*
X115908412Y-105133486D01*
X115912696Y-105134456D01*
X115983610Y-105151808D01*
X115989212Y-105152156D01*
X115989215Y-105152156D01*
X115994764Y-105152500D01*
X115994762Y-105152536D01*
X115998755Y-105152775D01*
X116002947Y-105153149D01*
X116010115Y-105154640D01*
X116087520Y-105152546D01*
X116090928Y-105152500D01*
X121553629Y-105152500D01*
X121621750Y-105172502D01*
X121642724Y-105189405D01*
X124426595Y-107973276D01*
X124460621Y-108035588D01*
X124463500Y-108062371D01*
X124463500Y-109445001D01*
X124446619Y-109508000D01*
X124387473Y-109610444D01*
X124328458Y-109792072D01*
X124308496Y-109982000D01*
X124328458Y-110171928D01*
X124387473Y-110353556D01*
X124482960Y-110518944D01*
X124610747Y-110660866D01*
X124765248Y-110773118D01*
X124771276Y-110775802D01*
X124771278Y-110775803D01*
X124933681Y-110848109D01*
X124939712Y-110850794D01*
X125033112Y-110870647D01*
X125120056Y-110889128D01*
X125120061Y-110889128D01*
X125126513Y-110890500D01*
X125317487Y-110890500D01*
X125323939Y-110889128D01*
X125323944Y-110889128D01*
X125410888Y-110870647D01*
X125504288Y-110850794D01*
X125510319Y-110848109D01*
X125672722Y-110775803D01*
X125672724Y-110775802D01*
X125678752Y-110773118D01*
X125833253Y-110660866D01*
X125961040Y-110518944D01*
X126056527Y-110353556D01*
X126115542Y-110171928D01*
X126135504Y-109982000D01*
X126115542Y-109792072D01*
X126056527Y-109610444D01*
X125997381Y-109508000D01*
X125980500Y-109445001D01*
X125980500Y-107763069D01*
X125981933Y-107744118D01*
X125984099Y-107729883D01*
X125984099Y-107729881D01*
X125985199Y-107722651D01*
X125980915Y-107669982D01*
X125980500Y-107659767D01*
X125980500Y-107651707D01*
X125977211Y-107623493D01*
X125976778Y-107619118D01*
X125971454Y-107553661D01*
X125971453Y-107553658D01*
X125970860Y-107546363D01*
X125968604Y-107539399D01*
X125967413Y-107533440D01*
X125966029Y-107527585D01*
X125965182Y-107520319D01*
X125940265Y-107451673D01*
X125938848Y-107447545D01*
X125918607Y-107385064D01*
X125918606Y-107385062D01*
X125916351Y-107378101D01*
X125912555Y-107371846D01*
X125910049Y-107366372D01*
X125907330Y-107360942D01*
X125904833Y-107354063D01*
X125864814Y-107293024D01*
X125862467Y-107289305D01*
X125824595Y-107226893D01*
X125817197Y-107218516D01*
X125817224Y-107218492D01*
X125814571Y-107215500D01*
X125811868Y-107212267D01*
X125807856Y-107206148D01*
X125751617Y-107152872D01*
X125749175Y-107150494D01*
X122503770Y-103905089D01*
X122491384Y-103890677D01*
X122482851Y-103879082D01*
X122482846Y-103879077D01*
X122478508Y-103873182D01*
X122472930Y-103868443D01*
X122472927Y-103868440D01*
X122438232Y-103838965D01*
X122430716Y-103832035D01*
X122425021Y-103826340D01*
X122418880Y-103821482D01*
X122402749Y-103808719D01*
X122399345Y-103805928D01*
X122349297Y-103763409D01*
X122349295Y-103763408D01*
X122343715Y-103758667D01*
X122337199Y-103755339D01*
X122332150Y-103751972D01*
X122327021Y-103748805D01*
X122321284Y-103744266D01*
X122255125Y-103713345D01*
X122251225Y-103711439D01*
X122186192Y-103678231D01*
X122179084Y-103676492D01*
X122173441Y-103674393D01*
X122167678Y-103672476D01*
X122161050Y-103669378D01*
X122089583Y-103654513D01*
X122085299Y-103653543D01*
X122014390Y-103636192D01*
X122008788Y-103635844D01*
X122008785Y-103635844D01*
X122003236Y-103635500D01*
X122003238Y-103635464D01*
X121999245Y-103635225D01*
X121995053Y-103634851D01*
X121987885Y-103633360D01*
X121921675Y-103635151D01*
X121910479Y-103635454D01*
X121907072Y-103635500D01*
X116444371Y-103635500D01*
X116376250Y-103615498D01*
X116355276Y-103598595D01*
X103547350Y-90790669D01*
X177991001Y-90790669D01*
X177991371Y-90797490D01*
X177996895Y-90848352D01*
X178000521Y-90863604D01*
X178045676Y-90984054D01*
X178054214Y-90999649D01*
X178130715Y-91101724D01*
X178143276Y-91114285D01*
X178245351Y-91190786D01*
X178260946Y-91199324D01*
X178381394Y-91244478D01*
X178396649Y-91248105D01*
X178447514Y-91253631D01*
X178454328Y-91254000D01*
X179076885Y-91254000D01*
X179092124Y-91249525D01*
X179093329Y-91248135D01*
X179095000Y-91240452D01*
X179095000Y-91235884D01*
X179603000Y-91235884D01*
X179607475Y-91251123D01*
X179608865Y-91252328D01*
X179616548Y-91253999D01*
X180243669Y-91253999D01*
X180250490Y-91253629D01*
X180301352Y-91248105D01*
X180316604Y-91244479D01*
X180437054Y-91199324D01*
X180452649Y-91190786D01*
X180554724Y-91114285D01*
X180567285Y-91101724D01*
X180643786Y-90999649D01*
X180652324Y-90984054D01*
X180697478Y-90863606D01*
X180701105Y-90848351D01*
X180706631Y-90797486D01*
X180707000Y-90790672D01*
X180707000Y-90168115D01*
X180702525Y-90152876D01*
X180701135Y-90151671D01*
X180693452Y-90150000D01*
X179621115Y-90150000D01*
X179605876Y-90154475D01*
X179604671Y-90155865D01*
X179603000Y-90163548D01*
X179603000Y-91235884D01*
X179095000Y-91235884D01*
X179095000Y-90168115D01*
X179090525Y-90152876D01*
X179089135Y-90151671D01*
X179081452Y-90150000D01*
X178009116Y-90150000D01*
X177993877Y-90154475D01*
X177992672Y-90155865D01*
X177991001Y-90163548D01*
X177991001Y-90790669D01*
X103547350Y-90790669D01*
X101379405Y-88622724D01*
X101345379Y-88560412D01*
X101342500Y-88533629D01*
X101342500Y-78090371D01*
X101362502Y-78022250D01*
X101379405Y-78001276D01*
X101784494Y-77596187D01*
X101846806Y-77562161D01*
X101917621Y-77567226D01*
X101974457Y-77609773D01*
X101999268Y-77676293D01*
X101984177Y-77745667D01*
X101977677Y-77756286D01*
X101918743Y-77842680D01*
X101871716Y-77943992D01*
X101835390Y-78022250D01*
X101824688Y-78045305D01*
X101764989Y-78260570D01*
X101741251Y-78482695D01*
X101754110Y-78705715D01*
X101755247Y-78710761D01*
X101755248Y-78710767D01*
X101763002Y-78745173D01*
X101803222Y-78923639D01*
X101848377Y-79034842D01*
X101880612Y-79114228D01*
X101887266Y-79130616D01*
X101938454Y-79214148D01*
X102001291Y-79316688D01*
X102003987Y-79321088D01*
X102150250Y-79489938D01*
X102322126Y-79632632D01*
X102395445Y-79675476D01*
X102395955Y-79675774D01*
X102444679Y-79727412D01*
X102457750Y-79797195D01*
X102431019Y-79862967D01*
X102390562Y-79896327D01*
X102382457Y-79900546D01*
X102373738Y-79906036D01*
X102203433Y-80033905D01*
X102195726Y-80040748D01*
X102048590Y-80194717D01*
X102042104Y-80202727D01*
X101922098Y-80378649D01*
X101917000Y-80387623D01*
X101827338Y-80580783D01*
X101823775Y-80590470D01*
X101768389Y-80790183D01*
X101769912Y-80798607D01*
X101782292Y-80802000D01*
X103232000Y-80802000D01*
X103300121Y-80822002D01*
X103346614Y-80875658D01*
X103358000Y-80928000D01*
X103358000Y-81184000D01*
X103337998Y-81252121D01*
X103284342Y-81298614D01*
X103232000Y-81310000D01*
X101787225Y-81310000D01*
X101773694Y-81313973D01*
X101772257Y-81323966D01*
X101802565Y-81458446D01*
X101805645Y-81468275D01*
X101885770Y-81665603D01*
X101890413Y-81674794D01*
X102001694Y-81856388D01*
X102007777Y-81864699D01*
X102147213Y-82025667D01*
X102154580Y-82032883D01*
X102318434Y-82168916D01*
X102326881Y-82174831D01*
X102395969Y-82215203D01*
X102444693Y-82266842D01*
X102457764Y-82336625D01*
X102431033Y-82402396D01*
X102390584Y-82435752D01*
X102377607Y-82442507D01*
X102373474Y-82445610D01*
X102373471Y-82445612D01*
X102203100Y-82573530D01*
X102198965Y-82576635D01*
X102044629Y-82738138D01*
X101918743Y-82922680D01*
X101824688Y-83125305D01*
X101764989Y-83340570D01*
X101741251Y-83562695D01*
X101741548Y-83567848D01*
X101741548Y-83567851D01*
X101747011Y-83662590D01*
X101754110Y-83785715D01*
X101755247Y-83790761D01*
X101755248Y-83790767D01*
X101775119Y-83878939D01*
X101803222Y-84003639D01*
X101887266Y-84210616D01*
X101938019Y-84293438D01*
X102001291Y-84396688D01*
X102003987Y-84401088D01*
X102150250Y-84569938D01*
X102322126Y-84712632D01*
X102392595Y-84753811D01*
X102395445Y-84755476D01*
X102444169Y-84807114D01*
X102457240Y-84876897D01*
X102430509Y-84942669D01*
X102390055Y-84976027D01*
X102377607Y-84982507D01*
X102373474Y-84985610D01*
X102373471Y-84985612D01*
X102203100Y-85113530D01*
X102198965Y-85116635D01*
X102044629Y-85278138D01*
X101918743Y-85462680D01*
X101903003Y-85496590D01*
X101835341Y-85642356D01*
X101824688Y-85665305D01*
X101764989Y-85880570D01*
X101741251Y-86102695D01*
X101741548Y-86107848D01*
X101741548Y-86107851D01*
X101753812Y-86320547D01*
X101754110Y-86325715D01*
X101755247Y-86330761D01*
X101755248Y-86330767D01*
X101775119Y-86418939D01*
X101803222Y-86543639D01*
X101841461Y-86637811D01*
X101873450Y-86716590D01*
X101887266Y-86750616D01*
X101938019Y-86833438D01*
X102001291Y-86936688D01*
X102003987Y-86941088D01*
X102150250Y-87109938D01*
X102322126Y-87252632D01*
X102515000Y-87365338D01*
X102723692Y-87445030D01*
X102728760Y-87446061D01*
X102728763Y-87446062D01*
X102836017Y-87467883D01*
X102942597Y-87489567D01*
X102947772Y-87489757D01*
X102947774Y-87489757D01*
X103160673Y-87497564D01*
X103160677Y-87497564D01*
X103165837Y-87497753D01*
X103170957Y-87497097D01*
X103170959Y-87497097D01*
X103382288Y-87470025D01*
X103382289Y-87470025D01*
X103387416Y-87469368D01*
X103392366Y-87467883D01*
X103596429Y-87406661D01*
X103596434Y-87406659D01*
X103601384Y-87405174D01*
X103801994Y-87306896D01*
X103983860Y-87177173D01*
X104142096Y-87019489D01*
X104201594Y-86936689D01*
X104272453Y-86838077D01*
X104273776Y-86839028D01*
X104320645Y-86795857D01*
X104390580Y-86783625D01*
X104456026Y-86811144D01*
X104483875Y-86842994D01*
X104543987Y-86941088D01*
X104690250Y-87109938D01*
X104862126Y-87252632D01*
X105055000Y-87365338D01*
X105263692Y-87445030D01*
X105268760Y-87446061D01*
X105268763Y-87446062D01*
X105376017Y-87467883D01*
X105482597Y-87489567D01*
X105487772Y-87489757D01*
X105487774Y-87489757D01*
X105700673Y-87497564D01*
X105700677Y-87497564D01*
X105705837Y-87497753D01*
X105710957Y-87497097D01*
X105710959Y-87497097D01*
X105922288Y-87470025D01*
X105922289Y-87470025D01*
X105927416Y-87469368D01*
X105932366Y-87467883D01*
X106136429Y-87406661D01*
X106136434Y-87406659D01*
X106141384Y-87405174D01*
X106341994Y-87306896D01*
X106523860Y-87177173D01*
X106682096Y-87019489D01*
X106741594Y-86936689D01*
X106809435Y-86842277D01*
X106812453Y-86838077D01*
X106833320Y-86795857D01*
X106909136Y-86642453D01*
X106909137Y-86642451D01*
X106911430Y-86637811D01*
X106976370Y-86424069D01*
X107005529Y-86202590D01*
X107007156Y-86136000D01*
X106988852Y-85913361D01*
X106934431Y-85696702D01*
X106845354Y-85491840D01*
X106772164Y-85378706D01*
X106726822Y-85308617D01*
X106726820Y-85308614D01*
X106724014Y-85304277D01*
X106573670Y-85139051D01*
X106569619Y-85135852D01*
X106569615Y-85135848D01*
X106402414Y-85003800D01*
X106402410Y-85003798D01*
X106398359Y-85000598D01*
X106357053Y-84977796D01*
X106307084Y-84927364D01*
X106292312Y-84857921D01*
X106317428Y-84791516D01*
X106344780Y-84764909D01*
X106388603Y-84733650D01*
X106523860Y-84637173D01*
X106682096Y-84479489D01*
X106741594Y-84396689D01*
X106809435Y-84302277D01*
X106812453Y-84298077D01*
X106833320Y-84255857D01*
X106909136Y-84102453D01*
X106909137Y-84102451D01*
X106911430Y-84097811D01*
X106976370Y-83884069D01*
X107005529Y-83662590D01*
X107007156Y-83596000D01*
X106988852Y-83373361D01*
X106934431Y-83156702D01*
X106845354Y-82951840D01*
X106724014Y-82764277D01*
X106573670Y-82599051D01*
X106569619Y-82595852D01*
X106569615Y-82595848D01*
X106402414Y-82463800D01*
X106402410Y-82463798D01*
X106398359Y-82460598D01*
X106357053Y-82437796D01*
X106307084Y-82387364D01*
X106292312Y-82317921D01*
X106317428Y-82251516D01*
X106344780Y-82224909D01*
X106388603Y-82193650D01*
X106523860Y-82097173D01*
X106682096Y-81939489D01*
X106812453Y-81758077D01*
X106825995Y-81730678D01*
X106909136Y-81562453D01*
X106909137Y-81562451D01*
X106911430Y-81557811D01*
X106965767Y-81378968D01*
X106974865Y-81349023D01*
X106974865Y-81349021D01*
X106976370Y-81344069D01*
X107005529Y-81122590D01*
X107007156Y-81056000D01*
X107004690Y-81026000D01*
X130658496Y-81026000D01*
X130659186Y-81032565D01*
X130676401Y-81196352D01*
X130678458Y-81215928D01*
X130737473Y-81397556D01*
X130740776Y-81403278D01*
X130740777Y-81403279D01*
X130832960Y-81562944D01*
X130831179Y-81563972D01*
X130851778Y-81621688D01*
X130835103Y-81691893D01*
X130799570Y-81753438D01*
X130793538Y-81763885D01*
X130734523Y-81945513D01*
X130733833Y-81952074D01*
X130733833Y-81952076D01*
X130726060Y-82026031D01*
X130714561Y-82135441D01*
X130715251Y-82142006D01*
X130730316Y-82285338D01*
X130734523Y-82325369D01*
X130793538Y-82506997D01*
X130889025Y-82672385D01*
X130893443Y-82677292D01*
X130893444Y-82677293D01*
X131012390Y-82809396D01*
X131016812Y-82814307D01*
X131115908Y-82886305D01*
X131165969Y-82922676D01*
X131171313Y-82926559D01*
X131177341Y-82929243D01*
X131177343Y-82929244D01*
X131221249Y-82948792D01*
X131345777Y-83004235D01*
X131439177Y-83024088D01*
X131526121Y-83042569D01*
X131526126Y-83042569D01*
X131532578Y-83043941D01*
X131723552Y-83043941D01*
X131730004Y-83042569D01*
X131730009Y-83042569D01*
X131816953Y-83024088D01*
X131910353Y-83004235D01*
X132034881Y-82948792D01*
X132078787Y-82929244D01*
X132078789Y-82929243D01*
X132084817Y-82926559D01*
X132090156Y-82922680D01*
X132090163Y-82922676D01*
X132096593Y-82918004D01*
X132170652Y-82893941D01*
X175495070Y-82893941D01*
X175563191Y-82913943D01*
X175584165Y-82930846D01*
X178553595Y-85900276D01*
X178587621Y-85962588D01*
X178590500Y-85989371D01*
X178590500Y-86163655D01*
X178570498Y-86231776D01*
X178540153Y-86264415D01*
X178465392Y-86320547D01*
X178443965Y-86336635D01*
X178289629Y-86498138D01*
X178286715Y-86502410D01*
X178286714Y-86502411D01*
X178203990Y-86623680D01*
X178163743Y-86682680D01*
X178069688Y-86885305D01*
X178009989Y-87100570D01*
X177986251Y-87322695D01*
X177986548Y-87327848D01*
X177986548Y-87327851D01*
X177996307Y-87497097D01*
X177999110Y-87545715D01*
X178000247Y-87550761D01*
X178000248Y-87550767D01*
X178020119Y-87638939D01*
X178048222Y-87763639D01*
X178132266Y-87970616D01*
X178248987Y-88161088D01*
X178395250Y-88329938D01*
X178399225Y-88333238D01*
X178399231Y-88333244D01*
X178404425Y-88337556D01*
X178444059Y-88396460D01*
X178445555Y-88467441D01*
X178408439Y-88527962D01*
X178368168Y-88552480D01*
X178260946Y-88592676D01*
X178245351Y-88601214D01*
X178143276Y-88677715D01*
X178130715Y-88690276D01*
X178054214Y-88792351D01*
X178045676Y-88807946D01*
X178000522Y-88928394D01*
X177996895Y-88943649D01*
X177991369Y-88994514D01*
X177991000Y-89001328D01*
X177991000Y-89623885D01*
X177995475Y-89639124D01*
X177996865Y-89640329D01*
X178004548Y-89642000D01*
X180688884Y-89642000D01*
X180704123Y-89637525D01*
X180705328Y-89636135D01*
X180706999Y-89628452D01*
X180706999Y-89001331D01*
X180706629Y-88994510D01*
X180701105Y-88943648D01*
X180697479Y-88928396D01*
X180652324Y-88807946D01*
X180643786Y-88792351D01*
X180567285Y-88690276D01*
X180554724Y-88677715D01*
X180452649Y-88601214D01*
X180437054Y-88592676D01*
X180326813Y-88551348D01*
X180270049Y-88508706D01*
X180245349Y-88442145D01*
X180260557Y-88372796D01*
X180282104Y-88344115D01*
X180383430Y-88243144D01*
X180383440Y-88243132D01*
X180387096Y-88239489D01*
X180446594Y-88156689D01*
X180514435Y-88062277D01*
X180517453Y-88058077D01*
X180616430Y-87857811D01*
X180681370Y-87644069D01*
X180710529Y-87422590D01*
X180712156Y-87356000D01*
X180693852Y-87133361D01*
X180639431Y-86916702D01*
X180550354Y-86711840D01*
X180505466Y-86642453D01*
X180431822Y-86528617D01*
X180431820Y-86528614D01*
X180429014Y-86524277D01*
X180278670Y-86359051D01*
X180155407Y-86261703D01*
X180114345Y-86203785D01*
X180107500Y-86162821D01*
X180107500Y-85690069D01*
X180108933Y-85671118D01*
X180111099Y-85656883D01*
X180111099Y-85656881D01*
X180112199Y-85649651D01*
X180107915Y-85596982D01*
X180107500Y-85586767D01*
X180107500Y-85578707D01*
X180104211Y-85550493D01*
X180103778Y-85546118D01*
X180098454Y-85480661D01*
X180098453Y-85480658D01*
X180097860Y-85473363D01*
X180095604Y-85466399D01*
X180094413Y-85460440D01*
X180093029Y-85454585D01*
X180092182Y-85447319D01*
X180067265Y-85378673D01*
X180065848Y-85374545D01*
X180045607Y-85312064D01*
X180045606Y-85312062D01*
X180043351Y-85305101D01*
X180039555Y-85298846D01*
X180037049Y-85293372D01*
X180034330Y-85287942D01*
X180031833Y-85281063D01*
X179991809Y-85220016D01*
X179989472Y-85216312D01*
X179954509Y-85158693D01*
X179954505Y-85158688D01*
X179951595Y-85153892D01*
X179944197Y-85145516D01*
X179944223Y-85145493D01*
X179941574Y-85142503D01*
X179938866Y-85139264D01*
X179934856Y-85133148D01*
X179929549Y-85128121D01*
X179929546Y-85128117D01*
X179878617Y-85079872D01*
X179876175Y-85077494D01*
X176445211Y-81646530D01*
X176432825Y-81632118D01*
X176424292Y-81620523D01*
X176424287Y-81620518D01*
X176419949Y-81614623D01*
X176414371Y-81609884D01*
X176414368Y-81609881D01*
X176379673Y-81580406D01*
X176372157Y-81573476D01*
X176366462Y-81567781D01*
X176353860Y-81557811D01*
X176344190Y-81550160D01*
X176340786Y-81547369D01*
X176290738Y-81504850D01*
X176290736Y-81504849D01*
X176285156Y-81500108D01*
X176278640Y-81496780D01*
X176273591Y-81493413D01*
X176268462Y-81490246D01*
X176262725Y-81485707D01*
X176196566Y-81454786D01*
X176192666Y-81452880D01*
X176127633Y-81419672D01*
X176120525Y-81417933D01*
X176114882Y-81415834D01*
X176109119Y-81413917D01*
X176102491Y-81410819D01*
X176031024Y-81395954D01*
X176026740Y-81394984D01*
X176011566Y-81391271D01*
X175955831Y-81377633D01*
X175950229Y-81377285D01*
X175950226Y-81377285D01*
X175944677Y-81376941D01*
X175944679Y-81376905D01*
X175940686Y-81376666D01*
X175936494Y-81376292D01*
X175929326Y-81374801D01*
X175863116Y-81376592D01*
X175851920Y-81376895D01*
X175848513Y-81376941D01*
X132597930Y-81376941D01*
X132529809Y-81356939D01*
X132483316Y-81303283D01*
X132473212Y-81233009D01*
X132502706Y-81168429D01*
X132508835Y-81161846D01*
X132532012Y-81138669D01*
X177991001Y-81138669D01*
X177991371Y-81145490D01*
X177996895Y-81196352D01*
X178000521Y-81211604D01*
X178045676Y-81332054D01*
X178054214Y-81347649D01*
X178130715Y-81449724D01*
X178143276Y-81462285D01*
X178245351Y-81538786D01*
X178260946Y-81547324D01*
X178381394Y-81592478D01*
X178396649Y-81596105D01*
X178447514Y-81601631D01*
X178454328Y-81602000D01*
X179076885Y-81602000D01*
X179092124Y-81597525D01*
X179093329Y-81596135D01*
X179095000Y-81588452D01*
X179095000Y-81583884D01*
X179603000Y-81583884D01*
X179607475Y-81599123D01*
X179608865Y-81600328D01*
X179616548Y-81601999D01*
X180243669Y-81601999D01*
X180250490Y-81601629D01*
X180301352Y-81596105D01*
X180316604Y-81592479D01*
X180437054Y-81547324D01*
X180452649Y-81538786D01*
X180554724Y-81462285D01*
X180567285Y-81449724D01*
X180643786Y-81347649D01*
X180652324Y-81332054D01*
X180697478Y-81211606D01*
X180701105Y-81196351D01*
X180706631Y-81145486D01*
X180707000Y-81138672D01*
X180707000Y-80516115D01*
X180702525Y-80500876D01*
X180701135Y-80499671D01*
X180693452Y-80498000D01*
X179621115Y-80498000D01*
X179605876Y-80502475D01*
X179604671Y-80503865D01*
X179603000Y-80511548D01*
X179603000Y-81583884D01*
X179095000Y-81583884D01*
X179095000Y-80516115D01*
X179090525Y-80500876D01*
X179089135Y-80499671D01*
X179081452Y-80498000D01*
X178009116Y-80498000D01*
X177993877Y-80502475D01*
X177992672Y-80503865D01*
X177991001Y-80511548D01*
X177991001Y-81138669D01*
X132532012Y-81138669D01*
X136167276Y-77503405D01*
X136229588Y-77469379D01*
X136256371Y-77466500D01*
X177867890Y-77466500D01*
X177936011Y-77486502D01*
X177982504Y-77540158D01*
X177993177Y-77605889D01*
X177986251Y-77670695D01*
X177986548Y-77675847D01*
X177986548Y-77675851D01*
X177996846Y-77854457D01*
X177999110Y-77893715D01*
X178000247Y-77898761D01*
X178000248Y-77898767D01*
X178014560Y-77962271D01*
X178048222Y-78111639D01*
X178132266Y-78318616D01*
X178174857Y-78388118D01*
X178245948Y-78504128D01*
X178248987Y-78509088D01*
X178395250Y-78677938D01*
X178399225Y-78681238D01*
X178399231Y-78681244D01*
X178404425Y-78685556D01*
X178444059Y-78744460D01*
X178445555Y-78815441D01*
X178408439Y-78875962D01*
X178368168Y-78900480D01*
X178260946Y-78940676D01*
X178245351Y-78949214D01*
X178143276Y-79025715D01*
X178130715Y-79038276D01*
X178054214Y-79140351D01*
X178045676Y-79155946D01*
X178000522Y-79276394D01*
X177996895Y-79291649D01*
X177991369Y-79342514D01*
X177991000Y-79349328D01*
X177991000Y-79971885D01*
X177995475Y-79987124D01*
X177996865Y-79988329D01*
X178004548Y-79990000D01*
X180688884Y-79990000D01*
X180704123Y-79985525D01*
X180705328Y-79984135D01*
X180706999Y-79976452D01*
X180706999Y-79349331D01*
X180706629Y-79342510D01*
X180701105Y-79291648D01*
X180697479Y-79276396D01*
X180652324Y-79155946D01*
X180643786Y-79140351D01*
X180567285Y-79038276D01*
X180554724Y-79025715D01*
X180452649Y-78949214D01*
X180437054Y-78940676D01*
X180326813Y-78899348D01*
X180270049Y-78856706D01*
X180245349Y-78790145D01*
X180260557Y-78720796D01*
X180282104Y-78692115D01*
X180383430Y-78591144D01*
X180383440Y-78591132D01*
X180387096Y-78587489D01*
X180446594Y-78504689D01*
X180514435Y-78410277D01*
X180517453Y-78406077D01*
X180616430Y-78205811D01*
X180681370Y-77992069D01*
X180710529Y-77770590D01*
X180710611Y-77767240D01*
X180712074Y-77707365D01*
X180712074Y-77707361D01*
X180712156Y-77704000D01*
X180693852Y-77481361D01*
X180639431Y-77264702D01*
X180550354Y-77059840D01*
X180466446Y-76930138D01*
X180431822Y-76876617D01*
X180431820Y-76876614D01*
X180429014Y-76872277D01*
X180278670Y-76707051D01*
X180274619Y-76703852D01*
X180274615Y-76703848D01*
X180107414Y-76571800D01*
X180107410Y-76571798D01*
X180103359Y-76568598D01*
X179907789Y-76460638D01*
X179902920Y-76458914D01*
X179902916Y-76458912D01*
X179702087Y-76387795D01*
X179702083Y-76387794D01*
X179697212Y-76386069D01*
X179692119Y-76385162D01*
X179692116Y-76385161D01*
X179482373Y-76347800D01*
X179482367Y-76347799D01*
X179477284Y-76346894D01*
X179406770Y-76346033D01*
X179259082Y-76344228D01*
X179259080Y-76344228D01*
X179253911Y-76344165D01*
X179230156Y-76347800D01*
X179150385Y-76360006D01*
X179080023Y-76350538D01*
X179042232Y-76324551D01*
X178936770Y-76219089D01*
X178924384Y-76204677D01*
X178915851Y-76193082D01*
X178915846Y-76193077D01*
X178911508Y-76187182D01*
X178905930Y-76182443D01*
X178905927Y-76182440D01*
X178871232Y-76152965D01*
X178863716Y-76146035D01*
X178858021Y-76140340D01*
X178851880Y-76135482D01*
X178835749Y-76122719D01*
X178832345Y-76119928D01*
X178782297Y-76077409D01*
X178782295Y-76077408D01*
X178776715Y-76072667D01*
X178770199Y-76069339D01*
X178765150Y-76065972D01*
X178760021Y-76062805D01*
X178754284Y-76058266D01*
X178688125Y-76027345D01*
X178684225Y-76025439D01*
X178619192Y-75992231D01*
X178612084Y-75990492D01*
X178606441Y-75988393D01*
X178600678Y-75986476D01*
X178594050Y-75983378D01*
X178522583Y-75968513D01*
X178518299Y-75967543D01*
X178447390Y-75950192D01*
X178441788Y-75949844D01*
X178441785Y-75949844D01*
X178436236Y-75949500D01*
X178436238Y-75949464D01*
X178432245Y-75949225D01*
X178428053Y-75948851D01*
X178420885Y-75947360D01*
X178354675Y-75949151D01*
X178343479Y-75949454D01*
X178340072Y-75949500D01*
X136755371Y-75949500D01*
X136687250Y-75929498D01*
X136640757Y-75875842D01*
X136630653Y-75805568D01*
X136660147Y-75740988D01*
X136666276Y-75734405D01*
X141506012Y-70894669D01*
X177991001Y-70894669D01*
X177991371Y-70901490D01*
X177996895Y-70952352D01*
X178000521Y-70967604D01*
X178045676Y-71088054D01*
X178054214Y-71103649D01*
X178130715Y-71205724D01*
X178143276Y-71218285D01*
X178245351Y-71294786D01*
X178260946Y-71303324D01*
X178381394Y-71348478D01*
X178396649Y-71352105D01*
X178447514Y-71357631D01*
X178454328Y-71358000D01*
X179076885Y-71358000D01*
X179092124Y-71353525D01*
X179093329Y-71352135D01*
X179095000Y-71344452D01*
X179095000Y-71339884D01*
X179603000Y-71339884D01*
X179607475Y-71355123D01*
X179608865Y-71356328D01*
X179616548Y-71357999D01*
X180243669Y-71357999D01*
X180250490Y-71357629D01*
X180301352Y-71352105D01*
X180316604Y-71348479D01*
X180437054Y-71303324D01*
X180452649Y-71294786D01*
X180554724Y-71218285D01*
X180567285Y-71205724D01*
X180643786Y-71103649D01*
X180652324Y-71088054D01*
X180697478Y-70967606D01*
X180701105Y-70952351D01*
X180706631Y-70901486D01*
X180707000Y-70894672D01*
X180707000Y-70272115D01*
X180702525Y-70256876D01*
X180701135Y-70255671D01*
X180693452Y-70254000D01*
X179621115Y-70254000D01*
X179605876Y-70258475D01*
X179604671Y-70259865D01*
X179603000Y-70267548D01*
X179603000Y-71339884D01*
X179095000Y-71339884D01*
X179095000Y-70272115D01*
X179090525Y-70256876D01*
X179089135Y-70255671D01*
X179081452Y-70254000D01*
X178009116Y-70254000D01*
X177993877Y-70258475D01*
X177992672Y-70259865D01*
X177991001Y-70267548D01*
X177991001Y-70894669D01*
X141506012Y-70894669D01*
X144145276Y-68255405D01*
X144207588Y-68221379D01*
X144234371Y-68218500D01*
X178151491Y-68218500D01*
X178219612Y-68238502D01*
X178248402Y-68265595D01*
X178248987Y-68265088D01*
X178395250Y-68433938D01*
X178399225Y-68437238D01*
X178399231Y-68437244D01*
X178404425Y-68441556D01*
X178444059Y-68500460D01*
X178445555Y-68571441D01*
X178408439Y-68631962D01*
X178368168Y-68656480D01*
X178260946Y-68696676D01*
X178245351Y-68705214D01*
X178143276Y-68781715D01*
X178130715Y-68794276D01*
X178054214Y-68896351D01*
X178045676Y-68911946D01*
X178000522Y-69032394D01*
X177996895Y-69047649D01*
X177991369Y-69098514D01*
X177991000Y-69105328D01*
X177991000Y-69727885D01*
X177995475Y-69743124D01*
X177996865Y-69744329D01*
X178004548Y-69746000D01*
X180688884Y-69746000D01*
X180704123Y-69741525D01*
X180705328Y-69740135D01*
X180706999Y-69732452D01*
X180706999Y-69105331D01*
X180706629Y-69098510D01*
X180701105Y-69047648D01*
X180697479Y-69032396D01*
X180652324Y-68911946D01*
X180643786Y-68896351D01*
X180567285Y-68794276D01*
X180554724Y-68781715D01*
X180452649Y-68705214D01*
X180437054Y-68696676D01*
X180326813Y-68655348D01*
X180270049Y-68612706D01*
X180245349Y-68546145D01*
X180260557Y-68476796D01*
X180282104Y-68448115D01*
X180383430Y-68347144D01*
X180383440Y-68347132D01*
X180387096Y-68343489D01*
X180517453Y-68162077D01*
X180616430Y-67961811D01*
X180681370Y-67748069D01*
X180710529Y-67526590D01*
X180712156Y-67460000D01*
X180693852Y-67237361D01*
X180639431Y-67020702D01*
X180550354Y-66815840D01*
X180478512Y-66704789D01*
X180431822Y-66632617D01*
X180431820Y-66632614D01*
X180429014Y-66628277D01*
X180278670Y-66463051D01*
X180274619Y-66459852D01*
X180274615Y-66459848D01*
X180107414Y-66327800D01*
X180107410Y-66327798D01*
X180103359Y-66324598D01*
X179907789Y-66216638D01*
X179902920Y-66214914D01*
X179902916Y-66214912D01*
X179702087Y-66143795D01*
X179702083Y-66143794D01*
X179697212Y-66142069D01*
X179692119Y-66141162D01*
X179692116Y-66141161D01*
X179482373Y-66103800D01*
X179482367Y-66103799D01*
X179477284Y-66102894D01*
X179403452Y-66101992D01*
X179259081Y-66100228D01*
X179259079Y-66100228D01*
X179253911Y-66100165D01*
X179033091Y-66133955D01*
X178820756Y-66203357D01*
X178622607Y-66306507D01*
X178618474Y-66309610D01*
X178618471Y-66309612D01*
X178594247Y-66327800D01*
X178443965Y-66440635D01*
X178289629Y-66602138D01*
X178259363Y-66646507D01*
X178204455Y-66691507D01*
X178155277Y-66701500D01*
X143935070Y-66701500D01*
X143916120Y-66700067D01*
X143901885Y-66697901D01*
X143901881Y-66697901D01*
X143894651Y-66696801D01*
X143887359Y-66697394D01*
X143887356Y-66697394D01*
X143841982Y-66701085D01*
X143831767Y-66701500D01*
X143823707Y-66701500D01*
X143820073Y-66701924D01*
X143820067Y-66701924D01*
X143807042Y-66703443D01*
X143795480Y-66704791D01*
X143791132Y-66705221D01*
X143718364Y-66711140D01*
X143711403Y-66713395D01*
X143705463Y-66714582D01*
X143699588Y-66715971D01*
X143692319Y-66716818D01*
X143623670Y-66741736D01*
X143619542Y-66743153D01*
X143557064Y-66763393D01*
X143557062Y-66763394D01*
X143550101Y-66765649D01*
X143543846Y-66769445D01*
X143538372Y-66771951D01*
X143532942Y-66774670D01*
X143526063Y-66777167D01*
X143519943Y-66781180D01*
X143519942Y-66781180D01*
X143465024Y-66817186D01*
X143461320Y-66819523D01*
X143398893Y-66857405D01*
X143390516Y-66864803D01*
X143390492Y-66864776D01*
X143387500Y-66867429D01*
X143384267Y-66870132D01*
X143378148Y-66874144D01*
X143373116Y-66879456D01*
X143324872Y-66930383D01*
X143322494Y-66932825D01*
X131415669Y-78839650D01*
X131352772Y-78873801D01*
X131296176Y-78885831D01*
X131296167Y-78885834D01*
X131289712Y-78887206D01*
X131283682Y-78889891D01*
X131283681Y-78889891D01*
X131121278Y-78962197D01*
X131121276Y-78962198D01*
X131115248Y-78964882D01*
X131109907Y-78968762D01*
X131109906Y-78968763D01*
X131067131Y-78999841D01*
X130960747Y-79077134D01*
X130956326Y-79082044D01*
X130956325Y-79082045D01*
X130871857Y-79175857D01*
X130832960Y-79219056D01*
X130829659Y-79224774D01*
X130757746Y-79349331D01*
X130737473Y-79384444D01*
X130678458Y-79566072D01*
X130658496Y-79756000D01*
X130659186Y-79762565D01*
X130676177Y-79924222D01*
X130678458Y-79945928D01*
X130737473Y-80127556D01*
X130832960Y-80292944D01*
X130845338Y-80306691D01*
X130876054Y-80370697D01*
X130867290Y-80441150D01*
X130845339Y-80475307D01*
X130832960Y-80489056D01*
X130737473Y-80654444D01*
X130678458Y-80836072D01*
X130658496Y-81026000D01*
X107004690Y-81026000D01*
X106988852Y-80833361D01*
X106934431Y-80616702D01*
X106845354Y-80411840D01*
X106724014Y-80224277D01*
X106573670Y-80059051D01*
X106569619Y-80055852D01*
X106569615Y-80055848D01*
X106402414Y-79923800D01*
X106402410Y-79923798D01*
X106398359Y-79920598D01*
X106357053Y-79897796D01*
X106307084Y-79847364D01*
X106292312Y-79777921D01*
X106317428Y-79711516D01*
X106344780Y-79684909D01*
X106388603Y-79653650D01*
X106523860Y-79557173D01*
X106682096Y-79399489D01*
X106723037Y-79342514D01*
X106806060Y-79226974D01*
X106862055Y-79183326D01*
X106908383Y-79174500D01*
X125871944Y-79174500D01*
X125883800Y-79175059D01*
X125883803Y-79175059D01*
X125891537Y-79176788D01*
X125962369Y-79174562D01*
X125966327Y-79174500D01*
X125995432Y-79174500D01*
X125999832Y-79173944D01*
X126011664Y-79173012D01*
X126057831Y-79171562D01*
X126078421Y-79165580D01*
X126097782Y-79161570D01*
X126104770Y-79160688D01*
X126111204Y-79159875D01*
X126111205Y-79159875D01*
X126119064Y-79158882D01*
X126126429Y-79155966D01*
X126126433Y-79155965D01*
X126162021Y-79141874D01*
X126173231Y-79138035D01*
X126217600Y-79125145D01*
X126236065Y-79114225D01*
X126253805Y-79105534D01*
X126273756Y-79097635D01*
X126311129Y-79070482D01*
X126321048Y-79063967D01*
X126353977Y-79044493D01*
X126353981Y-79044490D01*
X126360807Y-79040453D01*
X126375971Y-79025289D01*
X126391005Y-79012448D01*
X126401943Y-79004501D01*
X126408357Y-78999841D01*
X126437798Y-78964253D01*
X126445787Y-78955473D01*
X126611115Y-78790145D01*
X126858854Y-78542405D01*
X126921167Y-78508380D01*
X126947950Y-78505500D01*
X126968487Y-78505500D01*
X126974939Y-78504128D01*
X126974944Y-78504128D01*
X127075775Y-78482695D01*
X127155288Y-78465794D01*
X127279982Y-78410277D01*
X127323722Y-78390803D01*
X127323724Y-78390802D01*
X127329752Y-78388118D01*
X127484253Y-78275866D01*
X127498026Y-78260570D01*
X127607621Y-78138852D01*
X127607622Y-78138851D01*
X127612040Y-78133944D01*
X127707527Y-77968556D01*
X127766542Y-77786928D01*
X127770985Y-77744660D01*
X127785814Y-77603565D01*
X127786504Y-77597000D01*
X127775955Y-77496635D01*
X127767232Y-77413635D01*
X127767232Y-77413633D01*
X127766542Y-77407072D01*
X127707527Y-77225444D01*
X127612040Y-77060056D01*
X127537932Y-76977750D01*
X127488675Y-76923045D01*
X127488674Y-76923044D01*
X127484253Y-76918134D01*
X127329752Y-76805882D01*
X127323724Y-76803198D01*
X127323722Y-76803197D01*
X127161319Y-76730891D01*
X127161318Y-76730891D01*
X127155288Y-76728206D01*
X127055762Y-76707051D01*
X126974944Y-76689872D01*
X126974939Y-76689872D01*
X126968487Y-76688500D01*
X126777513Y-76688500D01*
X126771061Y-76689872D01*
X126771056Y-76689872D01*
X126690238Y-76707051D01*
X126590712Y-76728206D01*
X126584682Y-76730891D01*
X126584681Y-76730891D01*
X126422278Y-76803197D01*
X126422276Y-76803198D01*
X126416248Y-76805882D01*
X126261747Y-76918134D01*
X126257326Y-76923044D01*
X126257325Y-76923045D01*
X126208069Y-76977750D01*
X126133960Y-77060056D01*
X126038473Y-77225444D01*
X125979458Y-77407072D01*
X125970045Y-77496635D01*
X125966245Y-77532786D01*
X125939232Y-77598442D01*
X125930030Y-77608710D01*
X125718145Y-77820595D01*
X125655833Y-77854621D01*
X125629050Y-77857500D01*
X125055551Y-77857500D01*
X124987430Y-77837498D01*
X124940937Y-77783842D01*
X124930833Y-77713568D01*
X124958466Y-77651186D01*
X124966133Y-77641918D01*
X124974123Y-77633137D01*
X126634202Y-75973057D01*
X126672048Y-75947045D01*
X126838054Y-75873135D01*
X126838056Y-75873134D01*
X126844084Y-75870450D01*
X126998585Y-75758198D01*
X127126372Y-75616276D01*
X127199382Y-75489819D01*
X127218555Y-75456611D01*
X127218556Y-75456610D01*
X127221859Y-75450888D01*
X127280874Y-75269260D01*
X127282616Y-75252692D01*
X127300146Y-75085897D01*
X127300836Y-75079332D01*
X127280874Y-74889404D01*
X127221859Y-74707776D01*
X127207304Y-74682565D01*
X127173638Y-74624255D01*
X127126372Y-74542388D01*
X126998585Y-74400466D01*
X126844084Y-74288214D01*
X126838056Y-74285530D01*
X126838054Y-74285529D01*
X126675651Y-74213223D01*
X126675650Y-74213223D01*
X126669620Y-74210538D01*
X126576219Y-74190685D01*
X126489276Y-74172204D01*
X126489271Y-74172204D01*
X126482819Y-74170832D01*
X126291845Y-74170832D01*
X126285393Y-74172204D01*
X126285388Y-74172204D01*
X126198445Y-74190685D01*
X126105044Y-74210538D01*
X126099014Y-74213223D01*
X126099013Y-74213223D01*
X125936610Y-74285529D01*
X125936608Y-74285530D01*
X125930580Y-74288214D01*
X125776079Y-74400466D01*
X125648292Y-74542388D01*
X125601026Y-74624255D01*
X125567361Y-74682565D01*
X125552805Y-74707776D01*
X125493790Y-74889404D01*
X125473828Y-75079332D01*
X125474518Y-75085897D01*
X125485767Y-75192923D01*
X125472995Y-75262762D01*
X125449552Y-75295189D01*
X124246476Y-76498264D01*
X124184164Y-76532290D01*
X124157381Y-76535169D01*
X107063972Y-76535169D01*
X106995851Y-76515167D01*
X106949358Y-76461511D01*
X106939254Y-76391237D01*
X106943411Y-76372548D01*
X106976370Y-76264069D01*
X107005529Y-76042590D01*
X107006678Y-75995560D01*
X107007074Y-75979365D01*
X107007074Y-75979361D01*
X107007156Y-75976000D01*
X106988852Y-75753361D01*
X106934431Y-75536702D01*
X106845354Y-75331840D01*
X106724014Y-75144277D01*
X106573670Y-74979051D01*
X106569619Y-74975852D01*
X106569615Y-74975848D01*
X106402414Y-74843800D01*
X106402410Y-74843798D01*
X106398359Y-74840598D01*
X106202789Y-74732638D01*
X106197920Y-74730914D01*
X106197916Y-74730912D01*
X105997087Y-74659795D01*
X105997083Y-74659794D01*
X105992212Y-74658069D01*
X105987119Y-74657162D01*
X105987116Y-74657161D01*
X105777373Y-74619800D01*
X105777367Y-74619799D01*
X105772284Y-74618894D01*
X105698452Y-74617992D01*
X105554081Y-74616228D01*
X105554079Y-74616228D01*
X105548911Y-74616165D01*
X105328091Y-74649955D01*
X105115756Y-74719357D01*
X104917607Y-74822507D01*
X104913474Y-74825610D01*
X104913471Y-74825612D01*
X104828508Y-74889404D01*
X104738965Y-74956635D01*
X104682537Y-75015684D01*
X104658283Y-75041064D01*
X104596759Y-75076494D01*
X104525846Y-75073037D01*
X104468060Y-75031791D01*
X104449207Y-74998243D01*
X104407767Y-74887703D01*
X104404615Y-74879295D01*
X104317261Y-74762739D01*
X104200705Y-74675385D01*
X104064316Y-74624255D01*
X104002134Y-74617500D01*
X102205866Y-74617500D01*
X102143684Y-74624255D01*
X102007295Y-74675385D01*
X101890739Y-74762739D01*
X101803385Y-74879295D01*
X101752255Y-75015684D01*
X101745500Y-75077866D01*
X101745500Y-75437629D01*
X101725498Y-75505750D01*
X101708595Y-75526724D01*
X100291595Y-76943724D01*
X100229283Y-76977750D01*
X100158468Y-76972685D01*
X100101632Y-76930138D01*
X100076821Y-76863618D01*
X100076500Y-76854629D01*
X100076500Y-50584000D01*
X104750496Y-50584000D01*
X104770458Y-50773928D01*
X104829473Y-50955556D01*
X104924960Y-51120944D01*
X105052747Y-51262866D01*
X105207248Y-51375118D01*
X105213276Y-51377802D01*
X105213278Y-51377803D01*
X105375681Y-51450109D01*
X105381712Y-51452794D01*
X105475113Y-51472647D01*
X105562056Y-51491128D01*
X105562061Y-51491128D01*
X105568513Y-51492500D01*
X105759487Y-51492500D01*
X105765939Y-51491128D01*
X105765944Y-51491128D01*
X105852887Y-51472647D01*
X105946288Y-51452794D01*
X105952319Y-51450109D01*
X106114722Y-51377803D01*
X106114724Y-51377802D01*
X106120752Y-51375118D01*
X106270163Y-51266564D01*
X106337031Y-51242706D01*
X106344224Y-51242500D01*
X106393050Y-51242500D01*
X106461171Y-51262502D01*
X106482145Y-51279405D01*
X113096595Y-57893855D01*
X113130621Y-57956167D01*
X113133500Y-57982950D01*
X113133500Y-74001241D01*
X113113498Y-74069362D01*
X113101136Y-74085551D01*
X113052960Y-74139056D01*
X113049659Y-74144774D01*
X112968394Y-74285529D01*
X112957473Y-74304444D01*
X112898458Y-74486072D01*
X112897768Y-74492633D01*
X112897768Y-74492635D01*
X112880476Y-74657161D01*
X112878496Y-74676000D01*
X112879186Y-74682565D01*
X112894221Y-74825612D01*
X112898458Y-74865928D01*
X112957473Y-75047556D01*
X112960776Y-75053278D01*
X112960777Y-75053279D01*
X112975819Y-75079332D01*
X113052960Y-75212944D01*
X113180747Y-75354866D01*
X113335248Y-75467118D01*
X113341276Y-75469802D01*
X113341278Y-75469803D01*
X113503681Y-75542109D01*
X113509712Y-75544794D01*
X113603113Y-75564647D01*
X113690056Y-75583128D01*
X113690061Y-75583128D01*
X113696513Y-75584500D01*
X113887487Y-75584500D01*
X113893939Y-75583128D01*
X113893944Y-75583128D01*
X113980887Y-75564647D01*
X114074288Y-75544794D01*
X114080319Y-75542109D01*
X114242722Y-75469803D01*
X114242724Y-75469802D01*
X114248752Y-75467118D01*
X114352940Y-75391421D01*
X114419806Y-75367563D01*
X114488958Y-75383643D01*
X114501056Y-75391418D01*
X114605248Y-75467118D01*
X114611276Y-75469802D01*
X114611278Y-75469803D01*
X114773681Y-75542109D01*
X114779712Y-75544794D01*
X114873113Y-75564647D01*
X114960056Y-75583128D01*
X114960061Y-75583128D01*
X114966513Y-75584500D01*
X115157487Y-75584500D01*
X115163939Y-75583128D01*
X115163944Y-75583128D01*
X115250887Y-75564647D01*
X115344288Y-75544794D01*
X115350319Y-75542109D01*
X115512722Y-75469803D01*
X115512724Y-75469802D01*
X115518752Y-75467118D01*
X115622940Y-75391421D01*
X115689806Y-75367563D01*
X115758958Y-75383643D01*
X115771056Y-75391418D01*
X115875248Y-75467118D01*
X115881276Y-75469802D01*
X115881278Y-75469803D01*
X116043681Y-75542109D01*
X116049712Y-75544794D01*
X116143113Y-75564647D01*
X116230056Y-75583128D01*
X116230061Y-75583128D01*
X116236513Y-75584500D01*
X116427487Y-75584500D01*
X116433939Y-75583128D01*
X116433944Y-75583128D01*
X116520887Y-75564647D01*
X116614288Y-75544794D01*
X116620319Y-75542109D01*
X116782722Y-75469803D01*
X116782724Y-75469802D01*
X116788752Y-75467118D01*
X116943253Y-75354866D01*
X117071040Y-75212944D01*
X117148181Y-75079332D01*
X117163223Y-75053279D01*
X117163224Y-75053278D01*
X117166527Y-75047556D01*
X117225542Y-74865928D01*
X117229780Y-74825612D01*
X117244814Y-74682565D01*
X117245504Y-74676000D01*
X117243524Y-74657161D01*
X117226232Y-74492635D01*
X117226232Y-74492633D01*
X117225542Y-74486072D01*
X117166527Y-74304444D01*
X117155607Y-74285529D01*
X117074341Y-74144774D01*
X117071040Y-74139056D01*
X117022864Y-74085551D01*
X116992146Y-74021544D01*
X116990500Y-74001241D01*
X116990500Y-57982950D01*
X117010502Y-57914829D01*
X117027405Y-57893855D01*
X125419854Y-49501405D01*
X125482166Y-49467379D01*
X125508949Y-49464500D01*
X132415776Y-49464500D01*
X132483897Y-49484502D01*
X132489834Y-49488562D01*
X132639248Y-49597118D01*
X132645276Y-49599802D01*
X132645278Y-49599803D01*
X132807681Y-49672109D01*
X132813712Y-49674794D01*
X132907113Y-49694647D01*
X132994056Y-49713128D01*
X132994061Y-49713128D01*
X133000513Y-49714500D01*
X133191487Y-49714500D01*
X133197939Y-49713128D01*
X133197944Y-49713128D01*
X133284887Y-49694647D01*
X133378288Y-49674794D01*
X133384319Y-49672109D01*
X133546722Y-49599803D01*
X133546724Y-49599802D01*
X133552752Y-49597118D01*
X133707253Y-49484866D01*
X133835040Y-49342944D01*
X133930527Y-49177556D01*
X133989542Y-48995928D01*
X134009504Y-48806000D01*
X133989542Y-48616072D01*
X133930527Y-48434444D01*
X133835040Y-48269056D01*
X133707253Y-48127134D01*
X133552752Y-48014882D01*
X133546724Y-48012198D01*
X133546722Y-48012197D01*
X133384319Y-47939891D01*
X133384318Y-47939891D01*
X133378288Y-47937206D01*
X133284888Y-47917353D01*
X133197944Y-47898872D01*
X133197939Y-47898872D01*
X133191487Y-47897500D01*
X133000513Y-47897500D01*
X132994061Y-47898872D01*
X132994056Y-47898872D01*
X132907112Y-47917353D01*
X132813712Y-47937206D01*
X132807682Y-47939891D01*
X132807681Y-47939891D01*
X132645278Y-48012197D01*
X132645276Y-48012198D01*
X132639248Y-48014882D01*
X132490092Y-48123251D01*
X132489837Y-48123436D01*
X132422969Y-48147294D01*
X132415776Y-48147500D01*
X125807950Y-48147500D01*
X125739829Y-48127498D01*
X125693336Y-48073842D01*
X125683232Y-48003568D01*
X125712726Y-47938988D01*
X125718855Y-47932405D01*
X126435855Y-47215405D01*
X126498167Y-47181379D01*
X126524950Y-47178500D01*
X162387776Y-47178500D01*
X162455897Y-47198502D01*
X162461834Y-47202562D01*
X162611248Y-47311118D01*
X162617276Y-47313802D01*
X162617278Y-47313803D01*
X162659448Y-47332578D01*
X162785712Y-47388794D01*
X162879112Y-47408647D01*
X162966056Y-47427128D01*
X162966061Y-47427128D01*
X162972513Y-47428500D01*
X163163487Y-47428500D01*
X163169939Y-47427128D01*
X163169944Y-47427128D01*
X163256887Y-47408647D01*
X163350288Y-47388794D01*
X163476552Y-47332578D01*
X163518722Y-47313803D01*
X163518724Y-47313802D01*
X163524752Y-47311118D01*
X163679253Y-47198866D01*
X163807040Y-47056944D01*
X163902527Y-46891556D01*
X163951970Y-46739386D01*
X175621759Y-46739386D01*
X175629216Y-46749753D01*
X175868935Y-46943874D01*
X175874272Y-46947751D01*
X176194685Y-47155830D01*
X176200394Y-47159127D01*
X176540811Y-47332578D01*
X176546836Y-47335260D01*
X176903502Y-47472171D01*
X176909784Y-47474212D01*
X177278816Y-47573094D01*
X177285266Y-47574465D01*
X177662629Y-47634234D01*
X177669167Y-47634920D01*
X178050699Y-47654916D01*
X178057301Y-47654916D01*
X178438833Y-47634920D01*
X178445371Y-47634234D01*
X178822734Y-47574465D01*
X178829184Y-47573094D01*
X179198216Y-47474212D01*
X179204498Y-47472171D01*
X179561164Y-47335260D01*
X179567189Y-47332578D01*
X179907606Y-47159127D01*
X179913315Y-47155830D01*
X180233728Y-46947751D01*
X180239065Y-46943874D01*
X180477835Y-46750522D01*
X180486300Y-46738267D01*
X180479966Y-46727176D01*
X178066812Y-44314022D01*
X178052868Y-44306408D01*
X178051035Y-44306539D01*
X178044420Y-44310790D01*
X175628900Y-46726310D01*
X175621759Y-46739386D01*
X163951970Y-46739386D01*
X163961542Y-46709928D01*
X163981504Y-46520000D01*
X163980814Y-46513435D01*
X163962232Y-46336635D01*
X163962232Y-46336633D01*
X163961542Y-46330072D01*
X163902527Y-46148444D01*
X163890182Y-46127061D01*
X163837699Y-46036159D01*
X163807040Y-45983056D01*
X163728936Y-45896312D01*
X163683675Y-45846045D01*
X163683674Y-45846044D01*
X163679253Y-45841134D01*
X163524752Y-45728882D01*
X163518724Y-45726198D01*
X163518722Y-45726197D01*
X163356319Y-45653891D01*
X163356318Y-45653891D01*
X163350288Y-45651206D01*
X163256887Y-45631353D01*
X163169944Y-45612872D01*
X163169939Y-45612872D01*
X163163487Y-45611500D01*
X162972513Y-45611500D01*
X162966061Y-45612872D01*
X162966056Y-45612872D01*
X162879113Y-45631353D01*
X162785712Y-45651206D01*
X162779682Y-45653891D01*
X162779681Y-45653891D01*
X162617278Y-45726197D01*
X162617276Y-45726198D01*
X162611248Y-45728882D01*
X162462092Y-45837251D01*
X162461837Y-45837436D01*
X162394969Y-45861294D01*
X162387776Y-45861500D01*
X126282059Y-45861500D01*
X126270203Y-45860941D01*
X126262463Y-45859211D01*
X126254537Y-45859460D01*
X126254536Y-45859460D01*
X126191611Y-45861438D01*
X126187653Y-45861500D01*
X126158568Y-45861500D01*
X126154637Y-45861997D01*
X126154630Y-45861997D01*
X126154179Y-45862054D01*
X126142343Y-45862986D01*
X126096169Y-45864438D01*
X126075579Y-45870420D01*
X126056218Y-45874430D01*
X126049230Y-45875312D01*
X126042796Y-45876125D01*
X126042795Y-45876125D01*
X126034936Y-45877118D01*
X126027571Y-45880034D01*
X126027567Y-45880035D01*
X125991979Y-45894126D01*
X125980769Y-45897965D01*
X125936400Y-45910855D01*
X125917935Y-45921775D01*
X125900195Y-45930466D01*
X125880244Y-45938365D01*
X125842874Y-45965516D01*
X125832952Y-45972033D01*
X125800023Y-45991507D01*
X125800019Y-45991510D01*
X125793193Y-45995547D01*
X125778029Y-46010711D01*
X125762996Y-46023551D01*
X125745643Y-46036159D01*
X125728600Y-46056761D01*
X125716198Y-46071752D01*
X125708208Y-46080532D01*
X114654395Y-57134345D01*
X114645615Y-57142335D01*
X114645613Y-57142337D01*
X114638920Y-57146584D01*
X114633494Y-57152362D01*
X114633493Y-57152363D01*
X114590396Y-57198257D01*
X114587641Y-57201099D01*
X114567073Y-57221667D01*
X114564356Y-57225170D01*
X114556648Y-57234195D01*
X114527009Y-57265758D01*
X114527007Y-57265759D01*
X114525028Y-57267867D01*
X114524688Y-57267548D01*
X114472561Y-57307745D01*
X114401825Y-57313822D01*
X114339033Y-57280691D01*
X114325824Y-57263913D01*
X114325348Y-57264282D01*
X114320491Y-57258020D01*
X114316453Y-57251193D01*
X114301289Y-57236029D01*
X114288448Y-57220995D01*
X114280501Y-57210057D01*
X114275841Y-57203643D01*
X114240247Y-57174197D01*
X114231468Y-57166208D01*
X107241655Y-50176395D01*
X107233665Y-50167615D01*
X107233663Y-50167613D01*
X107229416Y-50160920D01*
X107177742Y-50112395D01*
X107174901Y-50109641D01*
X107154333Y-50089073D01*
X107150826Y-50086353D01*
X107141804Y-50078647D01*
X107113913Y-50052456D01*
X107108133Y-50047028D01*
X107101181Y-50043206D01*
X107089342Y-50036697D01*
X107072818Y-50025843D01*
X107062132Y-50017555D01*
X107055868Y-50012696D01*
X107048596Y-50009549D01*
X107048594Y-50009548D01*
X107013465Y-49994346D01*
X107002805Y-49989124D01*
X106969284Y-49970695D01*
X106969282Y-49970694D01*
X106962337Y-49966876D01*
X106941559Y-49961541D01*
X106922869Y-49955142D01*
X106903176Y-49946620D01*
X106857552Y-49939394D01*
X106845929Y-49936987D01*
X106817928Y-49929798D01*
X106801188Y-49925500D01*
X106779741Y-49925500D01*
X106760031Y-49923949D01*
X106746677Y-49921834D01*
X106738848Y-49920594D01*
X106692859Y-49924941D01*
X106681004Y-49925500D01*
X106344224Y-49925500D01*
X106276103Y-49905498D01*
X106270163Y-49901436D01*
X106269909Y-49901251D01*
X106120752Y-49792882D01*
X106114724Y-49790198D01*
X106114722Y-49790197D01*
X105952319Y-49717891D01*
X105952318Y-49717891D01*
X105946288Y-49715206D01*
X105852888Y-49695353D01*
X105765944Y-49676872D01*
X105765939Y-49676872D01*
X105759487Y-49675500D01*
X105568513Y-49675500D01*
X105562061Y-49676872D01*
X105562056Y-49676872D01*
X105475112Y-49695353D01*
X105381712Y-49715206D01*
X105375682Y-49717891D01*
X105375681Y-49717891D01*
X105213278Y-49790197D01*
X105213276Y-49790198D01*
X105207248Y-49792882D01*
X105052747Y-49905134D01*
X105048326Y-49910044D01*
X105048325Y-49910045D01*
X104938589Y-50031920D01*
X104924960Y-50047056D01*
X104829473Y-50212444D01*
X104770458Y-50394072D01*
X104750496Y-50584000D01*
X100076500Y-50584000D01*
X100076500Y-46739386D01*
X101453759Y-46739386D01*
X101461216Y-46749753D01*
X101700935Y-46943874D01*
X101706272Y-46947751D01*
X102026685Y-47155830D01*
X102032394Y-47159127D01*
X102372811Y-47332578D01*
X102378836Y-47335260D01*
X102735502Y-47472171D01*
X102741784Y-47474212D01*
X103110816Y-47573094D01*
X103117266Y-47574465D01*
X103494629Y-47634234D01*
X103501167Y-47634920D01*
X103882699Y-47654916D01*
X103889301Y-47654916D01*
X104270833Y-47634920D01*
X104277371Y-47634234D01*
X104654734Y-47574465D01*
X104661184Y-47573094D01*
X105030216Y-47474212D01*
X105036498Y-47472171D01*
X105393164Y-47335260D01*
X105399189Y-47332578D01*
X105739606Y-47159127D01*
X105745315Y-47155830D01*
X106065728Y-46947751D01*
X106071065Y-46943874D01*
X106309835Y-46750522D01*
X106318300Y-46738267D01*
X106311966Y-46727176D01*
X103898812Y-44314022D01*
X103884868Y-44306408D01*
X103883035Y-44306539D01*
X103876420Y-44310790D01*
X101460900Y-46726310D01*
X101453759Y-46739386D01*
X100076500Y-46739386D01*
X100076500Y-45008431D01*
X100096502Y-44940310D01*
X100150158Y-44893817D01*
X100220432Y-44883713D01*
X100285012Y-44913207D01*
X100324207Y-44975820D01*
X100353788Y-45086215D01*
X100355829Y-45092498D01*
X100492740Y-45449164D01*
X100495422Y-45455189D01*
X100668872Y-45795603D01*
X100672169Y-45801313D01*
X100880253Y-46121735D01*
X100884123Y-46127061D01*
X101077478Y-46365835D01*
X101089733Y-46374300D01*
X101100824Y-46367966D01*
X103513978Y-43954812D01*
X103520356Y-43943132D01*
X104250408Y-43943132D01*
X104250539Y-43944965D01*
X104254790Y-43951580D01*
X106670310Y-46367100D01*
X106683386Y-46374241D01*
X106693753Y-46366784D01*
X106887877Y-46127061D01*
X106891747Y-46121735D01*
X107099831Y-45801313D01*
X107103128Y-45795603D01*
X107276578Y-45455189D01*
X107279260Y-45449164D01*
X107416171Y-45092498D01*
X107418212Y-45086216D01*
X107517094Y-44717184D01*
X107518465Y-44710734D01*
X107578234Y-44333371D01*
X107578920Y-44326833D01*
X107598916Y-43945301D01*
X174341084Y-43945301D01*
X174361080Y-44326833D01*
X174361766Y-44333371D01*
X174421535Y-44710734D01*
X174422906Y-44717184D01*
X174521788Y-45086216D01*
X174523829Y-45092498D01*
X174660740Y-45449164D01*
X174663422Y-45455189D01*
X174836872Y-45795603D01*
X174840169Y-45801313D01*
X175048253Y-46121735D01*
X175052123Y-46127061D01*
X175245478Y-46365835D01*
X175257733Y-46374300D01*
X175268824Y-46367966D01*
X177681978Y-43954812D01*
X177689592Y-43940868D01*
X177689461Y-43939035D01*
X177685210Y-43932420D01*
X175269690Y-41516900D01*
X175256614Y-41509759D01*
X175246247Y-41517216D01*
X175052123Y-41756939D01*
X175048253Y-41762265D01*
X174840169Y-42082687D01*
X174836872Y-42088397D01*
X174663422Y-42428811D01*
X174660740Y-42434836D01*
X174523829Y-42791502D01*
X174521788Y-42797784D01*
X174422906Y-43166816D01*
X174421535Y-43173266D01*
X174361766Y-43550629D01*
X174361080Y-43557167D01*
X174341084Y-43938699D01*
X174341084Y-43945301D01*
X107598916Y-43945301D01*
X107598916Y-43938699D01*
X107578920Y-43557167D01*
X107578234Y-43550629D01*
X107518465Y-43173266D01*
X107517094Y-43166816D01*
X107418212Y-42797784D01*
X107416171Y-42791502D01*
X107279260Y-42434836D01*
X107276578Y-42428811D01*
X107103128Y-42088397D01*
X107099831Y-42082687D01*
X106891747Y-41762265D01*
X106887877Y-41756939D01*
X106694522Y-41518165D01*
X106682267Y-41509700D01*
X106671176Y-41516034D01*
X104258022Y-43929188D01*
X104250408Y-43943132D01*
X103520356Y-43943132D01*
X103521592Y-43940868D01*
X103521461Y-43939035D01*
X103517210Y-43932420D01*
X101101690Y-41516900D01*
X101088614Y-41509759D01*
X101078247Y-41517216D01*
X100884123Y-41756939D01*
X100880253Y-41762265D01*
X100672169Y-42082687D01*
X100668872Y-42088397D01*
X100495422Y-42428811D01*
X100492740Y-42434836D01*
X100355829Y-42791502D01*
X100353788Y-42797785D01*
X100324207Y-42908180D01*
X100287255Y-42968803D01*
X100223394Y-42999824D01*
X100152900Y-42991396D01*
X100098153Y-42946193D01*
X100076500Y-42875569D01*
X100076500Y-40766500D01*
X100096502Y-40698379D01*
X100150158Y-40651886D01*
X100202500Y-40640500D01*
X101736316Y-40640500D01*
X101804437Y-40660502D01*
G37*
%TD.AperFunction*%
%TD*%
M02*
