%TF.GenerationSoftware,KiCad,Pcbnew,(6.0.7)*%
%TF.CreationDate,2023-04-15T21:10:14+02:00*%
%TF.ProjectId,control board,636f6e74-726f-46c2-9062-6f6172642e6b,rev?*%
%TF.SameCoordinates,Original*%
%TF.FileFunction,Legend,Bot*%
%TF.FilePolarity,Positive*%
%FSLAX46Y46*%
G04 Gerber Fmt 4.6, Leading zero omitted, Abs format (unit mm)*
G04 Created by KiCad (PCBNEW (6.0.7)) date 2023-04-15 21:10:14*
%MOMM*%
%LPD*%
G01*
G04 APERTURE LIST*
%ADD10C,0.400000*%
%ADD11C,0.150000*%
%ADD12C,0.120000*%
G04 APERTURE END LIST*
D10*
G36*
X135128000Y-55372000D02*
G01*
X134442564Y-57539929D01*
X133876190Y-59618562D01*
X133423918Y-61607898D01*
X133080786Y-63507937D01*
X132841834Y-65318679D01*
X132702101Y-67040124D01*
X132656626Y-68672272D01*
X132676241Y-69706040D01*
X132734167Y-70704034D01*
X132829028Y-71666449D01*
X132959450Y-72593479D01*
X133124055Y-73485317D01*
X133321469Y-74342158D01*
X133550315Y-75164194D01*
X133809217Y-75951620D01*
X134096799Y-76704629D01*
X134411686Y-77423416D01*
X134752502Y-78108174D01*
X135117871Y-78759097D01*
X135506416Y-79376378D01*
X135916762Y-79960212D01*
X136347534Y-80510792D01*
X136797354Y-81028312D01*
X137264848Y-81512965D01*
X137748640Y-81964947D01*
X138247353Y-82384450D01*
X138759611Y-82771667D01*
X139284040Y-83126794D01*
X139819262Y-83450024D01*
X140916585Y-84001566D01*
X142040574Y-84427845D01*
X143180220Y-84730410D01*
X144324517Y-84910813D01*
X145462458Y-84970602D01*
X146376459Y-84932698D01*
X146832897Y-84884532D01*
X147287669Y-84816193D01*
X147739806Y-84727158D01*
X148188338Y-84616903D01*
X148632296Y-84484905D01*
X149070713Y-84330641D01*
X149502618Y-84153588D01*
X149927043Y-83953223D01*
X150343019Y-83729021D01*
X150749577Y-83480461D01*
X151145748Y-83207018D01*
X151530563Y-82908170D01*
X151903053Y-82583394D01*
X152262249Y-82232165D01*
X152607183Y-81853961D01*
X152936885Y-81448260D01*
X153250387Y-81014536D01*
X153546719Y-80552268D01*
X153824913Y-80060931D01*
X154083999Y-79540004D01*
X154323009Y-78988962D01*
X154540974Y-78407282D01*
X154736924Y-77794442D01*
X154909892Y-77149917D01*
X155058907Y-76473185D01*
X155183002Y-75763723D01*
X155281207Y-75021006D01*
X155352552Y-74244513D01*
X155396070Y-73433720D01*
X155410792Y-72588103D01*
X156004942Y-73268862D01*
X156557389Y-73961249D01*
X157068598Y-74664487D01*
X157539034Y-75377803D01*
X157969163Y-76100420D01*
X158359450Y-76831564D01*
X158710358Y-77570460D01*
X159022355Y-78316331D01*
X159295904Y-79068404D01*
X159531471Y-79825903D01*
X159729521Y-80588053D01*
X159890519Y-81354079D01*
X160014930Y-82123205D01*
X160103219Y-82894657D01*
X160155852Y-83667659D01*
X160173293Y-84441437D01*
X160132882Y-85663120D01*
X160018677Y-86867749D01*
X159841220Y-88055636D01*
X159611053Y-89227089D01*
X159338718Y-90382419D01*
X159034757Y-91521936D01*
X158374125Y-93754771D01*
X157713493Y-95928075D01*
X157409532Y-96993178D01*
X157137197Y-98044328D01*
X156907030Y-99081836D01*
X156729573Y-100106011D01*
X156615368Y-101117164D01*
X156574957Y-102115605D01*
X156585079Y-102517108D01*
X156615007Y-102907933D01*
X156664080Y-103287945D01*
X156731640Y-103657009D01*
X156817029Y-104014987D01*
X156919587Y-104361746D01*
X157038656Y-104697148D01*
X157173577Y-105021059D01*
X157323691Y-105333343D01*
X157488338Y-105633864D01*
X157666861Y-105922487D01*
X157858600Y-106199075D01*
X158062896Y-106463494D01*
X158279091Y-106715607D01*
X158506526Y-106955279D01*
X158744541Y-107182374D01*
X158992478Y-107396757D01*
X159249678Y-107598292D01*
X159515483Y-107786843D01*
X159789232Y-107962275D01*
X160070268Y-108124452D01*
X160357932Y-108273238D01*
X160651564Y-108408498D01*
X160950505Y-108530096D01*
X161254098Y-108637896D01*
X161561683Y-108731763D01*
X161872601Y-108811561D01*
X162186193Y-108877155D01*
X162501801Y-108928408D01*
X162818765Y-108965185D01*
X163136426Y-108987351D01*
X163454127Y-108994770D01*
X164007345Y-108979015D01*
X164536205Y-108931983D01*
X165041151Y-108854023D01*
X165522630Y-108745483D01*
X165981087Y-108606713D01*
X166416968Y-108438060D01*
X166830718Y-108239875D01*
X167222784Y-108012505D01*
X167593611Y-107756300D01*
X167943644Y-107471608D01*
X168273330Y-107158778D01*
X168583114Y-106818159D01*
X168873442Y-106450100D01*
X169144760Y-106054950D01*
X169397512Y-105633057D01*
X169632146Y-105184771D01*
X169849106Y-104710439D01*
X170048839Y-104210412D01*
X170231789Y-103685037D01*
X170398404Y-103134664D01*
X170549128Y-102559641D01*
X170684407Y-101960317D01*
X170804687Y-101337041D01*
X170910414Y-100690162D01*
X171002033Y-100020028D01*
X171079990Y-99326989D01*
X171196702Y-97873590D01*
X171264114Y-96332754D01*
X171285792Y-94707272D01*
X171620320Y-95316537D01*
X171947872Y-95989674D01*
X172266431Y-96721103D01*
X172573984Y-97505241D01*
X172868514Y-98336508D01*
X173148005Y-99209323D01*
X173410444Y-100118104D01*
X173653814Y-101057272D01*
X173876100Y-102021244D01*
X174075286Y-103004439D01*
X174249358Y-104001277D01*
X174396299Y-105006177D01*
X174514095Y-106013557D01*
X174600731Y-107017837D01*
X174654190Y-108013435D01*
X174672457Y-108994770D01*
X174630063Y-110430749D01*
X174504457Y-111840643D01*
X174298003Y-113223175D01*
X174013066Y-114577065D01*
X173652009Y-115901035D01*
X173217197Y-117193805D01*
X172710994Y-118454096D01*
X172135764Y-119680630D01*
X171493872Y-120872127D01*
X170787681Y-122027308D01*
X170019557Y-123144895D01*
X169191862Y-124223608D01*
X168306961Y-125262169D01*
X167367219Y-126259298D01*
X166374999Y-127213716D01*
X165332666Y-128124145D01*
X164242584Y-128989305D01*
X163107117Y-129807918D01*
X161928630Y-130578704D01*
X160709486Y-131300385D01*
X159452050Y-131971681D01*
X158158685Y-132591313D01*
X156831758Y-133158003D01*
X155473630Y-133670472D01*
X154086667Y-134127440D01*
X152673232Y-134527629D01*
X151235691Y-134869759D01*
X149776407Y-135152552D01*
X148297744Y-135374728D01*
X146802067Y-135535009D01*
X145291739Y-135632115D01*
X143769125Y-135664768D01*
X145026368Y-135173661D01*
X146219466Y-134672787D01*
X147350011Y-134162301D01*
X148419590Y-133642359D01*
X149429793Y-133113114D01*
X150382209Y-132574723D01*
X151278427Y-132027340D01*
X152120035Y-131471121D01*
X152908624Y-130906220D01*
X153645781Y-130332792D01*
X154333097Y-129750993D01*
X154972160Y-129160977D01*
X155564559Y-128562900D01*
X156111883Y-127956916D01*
X156615722Y-127343181D01*
X157077664Y-126721850D01*
X157499298Y-126093077D01*
X157882214Y-125457017D01*
X158228000Y-124813827D01*
X158538246Y-124163660D01*
X159058472Y-122843017D01*
X159455605Y-121496330D01*
X159742358Y-120124838D01*
X159931442Y-118729781D01*
X160035569Y-117312400D01*
X160067454Y-115873936D01*
X159749702Y-116424422D01*
X159431678Y-116945318D01*
X159113732Y-117437416D01*
X158796213Y-117901513D01*
X158479469Y-118338402D01*
X158163848Y-118748878D01*
X157849701Y-119133735D01*
X157537375Y-119493768D01*
X157227219Y-119829772D01*
X156919583Y-120142540D01*
X156313264Y-120701551D01*
X155721207Y-121177155D01*
X155146203Y-121575710D01*
X154591044Y-121903572D01*
X154058518Y-122167097D01*
X153551418Y-122372640D01*
X153072533Y-122526559D01*
X152624653Y-122635209D01*
X152210570Y-122704947D01*
X151833074Y-122742128D01*
X151494955Y-122753109D01*
X150584310Y-122695916D01*
X149790848Y-122527490D01*
X149105247Y-122252558D01*
X148518186Y-121875850D01*
X148020345Y-121402093D01*
X147602402Y-120836017D01*
X147255037Y-120182348D01*
X146968927Y-119445817D01*
X146734752Y-118631151D01*
X146543190Y-117743078D01*
X146250624Y-115765628D01*
X145766726Y-111137900D01*
X145426256Y-108563276D01*
X145198766Y-107227324D01*
X144920679Y-105865250D01*
X144582674Y-104481781D01*
X144175428Y-103081647D01*
X143689621Y-101669575D01*
X143115932Y-100250295D01*
X142445039Y-98828534D01*
X141667623Y-97409021D01*
X140774360Y-95996485D01*
X139755931Y-94595653D01*
X138603014Y-93211255D01*
X137306288Y-91848018D01*
X135856431Y-90510670D01*
X134244124Y-89203942D01*
X134778820Y-90384593D01*
X135272278Y-91545090D01*
X135725429Y-92685124D01*
X136139202Y-93804383D01*
X136514527Y-94902559D01*
X136852336Y-95979341D01*
X137153558Y-97034418D01*
X137419123Y-98067482D01*
X137649962Y-99078221D01*
X137847004Y-100066326D01*
X138011180Y-101031486D01*
X138143420Y-101973392D01*
X138244654Y-102891734D01*
X138315812Y-103786200D01*
X138357825Y-104656483D01*
X138371623Y-105502270D01*
X138356594Y-106382501D01*
X138312169Y-107237151D01*
X138239334Y-108066067D01*
X138139079Y-108869093D01*
X138012391Y-109646074D01*
X137860259Y-110396855D01*
X137683671Y-111121281D01*
X137483615Y-111819197D01*
X137017054Y-113134879D01*
X136468483Y-114342660D01*
X135845808Y-115441301D01*
X135156936Y-116429561D01*
X134409772Y-117306200D01*
X133612224Y-118069977D01*
X132772198Y-118719653D01*
X131897600Y-119253987D01*
X130996337Y-119671739D01*
X130076316Y-119971668D01*
X129611741Y-120077063D01*
X129145442Y-120152536D01*
X128678406Y-120197934D01*
X128211623Y-120213101D01*
X127814825Y-120203166D01*
X127418493Y-120173310D01*
X127023091Y-120123455D01*
X126629084Y-120053524D01*
X126236938Y-119963439D01*
X125847117Y-119853123D01*
X125460086Y-119722498D01*
X125076311Y-119571486D01*
X124696257Y-119400011D01*
X124320388Y-119207994D01*
X123949171Y-118995359D01*
X123583069Y-118762027D01*
X123222549Y-118507921D01*
X122868074Y-118232964D01*
X122520111Y-117937078D01*
X122179124Y-117620185D01*
X121845578Y-117282208D01*
X121519939Y-116923070D01*
X121202672Y-116542693D01*
X120894241Y-116141000D01*
X120595112Y-115717912D01*
X120305750Y-115273353D01*
X120026620Y-114807244D01*
X119758186Y-114319510D01*
X119500915Y-113810071D01*
X119255271Y-113278850D01*
X119021720Y-112725770D01*
X118800725Y-112150754D01*
X118592754Y-111553724D01*
X118398269Y-110934602D01*
X118217738Y-110293310D01*
X118051624Y-109629772D01*
X118088133Y-111508108D01*
X118204793Y-113370320D01*
X118412299Y-115212688D01*
X118721350Y-117031491D01*
X119142642Y-118823010D01*
X119686873Y-120583522D01*
X120364738Y-122309308D01*
X121186936Y-123996646D01*
X121655503Y-124824735D01*
X122164163Y-125641817D01*
X122714256Y-126447426D01*
X123307117Y-127241098D01*
X123944084Y-128022368D01*
X124626494Y-128790771D01*
X125355684Y-129545841D01*
X126132991Y-130287113D01*
X126959752Y-131014123D01*
X127837305Y-131726405D01*
X128766987Y-132423494D01*
X129750134Y-133104925D01*
X130788085Y-133770233D01*
X131882175Y-134418953D01*
X133033742Y-135050620D01*
X134244124Y-135664768D01*
X132347027Y-135319654D01*
X130524635Y-134920473D01*
X128775999Y-134468970D01*
X127100168Y-133966888D01*
X125496193Y-133415972D01*
X123963124Y-132817966D01*
X122500013Y-132174614D01*
X121105909Y-131487660D01*
X119779862Y-130758848D01*
X118520924Y-129989922D01*
X117328145Y-129182626D01*
X116200575Y-128338705D01*
X115137265Y-127459902D01*
X114137265Y-126547962D01*
X113199625Y-125604628D01*
X112323396Y-124631645D01*
X111507629Y-123630757D01*
X110751374Y-122603707D01*
X110053680Y-121552240D01*
X109413600Y-120478100D01*
X108830183Y-119383032D01*
X108302480Y-118268778D01*
X107410415Y-115989693D01*
X106729811Y-113654797D01*
X106253070Y-111278043D01*
X105972596Y-108873385D01*
X105880793Y-106454773D01*
X105905391Y-105003699D01*
X105978358Y-103587351D01*
X106098454Y-102205729D01*
X106264439Y-100858835D01*
X106475072Y-99546667D01*
X106729113Y-98269225D01*
X107025323Y-97026510D01*
X107362460Y-95818522D01*
X107739284Y-94645261D01*
X108154556Y-93506726D01*
X108607035Y-92402917D01*
X109095480Y-91333835D01*
X109618652Y-90299480D01*
X110175311Y-89299851D01*
X110764215Y-88334949D01*
X111384126Y-87404774D01*
X111411514Y-89138078D01*
X111494093Y-90729221D01*
X111632483Y-92182387D01*
X111827303Y-93501764D01*
X112079174Y-94691536D01*
X112388716Y-95755890D01*
X112756548Y-96699010D01*
X112962518Y-97126416D01*
X113183292Y-97525084D01*
X113418950Y-97895536D01*
X113669568Y-98238296D01*
X113935223Y-98553887D01*
X114215994Y-98842833D01*
X114511958Y-99105656D01*
X114823192Y-99342880D01*
X115149774Y-99555028D01*
X115491782Y-99742623D01*
X115849292Y-99906189D01*
X116222383Y-100046248D01*
X117015616Y-100257941D01*
X117872102Y-100381887D01*
X118792459Y-100422272D01*
X119110159Y-100414853D01*
X119427821Y-100392687D01*
X119744784Y-100355910D01*
X120060392Y-100304656D01*
X120373984Y-100239063D01*
X120684901Y-100159265D01*
X120992486Y-100065398D01*
X121296079Y-99957597D01*
X121595020Y-99835999D01*
X121888652Y-99700740D01*
X122176315Y-99551953D01*
X122457351Y-99389777D01*
X122731101Y-99214345D01*
X122996905Y-99025794D01*
X123254105Y-98824259D01*
X123502042Y-98609876D01*
X123740057Y-98382781D01*
X123967492Y-98143109D01*
X124183687Y-97890995D01*
X124387983Y-97626577D01*
X124579722Y-97349988D01*
X124758245Y-97061366D01*
X124922892Y-96760845D01*
X125073006Y-96448561D01*
X125207926Y-96124650D01*
X125326995Y-95789247D01*
X125429554Y-95442489D01*
X125514943Y-95084510D01*
X125582503Y-94715447D01*
X125631576Y-94335435D01*
X125661503Y-93944609D01*
X125671626Y-93543106D01*
X125641912Y-92772326D01*
X125557937Y-91931007D01*
X125427455Y-91023026D01*
X125258214Y-90052259D01*
X124348709Y-85618834D01*
X123862951Y-83126170D01*
X123639451Y-81824415D01*
X123439205Y-80490879D01*
X123269964Y-79129438D01*
X123139482Y-77743967D01*
X123055507Y-76338342D01*
X123025793Y-74916439D01*
X123056851Y-73482134D01*
X123155191Y-72039302D01*
X123328566Y-70591819D01*
X123584726Y-69143561D01*
X123931423Y-67698404D01*
X124376408Y-66260223D01*
X124927434Y-64832894D01*
X125592251Y-63420293D01*
X126378612Y-62026296D01*
X127294266Y-60654778D01*
X127803002Y-59978659D01*
X128346967Y-59309614D01*
X128927132Y-58648127D01*
X129544465Y-57994682D01*
X130199935Y-57349763D01*
X130894512Y-56713856D01*
X131629163Y-56087444D01*
X132404859Y-55471012D01*
X133222568Y-54865044D01*
X134083258Y-54270026D01*
X134987899Y-53686440D01*
X135937460Y-53114773D01*
X135128000Y-55372000D01*
G37*
X135128000Y-55372000D02*
X134442564Y-57539929D01*
X133876190Y-59618562D01*
X133423918Y-61607898D01*
X133080786Y-63507937D01*
X132841834Y-65318679D01*
X132702101Y-67040124D01*
X132656626Y-68672272D01*
X132676241Y-69706040D01*
X132734167Y-70704034D01*
X132829028Y-71666449D01*
X132959450Y-72593479D01*
X133124055Y-73485317D01*
X133321469Y-74342158D01*
X133550315Y-75164194D01*
X133809217Y-75951620D01*
X134096799Y-76704629D01*
X134411686Y-77423416D01*
X134752502Y-78108174D01*
X135117871Y-78759097D01*
X135506416Y-79376378D01*
X135916762Y-79960212D01*
X136347534Y-80510792D01*
X136797354Y-81028312D01*
X137264848Y-81512965D01*
X137748640Y-81964947D01*
X138247353Y-82384450D01*
X138759611Y-82771667D01*
X139284040Y-83126794D01*
X139819262Y-83450024D01*
X140916585Y-84001566D01*
X142040574Y-84427845D01*
X143180220Y-84730410D01*
X144324517Y-84910813D01*
X145462458Y-84970602D01*
X146376459Y-84932698D01*
X146832897Y-84884532D01*
X147287669Y-84816193D01*
X147739806Y-84727158D01*
X148188338Y-84616903D01*
X148632296Y-84484905D01*
X149070713Y-84330641D01*
X149502618Y-84153588D01*
X149927043Y-83953223D01*
X150343019Y-83729021D01*
X150749577Y-83480461D01*
X151145748Y-83207018D01*
X151530563Y-82908170D01*
X151903053Y-82583394D01*
X152262249Y-82232165D01*
X152607183Y-81853961D01*
X152936885Y-81448260D01*
X153250387Y-81014536D01*
X153546719Y-80552268D01*
X153824913Y-80060931D01*
X154083999Y-79540004D01*
X154323009Y-78988962D01*
X154540974Y-78407282D01*
X154736924Y-77794442D01*
X154909892Y-77149917D01*
X155058907Y-76473185D01*
X155183002Y-75763723D01*
X155281207Y-75021006D01*
X155352552Y-74244513D01*
X155396070Y-73433720D01*
X155410792Y-72588103D01*
X156004942Y-73268862D01*
X156557389Y-73961249D01*
X157068598Y-74664487D01*
X157539034Y-75377803D01*
X157969163Y-76100420D01*
X158359450Y-76831564D01*
X158710358Y-77570460D01*
X159022355Y-78316331D01*
X159295904Y-79068404D01*
X159531471Y-79825903D01*
X159729521Y-80588053D01*
X159890519Y-81354079D01*
X160014930Y-82123205D01*
X160103219Y-82894657D01*
X160155852Y-83667659D01*
X160173293Y-84441437D01*
X160132882Y-85663120D01*
X160018677Y-86867749D01*
X159841220Y-88055636D01*
X159611053Y-89227089D01*
X159338718Y-90382419D01*
X159034757Y-91521936D01*
X158374125Y-93754771D01*
X157713493Y-95928075D01*
X157409532Y-96993178D01*
X157137197Y-98044328D01*
X156907030Y-99081836D01*
X156729573Y-100106011D01*
X156615368Y-101117164D01*
X156574957Y-102115605D01*
X156585079Y-102517108D01*
X156615007Y-102907933D01*
X156664080Y-103287945D01*
X156731640Y-103657009D01*
X156817029Y-104014987D01*
X156919587Y-104361746D01*
X157038656Y-104697148D01*
X157173577Y-105021059D01*
X157323691Y-105333343D01*
X157488338Y-105633864D01*
X157666861Y-105922487D01*
X157858600Y-106199075D01*
X158062896Y-106463494D01*
X158279091Y-106715607D01*
X158506526Y-106955279D01*
X158744541Y-107182374D01*
X158992478Y-107396757D01*
X159249678Y-107598292D01*
X159515483Y-107786843D01*
X159789232Y-107962275D01*
X160070268Y-108124452D01*
X160357932Y-108273238D01*
X160651564Y-108408498D01*
X160950505Y-108530096D01*
X161254098Y-108637896D01*
X161561683Y-108731763D01*
X161872601Y-108811561D01*
X162186193Y-108877155D01*
X162501801Y-108928408D01*
X162818765Y-108965185D01*
X163136426Y-108987351D01*
X163454127Y-108994770D01*
X164007345Y-108979015D01*
X164536205Y-108931983D01*
X165041151Y-108854023D01*
X165522630Y-108745483D01*
X165981087Y-108606713D01*
X166416968Y-108438060D01*
X166830718Y-108239875D01*
X167222784Y-108012505D01*
X167593611Y-107756300D01*
X167943644Y-107471608D01*
X168273330Y-107158778D01*
X168583114Y-106818159D01*
X168873442Y-106450100D01*
X169144760Y-106054950D01*
X169397512Y-105633057D01*
X169632146Y-105184771D01*
X169849106Y-104710439D01*
X170048839Y-104210412D01*
X170231789Y-103685037D01*
X170398404Y-103134664D01*
X170549128Y-102559641D01*
X170684407Y-101960317D01*
X170804687Y-101337041D01*
X170910414Y-100690162D01*
X171002033Y-100020028D01*
X171079990Y-99326989D01*
X171196702Y-97873590D01*
X171264114Y-96332754D01*
X171285792Y-94707272D01*
X171620320Y-95316537D01*
X171947872Y-95989674D01*
X172266431Y-96721103D01*
X172573984Y-97505241D01*
X172868514Y-98336508D01*
X173148005Y-99209323D01*
X173410444Y-100118104D01*
X173653814Y-101057272D01*
X173876100Y-102021244D01*
X174075286Y-103004439D01*
X174249358Y-104001277D01*
X174396299Y-105006177D01*
X174514095Y-106013557D01*
X174600731Y-107017837D01*
X174654190Y-108013435D01*
X174672457Y-108994770D01*
X174630063Y-110430749D01*
X174504457Y-111840643D01*
X174298003Y-113223175D01*
X174013066Y-114577065D01*
X173652009Y-115901035D01*
X173217197Y-117193805D01*
X172710994Y-118454096D01*
X172135764Y-119680630D01*
X171493872Y-120872127D01*
X170787681Y-122027308D01*
X170019557Y-123144895D01*
X169191862Y-124223608D01*
X168306961Y-125262169D01*
X167367219Y-126259298D01*
X166374999Y-127213716D01*
X165332666Y-128124145D01*
X164242584Y-128989305D01*
X163107117Y-129807918D01*
X161928630Y-130578704D01*
X160709486Y-131300385D01*
X159452050Y-131971681D01*
X158158685Y-132591313D01*
X156831758Y-133158003D01*
X155473630Y-133670472D01*
X154086667Y-134127440D01*
X152673232Y-134527629D01*
X151235691Y-134869759D01*
X149776407Y-135152552D01*
X148297744Y-135374728D01*
X146802067Y-135535009D01*
X145291739Y-135632115D01*
X143769125Y-135664768D01*
X145026368Y-135173661D01*
X146219466Y-134672787D01*
X147350011Y-134162301D01*
X148419590Y-133642359D01*
X149429793Y-133113114D01*
X150382209Y-132574723D01*
X151278427Y-132027340D01*
X152120035Y-131471121D01*
X152908624Y-130906220D01*
X153645781Y-130332792D01*
X154333097Y-129750993D01*
X154972160Y-129160977D01*
X155564559Y-128562900D01*
X156111883Y-127956916D01*
X156615722Y-127343181D01*
X157077664Y-126721850D01*
X157499298Y-126093077D01*
X157882214Y-125457017D01*
X158228000Y-124813827D01*
X158538246Y-124163660D01*
X159058472Y-122843017D01*
X159455605Y-121496330D01*
X159742358Y-120124838D01*
X159931442Y-118729781D01*
X160035569Y-117312400D01*
X160067454Y-115873936D01*
X159749702Y-116424422D01*
X159431678Y-116945318D01*
X159113732Y-117437416D01*
X158796213Y-117901513D01*
X158479469Y-118338402D01*
X158163848Y-118748878D01*
X157849701Y-119133735D01*
X157537375Y-119493768D01*
X157227219Y-119829772D01*
X156919583Y-120142540D01*
X156313264Y-120701551D01*
X155721207Y-121177155D01*
X155146203Y-121575710D01*
X154591044Y-121903572D01*
X154058518Y-122167097D01*
X153551418Y-122372640D01*
X153072533Y-122526559D01*
X152624653Y-122635209D01*
X152210570Y-122704947D01*
X151833074Y-122742128D01*
X151494955Y-122753109D01*
X150584310Y-122695916D01*
X149790848Y-122527490D01*
X149105247Y-122252558D01*
X148518186Y-121875850D01*
X148020345Y-121402093D01*
X147602402Y-120836017D01*
X147255037Y-120182348D01*
X146968927Y-119445817D01*
X146734752Y-118631151D01*
X146543190Y-117743078D01*
X146250624Y-115765628D01*
X145766726Y-111137900D01*
X145426256Y-108563276D01*
X145198766Y-107227324D01*
X144920679Y-105865250D01*
X144582674Y-104481781D01*
X144175428Y-103081647D01*
X143689621Y-101669575D01*
X143115932Y-100250295D01*
X142445039Y-98828534D01*
X141667623Y-97409021D01*
X140774360Y-95996485D01*
X139755931Y-94595653D01*
X138603014Y-93211255D01*
X137306288Y-91848018D01*
X135856431Y-90510670D01*
X134244124Y-89203942D01*
X134778820Y-90384593D01*
X135272278Y-91545090D01*
X135725429Y-92685124D01*
X136139202Y-93804383D01*
X136514527Y-94902559D01*
X136852336Y-95979341D01*
X137153558Y-97034418D01*
X137419123Y-98067482D01*
X137649962Y-99078221D01*
X137847004Y-100066326D01*
X138011180Y-101031486D01*
X138143420Y-101973392D01*
X138244654Y-102891734D01*
X138315812Y-103786200D01*
X138357825Y-104656483D01*
X138371623Y-105502270D01*
X138356594Y-106382501D01*
X138312169Y-107237151D01*
X138239334Y-108066067D01*
X138139079Y-108869093D01*
X138012391Y-109646074D01*
X137860259Y-110396855D01*
X137683671Y-111121281D01*
X137483615Y-111819197D01*
X137017054Y-113134879D01*
X136468483Y-114342660D01*
X135845808Y-115441301D01*
X135156936Y-116429561D01*
X134409772Y-117306200D01*
X133612224Y-118069977D01*
X132772198Y-118719653D01*
X131897600Y-119253987D01*
X130996337Y-119671739D01*
X130076316Y-119971668D01*
X129611741Y-120077063D01*
X129145442Y-120152536D01*
X128678406Y-120197934D01*
X128211623Y-120213101D01*
X127814825Y-120203166D01*
X127418493Y-120173310D01*
X127023091Y-120123455D01*
X126629084Y-120053524D01*
X126236938Y-119963439D01*
X125847117Y-119853123D01*
X125460086Y-119722498D01*
X125076311Y-119571486D01*
X124696257Y-119400011D01*
X124320388Y-119207994D01*
X123949171Y-118995359D01*
X123583069Y-118762027D01*
X123222549Y-118507921D01*
X122868074Y-118232964D01*
X122520111Y-117937078D01*
X122179124Y-117620185D01*
X121845578Y-117282208D01*
X121519939Y-116923070D01*
X121202672Y-116542693D01*
X120894241Y-116141000D01*
X120595112Y-115717912D01*
X120305750Y-115273353D01*
X120026620Y-114807244D01*
X119758186Y-114319510D01*
X119500915Y-113810071D01*
X119255271Y-113278850D01*
X119021720Y-112725770D01*
X118800725Y-112150754D01*
X118592754Y-111553724D01*
X118398269Y-110934602D01*
X118217738Y-110293310D01*
X118051624Y-109629772D01*
X118088133Y-111508108D01*
X118204793Y-113370320D01*
X118412299Y-115212688D01*
X118721350Y-117031491D01*
X119142642Y-118823010D01*
X119686873Y-120583522D01*
X120364738Y-122309308D01*
X121186936Y-123996646D01*
X121655503Y-124824735D01*
X122164163Y-125641817D01*
X122714256Y-126447426D01*
X123307117Y-127241098D01*
X123944084Y-128022368D01*
X124626494Y-128790771D01*
X125355684Y-129545841D01*
X126132991Y-130287113D01*
X126959752Y-131014123D01*
X127837305Y-131726405D01*
X128766987Y-132423494D01*
X129750134Y-133104925D01*
X130788085Y-133770233D01*
X131882175Y-134418953D01*
X133033742Y-135050620D01*
X134244124Y-135664768D01*
X132347027Y-135319654D01*
X130524635Y-134920473D01*
X128775999Y-134468970D01*
X127100168Y-133966888D01*
X125496193Y-133415972D01*
X123963124Y-132817966D01*
X122500013Y-132174614D01*
X121105909Y-131487660D01*
X119779862Y-130758848D01*
X118520924Y-129989922D01*
X117328145Y-129182626D01*
X116200575Y-128338705D01*
X115137265Y-127459902D01*
X114137265Y-126547962D01*
X113199625Y-125604628D01*
X112323396Y-124631645D01*
X111507629Y-123630757D01*
X110751374Y-122603707D01*
X110053680Y-121552240D01*
X109413600Y-120478100D01*
X108830183Y-119383032D01*
X108302480Y-118268778D01*
X107410415Y-115989693D01*
X106729811Y-113654797D01*
X106253070Y-111278043D01*
X105972596Y-108873385D01*
X105880793Y-106454773D01*
X105905391Y-105003699D01*
X105978358Y-103587351D01*
X106098454Y-102205729D01*
X106264439Y-100858835D01*
X106475072Y-99546667D01*
X106729113Y-98269225D01*
X107025323Y-97026510D01*
X107362460Y-95818522D01*
X107739284Y-94645261D01*
X108154556Y-93506726D01*
X108607035Y-92402917D01*
X109095480Y-91333835D01*
X109618652Y-90299480D01*
X110175311Y-89299851D01*
X110764215Y-88334949D01*
X111384126Y-87404774D01*
X111411514Y-89138078D01*
X111494093Y-90729221D01*
X111632483Y-92182387D01*
X111827303Y-93501764D01*
X112079174Y-94691536D01*
X112388716Y-95755890D01*
X112756548Y-96699010D01*
X112962518Y-97126416D01*
X113183292Y-97525084D01*
X113418950Y-97895536D01*
X113669568Y-98238296D01*
X113935223Y-98553887D01*
X114215994Y-98842833D01*
X114511958Y-99105656D01*
X114823192Y-99342880D01*
X115149774Y-99555028D01*
X115491782Y-99742623D01*
X115849292Y-99906189D01*
X116222383Y-100046248D01*
X117015616Y-100257941D01*
X117872102Y-100381887D01*
X118792459Y-100422272D01*
X119110159Y-100414853D01*
X119427821Y-100392687D01*
X119744784Y-100355910D01*
X120060392Y-100304656D01*
X120373984Y-100239063D01*
X120684901Y-100159265D01*
X120992486Y-100065398D01*
X121296079Y-99957597D01*
X121595020Y-99835999D01*
X121888652Y-99700740D01*
X122176315Y-99551953D01*
X122457351Y-99389777D01*
X122731101Y-99214345D01*
X122996905Y-99025794D01*
X123254105Y-98824259D01*
X123502042Y-98609876D01*
X123740057Y-98382781D01*
X123967492Y-98143109D01*
X124183687Y-97890995D01*
X124387983Y-97626577D01*
X124579722Y-97349988D01*
X124758245Y-97061366D01*
X124922892Y-96760845D01*
X125073006Y-96448561D01*
X125207926Y-96124650D01*
X125326995Y-95789247D01*
X125429554Y-95442489D01*
X125514943Y-95084510D01*
X125582503Y-94715447D01*
X125631576Y-94335435D01*
X125661503Y-93944609D01*
X125671626Y-93543106D01*
X125641912Y-92772326D01*
X125557937Y-91931007D01*
X125427455Y-91023026D01*
X125258214Y-90052259D01*
X124348709Y-85618834D01*
X123862951Y-83126170D01*
X123639451Y-81824415D01*
X123439205Y-80490879D01*
X123269964Y-79129438D01*
X123139482Y-77743967D01*
X123055507Y-76338342D01*
X123025793Y-74916439D01*
X123056851Y-73482134D01*
X123155191Y-72039302D01*
X123328566Y-70591819D01*
X123584726Y-69143561D01*
X123931423Y-67698404D01*
X124376408Y-66260223D01*
X124927434Y-64832894D01*
X125592251Y-63420293D01*
X126378612Y-62026296D01*
X127294266Y-60654778D01*
X127803002Y-59978659D01*
X128346967Y-59309614D01*
X128927132Y-58648127D01*
X129544465Y-57994682D01*
X130199935Y-57349763D01*
X130894512Y-56713856D01*
X131629163Y-56087444D01*
X132404859Y-55471012D01*
X133222568Y-54865044D01*
X134083258Y-54270026D01*
X134987899Y-53686440D01*
X135937460Y-53114773D01*
X135128000Y-55372000D01*
D11*
%TO.C,J1*%
X179682333Y-72222380D02*
X179682333Y-72936666D01*
X179729952Y-73079523D01*
X179825190Y-73174761D01*
X179968047Y-73222380D01*
X180063285Y-73222380D01*
X178682333Y-73222380D02*
X179253761Y-73222380D01*
X178968047Y-73222380D02*
X178968047Y-72222380D01*
X179063285Y-72365238D01*
X179158523Y-72460476D01*
X179253761Y-72508095D01*
%TO.C,J4*%
X179682333Y-92118380D02*
X179682333Y-92832666D01*
X179729952Y-92975523D01*
X179825190Y-93070761D01*
X179968047Y-93118380D01*
X180063285Y-93118380D01*
X178777571Y-92451714D02*
X178777571Y-93118380D01*
X179015666Y-92070761D02*
X179253761Y-92785047D01*
X178634714Y-92785047D01*
%TO.C,J3*%
X104707333Y-72658380D02*
X104707333Y-73372666D01*
X104754952Y-73515523D01*
X104850190Y-73610761D01*
X104993047Y-73658380D01*
X105088285Y-73658380D01*
X104326380Y-72658380D02*
X103707333Y-72658380D01*
X104040666Y-73039333D01*
X103897809Y-73039333D01*
X103802571Y-73086952D01*
X103754952Y-73134571D01*
X103707333Y-73229809D01*
X103707333Y-73467904D01*
X103754952Y-73563142D01*
X103802571Y-73610761D01*
X103897809Y-73658380D01*
X104183523Y-73658380D01*
X104278761Y-73610761D01*
X104326380Y-73563142D01*
%TO.C,J2*%
X179682333Y-82466380D02*
X179682333Y-83180666D01*
X179729952Y-83323523D01*
X179825190Y-83418761D01*
X179968047Y-83466380D01*
X180063285Y-83466380D01*
X179253761Y-82561619D02*
X179206142Y-82514000D01*
X179110904Y-82466380D01*
X178872809Y-82466380D01*
X178777571Y-82514000D01*
X178729952Y-82561619D01*
X178682333Y-82656857D01*
X178682333Y-82752095D01*
X178729952Y-82894952D01*
X179301380Y-83466380D01*
X178682333Y-83466380D01*
D12*
%TO.C,J1*%
X178019000Y-66130000D02*
X180679000Y-66130000D01*
X180679000Y-71330000D02*
X180679000Y-70000000D01*
X179349000Y-71330000D02*
X180679000Y-71330000D01*
X178019000Y-68730000D02*
X178019000Y-66130000D01*
X178019000Y-68730000D02*
X180679000Y-68730000D01*
X180679000Y-68730000D02*
X180679000Y-66130000D01*
%TO.C,J4*%
X179349000Y-91226000D02*
X180679000Y-91226000D01*
X180679000Y-91226000D02*
X180679000Y-89896000D01*
X178019000Y-88626000D02*
X178019000Y-86026000D01*
X178019000Y-86026000D02*
X180679000Y-86026000D01*
X178019000Y-88626000D02*
X180679000Y-88626000D01*
X180679000Y-88626000D02*
X180679000Y-86026000D01*
%TO.C,J3*%
X104374000Y-74646000D02*
X104374000Y-77246000D01*
X101774000Y-74646000D02*
X101774000Y-75976000D01*
X106974000Y-74646000D02*
X106974000Y-87466000D01*
X104374000Y-77246000D02*
X101774000Y-77246000D01*
X106974000Y-87466000D02*
X101774000Y-87466000D01*
X106974000Y-74646000D02*
X104374000Y-74646000D01*
X101774000Y-77246000D02*
X101774000Y-87466000D01*
X103104000Y-74646000D02*
X101774000Y-74646000D01*
%TO.C,J2*%
X178019000Y-76374000D02*
X180679000Y-76374000D01*
X180679000Y-78974000D02*
X180679000Y-76374000D01*
X178019000Y-78974000D02*
X180679000Y-78974000D01*
X179349000Y-81574000D02*
X180679000Y-81574000D01*
X180679000Y-81574000D02*
X180679000Y-80244000D01*
X178019000Y-78974000D02*
X178019000Y-76374000D01*
%TD*%
M02*
