<?xml version="1.0" standalone="no"?>
 <!DOCTYPE svg PUBLIC "-//W3C//DTD SVG 1.1//EN" 
 "http://www.w3.org/Graphics/SVG/1.1/DTD/svg11.dtd"> 
<svg
  xmlns:svg="http://www.w3.org/2000/svg"
  xmlns="http://www.w3.org/2000/svg"
  xmlns:xlink="http://www.w3.org/1999/xlink"
  version="1.1"
  width="10.312400cm" height="8.178800cm" viewBox="0 0 103124000 81788000">
<title>SVG Picture created as main jednotka-F_Paste.svg date 2023/05/23 18:11:56 </title>
  <desc>Picture generated by PCBNEW </desc>
<g style="fill:#000000; fill-opacity:1.000000;stroke:#000000; stroke-opacity:1.000000;
stroke-linecap:round; stroke-linejoin:round;"
 transform="translate(0 0) scale(1 1)">
</g>
<g style="fill:#000000; fill-opacity:0.0; 
stroke:#000000; stroke-width:0.000000; stroke-opacity:1; 
stroke-linecap:round; stroke-linejoin:round;">
</g>
<g style="fill:#000000; fill-opacity:1.0; 
stroke:#000000; stroke-width:10000.000000; stroke-opacity:1; 
stroke-linecap:round; stroke-linejoin:round;">
<path style="fill:#000000; fill-opacity:1.0; 
stroke:#000000; stroke-width:10000.000000; stroke-opacity:1; 
stroke-linecap:round; stroke-linejoin:round;fill-rule:evenodd;"
d="M 72919000.000000,51419000.000000
72369000.000000,51419000.000000
72369000.000000,49269000.000000
72919000.000000,49269000.000000
Z" /> 
<path style="fill:#000000; fill-opacity:1.0; 
stroke:#000000; stroke-width:10000.000000; stroke-opacity:1; 
stroke-linecap:round; stroke-linejoin:round;fill-rule:evenodd;"
d="M 74189000.000000,51419000.000000
73639000.000000,51419000.000000
73639000.000000,49269000.000000
74189000.000000,49269000.000000
Z" /> 
<path style="fill:#000000; fill-opacity:1.0; 
stroke:#000000; stroke-width:10000.000000; stroke-opacity:1; 
stroke-linecap:round; stroke-linejoin:round;fill-rule:evenodd;"
d="M 76729000.000000,51419000.000000
76179000.000000,51419000.000000
76179000.000000,49269000.000000
76729000.000000,49269000.000000
Z" /> 
<path style="fill:#000000; fill-opacity:1.0; 
stroke:#000000; stroke-width:10000.000000; stroke-opacity:1; 
stroke-linecap:round; stroke-linejoin:round;fill-rule:evenodd;"
d="M 71649000.000000,51419000.000000
71099000.000000,51419000.000000
71099000.000000,49269000.000000
71649000.000000,49269000.000000
Z" /> 
<path style="fill:#000000; fill-opacity:1.0; 
stroke:#000000; stroke-width:10000.000000; stroke-opacity:1; 
stroke-linecap:round; stroke-linejoin:round;fill-rule:evenodd;"
d="M 75459000.000000,51419000.000000
74909000.000000,51419000.000000
74909000.000000,49269000.000000
75459000.000000,49269000.000000
Z" /> 
<path style="fill:#000000; fill-opacity:1.0; 
stroke:#000000; stroke-width:10000.000000; stroke-opacity:1; 
stroke-linecap:round; stroke-linejoin:round;fill-rule:evenodd;"
d="M 75639000.000000,45219000.000000
72189000.000000,45219000.000000
72189000.000000,43069000.000000
75639000.000000,43069000.000000
Z" /> 
<g >
</g>
<g >
</g>
<g style="fill:#000000; fill-opacity:1.0; 
stroke:#000000; stroke-width:10000.000000; stroke-opacity:1; 
stroke-linecap:round; stroke-linejoin:round;">
</g>
<g style="fill:#000000; fill-opacity:1.0; 
stroke:#000000; stroke-width:1.000000; stroke-opacity:1; 
stroke-linecap:round; stroke-linejoin:round;">
<path style="fill:#000000; fill-opacity:1.0; 
stroke:#000000; stroke-width:1.000000; stroke-opacity:1; 
stroke-linecap:round; stroke-linejoin:round;fill-rule:evenodd;"
d="M 75659000.000000,52569000.000000
75754671.000000,52588030.000000
75835777.000000,52642223.000000
75889970.000000,52723329.000000
75909000.000000,52819000.000000
75909000.000000,53494000.000000
75889970.000000,53589671.000000
75835777.000000,53670777.000000
75754671.000000,53724970.000000
75659000.000000,53744000.000000
74709000.000000,53744000.000000
74613329.000000,53724970.000000
74532223.000000,53670777.000000
74478030.000000,53589671.000000
74459000.000000,53494000.000000
74459000.000000,52819000.000000
74478030.000000,52723329.000000
74532223.000000,52642223.000000
74613329.000000,52588030.000000
74709000.000000,52569000.000000
Z" /> 
<path style="fill:#000000; fill-opacity:1.0; 
stroke:#000000; stroke-width:1.000000; stroke-opacity:1; 
stroke-linecap:round; stroke-linejoin:round;fill-rule:evenodd;"
d="M 75659000.000000,54644000.000000
75754671.000000,54663030.000000
75835777.000000,54717223.000000
75889970.000000,54798329.000000
75909000.000000,54894000.000000
75909000.000000,55569000.000000
75889970.000000,55664671.000000
75835777.000000,55745777.000000
75754671.000000,55799970.000000
75659000.000000,55819000.000000
74709000.000000,55819000.000000
74613329.000000,55799970.000000
74532223.000000,55745777.000000
74478030.000000,55664671.000000
74459000.000000,55569000.000000
74459000.000000,54894000.000000
74478030.000000,54798329.000000
74532223.000000,54717223.000000
74613329.000000,54663030.000000
74709000.000000,54644000.000000
Z" /> 
</g>
<g >
</g>
<g >
</g>
<g style="fill:#000000; fill-opacity:1.0; 
stroke:#000000; stroke-width:1.000000; stroke-opacity:1; 
stroke-linecap:round; stroke-linejoin:round;">
<path style="fill:#000000; fill-opacity:1.0; 
stroke:#000000; stroke-width:1.000000; stroke-opacity:1; 
stroke-linecap:round; stroke-linejoin:round;fill-rule:evenodd;"
d="M 48293000.000000,27104000.000000
48197329.000000,27084970.000000
48116223.000000,27030777.000000
48062030.000000,26949671.000000
48043000.000000,26854000.000000
48043000.000000,26354000.000000
48062030.000000,26258329.000000
48116223.000000,26177223.000000
48197329.000000,26123030.000000
48293000.000000,26104000.000000
49243000.000000,26104000.000000
49338671.000000,26123030.000000
49419777.000000,26177223.000000
49473970.000000,26258329.000000
49493000.000000,26354000.000000
49493000.000000,26854000.000000
49473970.000000,26949671.000000
49419777.000000,27030777.000000
49338671.000000,27084970.000000
49243000.000000,27104000.000000
Z" /> 
<path style="fill:#000000; fill-opacity:1.0; 
stroke:#000000; stroke-width:1.000000; stroke-opacity:1; 
stroke-linecap:round; stroke-linejoin:round;fill-rule:evenodd;"
d="M 48293000.000000,25204000.000000
48197329.000000,25184970.000000
48116223.000000,25130777.000000
48062030.000000,25049671.000000
48043000.000000,24954000.000000
48043000.000000,24454000.000000
48062030.000000,24358329.000000
48116223.000000,24277223.000000
48197329.000000,24223030.000000
48293000.000000,24204000.000000
49243000.000000,24204000.000000
49338671.000000,24223030.000000
49419777.000000,24277223.000000
49473970.000000,24358329.000000
49493000.000000,24454000.000000
49493000.000000,24954000.000000
49473970.000000,25049671.000000
49419777.000000,25130777.000000
49338671.000000,25184970.000000
49243000.000000,25204000.000000
Z" /> 
</g>
<g >
</g>
<g >
</g>
<g style="fill:#000000; fill-opacity:1.0; 
stroke:#000000; stroke-width:1.000000; stroke-opacity:1; 
stroke-linecap:round; stroke-linejoin:round;">
<path style="fill:#000000; fill-opacity:1.0; 
stroke:#000000; stroke-width:1.000000; stroke-opacity:1; 
stroke-linecap:round; stroke-linejoin:round;fill-rule:evenodd;"
d="M 51409000.000000,21557000.000000
51389970.000000,21652671.000000
51335777.000000,21733777.000000
51254671.000000,21787970.000000
51159000.000000,21807000.000000
50484000.000000,21807000.000000
50388329.000000,21787970.000000
50307223.000000,21733777.000000
50253030.000000,21652671.000000
50234000.000000,21557000.000000
50234000.000000,20607000.000000
50253030.000000,20511329.000000
50307223.000000,20430223.000000
50388329.000000,20376030.000000
50484000.000000,20357000.000000
51159000.000000,20357000.000000
51254671.000000,20376030.000000
51335777.000000,20430223.000000
51389970.000000,20511329.000000
51409000.000000,20607000.000000
Z" /> 
<path style="fill:#000000; fill-opacity:1.0; 
stroke:#000000; stroke-width:1.000000; stroke-opacity:1; 
stroke-linecap:round; stroke-linejoin:round;fill-rule:evenodd;"
d="M 49334000.000000,21557000.000000
49314970.000000,21652671.000000
49260777.000000,21733777.000000
49179671.000000,21787970.000000
49084000.000000,21807000.000000
48409000.000000,21807000.000000
48313329.000000,21787970.000000
48232223.000000,21733777.000000
48178030.000000,21652671.000000
48159000.000000,21557000.000000
48159000.000000,20607000.000000
48178030.000000,20511329.000000
48232223.000000,20430223.000000
48313329.000000,20376030.000000
48409000.000000,20357000.000000
49084000.000000,20357000.000000
49179671.000000,20376030.000000
49260777.000000,20430223.000000
49314970.000000,20511329.000000
49334000.000000,20607000.000000
Z" /> 
</g>
<g >
</g>
<g >
</g>
<g style="fill:#000000; fill-opacity:1.0; 
stroke:#000000; stroke-width:1.000000; stroke-opacity:1; 
stroke-linecap:round; stroke-linejoin:round;">
<path style="fill:#000000; fill-opacity:1.0; 
stroke:#000000; stroke-width:1.000000; stroke-opacity:1; 
stroke-linecap:round; stroke-linejoin:round;fill-rule:evenodd;"
d="M 74988000.000000,40795000.000000
74892329.000000,40775970.000000
74811223.000000,40721777.000000
74757030.000000,40640671.000000
74738000.000000,40545000.000000
74738000.000000,40020000.000000
74757030.000000,39924329.000000
74811223.000000,39843223.000000
74892329.000000,39789030.000000
74988000.000000,39770000.000000
75888000.000000,39770000.000000
75983671.000000,39789030.000000
76064777.000000,39843223.000000
76118970.000000,39924329.000000
76138000.000000,40020000.000000
76138000.000000,40545000.000000
76118970.000000,40640671.000000
76064777.000000,40721777.000000
75983671.000000,40775970.000000
75888000.000000,40795000.000000
Z" /> 
<path style="fill:#000000; fill-opacity:1.0; 
stroke:#000000; stroke-width:1.000000; stroke-opacity:1; 
stroke-linecap:round; stroke-linejoin:round;fill-rule:evenodd;"
d="M 74988000.000000,38970000.000000
74892329.000000,38950970.000000
74811223.000000,38896777.000000
74757030.000000,38815671.000000
74738000.000000,38720000.000000
74738000.000000,38195000.000000
74757030.000000,38099329.000000
74811223.000000,38018223.000000
74892329.000000,37964030.000000
74988000.000000,37945000.000000
75888000.000000,37945000.000000
75983671.000000,37964030.000000
76064777.000000,38018223.000000
76118970.000000,38099329.000000
76138000.000000,38195000.000000
76138000.000000,38720000.000000
76118970.000000,38815671.000000
76064777.000000,38896777.000000
75983671.000000,38950970.000000
75888000.000000,38970000.000000
Z" /> 
</g>
<g >
</g>
<g >
</g>
<g style="fill:#000000; fill-opacity:1.0; 
stroke:#000000; stroke-width:1.000000; stroke-opacity:1; 
stroke-linecap:round; stroke-linejoin:round;">
<path style="fill:#000000; fill-opacity:1.0; 
stroke:#000000; stroke-width:1.000000; stroke-opacity:1; 
stroke-linecap:round; stroke-linejoin:round;fill-rule:evenodd;"
d="M 51250000.000000,24229000.000000
51345671.000000,24248030.000000
51426777.000000,24302223.000000
51480970.000000,24383329.000000
51500000.000000,24479000.000000
51500000.000000,25004000.000000
51480970.000000,25099671.000000
51426777.000000,25180777.000000
51345671.000000,25234970.000000
51250000.000000,25254000.000000
50350000.000000,25254000.000000
50254329.000000,25234970.000000
50173223.000000,25180777.000000
50119030.000000,25099671.000000
50100000.000000,25004000.000000
50100000.000000,24479000.000000
50119030.000000,24383329.000000
50173223.000000,24302223.000000
50254329.000000,24248030.000000
50350000.000000,24229000.000000
Z" /> 
<path style="fill:#000000; fill-opacity:1.0; 
stroke:#000000; stroke-width:1.000000; stroke-opacity:1; 
stroke-linecap:round; stroke-linejoin:round;fill-rule:evenodd;"
d="M 51250000.000000,26054000.000000
51345671.000000,26073030.000000
51426777.000000,26127223.000000
51480970.000000,26208329.000000
51500000.000000,26304000.000000
51500000.000000,26829000.000000
51480970.000000,26924671.000000
51426777.000000,27005777.000000
51345671.000000,27059970.000000
51250000.000000,27079000.000000
50350000.000000,27079000.000000
50254329.000000,27059970.000000
50173223.000000,27005777.000000
50119030.000000,26924671.000000
50100000.000000,26829000.000000
50100000.000000,26304000.000000
50119030.000000,26208329.000000
50173223.000000,26127223.000000
50254329.000000,26073030.000000
50350000.000000,26054000.000000
Z" /> 
</g>
<g >
</g>
<g style="fill:#000000; fill-opacity:1.0; 
stroke:#000000; stroke-width:1.000000; stroke-opacity:1; 
stroke-linecap:round; stroke-linejoin:round;">
<path style="fill:#000000; fill-opacity:1.0; 
stroke:#000000; stroke-width:1.000000; stroke-opacity:1; 
stroke-linecap:round; stroke-linejoin:round;fill-rule:evenodd;"
d="M 42176000.000000,21258000.000000
43676000.000000,21258000.000000
43676000.000000,22758000.000000
42176000.000000,22758000.000000
Z" /> 
<path style="fill:#000000; fill-opacity:1.0; 
stroke:#000000; stroke-width:1.000000; stroke-opacity:1; 
stroke-linecap:round; stroke-linejoin:round;fill-rule:evenodd;"
d="M 42176000.000000,29058000.000000
43676000.000000,29058000.000000
43676000.000000,30558000.000000
42176000.000000,30558000.000000
Z" /> 
</g>
<g >
</g>
<g >
</g>
<g >
</g>
<g >
</g>
<g >
</g>
<g >
</g>
<g >
</g>
<g >
</g>
<g style="fill:#000000; fill-opacity:1.0; 
stroke:#000000; stroke-width:1.000000; stroke-opacity:1; 
stroke-linecap:round; stroke-linejoin:round;">
<path style="fill:#000000; fill-opacity:1.0; 
stroke:#000000; stroke-width:1.000000; stroke-opacity:1; 
stroke-linecap:round; stroke-linejoin:round;fill-rule:evenodd;"
d="M 74688000.000000,21766000.000000
76188000.000000,21766000.000000
76188000.000000,23266000.000000
74688000.000000,23266000.000000
Z" /> 
<path style="fill:#000000; fill-opacity:1.0; 
stroke:#000000; stroke-width:1.000000; stroke-opacity:1; 
stroke-linecap:round; stroke-linejoin:round;fill-rule:evenodd;"
d="M 74688000.000000,29566000.000000
76188000.000000,29566000.000000
76188000.000000,31066000.000000
74688000.000000,31066000.000000
Z" /> 
</g>
<g >
</g>
<g style="fill:#000000; fill-opacity:1.0; 
stroke:#000000; stroke-width:1.000000; stroke-opacity:1; 
stroke-linecap:round; stroke-linejoin:round;">
<path style="fill:#000000; fill-opacity:1.0; 
stroke:#000000; stroke-width:1.000000; stroke-opacity:1; 
stroke-linecap:round; stroke-linejoin:round;fill-rule:evenodd;"
d="M 77691000.000000,52569000.000000
77786671.000000,52588030.000000
77867777.000000,52642223.000000
77921970.000000,52723329.000000
77941000.000000,52819000.000000
77941000.000000,53494000.000000
77921970.000000,53589671.000000
77867777.000000,53670777.000000
77786671.000000,53724970.000000
77691000.000000,53744000.000000
76741000.000000,53744000.000000
76645329.000000,53724970.000000
76564223.000000,53670777.000000
76510030.000000,53589671.000000
76491000.000000,53494000.000000
76491000.000000,52819000.000000
76510030.000000,52723329.000000
76564223.000000,52642223.000000
76645329.000000,52588030.000000
76741000.000000,52569000.000000
Z" /> 
<path style="fill:#000000; fill-opacity:1.0; 
stroke:#000000; stroke-width:1.000000; stroke-opacity:1; 
stroke-linecap:round; stroke-linejoin:round;fill-rule:evenodd;"
d="M 77691000.000000,54644000.000000
77786671.000000,54663030.000000
77867777.000000,54717223.000000
77921970.000000,54798329.000000
77941000.000000,54894000.000000
77941000.000000,55569000.000000
77921970.000000,55664671.000000
77867777.000000,55745777.000000
77786671.000000,55799970.000000
77691000.000000,55819000.000000
76741000.000000,55819000.000000
76645329.000000,55799970.000000
76564223.000000,55745777.000000
76510030.000000,55664671.000000
76491000.000000,55569000.000000
76491000.000000,54894000.000000
76510030.000000,54798329.000000
76564223.000000,54717223.000000
76645329.000000,54663030.000000
76741000.000000,54644000.000000
Z" /> 
</g>
<g >
</g>
<g >
</g>
<g >
</g>
<g style="fill:#000000; fill-opacity:1.0; 
stroke:#000000; stroke-width:1.000000; stroke-opacity:1; 
stroke-linecap:round; stroke-linejoin:round;">
<path style="fill:#000000; fill-opacity:1.0; 
stroke:#000000; stroke-width:1.000000; stroke-opacity:1; 
stroke-linecap:round; stroke-linejoin:round;fill-rule:evenodd;"
d="M 52222000.000000,24146000.000000
52222000.000000,23246000.000000
53722000.000000,23246000.000000
53722000.000000,24146000.000000
Z" /> 
<path style="fill:#000000; fill-opacity:1.0; 
stroke:#000000; stroke-width:1.000000; stroke-opacity:1; 
stroke-linecap:round; stroke-linejoin:round;fill-rule:evenodd;"
d="M 52222000.000000,25416000.000000
52222000.000000,24516000.000000
53722000.000000,24516000.000000
53722000.000000,25416000.000000
Z" /> 
<path style="fill:#000000; fill-opacity:1.0; 
stroke:#000000; stroke-width:1.000000; stroke-opacity:1; 
stroke-linecap:round; stroke-linejoin:round;fill-rule:evenodd;"
d="M 52222000.000000,26686000.000000
52222000.000000,25786000.000000
53722000.000000,25786000.000000
53722000.000000,26686000.000000
Z" /> 
<path style="fill:#000000; fill-opacity:1.0; 
stroke:#000000; stroke-width:1.000000; stroke-opacity:1; 
stroke-linecap:round; stroke-linejoin:round;fill-rule:evenodd;"
d="M 52222000.000000,27956000.000000
52222000.000000,27056000.000000
53722000.000000,27056000.000000
53722000.000000,27956000.000000
Z" /> 
<path style="fill:#000000; fill-opacity:1.0; 
stroke:#000000; stroke-width:1.000000; stroke-opacity:1; 
stroke-linecap:round; stroke-linejoin:round;fill-rule:evenodd;"
d="M 52222000.000000,29226000.000000
52222000.000000,28326000.000000
53722000.000000,28326000.000000
53722000.000000,29226000.000000
Z" /> 
<path style="fill:#000000; fill-opacity:1.0; 
stroke:#000000; stroke-width:1.000000; stroke-opacity:1; 
stroke-linecap:round; stroke-linejoin:round;fill-rule:evenodd;"
d="M 52222000.000000,30496000.000000
52222000.000000,29596000.000000
53722000.000000,29596000.000000
53722000.000000,30496000.000000
Z" /> 
<path style="fill:#000000; fill-opacity:1.0; 
stroke:#000000; stroke-width:1.000000; stroke-opacity:1; 
stroke-linecap:round; stroke-linejoin:round;fill-rule:evenodd;"
d="M 52222000.000000,31766000.000000
52222000.000000,30866000.000000
53722000.000000,30866000.000000
53722000.000000,31766000.000000
Z" /> 
<path style="fill:#000000; fill-opacity:1.0; 
stroke:#000000; stroke-width:1.000000; stroke-opacity:1; 
stroke-linecap:round; stroke-linejoin:round;fill-rule:evenodd;"
d="M 52222000.000000,33036000.000000
52222000.000000,32136000.000000
53722000.000000,32136000.000000
53722000.000000,33036000.000000
Z" /> 
<path style="fill:#000000; fill-opacity:1.0; 
stroke:#000000; stroke-width:1.000000; stroke-opacity:1; 
stroke-linecap:round; stroke-linejoin:round;fill-rule:evenodd;"
d="M 52222000.000000,34306000.000000
52222000.000000,33406000.000000
53722000.000000,33406000.000000
53722000.000000,34306000.000000
Z" /> 
<path style="fill:#000000; fill-opacity:1.0; 
stroke:#000000; stroke-width:1.000000; stroke-opacity:1; 
stroke-linecap:round; stroke-linejoin:round;fill-rule:evenodd;"
d="M 52222000.000000,35576000.000000
52222000.000000,34676000.000000
53722000.000000,34676000.000000
53722000.000000,35576000.000000
Z" /> 
<path style="fill:#000000; fill-opacity:1.0; 
stroke:#000000; stroke-width:1.000000; stroke-opacity:1; 
stroke-linecap:round; stroke-linejoin:round;fill-rule:evenodd;"
d="M 52222000.000000,36846000.000000
52222000.000000,35946000.000000
53722000.000000,35946000.000000
53722000.000000,36846000.000000
Z" /> 
<path style="fill:#000000; fill-opacity:1.0; 
stroke:#000000; stroke-width:1.000000; stroke-opacity:1; 
stroke-linecap:round; stroke-linejoin:round;fill-rule:evenodd;"
d="M 52222000.000000,38116000.000000
52222000.000000,37216000.000000
53722000.000000,37216000.000000
53722000.000000,38116000.000000
Z" /> 
<path style="fill:#000000; fill-opacity:1.0; 
stroke:#000000; stroke-width:1.000000; stroke-opacity:1; 
stroke-linecap:round; stroke-linejoin:round;fill-rule:evenodd;"
d="M 52222000.000000,39386000.000000
52222000.000000,38486000.000000
53722000.000000,38486000.000000
53722000.000000,39386000.000000
Z" /> 
<path style="fill:#000000; fill-opacity:1.0; 
stroke:#000000; stroke-width:1.000000; stroke-opacity:1; 
stroke-linecap:round; stroke-linejoin:round;fill-rule:evenodd;"
d="M 52222000.000000,40656000.000000
52222000.000000,39756000.000000
53722000.000000,39756000.000000
53722000.000000,40656000.000000
Z" /> 
<path style="fill:#000000; fill-opacity:1.0; 
stroke:#000000; stroke-width:1.000000; stroke-opacity:1; 
stroke-linecap:round; stroke-linejoin:round;fill-rule:evenodd;"
d="M 54287000.000000,42206000.000000
54287000.000000,40706000.000000
55187000.000000,40706000.000000
55187000.000000,42206000.000000
Z" /> 
<path style="fill:#000000; fill-opacity:1.0; 
stroke:#000000; stroke-width:1.000000; stroke-opacity:1; 
stroke-linecap:round; stroke-linejoin:round;fill-rule:evenodd;"
d="M 55557000.000000,42206000.000000
55557000.000000,40706000.000000
56457000.000000,40706000.000000
56457000.000000,42206000.000000
Z" /> 
<path style="fill:#000000; fill-opacity:1.0; 
stroke:#000000; stroke-width:1.000000; stroke-opacity:1; 
stroke-linecap:round; stroke-linejoin:round;fill-rule:evenodd;"
d="M 56827000.000000,42206000.000000
56827000.000000,40706000.000000
57727000.000000,40706000.000000
57727000.000000,42206000.000000
Z" /> 
<path style="fill:#000000; fill-opacity:1.0; 
stroke:#000000; stroke-width:1.000000; stroke-opacity:1; 
stroke-linecap:round; stroke-linejoin:round;fill-rule:evenodd;"
d="M 58097000.000000,42206000.000000
58097000.000000,40706000.000000
58997000.000000,40706000.000000
58997000.000000,42206000.000000
Z" /> 
<path style="fill:#000000; fill-opacity:1.0; 
stroke:#000000; stroke-width:1.000000; stroke-opacity:1; 
stroke-linecap:round; stroke-linejoin:round;fill-rule:evenodd;"
d="M 59367000.000000,42206000.000000
59367000.000000,40706000.000000
60267000.000000,40706000.000000
60267000.000000,42206000.000000
Z" /> 
<path style="fill:#000000; fill-opacity:1.0; 
stroke:#000000; stroke-width:1.000000; stroke-opacity:1; 
stroke-linecap:round; stroke-linejoin:round;fill-rule:evenodd;"
d="M 60637000.000000,42206000.000000
60637000.000000,40706000.000000
61537000.000000,40706000.000000
61537000.000000,42206000.000000
Z" /> 
<path style="fill:#000000; fill-opacity:1.0; 
stroke:#000000; stroke-width:1.000000; stroke-opacity:1; 
stroke-linecap:round; stroke-linejoin:round;fill-rule:evenodd;"
d="M 61907000.000000,42206000.000000
61907000.000000,40706000.000000
62807000.000000,40706000.000000
62807000.000000,42206000.000000
Z" /> 
<path style="fill:#000000; fill-opacity:1.0; 
stroke:#000000; stroke-width:1.000000; stroke-opacity:1; 
stroke-linecap:round; stroke-linejoin:round;fill-rule:evenodd;"
d="M 63177000.000000,42206000.000000
63177000.000000,40706000.000000
64077000.000000,40706000.000000
64077000.000000,42206000.000000
Z" /> 
<path style="fill:#000000; fill-opacity:1.0; 
stroke:#000000; stroke-width:1.000000; stroke-opacity:1; 
stroke-linecap:round; stroke-linejoin:round;fill-rule:evenodd;"
d="M 64447000.000000,42206000.000000
64447000.000000,40706000.000000
65347000.000000,40706000.000000
65347000.000000,42206000.000000
Z" /> 
<path style="fill:#000000; fill-opacity:1.0; 
stroke:#000000; stroke-width:1.000000; stroke-opacity:1; 
stroke-linecap:round; stroke-linejoin:round;fill-rule:evenodd;"
d="M 65717000.000000,42206000.000000
65717000.000000,40706000.000000
66617000.000000,40706000.000000
66617000.000000,42206000.000000
Z" /> 
<path style="fill:#000000; fill-opacity:1.0; 
stroke:#000000; stroke-width:1.000000; stroke-opacity:1; 
stroke-linecap:round; stroke-linejoin:round;fill-rule:evenodd;"
d="M 66987000.000000,42206000.000000
66987000.000000,40706000.000000
67887000.000000,40706000.000000
67887000.000000,42206000.000000
Z" /> 
<path style="fill:#000000; fill-opacity:1.0; 
stroke:#000000; stroke-width:1.000000; stroke-opacity:1; 
stroke-linecap:round; stroke-linejoin:round;fill-rule:evenodd;"
d="M 68257000.000000,42206000.000000
68257000.000000,40706000.000000
69157000.000000,40706000.000000
69157000.000000,42206000.000000
Z" /> 
<path style="fill:#000000; fill-opacity:1.0; 
stroke:#000000; stroke-width:1.000000; stroke-opacity:1; 
stroke-linecap:round; stroke-linejoin:round;fill-rule:evenodd;"
d="M 69722000.000000,40656000.000000
69722000.000000,39756000.000000
71222000.000000,39756000.000000
71222000.000000,40656000.000000
Z" /> 
<path style="fill:#000000; fill-opacity:1.0; 
stroke:#000000; stroke-width:1.000000; stroke-opacity:1; 
stroke-linecap:round; stroke-linejoin:round;fill-rule:evenodd;"
d="M 69722000.000000,39386000.000000
69722000.000000,38486000.000000
71222000.000000,38486000.000000
71222000.000000,39386000.000000
Z" /> 
<path style="fill:#000000; fill-opacity:1.0; 
stroke:#000000; stroke-width:1.000000; stroke-opacity:1; 
stroke-linecap:round; stroke-linejoin:round;fill-rule:evenodd;"
d="M 69722000.000000,38116000.000000
69722000.000000,37216000.000000
71222000.000000,37216000.000000
71222000.000000,38116000.000000
Z" /> 
<path style="fill:#000000; fill-opacity:1.0; 
stroke:#000000; stroke-width:1.000000; stroke-opacity:1; 
stroke-linecap:round; stroke-linejoin:round;fill-rule:evenodd;"
d="M 69722000.000000,36846000.000000
69722000.000000,35946000.000000
71222000.000000,35946000.000000
71222000.000000,36846000.000000
Z" /> 
<path style="fill:#000000; fill-opacity:1.0; 
stroke:#000000; stroke-width:1.000000; stroke-opacity:1; 
stroke-linecap:round; stroke-linejoin:round;fill-rule:evenodd;"
d="M 69722000.000000,35576000.000000
69722000.000000,34676000.000000
71222000.000000,34676000.000000
71222000.000000,35576000.000000
Z" /> 
<path style="fill:#000000; fill-opacity:1.0; 
stroke:#000000; stroke-width:1.000000; stroke-opacity:1; 
stroke-linecap:round; stroke-linejoin:round;fill-rule:evenodd;"
d="M 69722000.000000,34306000.000000
69722000.000000,33406000.000000
71222000.000000,33406000.000000
71222000.000000,34306000.000000
Z" /> 
<path style="fill:#000000; fill-opacity:1.0; 
stroke:#000000; stroke-width:1.000000; stroke-opacity:1; 
stroke-linecap:round; stroke-linejoin:round;fill-rule:evenodd;"
d="M 69722000.000000,33036000.000000
69722000.000000,32136000.000000
71222000.000000,32136000.000000
71222000.000000,33036000.000000
Z" /> 
<path style="fill:#000000; fill-opacity:1.0; 
stroke:#000000; stroke-width:1.000000; stroke-opacity:1; 
stroke-linecap:round; stroke-linejoin:round;fill-rule:evenodd;"
d="M 69722000.000000,31766000.000000
69722000.000000,30866000.000000
71222000.000000,30866000.000000
71222000.000000,31766000.000000
Z" /> 
<path style="fill:#000000; fill-opacity:1.0; 
stroke:#000000; stroke-width:1.000000; stroke-opacity:1; 
stroke-linecap:round; stroke-linejoin:round;fill-rule:evenodd;"
d="M 69722000.000000,30496000.000000
69722000.000000,29596000.000000
71222000.000000,29596000.000000
71222000.000000,30496000.000000
Z" /> 
<path style="fill:#000000; fill-opacity:1.0; 
stroke:#000000; stroke-width:1.000000; stroke-opacity:1; 
stroke-linecap:round; stroke-linejoin:round;fill-rule:evenodd;"
d="M 69722000.000000,29226000.000000
69722000.000000,28326000.000000
71222000.000000,28326000.000000
71222000.000000,29226000.000000
Z" /> 
<path style="fill:#000000; fill-opacity:1.0; 
stroke:#000000; stroke-width:1.000000; stroke-opacity:1; 
stroke-linecap:round; stroke-linejoin:round;fill-rule:evenodd;"
d="M 69722000.000000,27956000.000000
69722000.000000,27056000.000000
71222000.000000,27056000.000000
71222000.000000,27956000.000000
Z" /> 
<path style="fill:#000000; fill-opacity:1.0; 
stroke:#000000; stroke-width:1.000000; stroke-opacity:1; 
stroke-linecap:round; stroke-linejoin:round;fill-rule:evenodd;"
d="M 69722000.000000,26686000.000000
69722000.000000,25786000.000000
71222000.000000,25786000.000000
71222000.000000,26686000.000000
Z" /> 
<path style="fill:#000000; fill-opacity:1.0; 
stroke:#000000; stroke-width:1.000000; stroke-opacity:1; 
stroke-linecap:round; stroke-linejoin:round;fill-rule:evenodd;"
d="M 69722000.000000,25416000.000000
69722000.000000,24516000.000000
71222000.000000,24516000.000000
71222000.000000,25416000.000000
Z" /> 
<path style="fill:#000000; fill-opacity:1.0; 
stroke:#000000; stroke-width:1.000000; stroke-opacity:1; 
stroke-linecap:round; stroke-linejoin:round;fill-rule:evenodd;"
d="M 69722000.000000,24146000.000000
69722000.000000,23246000.000000
71222000.000000,23246000.000000
71222000.000000,24146000.000000
Z" /> 
<path style="fill:#000000; fill-opacity:1.0; 
stroke:#000000; stroke-width:1.000000; stroke-opacity:1; 
stroke-linecap:round; stroke-linejoin:round;fill-rule:evenodd;"
d="M 59772000.000000,31866000.000000
59772000.000000,30966000.000000
60672000.000000,30966000.000000
60672000.000000,31866000.000000
Z" /> 
<path style="fill:#000000; fill-opacity:1.0; 
stroke:#000000; stroke-width:1.000000; stroke-opacity:1; 
stroke-linecap:round; stroke-linejoin:round;fill-rule:evenodd;"
d="M 58372000.000000,31866000.000000
58372000.000000,30966000.000000
59272000.000000,30966000.000000
59272000.000000,31866000.000000
Z" /> 
<path style="fill:#000000; fill-opacity:1.0; 
stroke:#000000; stroke-width:1.000000; stroke-opacity:1; 
stroke-linecap:round; stroke-linejoin:round;fill-rule:evenodd;"
d="M 61172000.000000,31866000.000000
61172000.000000,30966000.000000
62072000.000000,30966000.000000
62072000.000000,31866000.000000
Z" /> 
<path style="fill:#000000; fill-opacity:1.0; 
stroke:#000000; stroke-width:1.000000; stroke-opacity:1; 
stroke-linecap:round; stroke-linejoin:round;fill-rule:evenodd;"
d="M 58372000.000000,33266000.000000
58372000.000000,32366000.000000
59272000.000000,32366000.000000
59272000.000000,33266000.000000
Z" /> 
<path style="fill:#000000; fill-opacity:1.0; 
stroke:#000000; stroke-width:1.000000; stroke-opacity:1; 
stroke-linecap:round; stroke-linejoin:round;fill-rule:evenodd;"
d="M 59772000.000000,33266000.000000
59772000.000000,32366000.000000
60672000.000000,32366000.000000
60672000.000000,33266000.000000
Z" /> 
<path style="fill:#000000; fill-opacity:1.0; 
stroke:#000000; stroke-width:1.000000; stroke-opacity:1; 
stroke-linecap:round; stroke-linejoin:round;fill-rule:evenodd;"
d="M 61172000.000000,33266000.000000
61172000.000000,32366000.000000
62072000.000000,32366000.000000
62072000.000000,33266000.000000
Z" /> 
<path style="fill:#000000; fill-opacity:1.0; 
stroke:#000000; stroke-width:1.000000; stroke-opacity:1; 
stroke-linecap:round; stroke-linejoin:round;fill-rule:evenodd;"
d="M 58372000.000000,30466000.000000
58372000.000000,29566000.000000
59272000.000000,29566000.000000
59272000.000000,30466000.000000
Z" /> 
<path style="fill:#000000; fill-opacity:1.0; 
stroke:#000000; stroke-width:1.000000; stroke-opacity:1; 
stroke-linecap:round; stroke-linejoin:round;fill-rule:evenodd;"
d="M 59772000.000000,30466000.000000
59772000.000000,29566000.000000
60672000.000000,29566000.000000
60672000.000000,30466000.000000
Z" /> 
<path style="fill:#000000; fill-opacity:1.0; 
stroke:#000000; stroke-width:1.000000; stroke-opacity:1; 
stroke-linecap:round; stroke-linejoin:round;fill-rule:evenodd;"
d="M 61172000.000000,30466000.000000
61172000.000000,29566000.000000
62072000.000000,29566000.000000
62072000.000000,30466000.000000
Z" /> 
</g>
<g >
</g>
<g >
</g>
<g style="fill:#000000; fill-opacity:1.0; 
stroke:#000000; stroke-width:1.000000; stroke-opacity:1; 
stroke-linecap:round; stroke-linejoin:round;">
<path style="fill:#000000; fill-opacity:1.0; 
stroke:#000000; stroke-width:1.000000; stroke-opacity:1; 
stroke-linecap:round; stroke-linejoin:round;fill-rule:evenodd;"
d="M 73881000.000000,37920000.000000
73976671.000000,37939030.000000
74057777.000000,37993223.000000
74111970.000000,38074329.000000
74131000.000000,38170000.000000
74131000.000000,38670000.000000
74111970.000000,38765671.000000
74057777.000000,38846777.000000
73976671.000000,38900970.000000
73881000.000000,38920000.000000
72931000.000000,38920000.000000
72835329.000000,38900970.000000
72754223.000000,38846777.000000
72700030.000000,38765671.000000
72681000.000000,38670000.000000
72681000.000000,38170000.000000
72700030.000000,38074329.000000
72754223.000000,37993223.000000
72835329.000000,37939030.000000
72931000.000000,37920000.000000
Z" /> 
<path style="fill:#000000; fill-opacity:1.0; 
stroke:#000000; stroke-width:1.000000; stroke-opacity:1; 
stroke-linecap:round; stroke-linejoin:round;fill-rule:evenodd;"
d="M 73881000.000000,39820000.000000
73976671.000000,39839030.000000
74057777.000000,39893223.000000
74111970.000000,39974329.000000
74131000.000000,40070000.000000
74131000.000000,40570000.000000
74111970.000000,40665671.000000
74057777.000000,40746777.000000
73976671.000000,40800970.000000
73881000.000000,40820000.000000
72931000.000000,40820000.000000
72835329.000000,40800970.000000
72754223.000000,40746777.000000
72700030.000000,40665671.000000
72681000.000000,40570000.000000
72681000.000000,40070000.000000
72700030.000000,39974329.000000
72754223.000000,39893223.000000
72835329.000000,39839030.000000
72931000.000000,39820000.000000
Z" /> 
</g>
<g >
</g>
<g >
</g>
<g >
</g>
<g >
</g>
<g >
</g>
<g >
</g>
<g >
</g>
<g >
</g>
<g >
</g>
</g>
<g style="fill:#000000; fill-opacity:1.0; 
stroke:#000000; stroke-width:1.000000; stroke-opacity:1; 
stroke-linecap:round; stroke-linejoin:round;">
</g>
<g style="fill:#000000; fill-opacity:1.0; 
stroke:#000000; stroke-width:100000.000000; stroke-opacity:1; 
stroke-linecap:round; stroke-linejoin:round;">
</g>
<g style="fill:#000000; fill-opacity:0.0; 
stroke:#000000; stroke-width:100000.000000; stroke-opacity:1; 
stroke-linecap:round; stroke-linejoin:round;">
<path d="M87122000 73914000
L26670000 73914000
" />
<path d="M26670000 73914000
L26670000 15748000
" />
<path d="M26670000 15748000
L87122000 15748000
" />
<path d="M87122000 15748000
L87122000 73914000
" />
<g >
</g>
<g >
</g>
<g >
</g>
<g >
</g>
<g >
</g>
<g >
</g>
<g >
</g>
<g >
</g>
<g >
</g>
<g >
</g>
<g >
</g>
<g >
</g>
<g >
</g>
<g >
</g>
<g >
</g>
<g >
</g>
<g >
</g>
<g >
</g>
<g >
</g>
<g >
</g>
<g >
</g>
<g >
</g>
<g >
</g>
<g >
</g>
<g >
</g>
<g >
</g>
<g >
</g>
<g >
</g>
<g >
</g>
<g >
</g>
<g >
</g>
<g >
</g>
<g >
</g>
<g >
</g>
</g> 
</svg>
