%TF.GenerationSoftware,KiCad,Pcbnew,(6.0.7)*%
%TF.CreationDate,2023-04-15T22:34:50+02:00*%
%TF.ProjectId,sensor board,73656e73-6f72-4206-926f-6172642e6b69,rev?*%
%TF.SameCoordinates,Original*%
%TF.FileFunction,Copper,L1,Top*%
%TF.FilePolarity,Positive*%
%FSLAX46Y46*%
G04 Gerber Fmt 4.6, Leading zero omitted, Abs format (unit mm)*
G04 Created by KiCad (PCBNEW (6.0.7)) date 2023-04-15 22:34:50*
%MOMM*%
%LPD*%
G01*
G04 APERTURE LIST*
G04 Aperture macros list*
%AMRoundRect*
0 Rectangle with rounded corners*
0 $1 Rounding radius*
0 $2 $3 $4 $5 $6 $7 $8 $9 X,Y pos of 4 corners*
0 Add a 4 corners polygon primitive as box body*
4,1,4,$2,$3,$4,$5,$6,$7,$8,$9,$2,$3,0*
0 Add four circle primitives for the rounded corners*
1,1,$1+$1,$2,$3*
1,1,$1+$1,$4,$5*
1,1,$1+$1,$6,$7*
1,1,$1+$1,$8,$9*
0 Add four rect primitives between the rounded corners*
20,1,$1+$1,$2,$3,$4,$5,0*
20,1,$1+$1,$4,$5,$6,$7,0*
20,1,$1+$1,$6,$7,$8,$9,0*
20,1,$1+$1,$8,$9,$2,$3,0*%
G04 Aperture macros list end*
%TA.AperFunction,ComponentPad*%
%ADD10C,0.600000*%
%TD*%
%TA.AperFunction,SMDPad,CuDef*%
%ADD11R,5.300000X4.000000*%
%TD*%
%TA.AperFunction,SMDPad,CuDef*%
%ADD12R,0.600000X2.200000*%
%TD*%
%TA.AperFunction,SMDPad,CuDef*%
%ADD13RoundRect,0.250000X-0.450000X0.350000X-0.450000X-0.350000X0.450000X-0.350000X0.450000X0.350000X0*%
%TD*%
%TA.AperFunction,ComponentPad*%
%ADD14O,1.700000X1.700000*%
%TD*%
%TA.AperFunction,ComponentPad*%
%ADD15R,1.700000X1.700000*%
%TD*%
%TA.AperFunction,SMDPad,CuDef*%
%ADD16RoundRect,0.250000X0.337500X0.475000X-0.337500X0.475000X-0.337500X-0.475000X0.337500X-0.475000X0*%
%TD*%
%TA.AperFunction,ComponentPad*%
%ADD17C,0.400000*%
%TD*%
%TA.AperFunction,SMDPad,CuDef*%
%ADD18R,0.900000X0.900000*%
%TD*%
%TA.AperFunction,SMDPad,CuDef*%
%ADD19R,1.500000X0.900000*%
%TD*%
%TA.AperFunction,SMDPad,CuDef*%
%ADD20R,0.900000X1.500000*%
%TD*%
%TA.AperFunction,SMDPad,CuDef*%
%ADD21RoundRect,0.250000X-0.350000X-0.450000X0.350000X-0.450000X0.350000X0.450000X-0.350000X0.450000X0*%
%TD*%
%TA.AperFunction,SMDPad,CuDef*%
%ADD22RoundRect,0.250000X-0.475000X0.337500X-0.475000X-0.337500X0.475000X-0.337500X0.475000X0.337500X0*%
%TD*%
%TA.AperFunction,SMDPad,CuDef*%
%ADD23RoundRect,0.250000X0.475000X-0.337500X0.475000X0.337500X-0.475000X0.337500X-0.475000X-0.337500X0*%
%TD*%
%TA.AperFunction,ComponentPad*%
%ADD24R,2.500000X2.500000*%
%TD*%
%TA.AperFunction,ComponentPad*%
%ADD25C,2.500000*%
%TD*%
%TA.AperFunction,ViaPad*%
%ADD26C,0.800000*%
%TD*%
%TA.AperFunction,Conductor*%
%ADD27C,0.500000*%
%TD*%
G04 APERTURE END LIST*
D10*
%TO.P,VR1,16*%
%TO.N,GND*%
X84110000Y-92734000D03*
%TO.P,VR1,15*%
X85610000Y-92734000D03*
%TO.P,VR1,14*%
X87110000Y-92734000D03*
%TO.P,VR1,13*%
X88610000Y-92734000D03*
%TO.P,VR1,12*%
X84110000Y-91134000D03*
%TO.P,VR1,11*%
X88610000Y-91134000D03*
%TO.P,VR1,10*%
X84110000Y-89534000D03*
%TO.P,VR1,9*%
X85610000Y-89534000D03*
%TO.P,VR1,8*%
X87110000Y-89534000D03*
%TO.P,VR1,7*%
X88610000Y-89534000D03*
D11*
%TO.P,VR1,6,GND_6*%
X86360000Y-91134000D03*
D12*
%TO.P,VR1,5,NR/FB*%
%TO.N,Net-(C5-Pad1)*%
X88900000Y-97334000D03*
%TO.P,VR1,4,OUT*%
%TO.N,+3.3V*%
X87630000Y-97334000D03*
%TO.P,VR1,3,GND_3*%
%TO.N,GND*%
X86360000Y-97334000D03*
%TO.P,VR1,2,IN*%
%TO.N,VIN*%
X85090000Y-97334000D03*
%TO.P,VR1,1,EN*%
X83820000Y-97334000D03*
%TD*%
D13*
%TO.P,R9,1*%
%TO.N,BATT*%
X83566000Y-100200000D03*
%TO.P,R9,2*%
%TO.N,GND*%
X83566000Y-102200000D03*
%TD*%
D14*
%TO.P,J2,2,Pin_2*%
%TO.N,GND*%
X85090000Y-110231000D03*
D15*
%TO.P,J2,1,Pin_1*%
%TO.N,VIN*%
X85090000Y-107691000D03*
%TD*%
D16*
%TO.P,C2,1*%
%TO.N,IO0*%
X116099500Y-110744000D03*
%TO.P,C2,2*%
%TO.N,GND*%
X114024500Y-110744000D03*
%TD*%
D13*
%TO.P,R2,2*%
%TO.N,EN*%
X92964000Y-92440000D03*
%TO.P,R2,1*%
%TO.N,+3.3V*%
X92964000Y-90440000D03*
%TD*%
D17*
%TO.P,U1,41_21*%
%TO.N,GND*%
X106134000Y-97586000D03*
%TO.P,U1,41_20*%
X104734000Y-97586000D03*
%TO.P,U1,41_19*%
X106134000Y-96186000D03*
%TO.P,U1,41_18*%
X104734000Y-96186000D03*
%TO.P,U1,41_17*%
X106134000Y-94786000D03*
%TO.P,U1,41_16*%
X104734000Y-94786000D03*
%TO.P,U1,41_15*%
X106834000Y-96886000D03*
%TO.P,U1,41_14*%
X105434000Y-96886000D03*
%TO.P,U1,41_13*%
X104034000Y-96886000D03*
%TO.P,U1,41_12*%
X106834000Y-95486000D03*
%TO.P,U1,41_11*%
X104034000Y-95486000D03*
%TO.P,U1,41_10*%
X105434000Y-95486000D03*
D18*
%TO.P,U1,41_9,GND*%
X106834000Y-94786000D03*
%TO.P,U1,41_8,GND*%
X105434000Y-94786000D03*
%TO.P,U1,41_7,GND*%
X104034000Y-94786000D03*
%TO.P,U1,41_6,GND*%
X106834000Y-97586000D03*
%TO.P,U1,41_5,GND*%
X105434000Y-97586000D03*
%TO.P,U1,41_4,GND*%
X104034000Y-97586000D03*
%TO.P,U1,41_3,GND*%
X106834000Y-96186000D03*
%TO.P,U1,41_2,GND*%
X104034000Y-96186000D03*
%TO.P,U1,41_1,GND*%
X105434000Y-96186000D03*
D19*
%TO.P,U1,40,GND*%
X115684000Y-88466000D03*
%TO.P,U1,39,IO1*%
%TO.N,unconnected-(U1-Pad39)*%
X115684000Y-89736000D03*
%TO.P,U1,38,IO2*%
%TO.N,unconnected-(U1-Pad38)*%
X115684000Y-91006000D03*
%TO.P,U1,37,TXD0*%
%TO.N,TX0*%
X115684000Y-92276000D03*
%TO.P,U1,36,RXD0*%
%TO.N,RX0*%
X115684000Y-93546000D03*
%TO.P,U1,35,IO42*%
%TO.N,unconnected-(U1-Pad35)*%
X115684000Y-94816000D03*
%TO.P,U1,34,IO41*%
%TO.N,unconnected-(U1-Pad34)*%
X115684000Y-96086000D03*
%TO.P,U1,33,IO40*%
%TO.N,unconnected-(U1-Pad33)*%
X115684000Y-97356000D03*
%TO.P,U1,32,IO39*%
%TO.N,unconnected-(U1-Pad32)*%
X115684000Y-98626000D03*
%TO.P,U1,31,IO38*%
%TO.N,unconnected-(U1-Pad31)*%
X115684000Y-99896000D03*
%TO.P,U1,30,IO37*%
%TO.N,unconnected-(U1-Pad30)*%
X115684000Y-101166000D03*
%TO.P,U1,29,IO36*%
%TO.N,unconnected-(U1-Pad29)*%
X115684000Y-102436000D03*
%TO.P,U1,28,IO35*%
%TO.N,unconnected-(U1-Pad28)*%
X115684000Y-103706000D03*
%TO.P,U1,27,IO0*%
%TO.N,IO0*%
X115684000Y-104976000D03*
D20*
%TO.P,U1,26,IO45*%
%TO.N,unconnected-(U1-Pad26)*%
X113919000Y-106226000D03*
%TO.P,U1,25,IO48*%
%TO.N,S2*%
X112649000Y-106226000D03*
%TO.P,U1,24,IO47*%
%TO.N,S1*%
X111379000Y-106226000D03*
%TO.P,U1,23,IO21*%
%TO.N,unconnected-(U1-Pad23)*%
X110109000Y-106226000D03*
%TO.P,U1,22,IO14*%
%TO.N,unconnected-(U1-Pad22)*%
X108839000Y-106226000D03*
%TO.P,U1,21,IO13*%
%TO.N,unconnected-(U1-Pad21)*%
X107569000Y-106226000D03*
%TO.P,U1,20,IO12*%
%TO.N,unconnected-(U1-Pad20)*%
X106299000Y-106226000D03*
%TO.P,U1,19,IO11*%
%TO.N,unconnected-(U1-Pad19)*%
X105029000Y-106226000D03*
%TO.P,U1,18,IO10*%
%TO.N,unconnected-(U1-Pad18)*%
X103759000Y-106226000D03*
%TO.P,U1,17,IO9*%
%TO.N,BATT*%
X102489000Y-106226000D03*
%TO.P,U1,16,IO46*%
%TO.N,unconnected-(U1-Pad16)*%
X101219000Y-106226000D03*
%TO.P,U1,15,IO3*%
%TO.N,unconnected-(U1-Pad15)*%
X99949000Y-106226000D03*
D19*
%TO.P,U1,14,IO20*%
%TO.N,unconnected-(U1-Pad14)*%
X98184000Y-104976000D03*
%TO.P,U1,13,IO19*%
%TO.N,unconnected-(U1-Pad13)*%
X98184000Y-103706000D03*
%TO.P,U1,12,IO8*%
%TO.N,LED1*%
X98184000Y-102436000D03*
%TO.P,U1,11,IO18*%
%TO.N,unconnected-(U1-Pad11)*%
X98184000Y-101166000D03*
%TO.P,U1,10,IO17*%
%TO.N,unconnected-(U1-Pad10)*%
X98184000Y-99896000D03*
%TO.P,U1,9,IO16*%
%TO.N,unconnected-(U1-Pad9)*%
X98184000Y-98626000D03*
%TO.P,U1,8,IO15*%
%TO.N,unconnected-(U1-Pad8)*%
X98184000Y-97356000D03*
%TO.P,U1,7,IO7*%
%TO.N,LED2*%
X98184000Y-96086000D03*
%TO.P,U1,6,IO6*%
%TO.N,LED3*%
X98184000Y-94816000D03*
%TO.P,U1,5,IO5*%
%TO.N,unconnected-(U1-Pad5)*%
X98184000Y-93546000D03*
%TO.P,U1,4,IO4*%
%TO.N,unconnected-(U1-Pad4)*%
X98184000Y-92276000D03*
%TO.P,U1,3,EN*%
%TO.N,EN*%
X98184000Y-91006000D03*
%TO.P,U1,2,3V3*%
%TO.N,+3.3V*%
X98184000Y-89736000D03*
%TO.P,U1,1,GND*%
%TO.N,GND*%
X98184000Y-88466000D03*
%TD*%
D21*
%TO.P,R1,1*%
%TO.N,+3.3V*%
X114062000Y-108458000D03*
%TO.P,R1,2*%
%TO.N,IO0*%
X116062000Y-108458000D03*
%TD*%
D22*
%TO.P,C4,1*%
%TO.N,+3.3V*%
X88138000Y-100162500D03*
%TO.P,C4,2*%
%TO.N,GND*%
X88138000Y-102237500D03*
%TD*%
D21*
%TO.P,R6,1*%
%TO.N,+3.3V*%
X95266000Y-109220000D03*
%TO.P,R6,2*%
%TO.N,S1*%
X97266000Y-109220000D03*
%TD*%
D15*
%TO.P,J1,1,Pin_1*%
%TO.N,GND*%
X119126000Y-91181000D03*
D14*
%TO.P,J1,2,Pin_2*%
%TO.N,TX0*%
X119126000Y-93721000D03*
%TO.P,J1,3,Pin_3*%
%TO.N,RX0*%
X119126000Y-96261000D03*
%TO.P,J1,4,Pin_4*%
%TO.N,IO0*%
X119126000Y-98801000D03*
%TO.P,J1,5,Pin_5*%
%TO.N,+3.3V*%
X119126000Y-101341000D03*
%TO.P,J1,6,Pin_6*%
%TO.N,GND*%
X119126000Y-103881000D03*
%TO.P,J1,7,Pin_7*%
%TO.N,EN*%
X119126000Y-106421000D03*
%TD*%
D21*
%TO.P,R7,1*%
%TO.N,+3.3V*%
X95266000Y-112014000D03*
%TO.P,R7,2*%
%TO.N,S2*%
X97266000Y-112014000D03*
%TD*%
D23*
%TO.P,C3,2*%
%TO.N,GND*%
X94996000Y-90402500D03*
%TO.P,C3,1*%
%TO.N,EN*%
X94996000Y-92477500D03*
%TD*%
D13*
%TO.P,R8,1*%
%TO.N,VIN*%
X85852000Y-100200000D03*
%TO.P,R8,2*%
%TO.N,BATT*%
X85852000Y-102200000D03*
%TD*%
D22*
%TO.P,C5,1*%
%TO.N,Net-(C5-Pad1)*%
X90424000Y-100162500D03*
%TO.P,C5,2*%
%TO.N,GND*%
X90424000Y-102237500D03*
%TD*%
%TO.P,C1,2*%
%TO.N,GND*%
X90932000Y-92477500D03*
%TO.P,C1,1*%
%TO.N,+3.3V*%
X90932000Y-90402500D03*
%TD*%
D24*
%TO.P,J3,1,Pin_1*%
%TO.N,GND*%
X109100000Y-115616000D03*
D25*
%TO.P,J3,2,Pin_2*%
%TO.N,S2*%
X104100000Y-115616000D03*
%TO.P,J3,3,Pin_3*%
%TO.N,GND*%
X99100000Y-115616000D03*
%TO.P,J3,4,Pin_4*%
%TO.N,S1*%
X94100000Y-115616000D03*
%TD*%
D26*
%TO.N,GND*%
X117602000Y-97790000D03*
X83820000Y-94996000D03*
X93980000Y-89154000D03*
X105156000Y-108204000D03*
X118497941Y-83849871D03*
X111823946Y-89905902D03*
X112753179Y-94982349D03*
X110744000Y-102870000D03*
X119126000Y-110998000D03*
X112776000Y-113538000D03*
X101854000Y-118110000D03*
X90424000Y-116078000D03*
X89154000Y-110236000D03*
X94742000Y-104394000D03*
X94234000Y-96774000D03*
X91440000Y-85598000D03*
%TO.N,+3.3V*%
X113792000Y-99314000D03*
X88138000Y-99060000D03*
X112522000Y-109474000D03*
X93726000Y-110236000D03*
X95250000Y-113538000D03*
%TO.N,EN*%
X106680000Y-92710000D03*
%TO.N,LED1*%
X99822000Y-102108000D03*
%TO.N,LED2*%
X100076000Y-95250000D03*
%TO.N,LED3*%
X96520000Y-94488000D03*
%TO.N,VIN*%
X85090000Y-99438000D03*
%TO.N,GND*%
X100330000Y-103378000D03*
X90424000Y-81788000D03*
X102870000Y-91186000D03*
X104153723Y-100807749D03*
X106172000Y-95504000D03*
X90170000Y-87122000D03*
X104281472Y-89821329D03*
%TD*%
D27*
%TO.N,GND*%
X117602000Y-105405000D02*
X119126000Y-103881000D01*
X119126000Y-110998000D02*
X117602000Y-109474000D01*
X117602000Y-109474000D02*
X117602000Y-105405000D01*
%TO.N,IO0*%
X117094000Y-100833000D02*
X119126000Y-98801000D01*
X116258000Y-104976000D02*
X117094000Y-104140000D01*
X115684000Y-104976000D02*
X116258000Y-104976000D01*
X117094000Y-104140000D02*
X117094000Y-100833000D01*
%TO.N,BATT*%
X85566000Y-102200000D02*
X83566000Y-100200000D01*
X85852000Y-102200000D02*
X85566000Y-102200000D01*
%TO.N,GND*%
X93980000Y-89386500D02*
X94996000Y-90402500D01*
X93980000Y-89154000D02*
X93980000Y-89386500D01*
%TO.N,+3.3V*%
X97356000Y-89736000D02*
X98184000Y-89736000D01*
X93726000Y-88138000D02*
X95758000Y-88138000D01*
X95758000Y-88138000D02*
X97356000Y-89736000D01*
X92964000Y-88900000D02*
X93726000Y-88138000D01*
X92964000Y-90440000D02*
X92964000Y-88900000D01*
X102994061Y-89736000D02*
X98184000Y-89736000D01*
X104952061Y-91694000D02*
X102994061Y-89736000D01*
X110998000Y-96520000D02*
X110998000Y-94488000D01*
X110998000Y-94488000D02*
X108204000Y-91694000D01*
X113792000Y-99314000D02*
X110998000Y-96520000D01*
X108204000Y-91694000D02*
X104952061Y-91694000D01*
X88138000Y-97842000D02*
X87630000Y-97334000D01*
X88138000Y-100162500D02*
X88138000Y-97842000D01*
X113538000Y-108458000D02*
X112522000Y-109474000D01*
X114062000Y-108458000D02*
X113538000Y-108458000D01*
X95250000Y-112030000D02*
X95266000Y-112014000D01*
X95250000Y-113538000D02*
X95250000Y-112030000D01*
X94742000Y-109220000D02*
X93726000Y-110236000D01*
X95266000Y-109220000D02*
X94742000Y-109220000D01*
%TO.N,S2*%
X104100000Y-113244000D02*
X102870000Y-112014000D01*
X104100000Y-115616000D02*
X104100000Y-113244000D01*
%TO.N,S1*%
X94100000Y-111390051D02*
X94100000Y-115616000D01*
%TO.N,BATT*%
X101849000Y-107696000D02*
X102489000Y-107056000D01*
X102489000Y-107056000D02*
X102489000Y-106226000D01*
X91348000Y-107696000D02*
X101849000Y-107696000D01*
X85852000Y-102200000D02*
X91348000Y-107696000D01*
%TO.N,IO0*%
X115684000Y-108080000D02*
X116062000Y-108458000D01*
X115684000Y-104976000D02*
X115684000Y-108080000D01*
X116099500Y-108495500D02*
X116062000Y-108458000D01*
X116099500Y-110744000D02*
X116099500Y-108495500D01*
%TO.N,EN*%
X99896000Y-91006000D02*
X98184000Y-91006000D01*
X101600000Y-92710000D02*
X99896000Y-91006000D01*
X106680000Y-92710000D02*
X101600000Y-92710000D01*
%TO.N,S1*%
X111506000Y-106353000D02*
X111379000Y-106226000D01*
X109728000Y-109220000D02*
X111506000Y-107442000D01*
X111506000Y-107442000D02*
X111506000Y-106353000D01*
X97266000Y-109220000D02*
X109728000Y-109220000D01*
X97266000Y-109998000D02*
X97266000Y-109220000D01*
X96520000Y-110744000D02*
X97266000Y-109998000D01*
X94746051Y-110744000D02*
X96520000Y-110744000D01*
X94100000Y-111390051D02*
X94746051Y-110744000D01*
%TO.N,S2*%
X97266000Y-112014000D02*
X102870000Y-112014000D01*
X112649000Y-107823000D02*
X112649000Y-106226000D01*
X108458000Y-112014000D02*
X112649000Y-107823000D01*
X97266000Y-112014000D02*
X108458000Y-112014000D01*
%TO.N,LED1*%
X99494000Y-102436000D02*
X99822000Y-102108000D01*
X98184000Y-102436000D02*
X99494000Y-102436000D01*
%TO.N,LED2*%
X99240000Y-96086000D02*
X98184000Y-96086000D01*
X100076000Y-95250000D02*
X99240000Y-96086000D01*
%TO.N,LED3*%
X98184000Y-94816000D02*
X96848000Y-94816000D01*
X96848000Y-94816000D02*
X96520000Y-94488000D01*
%TO.N,+3.3V*%
X89937500Y-90402500D02*
X90932000Y-90402500D01*
X89662000Y-90678000D02*
X89937500Y-90402500D01*
X89662000Y-94502000D02*
X89662000Y-90678000D01*
X87630000Y-96534000D02*
X89662000Y-94502000D01*
X87630000Y-97334000D02*
X87630000Y-96534000D01*
%TO.N,VIN*%
X83820000Y-97334000D02*
X85090000Y-97334000D01*
X85852000Y-100200000D02*
X85090000Y-99438000D01*
X85090000Y-99438000D02*
X85090000Y-97334000D01*
%TO.N,Net-(C5-Pad1)*%
X88900000Y-97334000D02*
X88900000Y-98638500D01*
X88900000Y-98638500D02*
X90424000Y-100162500D01*
%TO.N,EN*%
X96700000Y-91006000D02*
X98184000Y-91006000D01*
X94996000Y-92477500D02*
X95228500Y-92477500D01*
X95228500Y-92477500D02*
X96700000Y-91006000D01*
X94958500Y-92440000D02*
X94996000Y-92477500D01*
X92964000Y-92440000D02*
X94958500Y-92440000D01*
%TO.N,+3.3V*%
X92926500Y-90402500D02*
X92964000Y-90440000D01*
X90932000Y-90402500D02*
X92926500Y-90402500D01*
%TO.N,RX0*%
X116411000Y-93546000D02*
X119126000Y-96261000D01*
X115684000Y-93546000D02*
X116411000Y-93546000D01*
%TO.N,TX0*%
X115684000Y-92276000D02*
X117681000Y-92276000D01*
X117681000Y-92276000D02*
X119126000Y-93721000D01*
%TD*%
%TA.AperFunction,Conductor*%
%TO.N,GND*%
G36*
X83762121Y-101966002D02*
G01*
X83808614Y-102019658D01*
X83820000Y-102072000D01*
X83820000Y-103289884D01*
X83824475Y-103305123D01*
X83825865Y-103306328D01*
X83833548Y-103307999D01*
X84063095Y-103307999D01*
X84069614Y-103307662D01*
X84165206Y-103297743D01*
X84178600Y-103294851D01*
X84332784Y-103243412D01*
X84345962Y-103237239D01*
X84483807Y-103151937D01*
X84495208Y-103142901D01*
X84609736Y-103028174D01*
X84609800Y-103028093D01*
X84609858Y-103028052D01*
X84614910Y-103022991D01*
X84615776Y-103023856D01*
X84667715Y-102987027D01*
X84738638Y-102983792D01*
X84800051Y-103019414D01*
X84801506Y-103021090D01*
X84803522Y-103024348D01*
X84928697Y-103149305D01*
X84934927Y-103153145D01*
X84934928Y-103153146D01*
X85072288Y-103237816D01*
X85079262Y-103242115D01*
X85139934Y-103262239D01*
X85240611Y-103295632D01*
X85240613Y-103295632D01*
X85247139Y-103297797D01*
X85253975Y-103298497D01*
X85253978Y-103298498D01*
X85297031Y-103302909D01*
X85351600Y-103308500D01*
X85835629Y-103308500D01*
X85903750Y-103328502D01*
X85924724Y-103345405D01*
X90764230Y-108184911D01*
X90776616Y-108199323D01*
X90785149Y-108210918D01*
X90785154Y-108210923D01*
X90789492Y-108216818D01*
X90795070Y-108221557D01*
X90795073Y-108221560D01*
X90829768Y-108251035D01*
X90837284Y-108257965D01*
X90842980Y-108263661D01*
X90845841Y-108265924D01*
X90845846Y-108265929D01*
X90865266Y-108281293D01*
X90868667Y-108284082D01*
X90924285Y-108331333D01*
X90930798Y-108334659D01*
X90935837Y-108338020D01*
X90940979Y-108341196D01*
X90946716Y-108345734D01*
X91012875Y-108376655D01*
X91016769Y-108378558D01*
X91081808Y-108411769D01*
X91088917Y-108413508D01*
X91094551Y-108415604D01*
X91100321Y-108417523D01*
X91106950Y-108420622D01*
X91114113Y-108422112D01*
X91114116Y-108422113D01*
X91164830Y-108432661D01*
X91178435Y-108435491D01*
X91182701Y-108436457D01*
X91253610Y-108453808D01*
X91259212Y-108454156D01*
X91259215Y-108454156D01*
X91264764Y-108454500D01*
X91264762Y-108454535D01*
X91268734Y-108454775D01*
X91272955Y-108455152D01*
X91280115Y-108456641D01*
X91357542Y-108454546D01*
X91360950Y-108454500D01*
X94047532Y-108454500D01*
X94115653Y-108474502D01*
X94162146Y-108528158D01*
X94172250Y-108598432D01*
X94170732Y-108606914D01*
X94170368Y-108608612D01*
X94168203Y-108615139D01*
X94167502Y-108621977D01*
X94167502Y-108621979D01*
X94160672Y-108688643D01*
X94133831Y-108754371D01*
X94124423Y-108764896D01*
X93569669Y-109319650D01*
X93506772Y-109353801D01*
X93450176Y-109365831D01*
X93450167Y-109365834D01*
X93443712Y-109367206D01*
X93437682Y-109369891D01*
X93437681Y-109369891D01*
X93275278Y-109442197D01*
X93275276Y-109442198D01*
X93269248Y-109444882D01*
X93114747Y-109557134D01*
X93110326Y-109562044D01*
X93110325Y-109562045D01*
X93016274Y-109666500D01*
X92986960Y-109699056D01*
X92891473Y-109864444D01*
X92832458Y-110046072D01*
X92831768Y-110052633D01*
X92831768Y-110052635D01*
X92817645Y-110187012D01*
X92812496Y-110236000D01*
X92813186Y-110242565D01*
X92829658Y-110399284D01*
X92832458Y-110425928D01*
X92891473Y-110607556D01*
X92986960Y-110772944D01*
X92991378Y-110777851D01*
X92991379Y-110777852D01*
X93027645Y-110818129D01*
X93114747Y-110914866D01*
X93190448Y-110969866D01*
X93231471Y-110999671D01*
X93269248Y-111027118D01*
X93296789Y-111039380D01*
X93350883Y-111085357D01*
X93371534Y-111153284D01*
X93368900Y-111180144D01*
X93360514Y-111220462D01*
X93359544Y-111224747D01*
X93342192Y-111295661D01*
X93341500Y-111306815D01*
X93341464Y-111306813D01*
X93341225Y-111310806D01*
X93340851Y-111314998D01*
X93339360Y-111322166D01*
X93340758Y-111373861D01*
X93341454Y-111399572D01*
X93341500Y-111402979D01*
X93341500Y-113948556D01*
X93321498Y-114016677D01*
X93268252Y-114062981D01*
X93249324Y-114071707D01*
X93249315Y-114071712D01*
X93245072Y-114073668D01*
X93206070Y-114099239D01*
X93030404Y-114214410D01*
X93030399Y-114214414D01*
X93026491Y-114216976D01*
X92831494Y-114391018D01*
X92664363Y-114591970D01*
X92528771Y-114815419D01*
X92427697Y-115056455D01*
X92363359Y-115309783D01*
X92362891Y-115314434D01*
X92362890Y-115314438D01*
X92358552Y-115357525D01*
X92337173Y-115569839D01*
X92337397Y-115574505D01*
X92337397Y-115574511D01*
X92343349Y-115698417D01*
X92349713Y-115830908D01*
X92400704Y-116087256D01*
X92489026Y-116333252D01*
X92491242Y-116337376D01*
X92555753Y-116457437D01*
X92612737Y-116563491D01*
X92615532Y-116567234D01*
X92615534Y-116567237D01*
X92766330Y-116769177D01*
X92766335Y-116769183D01*
X92769122Y-116772915D01*
X92772431Y-116776195D01*
X92772436Y-116776201D01*
X92914960Y-116917486D01*
X92954743Y-116956923D01*
X92958505Y-116959681D01*
X92958508Y-116959684D01*
X93155404Y-117104054D01*
X93165524Y-117111474D01*
X93169667Y-117113654D01*
X93169669Y-117113655D01*
X93392684Y-117230989D01*
X93392689Y-117230991D01*
X93396834Y-117233172D01*
X93643590Y-117319344D01*
X93648183Y-117320216D01*
X93895785Y-117367224D01*
X93895788Y-117367224D01*
X93900374Y-117368095D01*
X94030959Y-117373226D01*
X94156875Y-117378174D01*
X94156881Y-117378174D01*
X94161543Y-117378357D01*
X94242186Y-117369525D01*
X94416707Y-117350412D01*
X94416712Y-117350411D01*
X94421360Y-117349902D01*
X94534116Y-117320216D01*
X94669594Y-117284548D01*
X94669596Y-117284547D01*
X94674117Y-117283357D01*
X94914262Y-117180182D01*
X95136519Y-117042646D01*
X95140082Y-117039629D01*
X95140087Y-117039626D01*
X95157207Y-117025133D01*
X98055612Y-117025133D01*
X98064325Y-117036653D01*
X98162018Y-117108284D01*
X98169928Y-117113227D01*
X98392890Y-117230533D01*
X98401453Y-117234256D01*
X98639304Y-117317318D01*
X98648313Y-117319732D01*
X98895842Y-117366727D01*
X98905098Y-117367781D01*
X99156857Y-117377673D01*
X99166171Y-117377347D01*
X99416615Y-117349920D01*
X99425792Y-117348219D01*
X99669431Y-117284074D01*
X99678251Y-117281037D01*
X99909736Y-117181583D01*
X99918008Y-117177276D01*
X100132249Y-117044700D01*
X100139188Y-117039658D01*
X100147518Y-117027019D01*
X100141456Y-117016666D01*
X99112812Y-115988022D01*
X99098868Y-115980408D01*
X99097035Y-115980539D01*
X99090420Y-115984790D01*
X98062270Y-117012940D01*
X98055612Y-117025133D01*
X95157207Y-117025133D01*
X95332439Y-116876787D01*
X95332440Y-116876786D01*
X95336005Y-116873768D01*
X95427729Y-116769177D01*
X95505257Y-116680774D01*
X95505261Y-116680769D01*
X95508339Y-116677259D01*
X95649733Y-116457437D01*
X95757083Y-116219129D01*
X95815067Y-116013534D01*
X95826760Y-115972076D01*
X95826761Y-115972073D01*
X95828030Y-115967572D01*
X95840230Y-115871671D01*
X95860616Y-115711421D01*
X95860616Y-115711417D01*
X95861014Y-115708291D01*
X95861098Y-115705108D01*
X95863348Y-115619160D01*
X95863431Y-115616000D01*
X95860349Y-115574523D01*
X97337898Y-115574523D01*
X97349987Y-115826175D01*
X97351124Y-115835435D01*
X97400274Y-116082535D01*
X97402768Y-116091528D01*
X97487900Y-116328639D01*
X97491700Y-116337174D01*
X97610946Y-116559101D01*
X97615957Y-116566968D01*
X97679446Y-116651990D01*
X97690704Y-116660439D01*
X97703123Y-116653667D01*
X98727978Y-115628812D01*
X98734356Y-115617132D01*
X99464408Y-115617132D01*
X99464539Y-115618965D01*
X99468790Y-115625580D01*
X100499913Y-116656703D01*
X100512293Y-116663463D01*
X100520634Y-116657219D01*
X100646765Y-116461127D01*
X100651212Y-116452936D01*
X100754691Y-116223222D01*
X100757882Y-116214455D01*
X100826269Y-115971976D01*
X100828129Y-115962834D01*
X100860116Y-115711396D01*
X100860597Y-115705108D01*
X100862847Y-115619160D01*
X100862696Y-115612851D01*
X100843912Y-115360074D01*
X100842536Y-115350868D01*
X100786929Y-115105126D01*
X100784205Y-115096215D01*
X100692888Y-114861392D01*
X100688877Y-114852983D01*
X100563854Y-114634240D01*
X100558643Y-114626514D01*
X100521391Y-114579261D01*
X100509466Y-114570790D01*
X100497934Y-114577276D01*
X99472022Y-115603188D01*
X99464408Y-115617132D01*
X98734356Y-115617132D01*
X98735592Y-115614868D01*
X98735461Y-115613035D01*
X98731210Y-115606420D01*
X97701321Y-114576531D01*
X97688013Y-114569264D01*
X97677974Y-114576386D01*
X97667761Y-114588666D01*
X97662346Y-114596258D01*
X97531646Y-114811646D01*
X97527408Y-114819963D01*
X97429981Y-115052299D01*
X97427020Y-115061149D01*
X97365006Y-115305331D01*
X97363384Y-115314528D01*
X97338143Y-115565198D01*
X97337898Y-115574523D01*
X95860349Y-115574523D01*
X95859655Y-115565185D01*
X95844407Y-115360000D01*
X95844406Y-115359996D01*
X95844061Y-115355348D01*
X95841468Y-115343885D01*
X95787408Y-115104980D01*
X95786377Y-115100423D01*
X95698702Y-114874964D01*
X95693340Y-114861176D01*
X95693339Y-114861173D01*
X95691647Y-114856823D01*
X95687845Y-114850170D01*
X95564270Y-114633960D01*
X95561951Y-114629902D01*
X95524349Y-114582204D01*
X95497884Y-114516324D01*
X95511237Y-114446595D01*
X95560169Y-114395154D01*
X95572050Y-114389091D01*
X95700722Y-114331803D01*
X95700724Y-114331802D01*
X95706752Y-114329118D01*
X95861253Y-114216866D01*
X95872115Y-114204803D01*
X98053216Y-114204803D01*
X98057789Y-114214579D01*
X99087188Y-115243978D01*
X99101132Y-115251592D01*
X99102965Y-115251461D01*
X99109580Y-115247210D01*
X100138419Y-114218371D01*
X100144803Y-114206681D01*
X100135391Y-114194570D01*
X99998593Y-114099670D01*
X99990565Y-114094942D01*
X99764593Y-113983505D01*
X99755960Y-113980017D01*
X99515998Y-113903205D01*
X99506938Y-113901029D01*
X99258260Y-113860529D01*
X99248973Y-113859717D01*
X98997053Y-113856419D01*
X98987742Y-113856989D01*
X98738097Y-113890964D01*
X98728978Y-113892902D01*
X98487098Y-113963404D01*
X98478367Y-113966667D01*
X98249558Y-114072151D01*
X98241406Y-114076670D01*
X98062353Y-114194062D01*
X98053216Y-114204803D01*
X95872115Y-114204803D01*
X95984621Y-114079852D01*
X95984622Y-114079851D01*
X95989040Y-114074944D01*
X96062010Y-113948556D01*
X96081223Y-113915279D01*
X96081224Y-113915278D01*
X96084527Y-113909556D01*
X96143542Y-113727928D01*
X96163504Y-113538000D01*
X96143542Y-113348072D01*
X96084527Y-113166444D01*
X96087286Y-113165548D01*
X96079548Y-113107746D01*
X96109667Y-113043455D01*
X96114911Y-113037873D01*
X96176783Y-112975892D01*
X96239065Y-112941812D01*
X96309886Y-112946815D01*
X96354976Y-112975736D01*
X96442697Y-113063305D01*
X96448927Y-113067145D01*
X96448928Y-113067146D01*
X96586090Y-113151694D01*
X96593262Y-113156115D01*
X96633035Y-113169307D01*
X96754611Y-113209632D01*
X96754613Y-113209632D01*
X96761139Y-113211797D01*
X96767975Y-113212497D01*
X96767978Y-113212498D01*
X96811031Y-113216909D01*
X96865600Y-113222500D01*
X97666400Y-113222500D01*
X97669646Y-113222163D01*
X97669650Y-113222163D01*
X97765308Y-113212238D01*
X97765312Y-113212237D01*
X97772166Y-113211526D01*
X97778702Y-113209345D01*
X97778704Y-113209345D01*
X97910806Y-113165272D01*
X97939946Y-113155550D01*
X98090348Y-113062478D01*
X98215305Y-112937303D01*
X98279979Y-112832383D01*
X98332750Y-112784891D01*
X98387238Y-112772500D01*
X102503629Y-112772500D01*
X102571750Y-112792502D01*
X102592724Y-112809405D01*
X103304595Y-113521276D01*
X103338621Y-113583588D01*
X103341500Y-113610371D01*
X103341500Y-113948556D01*
X103321498Y-114016677D01*
X103268252Y-114062981D01*
X103249324Y-114071707D01*
X103249315Y-114071712D01*
X103245072Y-114073668D01*
X103206070Y-114099239D01*
X103030404Y-114214410D01*
X103030399Y-114214414D01*
X103026491Y-114216976D01*
X102831494Y-114391018D01*
X102664363Y-114591970D01*
X102528771Y-114815419D01*
X102427697Y-115056455D01*
X102363359Y-115309783D01*
X102362891Y-115314434D01*
X102362890Y-115314438D01*
X102358552Y-115357525D01*
X102337173Y-115569839D01*
X102337397Y-115574505D01*
X102337397Y-115574511D01*
X102343349Y-115698417D01*
X102349713Y-115830908D01*
X102400704Y-116087256D01*
X102489026Y-116333252D01*
X102491242Y-116337376D01*
X102555753Y-116457437D01*
X102612737Y-116563491D01*
X102615532Y-116567234D01*
X102615534Y-116567237D01*
X102766330Y-116769177D01*
X102766335Y-116769183D01*
X102769122Y-116772915D01*
X102772431Y-116776195D01*
X102772436Y-116776201D01*
X102914960Y-116917486D01*
X102954743Y-116956923D01*
X102958505Y-116959681D01*
X102958508Y-116959684D01*
X103155404Y-117104054D01*
X103165524Y-117111474D01*
X103169667Y-117113654D01*
X103169669Y-117113655D01*
X103392684Y-117230989D01*
X103392689Y-117230991D01*
X103396834Y-117233172D01*
X103643590Y-117319344D01*
X103648183Y-117320216D01*
X103895785Y-117367224D01*
X103895788Y-117367224D01*
X103900374Y-117368095D01*
X104030959Y-117373226D01*
X104156875Y-117378174D01*
X104156881Y-117378174D01*
X104161543Y-117378357D01*
X104242186Y-117369525D01*
X104416707Y-117350412D01*
X104416712Y-117350411D01*
X104421360Y-117349902D01*
X104534116Y-117320216D01*
X104669594Y-117284548D01*
X104669596Y-117284547D01*
X104674117Y-117283357D01*
X104914262Y-117180182D01*
X105136519Y-117042646D01*
X105140082Y-117039629D01*
X105140087Y-117039626D01*
X105292416Y-116910669D01*
X107342001Y-116910669D01*
X107342371Y-116917490D01*
X107347895Y-116968352D01*
X107351521Y-116983604D01*
X107396676Y-117104054D01*
X107405214Y-117119649D01*
X107481715Y-117221724D01*
X107494276Y-117234285D01*
X107596351Y-117310786D01*
X107611946Y-117319324D01*
X107732394Y-117364478D01*
X107747649Y-117368105D01*
X107798514Y-117373631D01*
X107805328Y-117374000D01*
X108827885Y-117374000D01*
X108843124Y-117369525D01*
X108844329Y-117368135D01*
X108846000Y-117360452D01*
X108846000Y-117355884D01*
X109354000Y-117355884D01*
X109358475Y-117371123D01*
X109359865Y-117372328D01*
X109367548Y-117373999D01*
X110394669Y-117373999D01*
X110401490Y-117373629D01*
X110452352Y-117368105D01*
X110467604Y-117364479D01*
X110588054Y-117319324D01*
X110603649Y-117310786D01*
X110705724Y-117234285D01*
X110718285Y-117221724D01*
X110794786Y-117119649D01*
X110803324Y-117104054D01*
X110848478Y-116983606D01*
X110852105Y-116968351D01*
X110857631Y-116917486D01*
X110858000Y-116910672D01*
X110858000Y-115888115D01*
X110853525Y-115872876D01*
X110852135Y-115871671D01*
X110844452Y-115870000D01*
X109372115Y-115870000D01*
X109356876Y-115874475D01*
X109355671Y-115875865D01*
X109354000Y-115883548D01*
X109354000Y-117355884D01*
X108846000Y-117355884D01*
X108846000Y-115888115D01*
X108841525Y-115872876D01*
X108840135Y-115871671D01*
X108832452Y-115870000D01*
X107360116Y-115870000D01*
X107344877Y-115874475D01*
X107343672Y-115875865D01*
X107342001Y-115883548D01*
X107342001Y-116910669D01*
X105292416Y-116910669D01*
X105332439Y-116876787D01*
X105332440Y-116876786D01*
X105336005Y-116873768D01*
X105427729Y-116769177D01*
X105505257Y-116680774D01*
X105505261Y-116680769D01*
X105508339Y-116677259D01*
X105649733Y-116457437D01*
X105757083Y-116219129D01*
X105815067Y-116013534D01*
X105826760Y-115972076D01*
X105826761Y-115972073D01*
X105828030Y-115967572D01*
X105840230Y-115871671D01*
X105860616Y-115711421D01*
X105860616Y-115711417D01*
X105861014Y-115708291D01*
X105861098Y-115705108D01*
X105861161Y-115702703D01*
X115238743Y-115702703D01*
X115239302Y-115706947D01*
X115239302Y-115706951D01*
X115275321Y-115980539D01*
X115276268Y-115987734D01*
X115352129Y-116265036D01*
X115353813Y-116268984D01*
X115434196Y-116457437D01*
X115464923Y-116529476D01*
X115612561Y-116776161D01*
X115792313Y-117000528D01*
X115901407Y-117104054D01*
X115978567Y-117177276D01*
X116000851Y-117198423D01*
X116115820Y-117281037D01*
X116211681Y-117349920D01*
X116234317Y-117366186D01*
X116238112Y-117368195D01*
X116238113Y-117368196D01*
X116256343Y-117377848D01*
X116488392Y-117500712D01*
X116758373Y-117599511D01*
X117039264Y-117660755D01*
X117067841Y-117663004D01*
X117262282Y-117678307D01*
X117262291Y-117678307D01*
X117264739Y-117678500D01*
X117420271Y-117678500D01*
X117422407Y-117678354D01*
X117422418Y-117678354D01*
X117630548Y-117664165D01*
X117630554Y-117664164D01*
X117634825Y-117663873D01*
X117639020Y-117663004D01*
X117639022Y-117663004D01*
X117775584Y-117634723D01*
X117916342Y-117605574D01*
X118187343Y-117509607D01*
X118442812Y-117377750D01*
X118446313Y-117375289D01*
X118446317Y-117375287D01*
X118575425Y-117284548D01*
X118678023Y-117212441D01*
X118860744Y-117042646D01*
X118885479Y-117019661D01*
X118885481Y-117019658D01*
X118888622Y-117016740D01*
X119070713Y-116794268D01*
X119220927Y-116549142D01*
X119263159Y-116452936D01*
X119334757Y-116289830D01*
X119336483Y-116285898D01*
X119415244Y-116009406D01*
X119455751Y-115724784D01*
X119455822Y-115711396D01*
X119457235Y-115441583D01*
X119457235Y-115441576D01*
X119457257Y-115437297D01*
X119447091Y-115360074D01*
X119439872Y-115305248D01*
X119419732Y-115152266D01*
X119343871Y-114874964D01*
X119241193Y-114634240D01*
X119232763Y-114614476D01*
X119232761Y-114614472D01*
X119231077Y-114610524D01*
X119156527Y-114485960D01*
X119085643Y-114367521D01*
X119085640Y-114367517D01*
X119083439Y-114363839D01*
X118903687Y-114139472D01*
X118739332Y-113983505D01*
X118698258Y-113944527D01*
X118698255Y-113944525D01*
X118695149Y-113941577D01*
X118461683Y-113773814D01*
X118439843Y-113762250D01*
X118416654Y-113749972D01*
X118207608Y-113639288D01*
X117985973Y-113558181D01*
X117941658Y-113541964D01*
X117941656Y-113541963D01*
X117937627Y-113540489D01*
X117656736Y-113479245D01*
X117625685Y-113476801D01*
X117433718Y-113461693D01*
X117433709Y-113461693D01*
X117431261Y-113461500D01*
X117275729Y-113461500D01*
X117273593Y-113461646D01*
X117273582Y-113461646D01*
X117065452Y-113475835D01*
X117065446Y-113475836D01*
X117061175Y-113476127D01*
X117056980Y-113476996D01*
X117056978Y-113476996D01*
X116920416Y-113505277D01*
X116779658Y-113534426D01*
X116508657Y-113630393D01*
X116253188Y-113762250D01*
X116249687Y-113764711D01*
X116249683Y-113764713D01*
X116239594Y-113771804D01*
X116017977Y-113927559D01*
X116002892Y-113941577D01*
X115833228Y-114099239D01*
X115807378Y-114123260D01*
X115625287Y-114345732D01*
X115475073Y-114590858D01*
X115473347Y-114594791D01*
X115473346Y-114594792D01*
X115456030Y-114634240D01*
X115359517Y-114854102D01*
X115280756Y-115130594D01*
X115255888Y-115305331D01*
X115248460Y-115357525D01*
X115240249Y-115415216D01*
X115240227Y-115419505D01*
X115240226Y-115419512D01*
X115239147Y-115625580D01*
X115238743Y-115702703D01*
X105861161Y-115702703D01*
X105863348Y-115619160D01*
X105863431Y-115616000D01*
X105859655Y-115565185D01*
X105844407Y-115360000D01*
X105844406Y-115359996D01*
X105844061Y-115355348D01*
X105841468Y-115343885D01*
X107342000Y-115343885D01*
X107346475Y-115359124D01*
X107347865Y-115360329D01*
X107355548Y-115362000D01*
X108827885Y-115362000D01*
X108843124Y-115357525D01*
X108844329Y-115356135D01*
X108846000Y-115348452D01*
X108846000Y-115343885D01*
X109354000Y-115343885D01*
X109358475Y-115359124D01*
X109359865Y-115360329D01*
X109367548Y-115362000D01*
X110839884Y-115362000D01*
X110855123Y-115357525D01*
X110856328Y-115356135D01*
X110857999Y-115348452D01*
X110857999Y-114321331D01*
X110857629Y-114314510D01*
X110852105Y-114263648D01*
X110848479Y-114248396D01*
X110803324Y-114127946D01*
X110794786Y-114112351D01*
X110718285Y-114010276D01*
X110705724Y-113997715D01*
X110603649Y-113921214D01*
X110588054Y-113912676D01*
X110467606Y-113867522D01*
X110452351Y-113863895D01*
X110401486Y-113858369D01*
X110394672Y-113858000D01*
X109372115Y-113858000D01*
X109356876Y-113862475D01*
X109355671Y-113863865D01*
X109354000Y-113871548D01*
X109354000Y-115343885D01*
X108846000Y-115343885D01*
X108846000Y-113876116D01*
X108841525Y-113860877D01*
X108840135Y-113859672D01*
X108832452Y-113858001D01*
X107805331Y-113858001D01*
X107798510Y-113858371D01*
X107747648Y-113863895D01*
X107732396Y-113867521D01*
X107611946Y-113912676D01*
X107596351Y-113921214D01*
X107494276Y-113997715D01*
X107481715Y-114010276D01*
X107405214Y-114112351D01*
X107396676Y-114127946D01*
X107351522Y-114248394D01*
X107347895Y-114263649D01*
X107342369Y-114314514D01*
X107342000Y-114321328D01*
X107342000Y-115343885D01*
X105841468Y-115343885D01*
X105787408Y-115104980D01*
X105786377Y-115100423D01*
X105698702Y-114874964D01*
X105693340Y-114861176D01*
X105693339Y-114861173D01*
X105691647Y-114856823D01*
X105687845Y-114850170D01*
X105564270Y-114633960D01*
X105561951Y-114629902D01*
X105400138Y-114424643D01*
X105209763Y-114245557D01*
X104995009Y-114096576D01*
X104990825Y-114094512D01*
X104990817Y-114094508D01*
X104928772Y-114063911D01*
X104876523Y-114015843D01*
X104858500Y-113950905D01*
X104858500Y-113311070D01*
X104859933Y-113292120D01*
X104862099Y-113277885D01*
X104862099Y-113277881D01*
X104863199Y-113270651D01*
X104859283Y-113222500D01*
X104858915Y-113217982D01*
X104858500Y-113207767D01*
X104858500Y-113199707D01*
X104855209Y-113171480D01*
X104854778Y-113167121D01*
X104854026Y-113157868D01*
X104848860Y-113094364D01*
X104846604Y-113087400D01*
X104845417Y-113081461D01*
X104844030Y-113075590D01*
X104843182Y-113068319D01*
X104840686Y-113061443D01*
X104840684Y-113061434D01*
X104818275Y-112999702D01*
X104816860Y-112995580D01*
X104797989Y-112937328D01*
X104796025Y-112866360D01*
X104832742Y-112805595D01*
X104896482Y-112774326D01*
X104917857Y-112772500D01*
X108390930Y-112772500D01*
X108409880Y-112773933D01*
X108424115Y-112776099D01*
X108424119Y-112776099D01*
X108431349Y-112777199D01*
X108438641Y-112776606D01*
X108438644Y-112776606D01*
X108484018Y-112772915D01*
X108494233Y-112772500D01*
X108502293Y-112772500D01*
X108515583Y-112770951D01*
X108530507Y-112769211D01*
X108534882Y-112768778D01*
X108600339Y-112763454D01*
X108600342Y-112763453D01*
X108607637Y-112762860D01*
X108614601Y-112760604D01*
X108620560Y-112759413D01*
X108626415Y-112758029D01*
X108633681Y-112757182D01*
X108702327Y-112732265D01*
X108706455Y-112730848D01*
X108768936Y-112710607D01*
X108768938Y-112710606D01*
X108775899Y-112708351D01*
X108782154Y-112704555D01*
X108787628Y-112702049D01*
X108793058Y-112699330D01*
X108799937Y-112696833D01*
X108860976Y-112656814D01*
X108864680Y-112654477D01*
X108927107Y-112616595D01*
X108935484Y-112609197D01*
X108935508Y-112609224D01*
X108938500Y-112606571D01*
X108941733Y-112603868D01*
X108947852Y-112599856D01*
X109001128Y-112543617D01*
X109003506Y-112541175D01*
X110278586Y-111266095D01*
X112929001Y-111266095D01*
X112929338Y-111272614D01*
X112939257Y-111368206D01*
X112942149Y-111381600D01*
X112993588Y-111535784D01*
X112999761Y-111548962D01*
X113085063Y-111686807D01*
X113094099Y-111698208D01*
X113208829Y-111812739D01*
X113220240Y-111821751D01*
X113358243Y-111906816D01*
X113371424Y-111912963D01*
X113525710Y-111964138D01*
X113539086Y-111967005D01*
X113633438Y-111976672D01*
X113639854Y-111977000D01*
X113752385Y-111977000D01*
X113767624Y-111972525D01*
X113768829Y-111971135D01*
X113770500Y-111963452D01*
X113770500Y-111016115D01*
X113766025Y-111000876D01*
X113764635Y-110999671D01*
X113756952Y-110998000D01*
X112947116Y-110998000D01*
X112931877Y-111002475D01*
X112930672Y-111003865D01*
X112929001Y-111011548D01*
X112929001Y-111266095D01*
X110278586Y-111266095D01*
X111575627Y-109969054D01*
X111637939Y-109935028D01*
X111708754Y-109940093D01*
X111765590Y-109982640D01*
X111773837Y-109995142D01*
X111782960Y-110010944D01*
X111787378Y-110015851D01*
X111787379Y-110015852D01*
X111814589Y-110046072D01*
X111910747Y-110152866D01*
X111996749Y-110215350D01*
X112034207Y-110242565D01*
X112065248Y-110265118D01*
X112071276Y-110267802D01*
X112071278Y-110267803D01*
X112233681Y-110340109D01*
X112239712Y-110342794D01*
X112327952Y-110361550D01*
X112420056Y-110381128D01*
X112420061Y-110381128D01*
X112426513Y-110382500D01*
X112617487Y-110382500D01*
X112623939Y-110381128D01*
X112623944Y-110381128D01*
X112751389Y-110354038D01*
X112776804Y-110348636D01*
X112847594Y-110354038D01*
X112904226Y-110396855D01*
X112928720Y-110463492D01*
X112929000Y-110471883D01*
X112929000Y-110471885D01*
X112933475Y-110487124D01*
X112934865Y-110488329D01*
X112942548Y-110490000D01*
X114152500Y-110490000D01*
X114220621Y-110510002D01*
X114267114Y-110563658D01*
X114278500Y-110616000D01*
X114278500Y-111958884D01*
X114282975Y-111974123D01*
X114284365Y-111975328D01*
X114292048Y-111976999D01*
X114409095Y-111976999D01*
X114415614Y-111976662D01*
X114511206Y-111966743D01*
X114524600Y-111963851D01*
X114678784Y-111912412D01*
X114691962Y-111906239D01*
X114829807Y-111820937D01*
X114841208Y-111811901D01*
X114955738Y-111697172D01*
X114962794Y-111688238D01*
X115020712Y-111647177D01*
X115091635Y-111643947D01*
X115153046Y-111679574D01*
X115159846Y-111687407D01*
X115163522Y-111693348D01*
X115288697Y-111818305D01*
X115294927Y-111822145D01*
X115294928Y-111822146D01*
X115432288Y-111906816D01*
X115439262Y-111911115D01*
X115519005Y-111937564D01*
X115600611Y-111964632D01*
X115600613Y-111964632D01*
X115607139Y-111966797D01*
X115613975Y-111967497D01*
X115613978Y-111967498D01*
X115657031Y-111971909D01*
X115711600Y-111977500D01*
X116487400Y-111977500D01*
X116490646Y-111977163D01*
X116490650Y-111977163D01*
X116586308Y-111967238D01*
X116586312Y-111967237D01*
X116593166Y-111966526D01*
X116599702Y-111964345D01*
X116599704Y-111964345D01*
X116731806Y-111920272D01*
X116760946Y-111910550D01*
X116911348Y-111817478D01*
X117036305Y-111692303D01*
X117114534Y-111565393D01*
X117125275Y-111547968D01*
X117125276Y-111547966D01*
X117129115Y-111541738D01*
X117184797Y-111373861D01*
X117195500Y-111269400D01*
X117195500Y-110218600D01*
X117188170Y-110147955D01*
X117185238Y-110119692D01*
X117185237Y-110119688D01*
X117184526Y-110112834D01*
X117162253Y-110046072D01*
X117130868Y-109952002D01*
X117128550Y-109945054D01*
X117035478Y-109794652D01*
X116910303Y-109669695D01*
X116911394Y-109668603D01*
X116875218Y-109617582D01*
X116871983Y-109546659D01*
X116905198Y-109487595D01*
X117006134Y-109386483D01*
X117011305Y-109381303D01*
X117015146Y-109375072D01*
X117100275Y-109236968D01*
X117100276Y-109236966D01*
X117104115Y-109230738D01*
X117159797Y-109062861D01*
X117162663Y-109034895D01*
X117167097Y-108991615D01*
X117170500Y-108958400D01*
X117170500Y-107957600D01*
X117159526Y-107851834D01*
X117103550Y-107684054D01*
X117010478Y-107533652D01*
X116885303Y-107408695D01*
X116734738Y-107315885D01*
X116654995Y-107289436D01*
X116573389Y-107262368D01*
X116573387Y-107262368D01*
X116566861Y-107260203D01*
X116560023Y-107259502D01*
X116560021Y-107259502D01*
X116555657Y-107259055D01*
X116489930Y-107232213D01*
X116449148Y-107174098D01*
X116442500Y-107133711D01*
X116442500Y-106050493D01*
X116462502Y-105982372D01*
X116516158Y-105935879D01*
X116537763Y-105928457D01*
X116544316Y-105927745D01*
X116551711Y-105924973D01*
X116551714Y-105924972D01*
X116672297Y-105879767D01*
X116680705Y-105876615D01*
X116797261Y-105789261D01*
X116884615Y-105672705D01*
X116935745Y-105536316D01*
X116942500Y-105474134D01*
X116942500Y-105416371D01*
X116962502Y-105348250D01*
X116979405Y-105327276D01*
X117582911Y-104723770D01*
X117597323Y-104711384D01*
X117608918Y-104702851D01*
X117608923Y-104702846D01*
X117614818Y-104698508D01*
X117619557Y-104692930D01*
X117619560Y-104692927D01*
X117649035Y-104658232D01*
X117655965Y-104650716D01*
X117661661Y-104645020D01*
X117663924Y-104642159D01*
X117663929Y-104642154D01*
X117679293Y-104622734D01*
X117682082Y-104619333D01*
X117709534Y-104587020D01*
X117729333Y-104563715D01*
X117732661Y-104557197D01*
X117735355Y-104553158D01*
X117789793Y-104507584D01*
X117860228Y-104498675D01*
X117924298Y-104529261D01*
X117947613Y-104557235D01*
X118023694Y-104681388D01*
X118029777Y-104689699D01*
X118169213Y-104850667D01*
X118176580Y-104857883D01*
X118340434Y-104993916D01*
X118348881Y-104999831D01*
X118417969Y-105040203D01*
X118466693Y-105091842D01*
X118479764Y-105161625D01*
X118453033Y-105227396D01*
X118412584Y-105260752D01*
X118399607Y-105267507D01*
X118395474Y-105270610D01*
X118395471Y-105270612D01*
X118371247Y-105288800D01*
X118220965Y-105401635D01*
X118066629Y-105563138D01*
X118063715Y-105567410D01*
X118063714Y-105567411D01*
X117978556Y-105692249D01*
X117940743Y-105747680D01*
X117925003Y-105781590D01*
X117854196Y-105934131D01*
X117846688Y-105950305D01*
X117786989Y-106165570D01*
X117763251Y-106387695D01*
X117763548Y-106392848D01*
X117763548Y-106392851D01*
X117768443Y-106477739D01*
X117776110Y-106610715D01*
X117777247Y-106615761D01*
X117777248Y-106615767D01*
X117798275Y-106709069D01*
X117825222Y-106828639D01*
X117850749Y-106891504D01*
X117904604Y-107024134D01*
X117909266Y-107035616D01*
X117911965Y-107040020D01*
X117994128Y-107174098D01*
X118025987Y-107226088D01*
X118172250Y-107394938D01*
X118344126Y-107537632D01*
X118537000Y-107650338D01*
X118745692Y-107730030D01*
X118750760Y-107731061D01*
X118750763Y-107731062D01*
X118858017Y-107752883D01*
X118964597Y-107774567D01*
X118969772Y-107774757D01*
X118969774Y-107774757D01*
X119182673Y-107782564D01*
X119182677Y-107782564D01*
X119187837Y-107782753D01*
X119192957Y-107782097D01*
X119192959Y-107782097D01*
X119404288Y-107755025D01*
X119404289Y-107755025D01*
X119409416Y-107754368D01*
X119414366Y-107752883D01*
X119618429Y-107691661D01*
X119618434Y-107691659D01*
X119623384Y-107690174D01*
X119823994Y-107591896D01*
X120005860Y-107462173D01*
X120018330Y-107449747D01*
X120146296Y-107322227D01*
X120164096Y-107304489D01*
X120196744Y-107259055D01*
X120291435Y-107127277D01*
X120294453Y-107123077D01*
X120312622Y-107086316D01*
X120391136Y-106927453D01*
X120391137Y-106927451D01*
X120393430Y-106922811D01*
X120402943Y-106891502D01*
X120441882Y-106832140D01*
X120506736Y-106803252D01*
X120576913Y-106814013D01*
X120630131Y-106861006D01*
X120649500Y-106928132D01*
X120649500Y-118999500D01*
X120629498Y-119067621D01*
X120575842Y-119114114D01*
X120523500Y-119125500D01*
X82634500Y-119125500D01*
X82566379Y-119105498D01*
X82519886Y-119051842D01*
X82508500Y-118999500D01*
X82508500Y-115702703D01*
X83742743Y-115702703D01*
X83743302Y-115706947D01*
X83743302Y-115706951D01*
X83779321Y-115980539D01*
X83780268Y-115987734D01*
X83856129Y-116265036D01*
X83857813Y-116268984D01*
X83938196Y-116457437D01*
X83968923Y-116529476D01*
X84116561Y-116776161D01*
X84296313Y-117000528D01*
X84405407Y-117104054D01*
X84482567Y-117177276D01*
X84504851Y-117198423D01*
X84619820Y-117281037D01*
X84715681Y-117349920D01*
X84738317Y-117366186D01*
X84742112Y-117368195D01*
X84742113Y-117368196D01*
X84760343Y-117377848D01*
X84992392Y-117500712D01*
X85262373Y-117599511D01*
X85543264Y-117660755D01*
X85571841Y-117663004D01*
X85766282Y-117678307D01*
X85766291Y-117678307D01*
X85768739Y-117678500D01*
X85924271Y-117678500D01*
X85926407Y-117678354D01*
X85926418Y-117678354D01*
X86134548Y-117664165D01*
X86134554Y-117664164D01*
X86138825Y-117663873D01*
X86143020Y-117663004D01*
X86143022Y-117663004D01*
X86279584Y-117634723D01*
X86420342Y-117605574D01*
X86691343Y-117509607D01*
X86946812Y-117377750D01*
X86950313Y-117375289D01*
X86950317Y-117375287D01*
X87079425Y-117284548D01*
X87182023Y-117212441D01*
X87364744Y-117042646D01*
X87389479Y-117019661D01*
X87389481Y-117019658D01*
X87392622Y-117016740D01*
X87574713Y-116794268D01*
X87724927Y-116549142D01*
X87767159Y-116452936D01*
X87838757Y-116289830D01*
X87840483Y-116285898D01*
X87919244Y-116009406D01*
X87959751Y-115724784D01*
X87959822Y-115711396D01*
X87961235Y-115441583D01*
X87961235Y-115441576D01*
X87961257Y-115437297D01*
X87951091Y-115360074D01*
X87943872Y-115305248D01*
X87923732Y-115152266D01*
X87847871Y-114874964D01*
X87745193Y-114634240D01*
X87736763Y-114614476D01*
X87736761Y-114614472D01*
X87735077Y-114610524D01*
X87660527Y-114485960D01*
X87589643Y-114367521D01*
X87589640Y-114367517D01*
X87587439Y-114363839D01*
X87407687Y-114139472D01*
X87243332Y-113983505D01*
X87202258Y-113944527D01*
X87202255Y-113944525D01*
X87199149Y-113941577D01*
X86965683Y-113773814D01*
X86943843Y-113762250D01*
X86920654Y-113749972D01*
X86711608Y-113639288D01*
X86489973Y-113558181D01*
X86445658Y-113541964D01*
X86445656Y-113541963D01*
X86441627Y-113540489D01*
X86160736Y-113479245D01*
X86129685Y-113476801D01*
X85937718Y-113461693D01*
X85937709Y-113461693D01*
X85935261Y-113461500D01*
X85779729Y-113461500D01*
X85777593Y-113461646D01*
X85777582Y-113461646D01*
X85569452Y-113475835D01*
X85569446Y-113475836D01*
X85565175Y-113476127D01*
X85560980Y-113476996D01*
X85560978Y-113476996D01*
X85424416Y-113505277D01*
X85283658Y-113534426D01*
X85012657Y-113630393D01*
X84757188Y-113762250D01*
X84753687Y-113764711D01*
X84753683Y-113764713D01*
X84743594Y-113771804D01*
X84521977Y-113927559D01*
X84506892Y-113941577D01*
X84337228Y-114099239D01*
X84311378Y-114123260D01*
X84129287Y-114345732D01*
X83979073Y-114590858D01*
X83977347Y-114594791D01*
X83977346Y-114594792D01*
X83960030Y-114634240D01*
X83863517Y-114854102D01*
X83784756Y-115130594D01*
X83759888Y-115305331D01*
X83752460Y-115357525D01*
X83744249Y-115415216D01*
X83744227Y-115419505D01*
X83744226Y-115419512D01*
X83743147Y-115625580D01*
X83742743Y-115702703D01*
X82508500Y-115702703D01*
X82508500Y-110498966D01*
X83758257Y-110498966D01*
X83788565Y-110633446D01*
X83791645Y-110643275D01*
X83871770Y-110840603D01*
X83876413Y-110849794D01*
X83987694Y-111031388D01*
X83993777Y-111039699D01*
X84133213Y-111200667D01*
X84140580Y-111207883D01*
X84304434Y-111343916D01*
X84312881Y-111349831D01*
X84496756Y-111457279D01*
X84506042Y-111461729D01*
X84705001Y-111537703D01*
X84714899Y-111540579D01*
X84818250Y-111561606D01*
X84832299Y-111560410D01*
X84836000Y-111550065D01*
X84836000Y-111549517D01*
X85344000Y-111549517D01*
X85348064Y-111563359D01*
X85361478Y-111565393D01*
X85368184Y-111564534D01*
X85378262Y-111562392D01*
X85582255Y-111501191D01*
X85591842Y-111497433D01*
X85783095Y-111403739D01*
X85791945Y-111398464D01*
X85965328Y-111274792D01*
X85973200Y-111268139D01*
X86124052Y-111117812D01*
X86130730Y-111109965D01*
X86255003Y-110937020D01*
X86260313Y-110928183D01*
X86354670Y-110737267D01*
X86358469Y-110727672D01*
X86420377Y-110523910D01*
X86422555Y-110513837D01*
X86423986Y-110502962D01*
X86421775Y-110488778D01*
X86408617Y-110485000D01*
X85362115Y-110485000D01*
X85346876Y-110489475D01*
X85345671Y-110490865D01*
X85344000Y-110498548D01*
X85344000Y-111549517D01*
X84836000Y-111549517D01*
X84836000Y-110503115D01*
X84831525Y-110487876D01*
X84830135Y-110486671D01*
X84822452Y-110485000D01*
X83773225Y-110485000D01*
X83759694Y-110488973D01*
X83758257Y-110498966D01*
X82508500Y-110498966D01*
X82508500Y-108589134D01*
X83731500Y-108589134D01*
X83738255Y-108651316D01*
X83789385Y-108787705D01*
X83876739Y-108904261D01*
X83993295Y-108991615D01*
X84001704Y-108994767D01*
X84001705Y-108994768D01*
X84110960Y-109035726D01*
X84167725Y-109078367D01*
X84192425Y-109144929D01*
X84177218Y-109214278D01*
X84157825Y-109240759D01*
X84034590Y-109369717D01*
X84028104Y-109377727D01*
X83908098Y-109553649D01*
X83903000Y-109562623D01*
X83813338Y-109755783D01*
X83809775Y-109765470D01*
X83754389Y-109965183D01*
X83755912Y-109973607D01*
X83768292Y-109977000D01*
X86408344Y-109977000D01*
X86421875Y-109973027D01*
X86423180Y-109963947D01*
X86381214Y-109796875D01*
X86377894Y-109787124D01*
X86292972Y-109591814D01*
X86288105Y-109582739D01*
X86172426Y-109403926D01*
X86166136Y-109395757D01*
X86022293Y-109237677D01*
X85991241Y-109173831D01*
X85999635Y-109103333D01*
X86044812Y-109048564D01*
X86071256Y-109034895D01*
X86178297Y-108994767D01*
X86186705Y-108991615D01*
X86303261Y-108904261D01*
X86390615Y-108787705D01*
X86441745Y-108651316D01*
X86448500Y-108589134D01*
X86448500Y-106792866D01*
X86441745Y-106730684D01*
X86390615Y-106594295D01*
X86303261Y-106477739D01*
X86186705Y-106390385D01*
X86050316Y-106339255D01*
X85988134Y-106332500D01*
X84191866Y-106332500D01*
X84129684Y-106339255D01*
X83993295Y-106390385D01*
X83876739Y-106477739D01*
X83789385Y-106594295D01*
X83738255Y-106730684D01*
X83731500Y-106792866D01*
X83731500Y-108589134D01*
X82508500Y-108589134D01*
X82508500Y-103291679D01*
X82528502Y-103223558D01*
X82582158Y-103177065D01*
X82652432Y-103166961D01*
X82700616Y-103184419D01*
X82787243Y-103237816D01*
X82800424Y-103243963D01*
X82954710Y-103295138D01*
X82968086Y-103298005D01*
X83062438Y-103307672D01*
X83068854Y-103308000D01*
X83293885Y-103308000D01*
X83309124Y-103303525D01*
X83310329Y-103302135D01*
X83312000Y-103294452D01*
X83312000Y-102072000D01*
X83332002Y-102003879D01*
X83385658Y-101957386D01*
X83438000Y-101946000D01*
X83694000Y-101946000D01*
X83762121Y-101966002D01*
G37*
%TD.AperFunction*%
%TA.AperFunction,Conductor*%
G36*
X109518224Y-107466326D02*
G01*
X109548684Y-107477745D01*
X109610866Y-107484500D01*
X110086629Y-107484500D01*
X110154750Y-107504502D01*
X110201243Y-107558158D01*
X110211347Y-107628432D01*
X110181853Y-107693012D01*
X110175724Y-107699595D01*
X109450724Y-108424595D01*
X109388412Y-108458621D01*
X109361629Y-108461500D01*
X102461595Y-108461500D01*
X102393474Y-108441498D01*
X102346981Y-108387842D01*
X102336877Y-108317568D01*
X102370122Y-108248847D01*
X102392128Y-108225617D01*
X102394506Y-108223175D01*
X102977911Y-107639770D01*
X102992323Y-107627384D01*
X103003918Y-107618851D01*
X103003923Y-107618846D01*
X103009818Y-107614508D01*
X103014557Y-107608930D01*
X103014560Y-107608927D01*
X103044035Y-107574232D01*
X103050965Y-107566716D01*
X103056661Y-107561020D01*
X103058925Y-107558158D01*
X103058929Y-107558154D01*
X103074293Y-107538734D01*
X103077065Y-107535353D01*
X103088923Y-107521396D01*
X103148271Y-107482433D01*
X103198341Y-107480899D01*
X103198684Y-107477745D01*
X103241839Y-107482433D01*
X103260866Y-107484500D01*
X104257134Y-107484500D01*
X104319316Y-107477745D01*
X104349771Y-107466328D01*
X104420577Y-107461145D01*
X104438224Y-107466326D01*
X104468684Y-107477745D01*
X104530866Y-107484500D01*
X105527134Y-107484500D01*
X105589316Y-107477745D01*
X105619771Y-107466328D01*
X105690577Y-107461145D01*
X105708224Y-107466326D01*
X105738684Y-107477745D01*
X105800866Y-107484500D01*
X106797134Y-107484500D01*
X106859316Y-107477745D01*
X106889771Y-107466328D01*
X106960577Y-107461145D01*
X106978224Y-107466326D01*
X107008684Y-107477745D01*
X107070866Y-107484500D01*
X108067134Y-107484500D01*
X108129316Y-107477745D01*
X108159771Y-107466328D01*
X108230577Y-107461145D01*
X108248224Y-107466326D01*
X108278684Y-107477745D01*
X108340866Y-107484500D01*
X109337134Y-107484500D01*
X109399316Y-107477745D01*
X109429771Y-107466328D01*
X109500577Y-107461145D01*
X109518224Y-107466326D01*
G37*
%TD.AperFunction*%
%TA.AperFunction,Conductor*%
G36*
X96843532Y-92039315D02*
G01*
X96900368Y-92081862D01*
X96925179Y-92148382D01*
X96925500Y-92157371D01*
X96925500Y-92774134D01*
X96932255Y-92836316D01*
X96943672Y-92866771D01*
X96948855Y-92937577D01*
X96943674Y-92955224D01*
X96932255Y-92985684D01*
X96925500Y-93047866D01*
X96925500Y-93489798D01*
X96905498Y-93557919D01*
X96851842Y-93604412D01*
X96781568Y-93614516D01*
X96773303Y-93613045D01*
X96621944Y-93580872D01*
X96621939Y-93580872D01*
X96615487Y-93579500D01*
X96424513Y-93579500D01*
X96418061Y-93580872D01*
X96418056Y-93580872D01*
X96331113Y-93599353D01*
X96237712Y-93619206D01*
X96231682Y-93621891D01*
X96231681Y-93621891D01*
X96069278Y-93694197D01*
X96069276Y-93694198D01*
X96063248Y-93696882D01*
X96057907Y-93700762D01*
X96057906Y-93700763D01*
X96007843Y-93737136D01*
X95908747Y-93809134D01*
X95904326Y-93814044D01*
X95904325Y-93814045D01*
X95842530Y-93882676D01*
X95780960Y-93951056D01*
X95748372Y-94007500D01*
X95705761Y-94081305D01*
X95685473Y-94116444D01*
X95626458Y-94298072D01*
X95625768Y-94304633D01*
X95625768Y-94304635D01*
X95617720Y-94381206D01*
X95606496Y-94488000D01*
X95607186Y-94494565D01*
X95617831Y-94595842D01*
X95626458Y-94677928D01*
X95685473Y-94859556D01*
X95688776Y-94865278D01*
X95688777Y-94865279D01*
X95716993Y-94914150D01*
X95780960Y-95024944D01*
X95785378Y-95029851D01*
X95785379Y-95029852D01*
X95871588Y-95125597D01*
X95908747Y-95166866D01*
X96007843Y-95238864D01*
X96047767Y-95267870D01*
X96063248Y-95279118D01*
X96069276Y-95281802D01*
X96069278Y-95281803D01*
X96231681Y-95354109D01*
X96237712Y-95356794D01*
X96244167Y-95358166D01*
X96244170Y-95358167D01*
X96306367Y-95371387D01*
X96358347Y-95395819D01*
X96365251Y-95401281D01*
X96368655Y-95404072D01*
X96418250Y-95446206D01*
X96424285Y-95451333D01*
X96430801Y-95454661D01*
X96435850Y-95458028D01*
X96440979Y-95461195D01*
X96446716Y-95465734D01*
X96512875Y-95496655D01*
X96516769Y-95498558D01*
X96581808Y-95531769D01*
X96588916Y-95533508D01*
X96594559Y-95535607D01*
X96600322Y-95537524D01*
X96606950Y-95540622D01*
X96614112Y-95542112D01*
X96614113Y-95542112D01*
X96678412Y-95555486D01*
X96682696Y-95556456D01*
X96753610Y-95573808D01*
X96759212Y-95574156D01*
X96759215Y-95574156D01*
X96764764Y-95574500D01*
X96764762Y-95574536D01*
X96768755Y-95574775D01*
X96772947Y-95575149D01*
X96780115Y-95576640D01*
X96788259Y-95576420D01*
X96796095Y-95576208D01*
X96864731Y-95594362D01*
X96912657Y-95646741D01*
X96925500Y-95702162D01*
X96925500Y-96584134D01*
X96932255Y-96646316D01*
X96943672Y-96676771D01*
X96948855Y-96747577D01*
X96943674Y-96765224D01*
X96932255Y-96795684D01*
X96925500Y-96857866D01*
X96925500Y-97854134D01*
X96932255Y-97916316D01*
X96943672Y-97946771D01*
X96948855Y-98017577D01*
X96943674Y-98035224D01*
X96932255Y-98065684D01*
X96925500Y-98127866D01*
X96925500Y-99124134D01*
X96932255Y-99186316D01*
X96943672Y-99216771D01*
X96948855Y-99287577D01*
X96943674Y-99305224D01*
X96932255Y-99335684D01*
X96925500Y-99397866D01*
X96925500Y-100394134D01*
X96932255Y-100456316D01*
X96943672Y-100486771D01*
X96948855Y-100557577D01*
X96943674Y-100575224D01*
X96932255Y-100605684D01*
X96925500Y-100667866D01*
X96925500Y-101664134D01*
X96932255Y-101726316D01*
X96943672Y-101756771D01*
X96948855Y-101827577D01*
X96943674Y-101845224D01*
X96932255Y-101875684D01*
X96925500Y-101937866D01*
X96925500Y-102934134D01*
X96932255Y-102996316D01*
X96943672Y-103026771D01*
X96948855Y-103097577D01*
X96943674Y-103115224D01*
X96932255Y-103145684D01*
X96925500Y-103207866D01*
X96925500Y-104204134D01*
X96932255Y-104266316D01*
X96943672Y-104296771D01*
X96948855Y-104367577D01*
X96943674Y-104385224D01*
X96932255Y-104415684D01*
X96925500Y-104477866D01*
X96925500Y-105474134D01*
X96932255Y-105536316D01*
X96983385Y-105672705D01*
X97070739Y-105789261D01*
X97187295Y-105876615D01*
X97323684Y-105927745D01*
X97385866Y-105934500D01*
X98864500Y-105934500D01*
X98932621Y-105954502D01*
X98979114Y-106008158D01*
X98990500Y-106060500D01*
X98990500Y-106811500D01*
X98970498Y-106879621D01*
X98916842Y-106926114D01*
X98864500Y-106937500D01*
X91714371Y-106937500D01*
X91646250Y-106917498D01*
X91625276Y-106900595D01*
X88272775Y-103548094D01*
X88238749Y-103485782D01*
X88243814Y-103414967D01*
X88286361Y-103358131D01*
X88352881Y-103333320D01*
X88361870Y-103332999D01*
X88660095Y-103332999D01*
X88666614Y-103332662D01*
X88762206Y-103322743D01*
X88775600Y-103319851D01*
X88929784Y-103268412D01*
X88942962Y-103262239D01*
X89080807Y-103176937D01*
X89092213Y-103167897D01*
X89191754Y-103068184D01*
X89254036Y-103034105D01*
X89324857Y-103039108D01*
X89369944Y-103068029D01*
X89470829Y-103168739D01*
X89482240Y-103177751D01*
X89620243Y-103262816D01*
X89633424Y-103268963D01*
X89787710Y-103320138D01*
X89801086Y-103323005D01*
X89895438Y-103332672D01*
X89901854Y-103333000D01*
X90151885Y-103333000D01*
X90167124Y-103328525D01*
X90168329Y-103327135D01*
X90170000Y-103319452D01*
X90170000Y-103314884D01*
X90678000Y-103314884D01*
X90682475Y-103330123D01*
X90683865Y-103331328D01*
X90691548Y-103332999D01*
X90946095Y-103332999D01*
X90952614Y-103332662D01*
X91048206Y-103322743D01*
X91061600Y-103319851D01*
X91215784Y-103268412D01*
X91228962Y-103262239D01*
X91366807Y-103176937D01*
X91378208Y-103167901D01*
X91492739Y-103053171D01*
X91501751Y-103041760D01*
X91586816Y-102903757D01*
X91592963Y-102890576D01*
X91644138Y-102736290D01*
X91647005Y-102722914D01*
X91656672Y-102628562D01*
X91657000Y-102622146D01*
X91657000Y-102509615D01*
X91652525Y-102494376D01*
X91651135Y-102493171D01*
X91643452Y-102491500D01*
X90696115Y-102491500D01*
X90680876Y-102495975D01*
X90679671Y-102497365D01*
X90678000Y-102505048D01*
X90678000Y-103314884D01*
X90170000Y-103314884D01*
X90170000Y-102509615D01*
X90165525Y-102494376D01*
X90164135Y-102493171D01*
X90156452Y-102491500D01*
X88010000Y-102491500D01*
X87941879Y-102471498D01*
X87895386Y-102417842D01*
X87884000Y-102365500D01*
X87884000Y-102109500D01*
X87904002Y-102041379D01*
X87957658Y-101994886D01*
X88010000Y-101983500D01*
X91638884Y-101983500D01*
X91654123Y-101979025D01*
X91655328Y-101977635D01*
X91656999Y-101969952D01*
X91656999Y-101852905D01*
X91656662Y-101846386D01*
X91646743Y-101750794D01*
X91643851Y-101737400D01*
X91592412Y-101583216D01*
X91586239Y-101570038D01*
X91500937Y-101432193D01*
X91491901Y-101420792D01*
X91377172Y-101306262D01*
X91368238Y-101299206D01*
X91327177Y-101241288D01*
X91323947Y-101170365D01*
X91359574Y-101108954D01*
X91367407Y-101102154D01*
X91373348Y-101098478D01*
X91498305Y-100973303D01*
X91542441Y-100901702D01*
X91587275Y-100828968D01*
X91587276Y-100828966D01*
X91591115Y-100822738D01*
X91632873Y-100696840D01*
X91644632Y-100661389D01*
X91644632Y-100661387D01*
X91646797Y-100654861D01*
X91657500Y-100550400D01*
X91657500Y-99774600D01*
X91657163Y-99771350D01*
X91647238Y-99675692D01*
X91647237Y-99675688D01*
X91646526Y-99668834D01*
X91590550Y-99501054D01*
X91497478Y-99350652D01*
X91372303Y-99225695D01*
X91366072Y-99221854D01*
X91227968Y-99136725D01*
X91227966Y-99136724D01*
X91221738Y-99132885D01*
X91127905Y-99101762D01*
X91060389Y-99079368D01*
X91060387Y-99079368D01*
X91053861Y-99077203D01*
X91047025Y-99076503D01*
X91047022Y-99076502D01*
X91003969Y-99072091D01*
X90949400Y-99066500D01*
X90452871Y-99066500D01*
X90384750Y-99046498D01*
X90363776Y-99029595D01*
X89745405Y-98411224D01*
X89711379Y-98348912D01*
X89708500Y-98322129D01*
X89708500Y-96185866D01*
X89701745Y-96123684D01*
X89650615Y-95987295D01*
X89563261Y-95870739D01*
X89556081Y-95865358D01*
X89552797Y-95862074D01*
X89518771Y-95799762D01*
X89523836Y-95728947D01*
X89552797Y-95683884D01*
X90150911Y-95085770D01*
X90165323Y-95073384D01*
X90176918Y-95064851D01*
X90176923Y-95064846D01*
X90182818Y-95060508D01*
X90187557Y-95054930D01*
X90187560Y-95054927D01*
X90217035Y-95020232D01*
X90223965Y-95012716D01*
X90229660Y-95007021D01*
X90234518Y-95000880D01*
X90247281Y-94984749D01*
X90250072Y-94981345D01*
X90292591Y-94931297D01*
X90292592Y-94931295D01*
X90297333Y-94925715D01*
X90300661Y-94919199D01*
X90304028Y-94914150D01*
X90307195Y-94909021D01*
X90311734Y-94903284D01*
X90342655Y-94837125D01*
X90344561Y-94833225D01*
X90377769Y-94768192D01*
X90379508Y-94761084D01*
X90381607Y-94755441D01*
X90383524Y-94749678D01*
X90386622Y-94743050D01*
X90401487Y-94671583D01*
X90402457Y-94667299D01*
X90419808Y-94596390D01*
X90420500Y-94585236D01*
X90420536Y-94585238D01*
X90420775Y-94581245D01*
X90421149Y-94577053D01*
X90422640Y-94569885D01*
X90420546Y-94492479D01*
X90420500Y-94489072D01*
X90420500Y-93699000D01*
X90440502Y-93630879D01*
X90494158Y-93584386D01*
X90546500Y-93573000D01*
X90659885Y-93573000D01*
X90675124Y-93568525D01*
X90676329Y-93567135D01*
X90678000Y-93559452D01*
X90678000Y-92349500D01*
X90698002Y-92281379D01*
X90751658Y-92234886D01*
X90804000Y-92223500D01*
X91060000Y-92223500D01*
X91128121Y-92243502D01*
X91174614Y-92297158D01*
X91186000Y-92349500D01*
X91186000Y-93554884D01*
X91190475Y-93570123D01*
X91191865Y-93571328D01*
X91199548Y-93572999D01*
X91454095Y-93572999D01*
X91460614Y-93572662D01*
X91556206Y-93562743D01*
X91569600Y-93559851D01*
X91723784Y-93508412D01*
X91736962Y-93502239D01*
X91874807Y-93416937D01*
X91891945Y-93403354D01*
X91892745Y-93404363D01*
X91948403Y-93373908D01*
X92019223Y-93378910D01*
X92041410Y-93389745D01*
X92070881Y-93407911D01*
X92184090Y-93477694D01*
X92191262Y-93482115D01*
X92248555Y-93501118D01*
X92352611Y-93535632D01*
X92352613Y-93535632D01*
X92359139Y-93537797D01*
X92365975Y-93538497D01*
X92365978Y-93538498D01*
X92409031Y-93542909D01*
X92463600Y-93548500D01*
X93464400Y-93548500D01*
X93467646Y-93548163D01*
X93467650Y-93548163D01*
X93563308Y-93538238D01*
X93563312Y-93538237D01*
X93570166Y-93537526D01*
X93576702Y-93535345D01*
X93576704Y-93535345D01*
X93713446Y-93489724D01*
X93737946Y-93481550D01*
X93882222Y-93392269D01*
X93885976Y-93389946D01*
X93954428Y-93371108D01*
X94022198Y-93392269D01*
X94041291Y-93407911D01*
X94042513Y-93409131D01*
X94042518Y-93409135D01*
X94047697Y-93414305D01*
X94053927Y-93418145D01*
X94053928Y-93418146D01*
X94191090Y-93502694D01*
X94198262Y-93507115D01*
X94223889Y-93515615D01*
X94359611Y-93560632D01*
X94359613Y-93560632D01*
X94366139Y-93562797D01*
X94372975Y-93563497D01*
X94372978Y-93563498D01*
X94416031Y-93567909D01*
X94470600Y-93573500D01*
X95521400Y-93573500D01*
X95524646Y-93573163D01*
X95524650Y-93573163D01*
X95620308Y-93563238D01*
X95620312Y-93563237D01*
X95627166Y-93562526D01*
X95633702Y-93560345D01*
X95633704Y-93560345D01*
X95767775Y-93515615D01*
X95794946Y-93506550D01*
X95945348Y-93413478D01*
X96070305Y-93288303D01*
X96075460Y-93279940D01*
X96159275Y-93143968D01*
X96159276Y-93143966D01*
X96163115Y-93137738D01*
X96218797Y-92969861D01*
X96229500Y-92865400D01*
X96229500Y-92601371D01*
X96249502Y-92533250D01*
X96266405Y-92512276D01*
X96710405Y-92068276D01*
X96772717Y-92034250D01*
X96843532Y-92039315D01*
G37*
%TD.AperFunction*%
%TA.AperFunction,Conductor*%
G36*
X99651012Y-91834147D02*
G01*
X99657595Y-91840276D01*
X101016230Y-93198911D01*
X101028616Y-93213323D01*
X101037149Y-93224918D01*
X101037154Y-93224923D01*
X101041492Y-93230818D01*
X101047070Y-93235557D01*
X101047073Y-93235560D01*
X101081768Y-93265035D01*
X101089284Y-93271965D01*
X101094979Y-93277660D01*
X101097861Y-93279940D01*
X101117251Y-93295281D01*
X101120655Y-93298072D01*
X101170703Y-93340591D01*
X101176285Y-93345333D01*
X101182801Y-93348661D01*
X101187850Y-93352028D01*
X101192979Y-93355195D01*
X101198716Y-93359734D01*
X101264875Y-93390655D01*
X101268769Y-93392558D01*
X101333808Y-93425769D01*
X101340916Y-93427508D01*
X101346559Y-93429607D01*
X101352322Y-93431524D01*
X101358950Y-93434622D01*
X101366112Y-93436112D01*
X101366113Y-93436112D01*
X101430412Y-93449486D01*
X101434696Y-93450456D01*
X101505610Y-93467808D01*
X101511212Y-93468156D01*
X101511215Y-93468156D01*
X101516764Y-93468500D01*
X101516762Y-93468536D01*
X101520755Y-93468775D01*
X101524947Y-93469149D01*
X101532115Y-93470640D01*
X101609520Y-93468546D01*
X101612928Y-93468500D01*
X106137413Y-93468500D01*
X106211472Y-93492563D01*
X106217902Y-93497235D01*
X106217909Y-93497239D01*
X106223248Y-93501118D01*
X106229276Y-93503802D01*
X106229278Y-93503803D01*
X106300123Y-93535345D01*
X106397712Y-93578794D01*
X106404167Y-93580166D01*
X106410328Y-93582168D01*
X106468934Y-93622242D01*
X106496571Y-93687638D01*
X106484464Y-93757595D01*
X106436458Y-93809901D01*
X106371392Y-93828001D01*
X106339331Y-93828001D01*
X106332510Y-93828371D01*
X106281648Y-93833895D01*
X106266396Y-93837521D01*
X106178230Y-93870573D01*
X106107422Y-93875756D01*
X106089770Y-93870573D01*
X106001606Y-93837522D01*
X105986351Y-93833895D01*
X105935486Y-93828369D01*
X105928672Y-93828000D01*
X105706115Y-93828000D01*
X105690876Y-93832475D01*
X105689671Y-93833865D01*
X105688000Y-93841548D01*
X105688000Y-94156053D01*
X105691797Y-94168983D01*
X105755169Y-94159870D01*
X105819750Y-94189362D01*
X105826334Y-94195492D01*
X106121192Y-94490349D01*
X106135130Y-94497960D01*
X106136966Y-94497828D01*
X106143581Y-94493577D01*
X106432400Y-94204758D01*
X106494712Y-94170732D01*
X106565527Y-94175797D01*
X106610590Y-94204758D01*
X106715242Y-94309410D01*
X106749268Y-94371722D01*
X106744203Y-94442537D01*
X106715242Y-94487600D01*
X106683654Y-94519188D01*
X106678145Y-94529277D01*
X106685446Y-94532000D01*
X107773884Y-94532000D01*
X107789123Y-94527525D01*
X107790328Y-94526135D01*
X107791999Y-94518452D01*
X107791999Y-94291331D01*
X107791629Y-94284510D01*
X107786105Y-94233648D01*
X107782479Y-94218396D01*
X107737324Y-94097946D01*
X107728786Y-94082351D01*
X107652285Y-93980276D01*
X107639724Y-93967715D01*
X107537649Y-93891214D01*
X107522054Y-93882676D01*
X107401606Y-93837522D01*
X107386351Y-93833895D01*
X107335486Y-93828369D01*
X107328672Y-93828000D01*
X106988610Y-93828000D01*
X106920489Y-93807998D01*
X106873996Y-93754342D01*
X106863892Y-93684068D01*
X106893386Y-93619488D01*
X106949675Y-93582166D01*
X106955825Y-93580168D01*
X106962288Y-93578794D01*
X107030330Y-93548500D01*
X107130722Y-93503803D01*
X107130724Y-93503802D01*
X107136752Y-93501118D01*
X107142097Y-93497235D01*
X107206481Y-93450457D01*
X107291253Y-93388866D01*
X107295675Y-93383955D01*
X107414621Y-93251852D01*
X107414622Y-93251851D01*
X107419040Y-93246944D01*
X107514527Y-93081556D01*
X107573542Y-92899928D01*
X107574662Y-92889277D01*
X107592814Y-92716565D01*
X107593504Y-92710000D01*
X107581067Y-92591670D01*
X107593839Y-92521832D01*
X107642341Y-92469986D01*
X107706377Y-92452500D01*
X107837629Y-92452500D01*
X107905750Y-92472502D01*
X107926724Y-92489405D01*
X110202595Y-94765276D01*
X110236621Y-94827588D01*
X110239500Y-94854371D01*
X110239500Y-96452930D01*
X110238067Y-96471880D01*
X110234801Y-96493349D01*
X110235394Y-96500641D01*
X110235394Y-96500644D01*
X110239085Y-96546018D01*
X110239500Y-96556233D01*
X110239500Y-96564293D01*
X110239925Y-96567937D01*
X110242789Y-96592507D01*
X110243222Y-96596882D01*
X110247845Y-96653712D01*
X110249140Y-96669637D01*
X110251396Y-96676601D01*
X110252587Y-96682560D01*
X110253971Y-96688415D01*
X110254818Y-96695681D01*
X110279735Y-96764327D01*
X110281152Y-96768455D01*
X110292514Y-96803526D01*
X110303649Y-96837899D01*
X110307445Y-96844154D01*
X110309951Y-96849628D01*
X110312670Y-96855058D01*
X110315167Y-96861937D01*
X110319180Y-96868057D01*
X110319180Y-96868058D01*
X110355186Y-96922976D01*
X110357523Y-96926680D01*
X110395405Y-96989107D01*
X110399121Y-96993315D01*
X110399122Y-96993316D01*
X110402803Y-96997484D01*
X110402776Y-96997508D01*
X110405429Y-97000500D01*
X110408132Y-97003733D01*
X110412144Y-97009852D01*
X110466864Y-97061689D01*
X110468383Y-97063128D01*
X110470825Y-97065506D01*
X112871875Y-99466556D01*
X112902613Y-99516714D01*
X112957473Y-99685556D01*
X112960776Y-99691278D01*
X112960777Y-99691279D01*
X112983566Y-99730750D01*
X113052960Y-99850944D01*
X113057378Y-99855851D01*
X113057379Y-99855852D01*
X113176325Y-99987955D01*
X113180747Y-99992866D01*
X113277169Y-100062921D01*
X113324953Y-100097638D01*
X113335248Y-100105118D01*
X113341276Y-100107802D01*
X113341278Y-100107803D01*
X113503681Y-100180109D01*
X113509712Y-100182794D01*
X113603112Y-100202647D01*
X113690056Y-100221128D01*
X113690061Y-100221128D01*
X113696513Y-100222500D01*
X113887487Y-100222500D01*
X113893939Y-100221128D01*
X113893944Y-100221128D01*
X113980887Y-100202647D01*
X114074288Y-100182794D01*
X114248251Y-100105341D01*
X114318618Y-100095907D01*
X114382915Y-100126014D01*
X114420729Y-100186102D01*
X114425500Y-100220448D01*
X114425500Y-100394134D01*
X114432255Y-100456316D01*
X114443672Y-100486771D01*
X114448855Y-100557577D01*
X114443674Y-100575224D01*
X114432255Y-100605684D01*
X114425500Y-100667866D01*
X114425500Y-101664134D01*
X114432255Y-101726316D01*
X114443672Y-101756771D01*
X114448855Y-101827577D01*
X114443674Y-101845224D01*
X114432255Y-101875684D01*
X114425500Y-101937866D01*
X114425500Y-102934134D01*
X114432255Y-102996316D01*
X114443672Y-103026771D01*
X114448855Y-103097577D01*
X114443674Y-103115224D01*
X114432255Y-103145684D01*
X114425500Y-103207866D01*
X114425500Y-104204134D01*
X114432255Y-104266316D01*
X114443672Y-104296771D01*
X114448855Y-104367577D01*
X114443674Y-104385224D01*
X114432255Y-104415684D01*
X114425500Y-104477866D01*
X114425500Y-104841500D01*
X114405498Y-104909621D01*
X114351842Y-104956114D01*
X114299500Y-104967500D01*
X113420866Y-104967500D01*
X113358684Y-104974255D01*
X113328229Y-104985672D01*
X113257423Y-104990855D01*
X113239776Y-104985674D01*
X113209316Y-104974255D01*
X113147134Y-104967500D01*
X112150866Y-104967500D01*
X112088684Y-104974255D01*
X112058229Y-104985672D01*
X111987423Y-104990855D01*
X111969776Y-104985674D01*
X111939316Y-104974255D01*
X111877134Y-104967500D01*
X110880866Y-104967500D01*
X110818684Y-104974255D01*
X110788229Y-104985672D01*
X110717423Y-104990855D01*
X110699776Y-104985674D01*
X110669316Y-104974255D01*
X110607134Y-104967500D01*
X109610866Y-104967500D01*
X109548684Y-104974255D01*
X109518229Y-104985672D01*
X109447423Y-104990855D01*
X109429776Y-104985674D01*
X109399316Y-104974255D01*
X109337134Y-104967500D01*
X108340866Y-104967500D01*
X108278684Y-104974255D01*
X108248229Y-104985672D01*
X108177423Y-104990855D01*
X108159776Y-104985674D01*
X108129316Y-104974255D01*
X108067134Y-104967500D01*
X107070866Y-104967500D01*
X107008684Y-104974255D01*
X106978229Y-104985672D01*
X106907423Y-104990855D01*
X106889776Y-104985674D01*
X106859316Y-104974255D01*
X106797134Y-104967500D01*
X105800866Y-104967500D01*
X105738684Y-104974255D01*
X105708229Y-104985672D01*
X105637423Y-104990855D01*
X105619776Y-104985674D01*
X105589316Y-104974255D01*
X105527134Y-104967500D01*
X104530866Y-104967500D01*
X104468684Y-104974255D01*
X104438229Y-104985672D01*
X104367423Y-104990855D01*
X104349776Y-104985674D01*
X104319316Y-104974255D01*
X104257134Y-104967500D01*
X103260866Y-104967500D01*
X103198684Y-104974255D01*
X103168229Y-104985672D01*
X103097423Y-104990855D01*
X103079776Y-104985674D01*
X103049316Y-104974255D01*
X102987134Y-104967500D01*
X101990866Y-104967500D01*
X101928684Y-104974255D01*
X101898229Y-104985672D01*
X101827423Y-104990855D01*
X101809776Y-104985674D01*
X101779316Y-104974255D01*
X101717134Y-104967500D01*
X100720866Y-104967500D01*
X100658684Y-104974255D01*
X100628229Y-104985672D01*
X100557423Y-104990855D01*
X100539776Y-104985674D01*
X100509316Y-104974255D01*
X100447134Y-104967500D01*
X99568500Y-104967500D01*
X99500379Y-104947498D01*
X99453886Y-104893842D01*
X99442500Y-104841500D01*
X99442500Y-104477866D01*
X99435745Y-104415684D01*
X99424328Y-104385229D01*
X99419145Y-104314423D01*
X99424326Y-104296776D01*
X99435745Y-104266316D01*
X99442500Y-104204134D01*
X99442500Y-103317831D01*
X99462502Y-103249710D01*
X99516158Y-103203217D01*
X99553910Y-103192679D01*
X99566520Y-103191209D01*
X99570882Y-103190778D01*
X99636339Y-103185454D01*
X99636342Y-103185453D01*
X99643637Y-103184860D01*
X99650601Y-103182604D01*
X99656560Y-103181413D01*
X99662415Y-103180029D01*
X99669681Y-103179182D01*
X99738327Y-103154265D01*
X99742455Y-103152848D01*
X99804936Y-103132607D01*
X99804938Y-103132606D01*
X99811899Y-103130351D01*
X99818154Y-103126555D01*
X99823628Y-103124049D01*
X99829058Y-103121330D01*
X99835937Y-103118833D01*
X99896976Y-103078814D01*
X99900680Y-103076477D01*
X99963107Y-103038595D01*
X99971484Y-103031197D01*
X99971507Y-103031224D01*
X99974502Y-103028569D01*
X99977732Y-103025869D01*
X99983852Y-103021856D01*
X99988883Y-103016546D01*
X99989284Y-103016210D01*
X100043906Y-102989629D01*
X100056749Y-102986899D01*
X100104288Y-102976794D01*
X100172122Y-102946593D01*
X100272722Y-102901803D01*
X100272724Y-102901802D01*
X100278752Y-102899118D01*
X100433253Y-102786866D01*
X100561040Y-102644944D01*
X100623455Y-102536839D01*
X100653223Y-102485279D01*
X100653224Y-102485278D01*
X100656527Y-102479556D01*
X100715542Y-102297928D01*
X100717037Y-102283710D01*
X100734814Y-102114565D01*
X100735504Y-102108000D01*
X100724561Y-102003879D01*
X100716232Y-101924635D01*
X100716232Y-101924633D01*
X100715542Y-101918072D01*
X100656527Y-101736444D01*
X100561040Y-101571056D01*
X100433253Y-101429134D01*
X100334157Y-101357136D01*
X100284094Y-101320763D01*
X100284093Y-101320762D01*
X100278752Y-101316882D01*
X100272724Y-101314198D01*
X100272722Y-101314197D01*
X100110319Y-101241891D01*
X100110318Y-101241891D01*
X100104288Y-101239206D01*
X100010888Y-101219353D01*
X99923944Y-101200872D01*
X99923939Y-101200872D01*
X99917487Y-101199500D01*
X99726513Y-101199500D01*
X99720060Y-101200872D01*
X99720047Y-101200873D01*
X99594697Y-101227518D01*
X99523907Y-101222117D01*
X99467274Y-101179300D01*
X99442780Y-101112663D01*
X99442500Y-101104272D01*
X99442500Y-100667866D01*
X99435745Y-100605684D01*
X99424328Y-100575229D01*
X99419145Y-100504423D01*
X99424326Y-100486776D01*
X99435745Y-100456316D01*
X99442500Y-100394134D01*
X99442500Y-99397866D01*
X99435745Y-99335684D01*
X99424328Y-99305229D01*
X99419145Y-99234423D01*
X99424326Y-99216776D01*
X99435745Y-99186316D01*
X99442500Y-99124134D01*
X99442500Y-98127866D01*
X99437373Y-98080669D01*
X103076001Y-98080669D01*
X103076371Y-98087490D01*
X103081895Y-98138352D01*
X103085521Y-98153604D01*
X103130676Y-98274054D01*
X103139214Y-98289649D01*
X103215715Y-98391724D01*
X103228276Y-98404285D01*
X103330351Y-98480786D01*
X103345946Y-98489324D01*
X103466394Y-98534478D01*
X103481649Y-98538105D01*
X103532514Y-98543631D01*
X103539328Y-98544000D01*
X103761885Y-98544000D01*
X103777124Y-98539525D01*
X103778329Y-98538135D01*
X103780000Y-98530452D01*
X103780000Y-98525884D01*
X104288000Y-98525884D01*
X104292475Y-98541123D01*
X104293865Y-98542328D01*
X104301548Y-98543999D01*
X104528669Y-98543999D01*
X104535490Y-98543629D01*
X104586352Y-98538105D01*
X104601604Y-98534479D01*
X104689770Y-98501427D01*
X104760578Y-98496244D01*
X104778230Y-98501427D01*
X104866394Y-98534478D01*
X104881649Y-98538105D01*
X104932514Y-98543631D01*
X104939328Y-98544000D01*
X105161885Y-98544000D01*
X105177124Y-98539525D01*
X105178329Y-98538135D01*
X105180000Y-98530452D01*
X105180000Y-98525884D01*
X105688000Y-98525884D01*
X105692475Y-98541123D01*
X105693865Y-98542328D01*
X105701548Y-98543999D01*
X105928669Y-98543999D01*
X105935490Y-98543629D01*
X105986352Y-98538105D01*
X106001604Y-98534479D01*
X106089770Y-98501427D01*
X106160578Y-98496244D01*
X106178230Y-98501427D01*
X106266394Y-98534478D01*
X106281649Y-98538105D01*
X106332514Y-98543631D01*
X106339328Y-98544000D01*
X106561885Y-98544000D01*
X106577124Y-98539525D01*
X106578329Y-98538135D01*
X106580000Y-98530452D01*
X106580000Y-98525884D01*
X107088000Y-98525884D01*
X107092475Y-98541123D01*
X107093865Y-98542328D01*
X107101548Y-98543999D01*
X107328669Y-98543999D01*
X107335490Y-98543629D01*
X107386352Y-98538105D01*
X107401604Y-98534479D01*
X107522054Y-98489324D01*
X107537649Y-98480786D01*
X107639724Y-98404285D01*
X107652285Y-98391724D01*
X107728786Y-98289649D01*
X107737324Y-98274054D01*
X107782478Y-98153606D01*
X107786105Y-98138351D01*
X107791631Y-98087486D01*
X107792000Y-98080672D01*
X107792000Y-97858115D01*
X107787525Y-97842876D01*
X107786135Y-97841671D01*
X107778452Y-97840000D01*
X107106115Y-97840000D01*
X107090876Y-97844475D01*
X107089671Y-97845865D01*
X107088000Y-97853548D01*
X107088000Y-98525884D01*
X106580000Y-98525884D01*
X106580000Y-98215947D01*
X106576203Y-98203017D01*
X106512831Y-98212130D01*
X106448250Y-98182638D01*
X106441666Y-98176508D01*
X106146808Y-97881651D01*
X106132870Y-97874040D01*
X106131034Y-97874172D01*
X106124422Y-97878421D01*
X105826618Y-98176224D01*
X105764306Y-98210249D01*
X105693490Y-98205184D01*
X105691110Y-98204097D01*
X105688000Y-98212436D01*
X105688000Y-98525884D01*
X105180000Y-98525884D01*
X105180000Y-98215947D01*
X105176203Y-98203017D01*
X105112831Y-98212130D01*
X105048250Y-98182638D01*
X105041666Y-98176508D01*
X104746808Y-97881651D01*
X104732870Y-97874040D01*
X104731034Y-97874172D01*
X104724422Y-97878421D01*
X104426618Y-98176224D01*
X104364306Y-98210249D01*
X104293490Y-98205184D01*
X104291110Y-98204097D01*
X104288000Y-98212436D01*
X104288000Y-98525884D01*
X103780000Y-98525884D01*
X103780000Y-97858115D01*
X103775525Y-97842876D01*
X103774135Y-97841671D01*
X103766452Y-97840000D01*
X103094116Y-97840000D01*
X103078877Y-97844475D01*
X103077672Y-97845865D01*
X103076001Y-97853548D01*
X103076001Y-98080669D01*
X99437373Y-98080669D01*
X99435745Y-98065684D01*
X99424328Y-98035229D01*
X99419145Y-97964423D01*
X99424326Y-97946776D01*
X99435745Y-97916316D01*
X99442500Y-97854134D01*
X99442500Y-97313885D01*
X103076000Y-97313885D01*
X103080475Y-97329124D01*
X103081865Y-97330329D01*
X103089548Y-97332000D01*
X103404053Y-97332000D01*
X103416983Y-97328203D01*
X103407870Y-97264831D01*
X103437362Y-97200250D01*
X103443492Y-97193666D01*
X103738349Y-96898808D01*
X103744726Y-96887130D01*
X104322041Y-96887130D01*
X104322172Y-96888967D01*
X104326420Y-96895577D01*
X104393919Y-96963077D01*
X104721192Y-97290349D01*
X104735130Y-97297960D01*
X104736966Y-97297828D01*
X104743578Y-97293579D01*
X105074081Y-96963077D01*
X105138347Y-96898811D01*
X105144725Y-96887130D01*
X105722041Y-96887130D01*
X105722172Y-96888967D01*
X105726420Y-96895577D01*
X105793919Y-96963077D01*
X106121192Y-97290349D01*
X106135130Y-97297960D01*
X106136966Y-97297828D01*
X106143578Y-97293579D01*
X106474081Y-96963077D01*
X106538347Y-96898811D01*
X106544725Y-96887130D01*
X107122040Y-96887130D01*
X107122172Y-96888966D01*
X107126421Y-96895578D01*
X107424224Y-97193382D01*
X107458249Y-97255694D01*
X107453184Y-97326510D01*
X107452097Y-97328890D01*
X107460436Y-97332000D01*
X107773884Y-97332000D01*
X107789123Y-97327525D01*
X107790328Y-97326135D01*
X107791999Y-97318452D01*
X107791999Y-97091331D01*
X107791629Y-97084510D01*
X107786105Y-97033648D01*
X107782479Y-97018396D01*
X107749427Y-96930230D01*
X107744244Y-96859422D01*
X107749427Y-96841770D01*
X107782478Y-96753606D01*
X107786105Y-96738351D01*
X107791631Y-96687486D01*
X107792000Y-96680672D01*
X107792000Y-96458115D01*
X107787525Y-96442876D01*
X107786135Y-96441671D01*
X107778452Y-96440000D01*
X107463947Y-96440000D01*
X107451017Y-96443797D01*
X107460130Y-96507169D01*
X107430638Y-96571750D01*
X107424508Y-96578334D01*
X107129651Y-96873192D01*
X107122040Y-96887130D01*
X106544725Y-96887130D01*
X106545959Y-96884869D01*
X106545828Y-96883034D01*
X106541577Y-96876420D01*
X106214227Y-96549069D01*
X106146811Y-96481654D01*
X106132868Y-96474041D01*
X106131033Y-96474172D01*
X106124423Y-96478420D01*
X106053773Y-96549069D01*
X105729652Y-96873191D01*
X105722041Y-96887130D01*
X105144725Y-96887130D01*
X105145959Y-96884869D01*
X105145828Y-96883034D01*
X105141577Y-96876420D01*
X104814227Y-96549069D01*
X104746811Y-96481654D01*
X104732868Y-96474041D01*
X104731033Y-96474172D01*
X104724423Y-96478420D01*
X104653773Y-96549069D01*
X104329652Y-96873191D01*
X104322041Y-96887130D01*
X103744726Y-96887130D01*
X103745960Y-96884870D01*
X103745828Y-96883034D01*
X103741579Y-96876422D01*
X103443776Y-96578618D01*
X103409751Y-96516306D01*
X103414816Y-96445490D01*
X103415903Y-96443110D01*
X103407564Y-96440000D01*
X103094116Y-96440000D01*
X103078877Y-96444475D01*
X103077672Y-96445865D01*
X103076001Y-96453548D01*
X103076001Y-96680669D01*
X103076371Y-96687490D01*
X103081895Y-96738352D01*
X103085521Y-96753604D01*
X103118573Y-96841770D01*
X103123756Y-96912578D01*
X103118573Y-96930230D01*
X103085522Y-97018394D01*
X103081895Y-97033649D01*
X103076369Y-97084514D01*
X103076000Y-97091328D01*
X103076000Y-97313885D01*
X99442500Y-97313885D01*
X99442500Y-96909364D01*
X99462502Y-96841243D01*
X99516158Y-96794750D01*
X99529667Y-96789497D01*
X99533399Y-96788288D01*
X99557899Y-96780351D01*
X99564155Y-96776555D01*
X99569628Y-96774049D01*
X99575058Y-96771330D01*
X99581937Y-96768833D01*
X99628428Y-96738352D01*
X99642976Y-96728814D01*
X99646680Y-96726477D01*
X99709107Y-96688595D01*
X99717484Y-96681197D01*
X99717508Y-96681224D01*
X99720500Y-96678571D01*
X99723733Y-96675868D01*
X99729852Y-96671856D01*
X99783128Y-96615617D01*
X99785506Y-96613175D01*
X100232331Y-96166350D01*
X100295228Y-96132199D01*
X100351824Y-96120169D01*
X100351833Y-96120166D01*
X100358288Y-96118794D01*
X100364319Y-96116109D01*
X100526722Y-96043803D01*
X100526724Y-96043802D01*
X100532752Y-96041118D01*
X100687253Y-95928866D01*
X100700742Y-95913885D01*
X103076000Y-95913885D01*
X103080475Y-95929124D01*
X103081865Y-95930329D01*
X103089548Y-95932000D01*
X103404053Y-95932000D01*
X103416983Y-95928203D01*
X103407870Y-95864831D01*
X103437362Y-95800250D01*
X103443492Y-95793666D01*
X103738349Y-95498808D01*
X103744726Y-95487130D01*
X104322040Y-95487130D01*
X104322172Y-95488966D01*
X104326422Y-95495579D01*
X104371464Y-95540622D01*
X104371463Y-95540622D01*
X104371464Y-95540623D01*
X104721190Y-95890348D01*
X104735130Y-95897960D01*
X104736966Y-95897828D01*
X104743578Y-95893579D01*
X105096536Y-95540622D01*
X105138347Y-95498811D01*
X105144725Y-95487130D01*
X105722040Y-95487130D01*
X105722172Y-95488966D01*
X105726422Y-95495579D01*
X105771464Y-95540622D01*
X105771463Y-95540622D01*
X105771464Y-95540623D01*
X106121190Y-95890348D01*
X106135130Y-95897960D01*
X106136966Y-95897828D01*
X106143578Y-95893579D01*
X106496536Y-95540622D01*
X106538347Y-95498811D01*
X106544725Y-95487130D01*
X107122040Y-95487130D01*
X107122172Y-95488966D01*
X107126421Y-95495578D01*
X107424224Y-95793382D01*
X107458249Y-95855694D01*
X107453184Y-95926510D01*
X107452097Y-95928890D01*
X107460436Y-95932000D01*
X107773884Y-95932000D01*
X107789123Y-95927525D01*
X107790328Y-95926135D01*
X107791999Y-95918452D01*
X107791999Y-95691331D01*
X107791629Y-95684510D01*
X107786105Y-95633648D01*
X107782479Y-95618396D01*
X107749427Y-95530230D01*
X107744244Y-95459422D01*
X107749427Y-95441770D01*
X107782478Y-95353606D01*
X107786105Y-95338351D01*
X107791631Y-95287486D01*
X107792000Y-95280672D01*
X107792000Y-95058115D01*
X107787525Y-95042876D01*
X107786135Y-95041671D01*
X107778452Y-95040000D01*
X107463947Y-95040000D01*
X107451017Y-95043797D01*
X107460130Y-95107169D01*
X107430638Y-95171750D01*
X107424508Y-95178334D01*
X107129651Y-95473192D01*
X107122040Y-95487130D01*
X106544725Y-95487130D01*
X106545959Y-95484869D01*
X106545828Y-95483033D01*
X106541578Y-95476421D01*
X106190756Y-95125598D01*
X106146811Y-95081653D01*
X106132869Y-95074041D01*
X106131033Y-95074172D01*
X106124421Y-95078422D01*
X106077244Y-95125598D01*
X106077244Y-95125597D01*
X106077243Y-95125598D01*
X105729652Y-95473190D01*
X105722040Y-95487130D01*
X105144725Y-95487130D01*
X105145959Y-95484869D01*
X105145828Y-95483033D01*
X105141578Y-95476421D01*
X104790756Y-95125598D01*
X104746811Y-95081653D01*
X104732869Y-95074041D01*
X104731033Y-95074172D01*
X104724421Y-95078422D01*
X104677244Y-95125598D01*
X104677244Y-95125597D01*
X104677243Y-95125598D01*
X104329652Y-95473190D01*
X104322040Y-95487130D01*
X103744726Y-95487130D01*
X103745960Y-95484870D01*
X103745828Y-95483034D01*
X103741579Y-95476422D01*
X103443776Y-95178618D01*
X103409751Y-95116306D01*
X103414816Y-95045490D01*
X103415903Y-95043110D01*
X103407564Y-95040000D01*
X103094116Y-95040000D01*
X103078877Y-95044475D01*
X103077672Y-95045865D01*
X103076001Y-95053548D01*
X103076001Y-95280669D01*
X103076371Y-95287490D01*
X103081895Y-95338352D01*
X103085521Y-95353604D01*
X103118573Y-95441770D01*
X103123756Y-95512578D01*
X103118573Y-95530230D01*
X103085522Y-95618394D01*
X103081895Y-95633649D01*
X103076369Y-95684514D01*
X103076000Y-95691328D01*
X103076000Y-95913885D01*
X100700742Y-95913885D01*
X100787281Y-95817774D01*
X100810621Y-95791852D01*
X100810622Y-95791851D01*
X100815040Y-95786944D01*
X100874542Y-95683884D01*
X100907223Y-95627279D01*
X100907224Y-95627278D01*
X100910527Y-95621556D01*
X100969542Y-95439928D01*
X100970662Y-95429277D01*
X100988814Y-95256565D01*
X100989504Y-95250000D01*
X100981280Y-95171750D01*
X100970232Y-95066635D01*
X100970232Y-95066633D01*
X100969542Y-95060072D01*
X100910527Y-94878444D01*
X100896629Y-94854371D01*
X100832357Y-94743050D01*
X100815040Y-94713056D01*
X100789064Y-94684206D01*
X100691675Y-94576045D01*
X100691674Y-94576044D01*
X100687253Y-94571134D01*
X100608457Y-94513885D01*
X103076000Y-94513885D01*
X103080475Y-94529124D01*
X103081865Y-94530329D01*
X103089548Y-94532000D01*
X103761885Y-94532000D01*
X103777124Y-94527525D01*
X103778329Y-94526135D01*
X103780000Y-94518452D01*
X103780000Y-94156053D01*
X104288000Y-94156053D01*
X104291797Y-94168983D01*
X104355169Y-94159870D01*
X104419750Y-94189362D01*
X104426334Y-94195492D01*
X104721192Y-94490349D01*
X104735130Y-94497960D01*
X104736966Y-94497828D01*
X104743578Y-94493579D01*
X105041382Y-94195776D01*
X105103694Y-94161751D01*
X105174510Y-94166816D01*
X105176890Y-94167903D01*
X105180000Y-94159564D01*
X105180000Y-93846116D01*
X105175525Y-93830877D01*
X105174135Y-93829672D01*
X105166452Y-93828001D01*
X104939331Y-93828001D01*
X104932510Y-93828371D01*
X104881648Y-93833895D01*
X104866396Y-93837521D01*
X104778230Y-93870573D01*
X104707422Y-93875756D01*
X104689770Y-93870573D01*
X104601606Y-93837522D01*
X104586351Y-93833895D01*
X104535486Y-93828369D01*
X104528672Y-93828000D01*
X104306115Y-93828000D01*
X104290876Y-93832475D01*
X104289671Y-93833865D01*
X104288000Y-93841548D01*
X104288000Y-94156053D01*
X103780000Y-94156053D01*
X103780000Y-93846116D01*
X103775525Y-93830877D01*
X103774135Y-93829672D01*
X103766452Y-93828001D01*
X103539331Y-93828001D01*
X103532510Y-93828371D01*
X103481648Y-93833895D01*
X103466396Y-93837521D01*
X103345946Y-93882676D01*
X103330351Y-93891214D01*
X103228276Y-93967715D01*
X103215715Y-93980276D01*
X103139214Y-94082351D01*
X103130676Y-94097946D01*
X103085522Y-94218394D01*
X103081895Y-94233649D01*
X103076369Y-94284514D01*
X103076000Y-94291328D01*
X103076000Y-94513885D01*
X100608457Y-94513885D01*
X100576654Y-94490779D01*
X100538094Y-94462763D01*
X100538093Y-94462762D01*
X100532752Y-94458882D01*
X100526724Y-94456198D01*
X100526722Y-94456197D01*
X100364319Y-94383891D01*
X100364318Y-94383891D01*
X100358288Y-94381206D01*
X100264888Y-94361353D01*
X100177944Y-94342872D01*
X100177939Y-94342872D01*
X100171487Y-94341500D01*
X99980513Y-94341500D01*
X99974061Y-94342872D01*
X99974056Y-94342872D01*
X99887112Y-94361353D01*
X99793712Y-94381206D01*
X99787682Y-94383891D01*
X99787681Y-94383891D01*
X99619749Y-94458659D01*
X99549382Y-94468093D01*
X99485085Y-94437986D01*
X99447271Y-94377898D01*
X99442500Y-94343552D01*
X99442500Y-94317866D01*
X99435745Y-94255684D01*
X99424328Y-94225229D01*
X99419145Y-94154423D01*
X99424326Y-94136776D01*
X99435745Y-94106316D01*
X99442500Y-94044134D01*
X99442500Y-93047866D01*
X99435745Y-92985684D01*
X99424328Y-92955229D01*
X99419145Y-92884423D01*
X99424326Y-92866776D01*
X99435745Y-92836316D01*
X99442500Y-92774134D01*
X99442500Y-91929371D01*
X99462502Y-91861250D01*
X99516158Y-91814757D01*
X99586432Y-91804653D01*
X99651012Y-91834147D01*
G37*
%TD.AperFunction*%
%TA.AperFunction,Conductor*%
G36*
X117109102Y-95323917D02*
G01*
X117137627Y-95345308D01*
X117745449Y-95953130D01*
X117779475Y-96015442D01*
X117781641Y-96055613D01*
X117763251Y-96227695D01*
X117763548Y-96232848D01*
X117763548Y-96232851D01*
X117775711Y-96443797D01*
X117776110Y-96450715D01*
X117777247Y-96455761D01*
X117777248Y-96455767D01*
X117790892Y-96516306D01*
X117825222Y-96668639D01*
X117873806Y-96788288D01*
X117903712Y-96861937D01*
X117909266Y-96875616D01*
X117921498Y-96895577D01*
X117983947Y-96997484D01*
X118025987Y-97066088D01*
X118172250Y-97234938D01*
X118344126Y-97377632D01*
X118414595Y-97418811D01*
X118417445Y-97420476D01*
X118466169Y-97472114D01*
X118479240Y-97541897D01*
X118452509Y-97607669D01*
X118412055Y-97641027D01*
X118399607Y-97647507D01*
X118395474Y-97650610D01*
X118395471Y-97650612D01*
X118371247Y-97668800D01*
X118220965Y-97781635D01*
X118217393Y-97785373D01*
X118132535Y-97874172D01*
X118066629Y-97943138D01*
X117940743Y-98127680D01*
X117846688Y-98330305D01*
X117786989Y-98545570D01*
X117763251Y-98767695D01*
X117776110Y-98990715D01*
X117777247Y-98995760D01*
X117777966Y-99000877D01*
X117776518Y-99001081D01*
X117772398Y-99065274D01*
X117743119Y-99111200D01*
X117157595Y-99696724D01*
X117095283Y-99730750D01*
X117024468Y-99725685D01*
X116967632Y-99683138D01*
X116942821Y-99616618D01*
X116942500Y-99607629D01*
X116942500Y-99397866D01*
X116935745Y-99335684D01*
X116924328Y-99305229D01*
X116919145Y-99234423D01*
X116924326Y-99216776D01*
X116935745Y-99186316D01*
X116942500Y-99124134D01*
X116942500Y-98127866D01*
X116935745Y-98065684D01*
X116924328Y-98035229D01*
X116919145Y-97964423D01*
X116924326Y-97946776D01*
X116935745Y-97916316D01*
X116942500Y-97854134D01*
X116942500Y-96857866D01*
X116935745Y-96795684D01*
X116924328Y-96765229D01*
X116919145Y-96694423D01*
X116924326Y-96676776D01*
X116935745Y-96646316D01*
X116942500Y-96584134D01*
X116942500Y-95587866D01*
X116935745Y-95525684D01*
X116924328Y-95495229D01*
X116919145Y-95424423D01*
X116924328Y-95406770D01*
X116924329Y-95406769D01*
X116930550Y-95390172D01*
X116973192Y-95333409D01*
X117039753Y-95308709D01*
X117109102Y-95323917D01*
G37*
%TD.AperFunction*%
%TA.AperFunction,Conductor*%
G36*
X120591621Y-81036502D02*
G01*
X120638114Y-81090158D01*
X120649500Y-81142500D01*
X120649500Y-90004306D01*
X120629498Y-90072427D01*
X120575842Y-90118920D01*
X120505568Y-90129024D01*
X120440988Y-90099530D01*
X120422673Y-90079871D01*
X120344281Y-89975272D01*
X120331724Y-89962715D01*
X120229649Y-89886214D01*
X120214054Y-89877676D01*
X120093606Y-89832522D01*
X120078351Y-89828895D01*
X120027486Y-89823369D01*
X120020672Y-89823000D01*
X119398115Y-89823000D01*
X119382876Y-89827475D01*
X119381671Y-89828865D01*
X119380000Y-89836548D01*
X119380000Y-91309000D01*
X119359998Y-91377121D01*
X119306342Y-91423614D01*
X119254000Y-91435000D01*
X117786116Y-91435000D01*
X117770877Y-91439475D01*
X117749616Y-91464011D01*
X117740564Y-91480591D01*
X117678253Y-91514619D01*
X117651464Y-91517500D01*
X117068500Y-91517500D01*
X117000379Y-91497498D01*
X116953886Y-91443842D01*
X116942500Y-91391500D01*
X116942500Y-90908885D01*
X117768000Y-90908885D01*
X117772475Y-90924124D01*
X117773865Y-90925329D01*
X117781548Y-90927000D01*
X118853885Y-90927000D01*
X118869124Y-90922525D01*
X118870329Y-90921135D01*
X118872000Y-90913452D01*
X118872000Y-89841116D01*
X118867525Y-89825877D01*
X118866135Y-89824672D01*
X118858452Y-89823001D01*
X118231331Y-89823001D01*
X118224510Y-89823371D01*
X118173648Y-89828895D01*
X118158396Y-89832521D01*
X118037946Y-89877676D01*
X118022351Y-89886214D01*
X117920276Y-89962715D01*
X117907715Y-89975276D01*
X117831214Y-90077351D01*
X117822676Y-90092946D01*
X117777522Y-90213394D01*
X117773895Y-90228649D01*
X117768369Y-90279514D01*
X117768000Y-90286328D01*
X117768000Y-90908885D01*
X116942500Y-90908885D01*
X116942500Y-90507866D01*
X116935745Y-90445684D01*
X116924328Y-90415229D01*
X116919145Y-90344423D01*
X116924326Y-90326776D01*
X116935745Y-90296316D01*
X116942500Y-90234134D01*
X116942500Y-89237866D01*
X116935745Y-89175684D01*
X116924061Y-89144517D01*
X116918878Y-89073712D01*
X116924061Y-89056057D01*
X116932479Y-89033602D01*
X116936105Y-89018351D01*
X116941631Y-88967486D01*
X116942000Y-88960672D01*
X116942000Y-88738115D01*
X116937525Y-88722876D01*
X116936135Y-88721671D01*
X116928452Y-88720000D01*
X114444116Y-88720000D01*
X114428877Y-88724475D01*
X114427672Y-88725865D01*
X114426001Y-88733548D01*
X114426001Y-88960669D01*
X114426371Y-88967490D01*
X114431895Y-89018352D01*
X114435520Y-89033600D01*
X114443939Y-89056057D01*
X114449122Y-89126864D01*
X114443942Y-89144510D01*
X114432255Y-89175684D01*
X114425500Y-89237866D01*
X114425500Y-90234134D01*
X114432255Y-90296316D01*
X114443672Y-90326771D01*
X114448855Y-90397577D01*
X114443674Y-90415224D01*
X114432255Y-90445684D01*
X114425500Y-90507866D01*
X114425500Y-91504134D01*
X114432255Y-91566316D01*
X114443672Y-91596771D01*
X114448855Y-91667577D01*
X114443674Y-91685224D01*
X114432255Y-91715684D01*
X114425500Y-91777866D01*
X114425500Y-92774134D01*
X114432255Y-92836316D01*
X114443672Y-92866771D01*
X114448855Y-92937577D01*
X114443674Y-92955224D01*
X114432255Y-92985684D01*
X114425500Y-93047866D01*
X114425500Y-94044134D01*
X114432255Y-94106316D01*
X114443672Y-94136771D01*
X114448855Y-94207577D01*
X114443674Y-94225224D01*
X114432255Y-94255684D01*
X114425500Y-94317866D01*
X114425500Y-95314134D01*
X114432255Y-95376316D01*
X114443672Y-95406770D01*
X114448855Y-95477577D01*
X114443674Y-95495224D01*
X114432255Y-95525684D01*
X114425500Y-95587866D01*
X114425500Y-96584134D01*
X114432255Y-96646316D01*
X114443672Y-96676771D01*
X114448855Y-96747577D01*
X114443674Y-96765224D01*
X114432255Y-96795684D01*
X114425500Y-96857866D01*
X114425500Y-97854134D01*
X114432255Y-97916316D01*
X114443672Y-97946771D01*
X114448855Y-98017577D01*
X114443674Y-98035224D01*
X114432255Y-98065684D01*
X114425500Y-98127866D01*
X114425500Y-98407552D01*
X114405498Y-98475673D01*
X114351842Y-98522166D01*
X114281568Y-98532270D01*
X114248251Y-98522659D01*
X114080319Y-98447891D01*
X114080318Y-98447891D01*
X114074288Y-98445206D01*
X114067833Y-98443834D01*
X114067824Y-98443831D01*
X114011228Y-98431801D01*
X113948331Y-98397650D01*
X111793405Y-96242724D01*
X111759379Y-96180412D01*
X111756500Y-96153629D01*
X111756500Y-94555070D01*
X111757933Y-94536120D01*
X111760099Y-94521885D01*
X111760099Y-94521881D01*
X111761199Y-94514651D01*
X111759842Y-94497960D01*
X111756915Y-94461982D01*
X111756500Y-94451767D01*
X111756500Y-94443707D01*
X111753209Y-94415480D01*
X111752778Y-94411121D01*
X111750233Y-94379834D01*
X111746860Y-94338364D01*
X111744605Y-94331403D01*
X111743418Y-94325463D01*
X111742029Y-94319588D01*
X111741182Y-94312319D01*
X111716264Y-94243670D01*
X111714847Y-94239542D01*
X111694607Y-94177064D01*
X111694606Y-94177062D01*
X111692351Y-94170101D01*
X111688555Y-94163846D01*
X111686049Y-94158372D01*
X111683330Y-94152942D01*
X111680833Y-94146063D01*
X111671705Y-94132140D01*
X111640814Y-94085024D01*
X111638467Y-94081305D01*
X111600595Y-94018893D01*
X111593197Y-94010516D01*
X111593224Y-94010492D01*
X111590571Y-94007500D01*
X111587868Y-94004267D01*
X111583856Y-93998148D01*
X111527617Y-93944872D01*
X111525175Y-93942494D01*
X108787770Y-91205089D01*
X108775384Y-91190677D01*
X108766851Y-91179082D01*
X108766846Y-91179077D01*
X108762508Y-91173182D01*
X108756930Y-91168443D01*
X108756927Y-91168440D01*
X108722232Y-91138965D01*
X108714716Y-91132035D01*
X108709021Y-91126340D01*
X108702880Y-91121482D01*
X108686749Y-91108719D01*
X108683345Y-91105928D01*
X108633297Y-91063409D01*
X108633295Y-91063408D01*
X108627715Y-91058667D01*
X108621199Y-91055339D01*
X108616150Y-91051972D01*
X108611021Y-91048805D01*
X108605284Y-91044266D01*
X108539125Y-91013345D01*
X108535225Y-91011439D01*
X108470192Y-90978231D01*
X108463084Y-90976492D01*
X108457441Y-90974393D01*
X108451678Y-90972476D01*
X108445050Y-90969378D01*
X108373583Y-90954513D01*
X108369299Y-90953543D01*
X108333818Y-90944861D01*
X108298390Y-90936192D01*
X108292788Y-90935844D01*
X108292785Y-90935844D01*
X108287236Y-90935500D01*
X108287238Y-90935464D01*
X108283245Y-90935225D01*
X108279053Y-90934851D01*
X108271885Y-90933360D01*
X108205675Y-90935151D01*
X108194479Y-90935454D01*
X108191072Y-90935500D01*
X105318432Y-90935500D01*
X105250311Y-90915498D01*
X105229337Y-90898595D01*
X103577831Y-89247089D01*
X103565445Y-89232677D01*
X103556912Y-89221082D01*
X103556907Y-89221077D01*
X103552569Y-89215182D01*
X103546991Y-89210443D01*
X103546988Y-89210440D01*
X103512293Y-89180965D01*
X103504777Y-89174035D01*
X103499082Y-89168340D01*
X103484453Y-89156766D01*
X103476810Y-89150719D01*
X103473406Y-89147928D01*
X103423358Y-89105409D01*
X103423356Y-89105408D01*
X103417776Y-89100667D01*
X103411260Y-89097339D01*
X103406211Y-89093972D01*
X103401082Y-89090805D01*
X103395345Y-89086266D01*
X103329186Y-89055345D01*
X103325286Y-89053439D01*
X103260253Y-89020231D01*
X103253145Y-89018492D01*
X103247502Y-89016393D01*
X103241739Y-89014476D01*
X103235111Y-89011378D01*
X103163644Y-88996513D01*
X103159360Y-88995543D01*
X103088451Y-88978192D01*
X103082849Y-88977844D01*
X103082846Y-88977844D01*
X103077297Y-88977500D01*
X103077299Y-88977464D01*
X103073306Y-88977225D01*
X103069114Y-88976851D01*
X103061946Y-88975360D01*
X102995736Y-88977151D01*
X102984540Y-88977454D01*
X102981133Y-88977500D01*
X99568000Y-88977500D01*
X99499879Y-88957498D01*
X99453386Y-88903842D01*
X99442000Y-88851500D01*
X99442000Y-88738115D01*
X99437525Y-88722876D01*
X99436135Y-88721671D01*
X99428452Y-88720000D01*
X98056000Y-88720000D01*
X97987879Y-88699998D01*
X97941386Y-88646342D01*
X97930000Y-88594000D01*
X97930000Y-88193885D01*
X98438000Y-88193885D01*
X98442475Y-88209124D01*
X98443865Y-88210329D01*
X98451548Y-88212000D01*
X99423884Y-88212000D01*
X99439123Y-88207525D01*
X99440328Y-88206135D01*
X99441999Y-88198452D01*
X99441999Y-88193885D01*
X114426000Y-88193885D01*
X114430475Y-88209124D01*
X114431865Y-88210329D01*
X114439548Y-88212000D01*
X115411885Y-88212000D01*
X115427124Y-88207525D01*
X115428329Y-88206135D01*
X115430000Y-88198452D01*
X115430000Y-88193885D01*
X115938000Y-88193885D01*
X115942475Y-88209124D01*
X115943865Y-88210329D01*
X115951548Y-88212000D01*
X116923884Y-88212000D01*
X116939123Y-88207525D01*
X116940328Y-88206135D01*
X116941999Y-88198452D01*
X116941999Y-87971331D01*
X116941629Y-87964510D01*
X116936105Y-87913648D01*
X116932479Y-87898396D01*
X116887324Y-87777946D01*
X116878786Y-87762351D01*
X116802285Y-87660276D01*
X116789724Y-87647715D01*
X116687649Y-87571214D01*
X116672054Y-87562676D01*
X116551606Y-87517522D01*
X116536351Y-87513895D01*
X116485486Y-87508369D01*
X116478672Y-87508000D01*
X115956115Y-87508000D01*
X115940876Y-87512475D01*
X115939671Y-87513865D01*
X115938000Y-87521548D01*
X115938000Y-88193885D01*
X115430000Y-88193885D01*
X115430000Y-87526116D01*
X115425525Y-87510877D01*
X115424135Y-87509672D01*
X115416452Y-87508001D01*
X114889331Y-87508001D01*
X114882510Y-87508371D01*
X114831648Y-87513895D01*
X114816396Y-87517521D01*
X114695946Y-87562676D01*
X114680351Y-87571214D01*
X114578276Y-87647715D01*
X114565715Y-87660276D01*
X114489214Y-87762351D01*
X114480676Y-87777946D01*
X114435522Y-87898394D01*
X114431895Y-87913649D01*
X114426369Y-87964514D01*
X114426000Y-87971328D01*
X114426000Y-88193885D01*
X99441999Y-88193885D01*
X99441999Y-87971331D01*
X99441629Y-87964510D01*
X99436105Y-87913648D01*
X99432479Y-87898396D01*
X99387324Y-87777946D01*
X99378786Y-87762351D01*
X99302285Y-87660276D01*
X99289724Y-87647715D01*
X99187649Y-87571214D01*
X99172054Y-87562676D01*
X99051606Y-87517522D01*
X99036351Y-87513895D01*
X98985486Y-87508369D01*
X98978672Y-87508000D01*
X98456115Y-87508000D01*
X98440876Y-87512475D01*
X98439671Y-87513865D01*
X98438000Y-87521548D01*
X98438000Y-88193885D01*
X97930000Y-88193885D01*
X97930000Y-87526116D01*
X97925525Y-87510877D01*
X97924135Y-87509672D01*
X97916452Y-87508001D01*
X97389331Y-87508001D01*
X97382510Y-87508371D01*
X97331648Y-87513895D01*
X97316396Y-87517521D01*
X97195946Y-87562676D01*
X97180351Y-87571214D01*
X97078276Y-87647715D01*
X97065715Y-87660276D01*
X96989214Y-87762351D01*
X96980676Y-87777946D01*
X96935522Y-87898394D01*
X96931894Y-87913650D01*
X96928395Y-87945867D01*
X96901154Y-88011429D01*
X96842792Y-88051857D01*
X96771838Y-88054313D01*
X96714037Y-88021356D01*
X96341770Y-87649089D01*
X96329384Y-87634677D01*
X96320851Y-87623082D01*
X96320846Y-87623077D01*
X96316508Y-87617182D01*
X96310930Y-87612443D01*
X96310927Y-87612440D01*
X96276232Y-87582965D01*
X96268716Y-87576035D01*
X96263021Y-87570340D01*
X96246736Y-87557456D01*
X96240749Y-87552719D01*
X96237345Y-87549928D01*
X96187297Y-87507409D01*
X96187295Y-87507408D01*
X96181715Y-87502667D01*
X96175199Y-87499339D01*
X96170150Y-87495972D01*
X96165021Y-87492805D01*
X96159284Y-87488266D01*
X96093125Y-87457345D01*
X96089225Y-87455439D01*
X96024192Y-87422231D01*
X96017084Y-87420492D01*
X96011441Y-87418393D01*
X96005678Y-87416476D01*
X95999050Y-87413378D01*
X95927583Y-87398513D01*
X95923299Y-87397543D01*
X95852390Y-87380192D01*
X95846788Y-87379844D01*
X95846785Y-87379844D01*
X95841236Y-87379500D01*
X95841238Y-87379464D01*
X95837245Y-87379225D01*
X95833053Y-87378851D01*
X95825885Y-87377360D01*
X95762120Y-87379085D01*
X95748479Y-87379454D01*
X95745072Y-87379500D01*
X93793070Y-87379500D01*
X93774120Y-87378067D01*
X93759885Y-87375901D01*
X93759881Y-87375901D01*
X93752651Y-87374801D01*
X93745359Y-87375394D01*
X93745356Y-87375394D01*
X93699982Y-87379085D01*
X93689767Y-87379500D01*
X93681707Y-87379500D01*
X93678073Y-87379924D01*
X93678067Y-87379924D01*
X93665042Y-87381443D01*
X93653480Y-87382791D01*
X93649132Y-87383221D01*
X93576364Y-87389140D01*
X93569403Y-87391395D01*
X93563463Y-87392582D01*
X93557588Y-87393971D01*
X93550319Y-87394818D01*
X93481670Y-87419736D01*
X93477542Y-87421153D01*
X93415064Y-87441393D01*
X93415062Y-87441394D01*
X93408101Y-87443649D01*
X93401846Y-87447445D01*
X93396372Y-87449951D01*
X93390942Y-87452670D01*
X93384063Y-87455167D01*
X93377943Y-87459180D01*
X93377942Y-87459180D01*
X93323024Y-87495186D01*
X93319320Y-87497523D01*
X93256893Y-87535405D01*
X93248516Y-87542803D01*
X93248492Y-87542776D01*
X93245500Y-87545429D01*
X93242267Y-87548132D01*
X93236148Y-87552144D01*
X93206951Y-87582965D01*
X93182872Y-87608383D01*
X93180494Y-87610825D01*
X92475089Y-88316230D01*
X92460677Y-88328616D01*
X92449082Y-88337149D01*
X92449077Y-88337154D01*
X92443182Y-88341492D01*
X92438443Y-88347070D01*
X92438440Y-88347073D01*
X92408965Y-88381768D01*
X92402035Y-88389284D01*
X92396340Y-88394979D01*
X92394060Y-88397861D01*
X92378719Y-88417251D01*
X92375928Y-88420655D01*
X92333409Y-88470703D01*
X92328667Y-88476285D01*
X92325339Y-88482801D01*
X92321972Y-88487850D01*
X92318805Y-88492979D01*
X92314266Y-88498716D01*
X92283345Y-88564875D01*
X92281442Y-88568769D01*
X92248231Y-88633808D01*
X92246492Y-88640916D01*
X92244393Y-88646559D01*
X92242476Y-88652322D01*
X92239378Y-88658950D01*
X92237888Y-88666112D01*
X92237888Y-88666113D01*
X92224514Y-88730412D01*
X92223544Y-88734696D01*
X92206192Y-88805610D01*
X92205844Y-88811212D01*
X92205844Y-88811215D01*
X92205500Y-88816762D01*
X92205500Y-88816764D01*
X92205464Y-88816762D01*
X92205225Y-88820755D01*
X92204851Y-88824947D01*
X92203360Y-88832115D01*
X92203884Y-88851500D01*
X92205454Y-88909521D01*
X92205500Y-88912928D01*
X92205500Y-89318689D01*
X92185498Y-89386810D01*
X92145803Y-89425833D01*
X92042024Y-89490054D01*
X91973573Y-89508892D01*
X91905803Y-89487731D01*
X91886709Y-89472089D01*
X91885487Y-89470869D01*
X91885482Y-89470865D01*
X91880303Y-89465695D01*
X91792897Y-89411817D01*
X91735968Y-89376725D01*
X91735966Y-89376724D01*
X91729738Y-89372885D01*
X91649995Y-89346436D01*
X91568389Y-89319368D01*
X91568387Y-89319368D01*
X91561861Y-89317203D01*
X91555025Y-89316503D01*
X91555022Y-89316502D01*
X91511969Y-89312091D01*
X91457400Y-89306500D01*
X90406600Y-89306500D01*
X90403354Y-89306837D01*
X90403350Y-89306837D01*
X90307692Y-89316762D01*
X90307688Y-89316763D01*
X90300834Y-89317474D01*
X90294298Y-89319655D01*
X90294296Y-89319655D01*
X90277928Y-89325116D01*
X90133054Y-89373450D01*
X89982652Y-89466522D01*
X89857695Y-89591697D01*
X89853857Y-89597924D01*
X89853855Y-89597926D01*
X89852051Y-89600854D01*
X89850295Y-89602434D01*
X89849317Y-89603673D01*
X89849105Y-89603506D01*
X89799281Y-89648350D01*
X89773771Y-89657364D01*
X89769089Y-89658471D01*
X89761819Y-89659318D01*
X89693171Y-89684236D01*
X89689035Y-89685655D01*
X89682823Y-89687667D01*
X89611854Y-89689629D01*
X89551090Y-89652909D01*
X89519824Y-89589168D01*
X89517999Y-89567798D01*
X89517999Y-89089331D01*
X89517629Y-89082510D01*
X89512105Y-89031648D01*
X89508479Y-89016396D01*
X89463324Y-88895946D01*
X89454786Y-88880351D01*
X89378285Y-88778276D01*
X89365724Y-88765715D01*
X89263649Y-88689214D01*
X89248054Y-88680676D01*
X89127606Y-88635522D01*
X89112351Y-88631895D01*
X89061486Y-88626369D01*
X89054672Y-88626000D01*
X86632115Y-88626000D01*
X86616876Y-88630475D01*
X86615671Y-88631865D01*
X86614000Y-88639548D01*
X86614000Y-88812632D01*
X86617237Y-88823657D01*
X86634886Y-88815597D01*
X86705159Y-88805492D01*
X86769741Y-88834984D01*
X86776325Y-88841115D01*
X87380115Y-89444905D01*
X87414141Y-89507217D01*
X87409076Y-89578032D01*
X87380115Y-89623095D01*
X87110000Y-89893210D01*
X86775223Y-90227988D01*
X86712911Y-90262014D01*
X86642096Y-90256949D01*
X86625741Y-90249480D01*
X86616723Y-90244556D01*
X86614000Y-90251857D01*
X86614000Y-92012632D01*
X86617237Y-92023657D01*
X86634886Y-92015597D01*
X86705159Y-92005492D01*
X86769741Y-92034984D01*
X86776325Y-92041115D01*
X87380115Y-92644905D01*
X87414141Y-92707217D01*
X87409076Y-92778032D01*
X87380115Y-92823095D01*
X87110000Y-93093210D01*
X86775223Y-93427988D01*
X86712911Y-93462014D01*
X86642096Y-93456949D01*
X86625741Y-93449480D01*
X86616723Y-93444556D01*
X86614000Y-93451857D01*
X86614000Y-93623884D01*
X86618475Y-93639123D01*
X86619865Y-93640328D01*
X86627548Y-93641999D01*
X88777500Y-93641999D01*
X88845621Y-93662001D01*
X88892114Y-93715657D01*
X88903500Y-93767999D01*
X88903500Y-94135629D01*
X88883498Y-94203750D01*
X88866595Y-94224724D01*
X87402724Y-95688595D01*
X87340412Y-95722621D01*
X87313629Y-95725500D01*
X87281866Y-95725500D01*
X87219684Y-95732255D01*
X87083295Y-95783385D01*
X87076112Y-95788768D01*
X87076109Y-95788770D01*
X87070147Y-95793239D01*
X87003641Y-95818086D01*
X86934258Y-95803033D01*
X86919019Y-95793239D01*
X86913648Y-95789214D01*
X86898054Y-95780676D01*
X86777606Y-95735522D01*
X86762351Y-95731895D01*
X86711486Y-95726369D01*
X86704672Y-95726000D01*
X86632115Y-95726000D01*
X86616876Y-95730475D01*
X86615671Y-95731865D01*
X86614000Y-95739548D01*
X86614000Y-97462000D01*
X86593998Y-97530121D01*
X86540342Y-97576614D01*
X86488000Y-97588000D01*
X86232000Y-97588000D01*
X86163879Y-97567998D01*
X86117386Y-97514342D01*
X86106000Y-97462000D01*
X86106000Y-95744116D01*
X86101525Y-95728877D01*
X86100135Y-95727672D01*
X86092452Y-95726001D01*
X86015331Y-95726001D01*
X86008510Y-95726371D01*
X85957648Y-95731895D01*
X85942396Y-95735521D01*
X85821946Y-95780676D01*
X85806352Y-95789214D01*
X85800981Y-95793239D01*
X85734474Y-95818086D01*
X85665092Y-95803032D01*
X85649853Y-95793239D01*
X85643891Y-95788770D01*
X85643888Y-95788768D01*
X85636705Y-95783385D01*
X85500316Y-95732255D01*
X85438134Y-95725500D01*
X84741866Y-95725500D01*
X84679684Y-95732255D01*
X84543295Y-95783385D01*
X84530565Y-95792926D01*
X84464061Y-95817774D01*
X84394678Y-95802722D01*
X84379441Y-95792930D01*
X84366705Y-95783385D01*
X84230316Y-95732255D01*
X84168134Y-95725500D01*
X83471866Y-95725500D01*
X83409684Y-95732255D01*
X83273295Y-95783385D01*
X83156739Y-95870739D01*
X83069385Y-95987295D01*
X83018255Y-96123684D01*
X83011500Y-96185866D01*
X83011500Y-98482134D01*
X83018255Y-98544316D01*
X83069385Y-98680705D01*
X83156739Y-98797261D01*
X83163919Y-98802642D01*
X83246688Y-98864674D01*
X83289203Y-98921533D01*
X83294229Y-98992352D01*
X83260169Y-99054645D01*
X83197838Y-99088635D01*
X83171123Y-99091500D01*
X83065600Y-99091500D01*
X83062354Y-99091837D01*
X83062350Y-99091837D01*
X82966692Y-99101762D01*
X82966688Y-99101763D01*
X82959834Y-99102474D01*
X82953298Y-99104655D01*
X82953296Y-99104655D01*
X82821194Y-99148728D01*
X82792054Y-99158450D01*
X82734585Y-99194013D01*
X82700803Y-99214918D01*
X82632351Y-99233756D01*
X82564581Y-99212595D01*
X82519010Y-99158154D01*
X82508500Y-99107774D01*
X82508500Y-93178669D01*
X83202001Y-93178669D01*
X83202371Y-93185490D01*
X83207895Y-93236352D01*
X83211521Y-93251604D01*
X83256676Y-93372054D01*
X83265214Y-93387649D01*
X83341715Y-93489724D01*
X83354276Y-93502285D01*
X83456351Y-93578786D01*
X83471946Y-93587324D01*
X83592394Y-93632478D01*
X83607649Y-93636105D01*
X83658514Y-93641631D01*
X83665328Y-93642000D01*
X86087885Y-93642000D01*
X86103124Y-93637525D01*
X86104329Y-93636135D01*
X86106000Y-93628452D01*
X86106000Y-93455368D01*
X86102763Y-93444343D01*
X86085114Y-93452403D01*
X86014841Y-93462508D01*
X85950259Y-93433016D01*
X85943675Y-93426885D01*
X85339885Y-92823095D01*
X85305859Y-92760783D01*
X85307694Y-92735130D01*
X85974408Y-92735130D01*
X85974539Y-92736966D01*
X85978789Y-92743579D01*
X86093192Y-92857981D01*
X86103276Y-92863487D01*
X86106000Y-92856183D01*
X86106000Y-92852674D01*
X86614000Y-92852674D01*
X86617237Y-92863699D01*
X86624328Y-92860461D01*
X86737981Y-92746808D01*
X86745592Y-92732870D01*
X86745461Y-92731034D01*
X86741211Y-92724421D01*
X86626808Y-92610019D01*
X86616724Y-92604513D01*
X86614000Y-92611817D01*
X86614000Y-92852674D01*
X86106000Y-92852674D01*
X86106000Y-92615326D01*
X86102763Y-92604301D01*
X86095672Y-92607539D01*
X85982019Y-92721192D01*
X85974408Y-92735130D01*
X85307694Y-92735130D01*
X85310924Y-92689968D01*
X85339885Y-92644905D01*
X85610000Y-92374790D01*
X85944777Y-92040012D01*
X86007089Y-92005986D01*
X86077904Y-92011051D01*
X86094259Y-92018520D01*
X86103277Y-92023444D01*
X86106000Y-92016143D01*
X86106000Y-91406115D01*
X86101525Y-91390876D01*
X86100135Y-91389671D01*
X86092452Y-91388000D01*
X83220116Y-91388000D01*
X83204877Y-91392475D01*
X83203672Y-91393865D01*
X83202001Y-91401548D01*
X83202001Y-93178669D01*
X82508500Y-93178669D01*
X82508500Y-90861885D01*
X83202000Y-90861885D01*
X83206475Y-90877124D01*
X83207865Y-90878329D01*
X83215548Y-90880000D01*
X86087885Y-90880000D01*
X86103124Y-90875525D01*
X86104329Y-90874135D01*
X86106000Y-90866452D01*
X86106000Y-90255368D01*
X86102763Y-90244343D01*
X86085114Y-90252403D01*
X86014841Y-90262508D01*
X85950259Y-90233016D01*
X85943675Y-90226885D01*
X85339885Y-89623095D01*
X85305859Y-89560783D01*
X85307694Y-89535130D01*
X85974408Y-89535130D01*
X85974539Y-89536966D01*
X85978789Y-89543579D01*
X86093192Y-89657981D01*
X86103276Y-89663487D01*
X86106000Y-89656183D01*
X86106000Y-89652674D01*
X86614000Y-89652674D01*
X86617237Y-89663699D01*
X86624328Y-89660461D01*
X86737981Y-89546808D01*
X86745592Y-89532870D01*
X86745461Y-89531034D01*
X86741211Y-89524421D01*
X86626808Y-89410019D01*
X86616724Y-89404513D01*
X86614000Y-89411817D01*
X86614000Y-89652674D01*
X86106000Y-89652674D01*
X86106000Y-89415326D01*
X86102763Y-89404301D01*
X86095672Y-89407539D01*
X85982019Y-89521192D01*
X85974408Y-89535130D01*
X85307694Y-89535130D01*
X85310924Y-89489968D01*
X85339885Y-89444905D01*
X85610000Y-89174790D01*
X85944777Y-88840012D01*
X86007089Y-88805986D01*
X86077904Y-88811051D01*
X86094259Y-88818520D01*
X86103277Y-88823444D01*
X86106000Y-88816143D01*
X86106000Y-88644116D01*
X86101525Y-88628877D01*
X86100135Y-88627672D01*
X86092452Y-88626001D01*
X83665331Y-88626001D01*
X83658510Y-88626371D01*
X83607648Y-88631895D01*
X83592396Y-88635521D01*
X83471946Y-88680676D01*
X83456351Y-88689214D01*
X83354276Y-88765715D01*
X83341715Y-88778276D01*
X83265214Y-88880351D01*
X83256676Y-88895946D01*
X83211522Y-89016394D01*
X83207895Y-89031649D01*
X83202369Y-89082514D01*
X83202000Y-89089328D01*
X83202000Y-90861885D01*
X82508500Y-90861885D01*
X82508500Y-84460703D01*
X83742743Y-84460703D01*
X83780268Y-84745734D01*
X83856129Y-85023036D01*
X83968923Y-85287476D01*
X84116561Y-85534161D01*
X84296313Y-85758528D01*
X84504851Y-85956423D01*
X84738317Y-86124186D01*
X84742112Y-86126195D01*
X84742113Y-86126196D01*
X84763869Y-86137715D01*
X84992392Y-86258712D01*
X85262373Y-86357511D01*
X85543264Y-86418755D01*
X85571841Y-86421004D01*
X85766282Y-86436307D01*
X85766291Y-86436307D01*
X85768739Y-86436500D01*
X85924271Y-86436500D01*
X85926407Y-86436354D01*
X85926418Y-86436354D01*
X86134548Y-86422165D01*
X86134554Y-86422164D01*
X86138825Y-86421873D01*
X86143020Y-86421004D01*
X86143022Y-86421004D01*
X86279584Y-86392723D01*
X86420342Y-86363574D01*
X86691343Y-86267607D01*
X86946812Y-86135750D01*
X86950313Y-86133289D01*
X86950317Y-86133287D01*
X87064417Y-86053096D01*
X87182023Y-85970441D01*
X87392622Y-85774740D01*
X87574713Y-85552268D01*
X87724927Y-85307142D01*
X87840483Y-85043898D01*
X87919244Y-84767406D01*
X87959751Y-84482784D01*
X87959845Y-84464951D01*
X87961235Y-84199583D01*
X87961235Y-84199576D01*
X87961257Y-84195297D01*
X87923732Y-83910266D01*
X87847871Y-83632964D01*
X87735077Y-83368524D01*
X87587439Y-83121839D01*
X87407687Y-82897472D01*
X87199149Y-82699577D01*
X86965683Y-82531814D01*
X86943843Y-82520250D01*
X86920654Y-82507972D01*
X86711608Y-82397288D01*
X86441627Y-82298489D01*
X86160736Y-82237245D01*
X86129685Y-82234801D01*
X85937718Y-82219693D01*
X85937709Y-82219693D01*
X85935261Y-82219500D01*
X85779729Y-82219500D01*
X85777593Y-82219646D01*
X85777582Y-82219646D01*
X85569452Y-82233835D01*
X85569446Y-82233836D01*
X85565175Y-82234127D01*
X85560980Y-82234996D01*
X85560978Y-82234996D01*
X85424417Y-82263276D01*
X85283658Y-82292426D01*
X85012657Y-82388393D01*
X84757188Y-82520250D01*
X84753687Y-82522711D01*
X84753683Y-82522713D01*
X84743594Y-82529804D01*
X84521977Y-82685559D01*
X84311378Y-82881260D01*
X84129287Y-83103732D01*
X83979073Y-83348858D01*
X83863517Y-83612102D01*
X83784756Y-83888594D01*
X83744249Y-84173216D01*
X83744227Y-84177505D01*
X83744226Y-84177512D01*
X83742765Y-84456417D01*
X83742743Y-84460703D01*
X82508500Y-84460703D01*
X82508500Y-81142500D01*
X82528502Y-81074379D01*
X82582158Y-81027886D01*
X82634500Y-81016500D01*
X120523500Y-81016500D01*
X120591621Y-81036502D01*
G37*
%TD.AperFunction*%
%TA.AperFunction,Conductor*%
G36*
X102695811Y-90514502D02*
G01*
X102716785Y-90531405D01*
X103921785Y-91736405D01*
X103955811Y-91798717D01*
X103950746Y-91869532D01*
X103908199Y-91926368D01*
X103841679Y-91951179D01*
X103832690Y-91951500D01*
X101966371Y-91951500D01*
X101898250Y-91931498D01*
X101877276Y-91914595D01*
X100672276Y-90709595D01*
X100638250Y-90647283D01*
X100643315Y-90576468D01*
X100685862Y-90519632D01*
X100752382Y-90494821D01*
X100761371Y-90494500D01*
X102627690Y-90494500D01*
X102695811Y-90514502D01*
G37*
%TD.AperFunction*%
%TA.AperFunction,Conductor*%
G36*
X95459750Y-88916502D02*
G01*
X95480724Y-88933405D01*
X95641773Y-89094454D01*
X95675799Y-89156766D01*
X95670734Y-89227581D01*
X95628187Y-89284417D01*
X95561667Y-89309228D01*
X95539834Y-89308893D01*
X95524557Y-89307328D01*
X95518145Y-89307000D01*
X95268115Y-89307000D01*
X95252876Y-89311475D01*
X95251671Y-89312865D01*
X95250000Y-89320548D01*
X95250000Y-90530500D01*
X95229998Y-90598621D01*
X95176342Y-90645114D01*
X95124000Y-90656500D01*
X94868000Y-90656500D01*
X94799879Y-90636498D01*
X94753386Y-90582842D01*
X94742000Y-90530500D01*
X94742000Y-89325116D01*
X94737525Y-89309877D01*
X94736135Y-89308672D01*
X94728452Y-89307001D01*
X94473905Y-89307001D01*
X94467386Y-89307338D01*
X94371794Y-89317257D01*
X94358400Y-89320149D01*
X94204216Y-89371588D01*
X94191038Y-89377761D01*
X94053193Y-89463063D01*
X94036055Y-89476646D01*
X94035255Y-89475637D01*
X93979597Y-89506092D01*
X93908777Y-89501090D01*
X93886589Y-89490255D01*
X93886263Y-89490054D01*
X93782383Y-89426021D01*
X93734891Y-89373250D01*
X93722500Y-89318762D01*
X93722500Y-89266371D01*
X93742502Y-89198250D01*
X93759405Y-89177276D01*
X94003276Y-88933405D01*
X94065588Y-88899379D01*
X94092371Y-88896500D01*
X95391629Y-88896500D01*
X95459750Y-88916502D01*
G37*
%TD.AperFunction*%
%TD*%
M02*
