%TF.GenerationSoftware,KiCad,Pcbnew,(6.0.7)*%
%TF.CreationDate,2023-04-15T22:34:50+02:00*%
%TF.ProjectId,sensor board,73656e73-6f72-4206-926f-6172642e6b69,rev?*%
%TF.SameCoordinates,Original*%
%TF.FileFunction,Legend,Top*%
%TF.FilePolarity,Positive*%
%FSLAX46Y46*%
G04 Gerber Fmt 4.6, Leading zero omitted, Abs format (unit mm)*
G04 Created by KiCad (PCBNEW (6.0.7)) date 2023-04-15 22:34:50*
%MOMM*%
%LPD*%
G01*
G04 APERTURE LIST*
%ADD10C,0.010000*%
%ADD11C,0.150000*%
%ADD12C,0.200000*%
%ADD13C,0.127000*%
%ADD14C,0.120000*%
G04 APERTURE END LIST*
D10*
G36*
X108385178Y-100140797D02*
G01*
X108387085Y-100120955D01*
X108390020Y-100101301D01*
X108393967Y-100081908D01*
X108398913Y-100062848D01*
X108404843Y-100044193D01*
X108411744Y-100026017D01*
X108419600Y-100008392D01*
X108428397Y-99991390D01*
X108438217Y-99974959D01*
X108449140Y-99959019D01*
X108461105Y-99943600D01*
X108474056Y-99928729D01*
X108487934Y-99914437D01*
X108502682Y-99900751D01*
X108518241Y-99887703D01*
X108534553Y-99875319D01*
X108551560Y-99863630D01*
X108569205Y-99852665D01*
X108587429Y-99842452D01*
X108606173Y-99833021D01*
X108625381Y-99824401D01*
X108644993Y-99816620D01*
X108664953Y-99809709D01*
X108685202Y-99803695D01*
X108714836Y-99796744D01*
X108744470Y-99790723D01*
X108774105Y-99785630D01*
X108803741Y-99781465D01*
X108833377Y-99778227D01*
X108863013Y-99775915D01*
X108892649Y-99774529D01*
X108922286Y-99774067D01*
X108960436Y-99774960D01*
X108997131Y-99777626D01*
X109032424Y-99782042D01*
X109066363Y-99788188D01*
X109099000Y-99796041D01*
X109130386Y-99805579D01*
X109160571Y-99816782D01*
X109189605Y-99829626D01*
X109217540Y-99844092D01*
X109244426Y-99860155D01*
X109270313Y-99877797D01*
X109295253Y-99896993D01*
X109319295Y-99917723D01*
X109342491Y-99939966D01*
X109386546Y-99988900D01*
X109427822Y-100043621D01*
X109466724Y-100103957D01*
X109503659Y-100169733D01*
X109539029Y-100240777D01*
X109573242Y-100316914D01*
X109606701Y-100397970D01*
X109672979Y-100574149D01*
X109761863Y-100830954D01*
X109761863Y-99043092D01*
X109762724Y-99009062D01*
X109765278Y-98975533D01*
X109769482Y-98942543D01*
X109775292Y-98910131D01*
X109782664Y-98878335D01*
X109791556Y-98847191D01*
X109801924Y-98816739D01*
X109813724Y-98787016D01*
X109826914Y-98758061D01*
X109841449Y-98729910D01*
X109857286Y-98702603D01*
X109874383Y-98676177D01*
X109892695Y-98650670D01*
X109912178Y-98626120D01*
X109932791Y-98602565D01*
X109954489Y-98580043D01*
X109977228Y-98558591D01*
X110000966Y-98538249D01*
X110025659Y-98519053D01*
X110051263Y-98501042D01*
X110077736Y-98484254D01*
X110105033Y-98468727D01*
X110133112Y-98454498D01*
X110161928Y-98441606D01*
X110191439Y-98430088D01*
X110221601Y-98419983D01*
X110252371Y-98411328D01*
X110283704Y-98404162D01*
X110315559Y-98398522D01*
X110347891Y-98394447D01*
X110380657Y-98391974D01*
X110413814Y-98391141D01*
X110441468Y-98391718D01*
X110468863Y-98393437D01*
X110495969Y-98396286D01*
X110522758Y-98400249D01*
X110549199Y-98405311D01*
X110575265Y-98411459D01*
X110600927Y-98418678D01*
X110626154Y-98426952D01*
X110650920Y-98436268D01*
X110675193Y-98446612D01*
X110698946Y-98457967D01*
X110722150Y-98470321D01*
X110744775Y-98483659D01*
X110766793Y-98497965D01*
X110788174Y-98513226D01*
X110808890Y-98529426D01*
X110808890Y-96790955D01*
X110809751Y-96756924D01*
X110812305Y-96723396D01*
X110816509Y-96690406D01*
X110822318Y-96657994D01*
X110829691Y-96626197D01*
X110838583Y-96595054D01*
X110848951Y-96564602D01*
X110860751Y-96534879D01*
X110873941Y-96505924D01*
X110888476Y-96477773D01*
X110904313Y-96450466D01*
X110921410Y-96424040D01*
X110939721Y-96398533D01*
X110959205Y-96373983D01*
X110979818Y-96350428D01*
X111001515Y-96327905D01*
X111024255Y-96306454D01*
X111047993Y-96286112D01*
X111072686Y-96266916D01*
X111098290Y-96248905D01*
X111124763Y-96232117D01*
X111152060Y-96216590D01*
X111180138Y-96202361D01*
X111208955Y-96189469D01*
X111238466Y-96177951D01*
X111268628Y-96167846D01*
X111299397Y-96159191D01*
X111330731Y-96152025D01*
X111362586Y-96146385D01*
X111394918Y-96142310D01*
X111427684Y-96139837D01*
X111460841Y-96139004D01*
X111494871Y-96139865D01*
X111528400Y-96142419D01*
X111561390Y-96146623D01*
X111593802Y-96152432D01*
X111625598Y-96159805D01*
X111656742Y-96168697D01*
X111687194Y-96179065D01*
X111716916Y-96190865D01*
X111745872Y-96204055D01*
X111774022Y-96218590D01*
X111801329Y-96234427D01*
X111827756Y-96251524D01*
X111853263Y-96269835D01*
X111877813Y-96289319D01*
X111901368Y-96309932D01*
X111923890Y-96331629D01*
X111945341Y-96354369D01*
X111965684Y-96378107D01*
X111984880Y-96402800D01*
X112002890Y-96428404D01*
X112019679Y-96454877D01*
X112035206Y-96482174D01*
X112049435Y-96510252D01*
X112062327Y-96539069D01*
X112073845Y-96568580D01*
X112083950Y-96598742D01*
X112092604Y-96629511D01*
X112099771Y-96660845D01*
X112105410Y-96692700D01*
X112109486Y-96725032D01*
X112111959Y-96757798D01*
X112112792Y-96790955D01*
X112112792Y-98519637D01*
X112133507Y-98503436D01*
X112154888Y-98488176D01*
X112176905Y-98473870D01*
X112199529Y-98460532D01*
X112222733Y-98448178D01*
X112246485Y-98436823D01*
X112270759Y-98426479D01*
X112295524Y-98417163D01*
X112320751Y-98408888D01*
X112346413Y-98401670D01*
X112372479Y-98395522D01*
X112398921Y-98390459D01*
X112425710Y-98386496D01*
X112452816Y-98383648D01*
X112480212Y-98381928D01*
X112507868Y-98381351D01*
X112541086Y-98382159D01*
X112574014Y-98384571D01*
X112606593Y-98388575D01*
X112638766Y-98394156D01*
X112670476Y-98401299D01*
X112701663Y-98409989D01*
X112732271Y-98420214D01*
X112762242Y-98431958D01*
X112791517Y-98445207D01*
X112820040Y-98459947D01*
X112847752Y-98476163D01*
X112874595Y-98493842D01*
X112900511Y-98512968D01*
X112925443Y-98533527D01*
X112949334Y-98555506D01*
X112972124Y-98578889D01*
X112976284Y-98583495D01*
X112981373Y-98589842D01*
X112987391Y-98597815D01*
X112994336Y-98607294D01*
X113011007Y-98630301D01*
X113031380Y-98657920D01*
X113050636Y-98694128D01*
X113070710Y-98736474D01*
X113080727Y-98760130D01*
X113090558Y-98785537D01*
X113100071Y-98812768D01*
X113109136Y-98841894D01*
X113117623Y-98872988D01*
X113125402Y-98906122D01*
X113132342Y-98941368D01*
X113138312Y-98978799D01*
X113143183Y-99018486D01*
X113146823Y-99060502D01*
X113149103Y-99104919D01*
X113149892Y-99151809D01*
X113149892Y-99191290D01*
X113168431Y-99176824D01*
X113187043Y-99163082D01*
X113205799Y-99150091D01*
X113224771Y-99137882D01*
X113244033Y-99126483D01*
X113263655Y-99115924D01*
X113283712Y-99106232D01*
X113304273Y-99097438D01*
X113325413Y-99089570D01*
X113347204Y-99082657D01*
X113369717Y-99076728D01*
X113393024Y-99071812D01*
X113417199Y-99067938D01*
X113442313Y-99065135D01*
X113468439Y-99063432D01*
X113495649Y-99062858D01*
X113495649Y-99062861D01*
X113495648Y-99062863D01*
X113495647Y-99062866D01*
X113495646Y-99062868D01*
X113495643Y-99062877D01*
X113495642Y-99062879D01*
X113528487Y-99063740D01*
X113560342Y-99066294D01*
X113591203Y-99070498D01*
X113621064Y-99076307D01*
X113649919Y-99083680D01*
X113677763Y-99092572D01*
X113704590Y-99102939D01*
X113730396Y-99114739D01*
X113755174Y-99127928D01*
X113778920Y-99142463D01*
X113801628Y-99158300D01*
X113823292Y-99175395D01*
X113843907Y-99193706D01*
X113863468Y-99213189D01*
X113881969Y-99233800D01*
X113899405Y-99255496D01*
X113915770Y-99278234D01*
X113931059Y-99301969D01*
X113945267Y-99326660D01*
X113958387Y-99352262D01*
X113970415Y-99378732D01*
X113981346Y-99406026D01*
X113999892Y-99462914D01*
X114013981Y-99522579D01*
X114023571Y-99584673D01*
X114028618Y-99648849D01*
X114029078Y-99714760D01*
X114029078Y-101986648D01*
X114027091Y-102131556D01*
X114021053Y-102273600D01*
X114010848Y-102412692D01*
X113996361Y-102548746D01*
X113977475Y-102681675D01*
X113954074Y-102811392D01*
X113926044Y-102937811D01*
X113893267Y-103060844D01*
X113855629Y-103180405D01*
X113813013Y-103296406D01*
X113765304Y-103408762D01*
X113712386Y-103517386D01*
X113654143Y-103622189D01*
X113590460Y-103723087D01*
X113521219Y-103819991D01*
X113446307Y-103912816D01*
X113359694Y-104009820D01*
X113270113Y-104100775D01*
X113177378Y-104185652D01*
X113081300Y-104264423D01*
X112981690Y-104337058D01*
X112878362Y-104403528D01*
X112771126Y-104463805D01*
X112659795Y-104517860D01*
X112544182Y-104565664D01*
X112424097Y-104607187D01*
X112299352Y-104642402D01*
X112169761Y-104671278D01*
X112035134Y-104693788D01*
X111895284Y-104709902D01*
X111750023Y-104719592D01*
X111599163Y-104722828D01*
X111359060Y-104716438D01*
X111243642Y-104708422D01*
X111131284Y-104697169D01*
X111021965Y-104682660D01*
X110915662Y-104664877D01*
X110812354Y-104643802D01*
X110712019Y-104619418D01*
X110614636Y-104591706D01*
X110520183Y-104560647D01*
X110428638Y-104526224D01*
X110339980Y-104488419D01*
X110254187Y-104447214D01*
X110171236Y-104402591D01*
X110091108Y-104354531D01*
X110013779Y-104303016D01*
X109939228Y-104248029D01*
X109867434Y-104189551D01*
X109798374Y-104127565D01*
X109732027Y-104062051D01*
X109668372Y-103992993D01*
X109607387Y-103920372D01*
X109549049Y-103844169D01*
X109493338Y-103764368D01*
X109440232Y-103680949D01*
X109389708Y-103593895D01*
X109341746Y-103503188D01*
X109296324Y-103408809D01*
X109253419Y-103310741D01*
X109213010Y-103208965D01*
X109175076Y-103103463D01*
X109139595Y-102994217D01*
X109032013Y-102623917D01*
X108914245Y-102200602D01*
X108677785Y-101319941D01*
X108408622Y-100297584D01*
X108401795Y-100278852D01*
X108396110Y-100259728D01*
X108391553Y-100240283D01*
X108388109Y-100220591D01*
X108385763Y-100200723D01*
X108384503Y-100180753D01*
X108384404Y-100170429D01*
X108638253Y-100170429D01*
X108638369Y-100177431D01*
X108638715Y-100184535D01*
X108639293Y-100191724D01*
X108640101Y-100198985D01*
X108641140Y-100206304D01*
X108642410Y-100213664D01*
X108643911Y-100221052D01*
X108645643Y-100228453D01*
X108916041Y-101255755D01*
X109155426Y-102139818D01*
X109275640Y-102564249D01*
X109386476Y-102934964D01*
X109453542Y-103128187D01*
X109528971Y-103307896D01*
X109613024Y-103474234D01*
X109705961Y-103627348D01*
X109755842Y-103698990D01*
X109808042Y-103767381D01*
X109862594Y-103832537D01*
X109919529Y-103894478D01*
X109978881Y-103953221D01*
X110040681Y-104008784D01*
X110104963Y-104061186D01*
X110171760Y-104110444D01*
X110241102Y-104156577D01*
X110313024Y-104199602D01*
X110387558Y-104239538D01*
X110464736Y-104276403D01*
X110544591Y-104310215D01*
X110627155Y-104340991D01*
X110800542Y-104393512D01*
X110985157Y-104434110D01*
X111181261Y-104462929D01*
X111389114Y-104480114D01*
X111608976Y-104485811D01*
X111745249Y-104482812D01*
X111876372Y-104473866D01*
X112002517Y-104459044D01*
X112123858Y-104438419D01*
X112240570Y-104412063D01*
X112352826Y-104380048D01*
X112460798Y-104342447D01*
X112564662Y-104299332D01*
X112664591Y-104250776D01*
X112760757Y-104196852D01*
X112853335Y-104137630D01*
X112942499Y-104073185D01*
X113028421Y-104003587D01*
X113111276Y-103928911D01*
X113191238Y-103849227D01*
X113268479Y-103764609D01*
X113336219Y-103679420D01*
X113398750Y-103590585D01*
X113456186Y-103498162D01*
X113508644Y-103402208D01*
X113556239Y-103302783D01*
X113599087Y-103199943D01*
X113637305Y-103093747D01*
X113671008Y-102984252D01*
X113700312Y-102871516D01*
X113725333Y-102755597D01*
X113746186Y-102636554D01*
X113762988Y-102514443D01*
X113775855Y-102389323D01*
X113784902Y-102261252D01*
X113790245Y-102130287D01*
X113792000Y-101996487D01*
X113792000Y-100584000D01*
X113801887Y-99714888D01*
X113800946Y-99674639D01*
X113798067Y-99635520D01*
X113793162Y-99597733D01*
X113789922Y-99579402D01*
X113786143Y-99561479D01*
X113781815Y-99543991D01*
X113776926Y-99526963D01*
X113771465Y-99510419D01*
X113765422Y-99494386D01*
X113758786Y-99478887D01*
X113751545Y-99463950D01*
X113743690Y-99449599D01*
X113735208Y-99435858D01*
X113726090Y-99422755D01*
X113716325Y-99410314D01*
X113705901Y-99398559D01*
X113694807Y-99387518D01*
X113683034Y-99377214D01*
X113670570Y-99367674D01*
X113657404Y-99358922D01*
X113643525Y-99350983D01*
X113628923Y-99343884D01*
X113613586Y-99337650D01*
X113597504Y-99332305D01*
X113580666Y-99327875D01*
X113563061Y-99324385D01*
X113544678Y-99321862D01*
X113525507Y-99320329D01*
X113505536Y-99319812D01*
X113485423Y-99320329D01*
X113465839Y-99321862D01*
X113446790Y-99324385D01*
X113428283Y-99327875D01*
X113410326Y-99332305D01*
X113392927Y-99337650D01*
X113376091Y-99343884D01*
X113359827Y-99350983D01*
X113344142Y-99358921D01*
X113329043Y-99367673D01*
X113314537Y-99377214D01*
X113300632Y-99387518D01*
X113287334Y-99398559D01*
X113274652Y-99410313D01*
X113262591Y-99422755D01*
X113251160Y-99435858D01*
X113240366Y-99449598D01*
X113230216Y-99463950D01*
X113220717Y-99478887D01*
X113211876Y-99494385D01*
X113203701Y-99510419D01*
X113196199Y-99526963D01*
X113189377Y-99543991D01*
X113183242Y-99561479D01*
X113173064Y-99597732D01*
X113165722Y-99635520D01*
X113161274Y-99674639D01*
X113159779Y-99714888D01*
X113159779Y-100584150D01*
X113159607Y-100590605D01*
X113159096Y-100596992D01*
X113158257Y-100603304D01*
X113157098Y-100609530D01*
X113155627Y-100615662D01*
X113153855Y-100621690D01*
X113151789Y-100627606D01*
X113149439Y-100633401D01*
X113146815Y-100639066D01*
X113143925Y-100644591D01*
X113140777Y-100649967D01*
X113137382Y-100655186D01*
X113133748Y-100660239D01*
X113129885Y-100665116D01*
X113125800Y-100669808D01*
X113121504Y-100674307D01*
X113117006Y-100678603D01*
X113112313Y-100682688D01*
X113107436Y-100686551D01*
X113102384Y-100690185D01*
X113097165Y-100693580D01*
X113091788Y-100696728D01*
X113086263Y-100699618D01*
X113080598Y-100702242D01*
X113074803Y-100704592D01*
X113068887Y-100706658D01*
X113062859Y-100708430D01*
X113056727Y-100709901D01*
X113050500Y-100711060D01*
X113044189Y-100711900D01*
X113037801Y-100712410D01*
X113031346Y-100712582D01*
X113024892Y-100712410D01*
X113018504Y-100711900D01*
X113012193Y-100711060D01*
X113005967Y-100709901D01*
X112999835Y-100708430D01*
X112993806Y-100706658D01*
X112987890Y-100704592D01*
X112982095Y-100702243D01*
X112976431Y-100699618D01*
X112970906Y-100696728D01*
X112965529Y-100693581D01*
X112960310Y-100690186D01*
X112955258Y-100686552D01*
X112950381Y-100682688D01*
X112945688Y-100678604D01*
X112941190Y-100674308D01*
X112936894Y-100669809D01*
X112932809Y-100665117D01*
X112928945Y-100660240D01*
X112925312Y-100655187D01*
X112921916Y-100649968D01*
X112918769Y-100644592D01*
X112915879Y-100639067D01*
X112913254Y-100633402D01*
X112910905Y-100627607D01*
X112908839Y-100621691D01*
X112907067Y-100615662D01*
X112905596Y-100609530D01*
X112904436Y-100603304D01*
X112903597Y-100596993D01*
X112903087Y-100590605D01*
X112902915Y-100584150D01*
X112902915Y-99033304D01*
X112902398Y-99013051D01*
X112900865Y-98993055D01*
X112898341Y-98973342D01*
X112894852Y-98953936D01*
X112890422Y-98934863D01*
X112885077Y-98916148D01*
X112878842Y-98897817D01*
X112871743Y-98879895D01*
X112863805Y-98862407D01*
X112855053Y-98845379D01*
X112845513Y-98828835D01*
X112835209Y-98812801D01*
X112824167Y-98797303D01*
X112812413Y-98782366D01*
X112799972Y-98768014D01*
X112786868Y-98754274D01*
X112773128Y-98741171D01*
X112758777Y-98728729D01*
X112743839Y-98716975D01*
X112728341Y-98705934D01*
X112712308Y-98695630D01*
X112695764Y-98686089D01*
X112678735Y-98677337D01*
X112661247Y-98669399D01*
X112643325Y-98662300D01*
X112624994Y-98656065D01*
X112606280Y-98650721D01*
X112587207Y-98646291D01*
X112567801Y-98642801D01*
X112548087Y-98640277D01*
X112528092Y-98638745D01*
X112507839Y-98638228D01*
X112487586Y-98638745D01*
X112467590Y-98640277D01*
X112447876Y-98642801D01*
X112428470Y-98646291D01*
X112409398Y-98650721D01*
X112390683Y-98656065D01*
X112372352Y-98662300D01*
X112354430Y-98669399D01*
X112336942Y-98677337D01*
X112319913Y-98686089D01*
X112303369Y-98695630D01*
X112287336Y-98705934D01*
X112271838Y-98716975D01*
X112256900Y-98728729D01*
X112242549Y-98741171D01*
X112228809Y-98754274D01*
X112215705Y-98768014D01*
X112203264Y-98782366D01*
X112191510Y-98797303D01*
X112180468Y-98812801D01*
X112170164Y-98828835D01*
X112160624Y-98845379D01*
X112151872Y-98862407D01*
X112143934Y-98879895D01*
X112136835Y-98897817D01*
X112130600Y-98916148D01*
X112125255Y-98934863D01*
X112120825Y-98953936D01*
X112117336Y-98973342D01*
X112114812Y-98993055D01*
X112113279Y-99013051D01*
X112112763Y-99033304D01*
X112112763Y-100584079D01*
X112112591Y-100590534D01*
X112112080Y-100596922D01*
X112111241Y-100603233D01*
X112110081Y-100609459D01*
X112108611Y-100615591D01*
X112106838Y-100621620D01*
X112104773Y-100627536D01*
X112102423Y-100633331D01*
X112099799Y-100638995D01*
X112096908Y-100644520D01*
X112093761Y-100649897D01*
X112090366Y-100655116D01*
X112086732Y-100660168D01*
X112082869Y-100665045D01*
X112078784Y-100669738D01*
X112074488Y-100674237D01*
X112069989Y-100678533D01*
X112065297Y-100682617D01*
X112060420Y-100686481D01*
X112055368Y-100690115D01*
X112050148Y-100693510D01*
X112044772Y-100696657D01*
X112039247Y-100699547D01*
X112033582Y-100702172D01*
X112027787Y-100704521D01*
X112021871Y-100706587D01*
X112015842Y-100708360D01*
X112009710Y-100709830D01*
X112003484Y-100710990D01*
X111997173Y-100711829D01*
X111990785Y-100712339D01*
X111984330Y-100712512D01*
X111977876Y-100712339D01*
X111971488Y-100711829D01*
X111965177Y-100710990D01*
X111958951Y-100709830D01*
X111952819Y-100708360D01*
X111946790Y-100706587D01*
X111940874Y-100704522D01*
X111935079Y-100702172D01*
X111929415Y-100699548D01*
X111923890Y-100696657D01*
X111918513Y-100693510D01*
X111913294Y-100690115D01*
X111908242Y-100686481D01*
X111903365Y-100682618D01*
X111898672Y-100678533D01*
X111894173Y-100674237D01*
X111889877Y-100669739D01*
X111885793Y-100665046D01*
X111881929Y-100660169D01*
X111878295Y-100655117D01*
X111874900Y-100649898D01*
X111871753Y-100644521D01*
X111868863Y-100638996D01*
X111866238Y-100633332D01*
X111863889Y-100627537D01*
X111861823Y-100621620D01*
X111860050Y-100615592D01*
X111858580Y-100609460D01*
X111857420Y-100603234D01*
X111856581Y-100596922D01*
X111856071Y-100590534D01*
X111855899Y-100584079D01*
X111855899Y-96791013D01*
X111855382Y-96770760D01*
X111853849Y-96750764D01*
X111851325Y-96731051D01*
X111847836Y-96711645D01*
X111843406Y-96692572D01*
X111838061Y-96673858D01*
X111831826Y-96655526D01*
X111824727Y-96637604D01*
X111816789Y-96620116D01*
X111808037Y-96603088D01*
X111798497Y-96586544D01*
X111788193Y-96570510D01*
X111777151Y-96555012D01*
X111765397Y-96540075D01*
X111752956Y-96525723D01*
X111739852Y-96511983D01*
X111726112Y-96498880D01*
X111711761Y-96486439D01*
X111696823Y-96474684D01*
X111681325Y-96463643D01*
X111665291Y-96453339D01*
X111648748Y-96443799D01*
X111631719Y-96435047D01*
X111614231Y-96427108D01*
X111596309Y-96420009D01*
X111577978Y-96413775D01*
X111559263Y-96408430D01*
X111540191Y-96404000D01*
X111520785Y-96400510D01*
X111501071Y-96397987D01*
X111481075Y-96396454D01*
X111460823Y-96395937D01*
X111440570Y-96396454D01*
X111420574Y-96397987D01*
X111400860Y-96400510D01*
X111381454Y-96404000D01*
X111362382Y-96408430D01*
X111343667Y-96413775D01*
X111325336Y-96420009D01*
X111307414Y-96427108D01*
X111289926Y-96435047D01*
X111272897Y-96443799D01*
X111256353Y-96453339D01*
X111240320Y-96463643D01*
X111224822Y-96474684D01*
X111209884Y-96486439D01*
X111195533Y-96498880D01*
X111181793Y-96511983D01*
X111168689Y-96525724D01*
X111156248Y-96540075D01*
X111144493Y-96555012D01*
X111133452Y-96570511D01*
X111123148Y-96586544D01*
X111113608Y-96603088D01*
X111104856Y-96620116D01*
X111096917Y-96637604D01*
X111089818Y-96655527D01*
X111083584Y-96673858D01*
X111078239Y-96692572D01*
X111073809Y-96711645D01*
X111070319Y-96731051D01*
X111067796Y-96750764D01*
X111066263Y-96770760D01*
X111065746Y-96791013D01*
X111065677Y-100574202D01*
X111065505Y-100580657D01*
X111064995Y-100587044D01*
X111064155Y-100593356D01*
X111062996Y-100599582D01*
X111061525Y-100605713D01*
X111059753Y-100611742D01*
X111057687Y-100617658D01*
X111055337Y-100623453D01*
X111052713Y-100629118D01*
X111049823Y-100634643D01*
X111046675Y-100640019D01*
X111043280Y-100645238D01*
X111039646Y-100650291D01*
X111035783Y-100655168D01*
X111031698Y-100659860D01*
X111027402Y-100664359D01*
X111022903Y-100668655D01*
X111018211Y-100672740D01*
X111013334Y-100676603D01*
X111008281Y-100680237D01*
X111003062Y-100683632D01*
X110997686Y-100686780D01*
X110992161Y-100689670D01*
X110986496Y-100692294D01*
X110980701Y-100694644D01*
X110974785Y-100696710D01*
X110968757Y-100698482D01*
X110962625Y-100699953D01*
X110956399Y-100701112D01*
X110950087Y-100701952D01*
X110943700Y-100702462D01*
X110937245Y-100702634D01*
X110930790Y-100702462D01*
X110924403Y-100701952D01*
X110918092Y-100701112D01*
X110911865Y-100699953D01*
X110905734Y-100698482D01*
X110899705Y-100696710D01*
X110893789Y-100694644D01*
X110887994Y-100692295D01*
X110882330Y-100689670D01*
X110876805Y-100686780D01*
X110871428Y-100683633D01*
X110866209Y-100680238D01*
X110861156Y-100676604D01*
X110856279Y-100672740D01*
X110851587Y-100668656D01*
X110847088Y-100664360D01*
X110842792Y-100659861D01*
X110838708Y-100655169D01*
X110834844Y-100650292D01*
X110831210Y-100645239D01*
X110827815Y-100640020D01*
X110824668Y-100634644D01*
X110821777Y-100629119D01*
X110819153Y-100623454D01*
X110816803Y-100617659D01*
X110814737Y-100611743D01*
X110812965Y-100605714D01*
X110811494Y-100599582D01*
X110810335Y-100593356D01*
X110809495Y-100587045D01*
X110808985Y-100580657D01*
X110808813Y-100574202D01*
X110808813Y-99033286D01*
X110808296Y-99013033D01*
X110806764Y-98993037D01*
X110804240Y-98973324D01*
X110800750Y-98953918D01*
X110796320Y-98934845D01*
X110790975Y-98916131D01*
X110784741Y-98897799D01*
X110777642Y-98879877D01*
X110769704Y-98862389D01*
X110760952Y-98845361D01*
X110751411Y-98828817D01*
X110741107Y-98812784D01*
X110730066Y-98797285D01*
X110718312Y-98782348D01*
X110705870Y-98767997D01*
X110692767Y-98754256D01*
X110679027Y-98741153D01*
X110664675Y-98728712D01*
X110649738Y-98716957D01*
X110634240Y-98705916D01*
X110618206Y-98695612D01*
X110601662Y-98686072D01*
X110584634Y-98677320D01*
X110567146Y-98669381D01*
X110549224Y-98662282D01*
X110530893Y-98656048D01*
X110512178Y-98650703D01*
X110493105Y-98646273D01*
X110473699Y-98642783D01*
X110453986Y-98640260D01*
X110433990Y-98638727D01*
X110413737Y-98638210D01*
X110393484Y-98638727D01*
X110373488Y-98640260D01*
X110353775Y-98642783D01*
X110334369Y-98646273D01*
X110315296Y-98650703D01*
X110296581Y-98656048D01*
X110278250Y-98662282D01*
X110260328Y-98669381D01*
X110242840Y-98677320D01*
X110225812Y-98686072D01*
X110209268Y-98695612D01*
X110193234Y-98705916D01*
X110177736Y-98716957D01*
X110162799Y-98728712D01*
X110148447Y-98741153D01*
X110134707Y-98754256D01*
X110121604Y-98767997D01*
X110109162Y-98782348D01*
X110097408Y-98797285D01*
X110086367Y-98812784D01*
X110076063Y-98828817D01*
X110066522Y-98845361D01*
X110057770Y-98862389D01*
X110049832Y-98879877D01*
X110042733Y-98897799D01*
X110036499Y-98916131D01*
X110031154Y-98934845D01*
X110026724Y-98953918D01*
X110023234Y-98973324D01*
X110020710Y-98993037D01*
X110019178Y-99013033D01*
X110018661Y-99033286D01*
X110018592Y-100742124D01*
X110018592Y-100870556D01*
X110020105Y-100961752D01*
X110020921Y-101043168D01*
X110021042Y-101115442D01*
X110020467Y-101179209D01*
X110019196Y-101235106D01*
X110017230Y-101283769D01*
X110015986Y-101305587D01*
X110014568Y-101325835D01*
X110012976Y-101344593D01*
X110011211Y-101361941D01*
X110009272Y-101377957D01*
X110007159Y-101392722D01*
X110004872Y-101406315D01*
X110002412Y-101418816D01*
X109999777Y-101430303D01*
X109996969Y-101440858D01*
X109993988Y-101450559D01*
X109990832Y-101459485D01*
X109987503Y-101467718D01*
X109984000Y-101475335D01*
X109980323Y-101482416D01*
X109976473Y-101489042D01*
X109972449Y-101495291D01*
X109968252Y-101501244D01*
X109959336Y-101512576D01*
X109953778Y-101517902D01*
X109948203Y-101522779D01*
X109942599Y-101527222D01*
X109936950Y-101531245D01*
X109931243Y-101534862D01*
X109925463Y-101538089D01*
X109919596Y-101540939D01*
X109913628Y-101543428D01*
X109907544Y-101545569D01*
X109901331Y-101547378D01*
X109894974Y-101548868D01*
X109888458Y-101550055D01*
X109881770Y-101550953D01*
X109874896Y-101551577D01*
X109867820Y-101551940D01*
X109860530Y-101552058D01*
X109851446Y-101551773D01*
X109842704Y-101550941D01*
X109834297Y-101549591D01*
X109826221Y-101547754D01*
X109818470Y-101545462D01*
X109811039Y-101542744D01*
X109803923Y-101539632D01*
X109797115Y-101536157D01*
X109790611Y-101532348D01*
X109784405Y-101528238D01*
X109778492Y-101523856D01*
X109772867Y-101519233D01*
X109767523Y-101514401D01*
X109762456Y-101509389D01*
X109757660Y-101504230D01*
X109753130Y-101498952D01*
X109744846Y-101488168D01*
X109737560Y-101477282D01*
X109731229Y-101466542D01*
X109725810Y-101456192D01*
X109721260Y-101446480D01*
X109717536Y-101437651D01*
X109712392Y-101423626D01*
X109435814Y-100663019D01*
X109383750Y-100522420D01*
X109359577Y-100457965D01*
X109335968Y-100397561D01*
X109312417Y-100341324D01*
X109288417Y-100289369D01*
X109276090Y-100265034D01*
X109263461Y-100241813D01*
X109250467Y-100219720D01*
X109237044Y-100198770D01*
X109223128Y-100178978D01*
X109208658Y-100160358D01*
X109193568Y-100142924D01*
X109177797Y-100126691D01*
X109161280Y-100111674D01*
X109143954Y-100097887D01*
X109125756Y-100085344D01*
X109106624Y-100074059D01*
X109086492Y-100064048D01*
X109065299Y-100055325D01*
X109042980Y-100047904D01*
X109019473Y-100041800D01*
X108994714Y-100037028D01*
X108968639Y-100033601D01*
X108941187Y-100031534D01*
X108912292Y-100030842D01*
X108890072Y-100031287D01*
X108867852Y-100032546D01*
X108845631Y-100034500D01*
X108823411Y-100037034D01*
X108801190Y-100040029D01*
X108778969Y-100043370D01*
X108734527Y-100050616D01*
X108730855Y-100051603D01*
X108727240Y-100052703D01*
X108720184Y-100055222D01*
X108713358Y-100058146D01*
X108706764Y-100061445D01*
X108700400Y-100065090D01*
X108694268Y-100069053D01*
X108688366Y-100073304D01*
X108682695Y-100077816D01*
X108677255Y-100082558D01*
X108672047Y-100087502D01*
X108667069Y-100092619D01*
X108662322Y-100097881D01*
X108657806Y-100103258D01*
X108653520Y-100108722D01*
X108649466Y-100114244D01*
X108645643Y-100119794D01*
X108643911Y-100125463D01*
X108642410Y-100131350D01*
X108641140Y-100137440D01*
X108640101Y-100143719D01*
X108639293Y-100150172D01*
X108638715Y-100156785D01*
X108638369Y-100163542D01*
X108638253Y-100170429D01*
X108384404Y-100170429D01*
X108384312Y-100160754D01*
X108385178Y-100140797D01*
G37*
X108385178Y-100140797D02*
X108387085Y-100120955D01*
X108390020Y-100101301D01*
X108393967Y-100081908D01*
X108398913Y-100062848D01*
X108404843Y-100044193D01*
X108411744Y-100026017D01*
X108419600Y-100008392D01*
X108428397Y-99991390D01*
X108438217Y-99974959D01*
X108449140Y-99959019D01*
X108461105Y-99943600D01*
X108474056Y-99928729D01*
X108487934Y-99914437D01*
X108502682Y-99900751D01*
X108518241Y-99887703D01*
X108534553Y-99875319D01*
X108551560Y-99863630D01*
X108569205Y-99852665D01*
X108587429Y-99842452D01*
X108606173Y-99833021D01*
X108625381Y-99824401D01*
X108644993Y-99816620D01*
X108664953Y-99809709D01*
X108685202Y-99803695D01*
X108714836Y-99796744D01*
X108744470Y-99790723D01*
X108774105Y-99785630D01*
X108803741Y-99781465D01*
X108833377Y-99778227D01*
X108863013Y-99775915D01*
X108892649Y-99774529D01*
X108922286Y-99774067D01*
X108960436Y-99774960D01*
X108997131Y-99777626D01*
X109032424Y-99782042D01*
X109066363Y-99788188D01*
X109099000Y-99796041D01*
X109130386Y-99805579D01*
X109160571Y-99816782D01*
X109189605Y-99829626D01*
X109217540Y-99844092D01*
X109244426Y-99860155D01*
X109270313Y-99877797D01*
X109295253Y-99896993D01*
X109319295Y-99917723D01*
X109342491Y-99939966D01*
X109386546Y-99988900D01*
X109427822Y-100043621D01*
X109466724Y-100103957D01*
X109503659Y-100169733D01*
X109539029Y-100240777D01*
X109573242Y-100316914D01*
X109606701Y-100397970D01*
X109672979Y-100574149D01*
X109761863Y-100830954D01*
X109761863Y-99043092D01*
X109762724Y-99009062D01*
X109765278Y-98975533D01*
X109769482Y-98942543D01*
X109775292Y-98910131D01*
X109782664Y-98878335D01*
X109791556Y-98847191D01*
X109801924Y-98816739D01*
X109813724Y-98787016D01*
X109826914Y-98758061D01*
X109841449Y-98729910D01*
X109857286Y-98702603D01*
X109874383Y-98676177D01*
X109892695Y-98650670D01*
X109912178Y-98626120D01*
X109932791Y-98602565D01*
X109954489Y-98580043D01*
X109977228Y-98558591D01*
X110000966Y-98538249D01*
X110025659Y-98519053D01*
X110051263Y-98501042D01*
X110077736Y-98484254D01*
X110105033Y-98468727D01*
X110133112Y-98454498D01*
X110161928Y-98441606D01*
X110191439Y-98430088D01*
X110221601Y-98419983D01*
X110252371Y-98411328D01*
X110283704Y-98404162D01*
X110315559Y-98398522D01*
X110347891Y-98394447D01*
X110380657Y-98391974D01*
X110413814Y-98391141D01*
X110441468Y-98391718D01*
X110468863Y-98393437D01*
X110495969Y-98396286D01*
X110522758Y-98400249D01*
X110549199Y-98405311D01*
X110575265Y-98411459D01*
X110600927Y-98418678D01*
X110626154Y-98426952D01*
X110650920Y-98436268D01*
X110675193Y-98446612D01*
X110698946Y-98457967D01*
X110722150Y-98470321D01*
X110744775Y-98483659D01*
X110766793Y-98497965D01*
X110788174Y-98513226D01*
X110808890Y-98529426D01*
X110808890Y-96790955D01*
X110809751Y-96756924D01*
X110812305Y-96723396D01*
X110816509Y-96690406D01*
X110822318Y-96657994D01*
X110829691Y-96626197D01*
X110838583Y-96595054D01*
X110848951Y-96564602D01*
X110860751Y-96534879D01*
X110873941Y-96505924D01*
X110888476Y-96477773D01*
X110904313Y-96450466D01*
X110921410Y-96424040D01*
X110939721Y-96398533D01*
X110959205Y-96373983D01*
X110979818Y-96350428D01*
X111001515Y-96327905D01*
X111024255Y-96306454D01*
X111047993Y-96286112D01*
X111072686Y-96266916D01*
X111098290Y-96248905D01*
X111124763Y-96232117D01*
X111152060Y-96216590D01*
X111180138Y-96202361D01*
X111208955Y-96189469D01*
X111238466Y-96177951D01*
X111268628Y-96167846D01*
X111299397Y-96159191D01*
X111330731Y-96152025D01*
X111362586Y-96146385D01*
X111394918Y-96142310D01*
X111427684Y-96139837D01*
X111460841Y-96139004D01*
X111494871Y-96139865D01*
X111528400Y-96142419D01*
X111561390Y-96146623D01*
X111593802Y-96152432D01*
X111625598Y-96159805D01*
X111656742Y-96168697D01*
X111687194Y-96179065D01*
X111716916Y-96190865D01*
X111745872Y-96204055D01*
X111774022Y-96218590D01*
X111801329Y-96234427D01*
X111827756Y-96251524D01*
X111853263Y-96269835D01*
X111877813Y-96289319D01*
X111901368Y-96309932D01*
X111923890Y-96331629D01*
X111945341Y-96354369D01*
X111965684Y-96378107D01*
X111984880Y-96402800D01*
X112002890Y-96428404D01*
X112019679Y-96454877D01*
X112035206Y-96482174D01*
X112049435Y-96510252D01*
X112062327Y-96539069D01*
X112073845Y-96568580D01*
X112083950Y-96598742D01*
X112092604Y-96629511D01*
X112099771Y-96660845D01*
X112105410Y-96692700D01*
X112109486Y-96725032D01*
X112111959Y-96757798D01*
X112112792Y-96790955D01*
X112112792Y-98519637D01*
X112133507Y-98503436D01*
X112154888Y-98488176D01*
X112176905Y-98473870D01*
X112199529Y-98460532D01*
X112222733Y-98448178D01*
X112246485Y-98436823D01*
X112270759Y-98426479D01*
X112295524Y-98417163D01*
X112320751Y-98408888D01*
X112346413Y-98401670D01*
X112372479Y-98395522D01*
X112398921Y-98390459D01*
X112425710Y-98386496D01*
X112452816Y-98383648D01*
X112480212Y-98381928D01*
X112507868Y-98381351D01*
X112541086Y-98382159D01*
X112574014Y-98384571D01*
X112606593Y-98388575D01*
X112638766Y-98394156D01*
X112670476Y-98401299D01*
X112701663Y-98409989D01*
X112732271Y-98420214D01*
X112762242Y-98431958D01*
X112791517Y-98445207D01*
X112820040Y-98459947D01*
X112847752Y-98476163D01*
X112874595Y-98493842D01*
X112900511Y-98512968D01*
X112925443Y-98533527D01*
X112949334Y-98555506D01*
X112972124Y-98578889D01*
X112976284Y-98583495D01*
X112981373Y-98589842D01*
X112987391Y-98597815D01*
X112994336Y-98607294D01*
X113011007Y-98630301D01*
X113031380Y-98657920D01*
X113050636Y-98694128D01*
X113070710Y-98736474D01*
X113080727Y-98760130D01*
X113090558Y-98785537D01*
X113100071Y-98812768D01*
X113109136Y-98841894D01*
X113117623Y-98872988D01*
X113125402Y-98906122D01*
X113132342Y-98941368D01*
X113138312Y-98978799D01*
X113143183Y-99018486D01*
X113146823Y-99060502D01*
X113149103Y-99104919D01*
X113149892Y-99151809D01*
X113149892Y-99191290D01*
X113168431Y-99176824D01*
X113187043Y-99163082D01*
X113205799Y-99150091D01*
X113224771Y-99137882D01*
X113244033Y-99126483D01*
X113263655Y-99115924D01*
X113283712Y-99106232D01*
X113304273Y-99097438D01*
X113325413Y-99089570D01*
X113347204Y-99082657D01*
X113369717Y-99076728D01*
X113393024Y-99071812D01*
X113417199Y-99067938D01*
X113442313Y-99065135D01*
X113468439Y-99063432D01*
X113495649Y-99062858D01*
X113495649Y-99062861D01*
X113495648Y-99062863D01*
X113495647Y-99062866D01*
X113495646Y-99062868D01*
X113495643Y-99062877D01*
X113495642Y-99062879D01*
X113528487Y-99063740D01*
X113560342Y-99066294D01*
X113591203Y-99070498D01*
X113621064Y-99076307D01*
X113649919Y-99083680D01*
X113677763Y-99092572D01*
X113704590Y-99102939D01*
X113730396Y-99114739D01*
X113755174Y-99127928D01*
X113778920Y-99142463D01*
X113801628Y-99158300D01*
X113823292Y-99175395D01*
X113843907Y-99193706D01*
X113863468Y-99213189D01*
X113881969Y-99233800D01*
X113899405Y-99255496D01*
X113915770Y-99278234D01*
X113931059Y-99301969D01*
X113945267Y-99326660D01*
X113958387Y-99352262D01*
X113970415Y-99378732D01*
X113981346Y-99406026D01*
X113999892Y-99462914D01*
X114013981Y-99522579D01*
X114023571Y-99584673D01*
X114028618Y-99648849D01*
X114029078Y-99714760D01*
X114029078Y-101986648D01*
X114027091Y-102131556D01*
X114021053Y-102273600D01*
X114010848Y-102412692D01*
X113996361Y-102548746D01*
X113977475Y-102681675D01*
X113954074Y-102811392D01*
X113926044Y-102937811D01*
X113893267Y-103060844D01*
X113855629Y-103180405D01*
X113813013Y-103296406D01*
X113765304Y-103408762D01*
X113712386Y-103517386D01*
X113654143Y-103622189D01*
X113590460Y-103723087D01*
X113521219Y-103819991D01*
X113446307Y-103912816D01*
X113359694Y-104009820D01*
X113270113Y-104100775D01*
X113177378Y-104185652D01*
X113081300Y-104264423D01*
X112981690Y-104337058D01*
X112878362Y-104403528D01*
X112771126Y-104463805D01*
X112659795Y-104517860D01*
X112544182Y-104565664D01*
X112424097Y-104607187D01*
X112299352Y-104642402D01*
X112169761Y-104671278D01*
X112035134Y-104693788D01*
X111895284Y-104709902D01*
X111750023Y-104719592D01*
X111599163Y-104722828D01*
X111359060Y-104716438D01*
X111243642Y-104708422D01*
X111131284Y-104697169D01*
X111021965Y-104682660D01*
X110915662Y-104664877D01*
X110812354Y-104643802D01*
X110712019Y-104619418D01*
X110614636Y-104591706D01*
X110520183Y-104560647D01*
X110428638Y-104526224D01*
X110339980Y-104488419D01*
X110254187Y-104447214D01*
X110171236Y-104402591D01*
X110091108Y-104354531D01*
X110013779Y-104303016D01*
X109939228Y-104248029D01*
X109867434Y-104189551D01*
X109798374Y-104127565D01*
X109732027Y-104062051D01*
X109668372Y-103992993D01*
X109607387Y-103920372D01*
X109549049Y-103844169D01*
X109493338Y-103764368D01*
X109440232Y-103680949D01*
X109389708Y-103593895D01*
X109341746Y-103503188D01*
X109296324Y-103408809D01*
X109253419Y-103310741D01*
X109213010Y-103208965D01*
X109175076Y-103103463D01*
X109139595Y-102994217D01*
X109032013Y-102623917D01*
X108914245Y-102200602D01*
X108677785Y-101319941D01*
X108408622Y-100297584D01*
X108401795Y-100278852D01*
X108396110Y-100259728D01*
X108391553Y-100240283D01*
X108388109Y-100220591D01*
X108385763Y-100200723D01*
X108384503Y-100180753D01*
X108384404Y-100170429D01*
X108638253Y-100170429D01*
X108638369Y-100177431D01*
X108638715Y-100184535D01*
X108639293Y-100191724D01*
X108640101Y-100198985D01*
X108641140Y-100206304D01*
X108642410Y-100213664D01*
X108643911Y-100221052D01*
X108645643Y-100228453D01*
X108916041Y-101255755D01*
X109155426Y-102139818D01*
X109275640Y-102564249D01*
X109386476Y-102934964D01*
X109453542Y-103128187D01*
X109528971Y-103307896D01*
X109613024Y-103474234D01*
X109705961Y-103627348D01*
X109755842Y-103698990D01*
X109808042Y-103767381D01*
X109862594Y-103832537D01*
X109919529Y-103894478D01*
X109978881Y-103953221D01*
X110040681Y-104008784D01*
X110104963Y-104061186D01*
X110171760Y-104110444D01*
X110241102Y-104156577D01*
X110313024Y-104199602D01*
X110387558Y-104239538D01*
X110464736Y-104276403D01*
X110544591Y-104310215D01*
X110627155Y-104340991D01*
X110800542Y-104393512D01*
X110985157Y-104434110D01*
X111181261Y-104462929D01*
X111389114Y-104480114D01*
X111608976Y-104485811D01*
X111745249Y-104482812D01*
X111876372Y-104473866D01*
X112002517Y-104459044D01*
X112123858Y-104438419D01*
X112240570Y-104412063D01*
X112352826Y-104380048D01*
X112460798Y-104342447D01*
X112564662Y-104299332D01*
X112664591Y-104250776D01*
X112760757Y-104196852D01*
X112853335Y-104137630D01*
X112942499Y-104073185D01*
X113028421Y-104003587D01*
X113111276Y-103928911D01*
X113191238Y-103849227D01*
X113268479Y-103764609D01*
X113336219Y-103679420D01*
X113398750Y-103590585D01*
X113456186Y-103498162D01*
X113508644Y-103402208D01*
X113556239Y-103302783D01*
X113599087Y-103199943D01*
X113637305Y-103093747D01*
X113671008Y-102984252D01*
X113700312Y-102871516D01*
X113725333Y-102755597D01*
X113746186Y-102636554D01*
X113762988Y-102514443D01*
X113775855Y-102389323D01*
X113784902Y-102261252D01*
X113790245Y-102130287D01*
X113792000Y-101996487D01*
X113792000Y-100584000D01*
X113801887Y-99714888D01*
X113800946Y-99674639D01*
X113798067Y-99635520D01*
X113793162Y-99597733D01*
X113789922Y-99579402D01*
X113786143Y-99561479D01*
X113781815Y-99543991D01*
X113776926Y-99526963D01*
X113771465Y-99510419D01*
X113765422Y-99494386D01*
X113758786Y-99478887D01*
X113751545Y-99463950D01*
X113743690Y-99449599D01*
X113735208Y-99435858D01*
X113726090Y-99422755D01*
X113716325Y-99410314D01*
X113705901Y-99398559D01*
X113694807Y-99387518D01*
X113683034Y-99377214D01*
X113670570Y-99367674D01*
X113657404Y-99358922D01*
X113643525Y-99350983D01*
X113628923Y-99343884D01*
X113613586Y-99337650D01*
X113597504Y-99332305D01*
X113580666Y-99327875D01*
X113563061Y-99324385D01*
X113544678Y-99321862D01*
X113525507Y-99320329D01*
X113505536Y-99319812D01*
X113485423Y-99320329D01*
X113465839Y-99321862D01*
X113446790Y-99324385D01*
X113428283Y-99327875D01*
X113410326Y-99332305D01*
X113392927Y-99337650D01*
X113376091Y-99343884D01*
X113359827Y-99350983D01*
X113344142Y-99358921D01*
X113329043Y-99367673D01*
X113314537Y-99377214D01*
X113300632Y-99387518D01*
X113287334Y-99398559D01*
X113274652Y-99410313D01*
X113262591Y-99422755D01*
X113251160Y-99435858D01*
X113240366Y-99449598D01*
X113230216Y-99463950D01*
X113220717Y-99478887D01*
X113211876Y-99494385D01*
X113203701Y-99510419D01*
X113196199Y-99526963D01*
X113189377Y-99543991D01*
X113183242Y-99561479D01*
X113173064Y-99597732D01*
X113165722Y-99635520D01*
X113161274Y-99674639D01*
X113159779Y-99714888D01*
X113159779Y-100584150D01*
X113159607Y-100590605D01*
X113159096Y-100596992D01*
X113158257Y-100603304D01*
X113157098Y-100609530D01*
X113155627Y-100615662D01*
X113153855Y-100621690D01*
X113151789Y-100627606D01*
X113149439Y-100633401D01*
X113146815Y-100639066D01*
X113143925Y-100644591D01*
X113140777Y-100649967D01*
X113137382Y-100655186D01*
X113133748Y-100660239D01*
X113129885Y-100665116D01*
X113125800Y-100669808D01*
X113121504Y-100674307D01*
X113117006Y-100678603D01*
X113112313Y-100682688D01*
X113107436Y-100686551D01*
X113102384Y-100690185D01*
X113097165Y-100693580D01*
X113091788Y-100696728D01*
X113086263Y-100699618D01*
X113080598Y-100702242D01*
X113074803Y-100704592D01*
X113068887Y-100706658D01*
X113062859Y-100708430D01*
X113056727Y-100709901D01*
X113050500Y-100711060D01*
X113044189Y-100711900D01*
X113037801Y-100712410D01*
X113031346Y-100712582D01*
X113024892Y-100712410D01*
X113018504Y-100711900D01*
X113012193Y-100711060D01*
X113005967Y-100709901D01*
X112999835Y-100708430D01*
X112993806Y-100706658D01*
X112987890Y-100704592D01*
X112982095Y-100702243D01*
X112976431Y-100699618D01*
X112970906Y-100696728D01*
X112965529Y-100693581D01*
X112960310Y-100690186D01*
X112955258Y-100686552D01*
X112950381Y-100682688D01*
X112945688Y-100678604D01*
X112941190Y-100674308D01*
X112936894Y-100669809D01*
X112932809Y-100665117D01*
X112928945Y-100660240D01*
X112925312Y-100655187D01*
X112921916Y-100649968D01*
X112918769Y-100644592D01*
X112915879Y-100639067D01*
X112913254Y-100633402D01*
X112910905Y-100627607D01*
X112908839Y-100621691D01*
X112907067Y-100615662D01*
X112905596Y-100609530D01*
X112904436Y-100603304D01*
X112903597Y-100596993D01*
X112903087Y-100590605D01*
X112902915Y-100584150D01*
X112902915Y-99033304D01*
X112902398Y-99013051D01*
X112900865Y-98993055D01*
X112898341Y-98973342D01*
X112894852Y-98953936D01*
X112890422Y-98934863D01*
X112885077Y-98916148D01*
X112878842Y-98897817D01*
X112871743Y-98879895D01*
X112863805Y-98862407D01*
X112855053Y-98845379D01*
X112845513Y-98828835D01*
X112835209Y-98812801D01*
X112824167Y-98797303D01*
X112812413Y-98782366D01*
X112799972Y-98768014D01*
X112786868Y-98754274D01*
X112773128Y-98741171D01*
X112758777Y-98728729D01*
X112743839Y-98716975D01*
X112728341Y-98705934D01*
X112712308Y-98695630D01*
X112695764Y-98686089D01*
X112678735Y-98677337D01*
X112661247Y-98669399D01*
X112643325Y-98662300D01*
X112624994Y-98656065D01*
X112606280Y-98650721D01*
X112587207Y-98646291D01*
X112567801Y-98642801D01*
X112548087Y-98640277D01*
X112528092Y-98638745D01*
X112507839Y-98638228D01*
X112487586Y-98638745D01*
X112467590Y-98640277D01*
X112447876Y-98642801D01*
X112428470Y-98646291D01*
X112409398Y-98650721D01*
X112390683Y-98656065D01*
X112372352Y-98662300D01*
X112354430Y-98669399D01*
X112336942Y-98677337D01*
X112319913Y-98686089D01*
X112303369Y-98695630D01*
X112287336Y-98705934D01*
X112271838Y-98716975D01*
X112256900Y-98728729D01*
X112242549Y-98741171D01*
X112228809Y-98754274D01*
X112215705Y-98768014D01*
X112203264Y-98782366D01*
X112191510Y-98797303D01*
X112180468Y-98812801D01*
X112170164Y-98828835D01*
X112160624Y-98845379D01*
X112151872Y-98862407D01*
X112143934Y-98879895D01*
X112136835Y-98897817D01*
X112130600Y-98916148D01*
X112125255Y-98934863D01*
X112120825Y-98953936D01*
X112117336Y-98973342D01*
X112114812Y-98993055D01*
X112113279Y-99013051D01*
X112112763Y-99033304D01*
X112112763Y-100584079D01*
X112112591Y-100590534D01*
X112112080Y-100596922D01*
X112111241Y-100603233D01*
X112110081Y-100609459D01*
X112108611Y-100615591D01*
X112106838Y-100621620D01*
X112104773Y-100627536D01*
X112102423Y-100633331D01*
X112099799Y-100638995D01*
X112096908Y-100644520D01*
X112093761Y-100649897D01*
X112090366Y-100655116D01*
X112086732Y-100660168D01*
X112082869Y-100665045D01*
X112078784Y-100669738D01*
X112074488Y-100674237D01*
X112069989Y-100678533D01*
X112065297Y-100682617D01*
X112060420Y-100686481D01*
X112055368Y-100690115D01*
X112050148Y-100693510D01*
X112044772Y-100696657D01*
X112039247Y-100699547D01*
X112033582Y-100702172D01*
X112027787Y-100704521D01*
X112021871Y-100706587D01*
X112015842Y-100708360D01*
X112009710Y-100709830D01*
X112003484Y-100710990D01*
X111997173Y-100711829D01*
X111990785Y-100712339D01*
X111984330Y-100712512D01*
X111977876Y-100712339D01*
X111971488Y-100711829D01*
X111965177Y-100710990D01*
X111958951Y-100709830D01*
X111952819Y-100708360D01*
X111946790Y-100706587D01*
X111940874Y-100704522D01*
X111935079Y-100702172D01*
X111929415Y-100699548D01*
X111923890Y-100696657D01*
X111918513Y-100693510D01*
X111913294Y-100690115D01*
X111908242Y-100686481D01*
X111903365Y-100682618D01*
X111898672Y-100678533D01*
X111894173Y-100674237D01*
X111889877Y-100669739D01*
X111885793Y-100665046D01*
X111881929Y-100660169D01*
X111878295Y-100655117D01*
X111874900Y-100649898D01*
X111871753Y-100644521D01*
X111868863Y-100638996D01*
X111866238Y-100633332D01*
X111863889Y-100627537D01*
X111861823Y-100621620D01*
X111860050Y-100615592D01*
X111858580Y-100609460D01*
X111857420Y-100603234D01*
X111856581Y-100596922D01*
X111856071Y-100590534D01*
X111855899Y-100584079D01*
X111855899Y-96791013D01*
X111855382Y-96770760D01*
X111853849Y-96750764D01*
X111851325Y-96731051D01*
X111847836Y-96711645D01*
X111843406Y-96692572D01*
X111838061Y-96673858D01*
X111831826Y-96655526D01*
X111824727Y-96637604D01*
X111816789Y-96620116D01*
X111808037Y-96603088D01*
X111798497Y-96586544D01*
X111788193Y-96570510D01*
X111777151Y-96555012D01*
X111765397Y-96540075D01*
X111752956Y-96525723D01*
X111739852Y-96511983D01*
X111726112Y-96498880D01*
X111711761Y-96486439D01*
X111696823Y-96474684D01*
X111681325Y-96463643D01*
X111665291Y-96453339D01*
X111648748Y-96443799D01*
X111631719Y-96435047D01*
X111614231Y-96427108D01*
X111596309Y-96420009D01*
X111577978Y-96413775D01*
X111559263Y-96408430D01*
X111540191Y-96404000D01*
X111520785Y-96400510D01*
X111501071Y-96397987D01*
X111481075Y-96396454D01*
X111460823Y-96395937D01*
X111440570Y-96396454D01*
X111420574Y-96397987D01*
X111400860Y-96400510D01*
X111381454Y-96404000D01*
X111362382Y-96408430D01*
X111343667Y-96413775D01*
X111325336Y-96420009D01*
X111307414Y-96427108D01*
X111289926Y-96435047D01*
X111272897Y-96443799D01*
X111256353Y-96453339D01*
X111240320Y-96463643D01*
X111224822Y-96474684D01*
X111209884Y-96486439D01*
X111195533Y-96498880D01*
X111181793Y-96511983D01*
X111168689Y-96525724D01*
X111156248Y-96540075D01*
X111144493Y-96555012D01*
X111133452Y-96570511D01*
X111123148Y-96586544D01*
X111113608Y-96603088D01*
X111104856Y-96620116D01*
X111096917Y-96637604D01*
X111089818Y-96655527D01*
X111083584Y-96673858D01*
X111078239Y-96692572D01*
X111073809Y-96711645D01*
X111070319Y-96731051D01*
X111067796Y-96750764D01*
X111066263Y-96770760D01*
X111065746Y-96791013D01*
X111065677Y-100574202D01*
X111065505Y-100580657D01*
X111064995Y-100587044D01*
X111064155Y-100593356D01*
X111062996Y-100599582D01*
X111061525Y-100605713D01*
X111059753Y-100611742D01*
X111057687Y-100617658D01*
X111055337Y-100623453D01*
X111052713Y-100629118D01*
X111049823Y-100634643D01*
X111046675Y-100640019D01*
X111043280Y-100645238D01*
X111039646Y-100650291D01*
X111035783Y-100655168D01*
X111031698Y-100659860D01*
X111027402Y-100664359D01*
X111022903Y-100668655D01*
X111018211Y-100672740D01*
X111013334Y-100676603D01*
X111008281Y-100680237D01*
X111003062Y-100683632D01*
X110997686Y-100686780D01*
X110992161Y-100689670D01*
X110986496Y-100692294D01*
X110980701Y-100694644D01*
X110974785Y-100696710D01*
X110968757Y-100698482D01*
X110962625Y-100699953D01*
X110956399Y-100701112D01*
X110950087Y-100701952D01*
X110943700Y-100702462D01*
X110937245Y-100702634D01*
X110930790Y-100702462D01*
X110924403Y-100701952D01*
X110918092Y-100701112D01*
X110911865Y-100699953D01*
X110905734Y-100698482D01*
X110899705Y-100696710D01*
X110893789Y-100694644D01*
X110887994Y-100692295D01*
X110882330Y-100689670D01*
X110876805Y-100686780D01*
X110871428Y-100683633D01*
X110866209Y-100680238D01*
X110861156Y-100676604D01*
X110856279Y-100672740D01*
X110851587Y-100668656D01*
X110847088Y-100664360D01*
X110842792Y-100659861D01*
X110838708Y-100655169D01*
X110834844Y-100650292D01*
X110831210Y-100645239D01*
X110827815Y-100640020D01*
X110824668Y-100634644D01*
X110821777Y-100629119D01*
X110819153Y-100623454D01*
X110816803Y-100617659D01*
X110814737Y-100611743D01*
X110812965Y-100605714D01*
X110811494Y-100599582D01*
X110810335Y-100593356D01*
X110809495Y-100587045D01*
X110808985Y-100580657D01*
X110808813Y-100574202D01*
X110808813Y-99033286D01*
X110808296Y-99013033D01*
X110806764Y-98993037D01*
X110804240Y-98973324D01*
X110800750Y-98953918D01*
X110796320Y-98934845D01*
X110790975Y-98916131D01*
X110784741Y-98897799D01*
X110777642Y-98879877D01*
X110769704Y-98862389D01*
X110760952Y-98845361D01*
X110751411Y-98828817D01*
X110741107Y-98812784D01*
X110730066Y-98797285D01*
X110718312Y-98782348D01*
X110705870Y-98767997D01*
X110692767Y-98754256D01*
X110679027Y-98741153D01*
X110664675Y-98728712D01*
X110649738Y-98716957D01*
X110634240Y-98705916D01*
X110618206Y-98695612D01*
X110601662Y-98686072D01*
X110584634Y-98677320D01*
X110567146Y-98669381D01*
X110549224Y-98662282D01*
X110530893Y-98656048D01*
X110512178Y-98650703D01*
X110493105Y-98646273D01*
X110473699Y-98642783D01*
X110453986Y-98640260D01*
X110433990Y-98638727D01*
X110413737Y-98638210D01*
X110393484Y-98638727D01*
X110373488Y-98640260D01*
X110353775Y-98642783D01*
X110334369Y-98646273D01*
X110315296Y-98650703D01*
X110296581Y-98656048D01*
X110278250Y-98662282D01*
X110260328Y-98669381D01*
X110242840Y-98677320D01*
X110225812Y-98686072D01*
X110209268Y-98695612D01*
X110193234Y-98705916D01*
X110177736Y-98716957D01*
X110162799Y-98728712D01*
X110148447Y-98741153D01*
X110134707Y-98754256D01*
X110121604Y-98767997D01*
X110109162Y-98782348D01*
X110097408Y-98797285D01*
X110086367Y-98812784D01*
X110076063Y-98828817D01*
X110066522Y-98845361D01*
X110057770Y-98862389D01*
X110049832Y-98879877D01*
X110042733Y-98897799D01*
X110036499Y-98916131D01*
X110031154Y-98934845D01*
X110026724Y-98953918D01*
X110023234Y-98973324D01*
X110020710Y-98993037D01*
X110019178Y-99013033D01*
X110018661Y-99033286D01*
X110018592Y-100742124D01*
X110018592Y-100870556D01*
X110020105Y-100961752D01*
X110020921Y-101043168D01*
X110021042Y-101115442D01*
X110020467Y-101179209D01*
X110019196Y-101235106D01*
X110017230Y-101283769D01*
X110015986Y-101305587D01*
X110014568Y-101325835D01*
X110012976Y-101344593D01*
X110011211Y-101361941D01*
X110009272Y-101377957D01*
X110007159Y-101392722D01*
X110004872Y-101406315D01*
X110002412Y-101418816D01*
X109999777Y-101430303D01*
X109996969Y-101440858D01*
X109993988Y-101450559D01*
X109990832Y-101459485D01*
X109987503Y-101467718D01*
X109984000Y-101475335D01*
X109980323Y-101482416D01*
X109976473Y-101489042D01*
X109972449Y-101495291D01*
X109968252Y-101501244D01*
X109959336Y-101512576D01*
X109953778Y-101517902D01*
X109948203Y-101522779D01*
X109942599Y-101527222D01*
X109936950Y-101531245D01*
X109931243Y-101534862D01*
X109925463Y-101538089D01*
X109919596Y-101540939D01*
X109913628Y-101543428D01*
X109907544Y-101545569D01*
X109901331Y-101547378D01*
X109894974Y-101548868D01*
X109888458Y-101550055D01*
X109881770Y-101550953D01*
X109874896Y-101551577D01*
X109867820Y-101551940D01*
X109860530Y-101552058D01*
X109851446Y-101551773D01*
X109842704Y-101550941D01*
X109834297Y-101549591D01*
X109826221Y-101547754D01*
X109818470Y-101545462D01*
X109811039Y-101542744D01*
X109803923Y-101539632D01*
X109797115Y-101536157D01*
X109790611Y-101532348D01*
X109784405Y-101528238D01*
X109778492Y-101523856D01*
X109772867Y-101519233D01*
X109767523Y-101514401D01*
X109762456Y-101509389D01*
X109757660Y-101504230D01*
X109753130Y-101498952D01*
X109744846Y-101488168D01*
X109737560Y-101477282D01*
X109731229Y-101466542D01*
X109725810Y-101456192D01*
X109721260Y-101446480D01*
X109717536Y-101437651D01*
X109712392Y-101423626D01*
X109435814Y-100663019D01*
X109383750Y-100522420D01*
X109359577Y-100457965D01*
X109335968Y-100397561D01*
X109312417Y-100341324D01*
X109288417Y-100289369D01*
X109276090Y-100265034D01*
X109263461Y-100241813D01*
X109250467Y-100219720D01*
X109237044Y-100198770D01*
X109223128Y-100178978D01*
X109208658Y-100160358D01*
X109193568Y-100142924D01*
X109177797Y-100126691D01*
X109161280Y-100111674D01*
X109143954Y-100097887D01*
X109125756Y-100085344D01*
X109106624Y-100074059D01*
X109086492Y-100064048D01*
X109065299Y-100055325D01*
X109042980Y-100047904D01*
X109019473Y-100041800D01*
X108994714Y-100037028D01*
X108968639Y-100033601D01*
X108941187Y-100031534D01*
X108912292Y-100030842D01*
X108890072Y-100031287D01*
X108867852Y-100032546D01*
X108845631Y-100034500D01*
X108823411Y-100037034D01*
X108801190Y-100040029D01*
X108778969Y-100043370D01*
X108734527Y-100050616D01*
X108730855Y-100051603D01*
X108727240Y-100052703D01*
X108720184Y-100055222D01*
X108713358Y-100058146D01*
X108706764Y-100061445D01*
X108700400Y-100065090D01*
X108694268Y-100069053D01*
X108688366Y-100073304D01*
X108682695Y-100077816D01*
X108677255Y-100082558D01*
X108672047Y-100087502D01*
X108667069Y-100092619D01*
X108662322Y-100097881D01*
X108657806Y-100103258D01*
X108653520Y-100108722D01*
X108649466Y-100114244D01*
X108645643Y-100119794D01*
X108643911Y-100125463D01*
X108642410Y-100131350D01*
X108641140Y-100137440D01*
X108640101Y-100143719D01*
X108639293Y-100150172D01*
X108638715Y-100156785D01*
X108638369Y-100163542D01*
X108638253Y-100170429D01*
X108384404Y-100170429D01*
X108384312Y-100160754D01*
X108385178Y-100140797D01*
D11*
%TO.C,VR1*%
X86574476Y-93686380D02*
X86907809Y-94686380D01*
X87241142Y-93686380D01*
X88145904Y-94686380D02*
X87812571Y-94210190D01*
X87574476Y-94686380D02*
X87574476Y-93686380D01*
X87955428Y-93686380D01*
X88050666Y-93734000D01*
X88098285Y-93781619D01*
X88145904Y-93876857D01*
X88145904Y-94019714D01*
X88098285Y-94114952D01*
X88050666Y-94162571D01*
X87955428Y-94210190D01*
X87574476Y-94210190D01*
X89098285Y-94686380D02*
X88526857Y-94686380D01*
X88812571Y-94686380D02*
X88812571Y-93686380D01*
X88717333Y-93829238D01*
X88622095Y-93924476D01*
X88526857Y-93972095D01*
%TO.C,R9*%
X83470990Y-104190673D02*
X83137657Y-103714483D01*
X82899561Y-104190673D02*
X82899561Y-103190673D01*
X83280514Y-103190673D01*
X83375752Y-103238293D01*
X83423371Y-103285912D01*
X83470990Y-103381150D01*
X83470990Y-103524007D01*
X83423371Y-103619245D01*
X83375752Y-103666864D01*
X83280514Y-103714483D01*
X82899561Y-103714483D01*
X83947180Y-104190673D02*
X84137657Y-104190673D01*
X84232895Y-104143054D01*
X84280514Y-104095435D01*
X84375752Y-103952578D01*
X84423371Y-103762102D01*
X84423371Y-103381150D01*
X84375752Y-103285912D01*
X84328133Y-103238293D01*
X84232895Y-103190673D01*
X84042418Y-103190673D01*
X83947180Y-103238293D01*
X83899561Y-103285912D01*
X83851942Y-103381150D01*
X83851942Y-103619245D01*
X83899561Y-103714483D01*
X83947180Y-103762102D01*
X84042418Y-103809721D01*
X84232895Y-103809721D01*
X84328133Y-103762102D01*
X84375752Y-103714483D01*
X84423371Y-103619245D01*
%TO.C,J2*%
X84756666Y-104813380D02*
X84756666Y-105527666D01*
X84709047Y-105670523D01*
X84613809Y-105765761D01*
X84470952Y-105813380D01*
X84375714Y-105813380D01*
X85185238Y-104908619D02*
X85232857Y-104861000D01*
X85328095Y-104813380D01*
X85566190Y-104813380D01*
X85661428Y-104861000D01*
X85709047Y-104908619D01*
X85756666Y-105003857D01*
X85756666Y-105099095D01*
X85709047Y-105241952D01*
X85137619Y-105813380D01*
X85756666Y-105813380D01*
%TO.C,C2*%
X111847333Y-111101142D02*
X111799714Y-111148761D01*
X111656857Y-111196380D01*
X111561619Y-111196380D01*
X111418761Y-111148761D01*
X111323523Y-111053523D01*
X111275904Y-110958285D01*
X111228285Y-110767809D01*
X111228285Y-110624952D01*
X111275904Y-110434476D01*
X111323523Y-110339238D01*
X111418761Y-110244000D01*
X111561619Y-110196380D01*
X111656857Y-110196380D01*
X111799714Y-110244000D01*
X111847333Y-110291619D01*
X112228285Y-110291619D02*
X112275904Y-110244000D01*
X112371142Y-110196380D01*
X112609238Y-110196380D01*
X112704476Y-110244000D01*
X112752095Y-110291619D01*
X112799714Y-110386857D01*
X112799714Y-110482095D01*
X112752095Y-110624952D01*
X112180666Y-111196380D01*
X112799714Y-111196380D01*
%TO.C,R2*%
X92797333Y-94686380D02*
X92464000Y-94210190D01*
X92225904Y-94686380D02*
X92225904Y-93686380D01*
X92606857Y-93686380D01*
X92702095Y-93734000D01*
X92749714Y-93781619D01*
X92797333Y-93876857D01*
X92797333Y-94019714D01*
X92749714Y-94114952D01*
X92702095Y-94162571D01*
X92606857Y-94210190D01*
X92225904Y-94210190D01*
X93178285Y-93781619D02*
X93225904Y-93734000D01*
X93321142Y-93686380D01*
X93559238Y-93686380D01*
X93654476Y-93734000D01*
X93702095Y-93781619D01*
X93749714Y-93876857D01*
X93749714Y-93972095D01*
X93702095Y-94114952D01*
X93130666Y-94686380D01*
X93749714Y-94686380D01*
%TO.C,U1*%
X98298095Y-82510380D02*
X98298095Y-83319904D01*
X98345714Y-83415142D01*
X98393333Y-83462761D01*
X98488571Y-83510380D01*
X98679047Y-83510380D01*
X98774285Y-83462761D01*
X98821904Y-83415142D01*
X98869523Y-83319904D01*
X98869523Y-82510380D01*
X99869523Y-83510380D02*
X99298095Y-83510380D01*
X99583809Y-83510380D02*
X99583809Y-82510380D01*
X99488571Y-82653238D01*
X99393333Y-82748476D01*
X99298095Y-82796095D01*
%TO.C,R1*%
X112101333Y-108910380D02*
X111768000Y-108434190D01*
X111529904Y-108910380D02*
X111529904Y-107910380D01*
X111910857Y-107910380D01*
X112006095Y-107958000D01*
X112053714Y-108005619D01*
X112101333Y-108100857D01*
X112101333Y-108243714D01*
X112053714Y-108338952D01*
X112006095Y-108386571D01*
X111910857Y-108434190D01*
X111529904Y-108434190D01*
X113053714Y-108910380D02*
X112482285Y-108910380D01*
X112768000Y-108910380D02*
X112768000Y-107910380D01*
X112672761Y-108053238D01*
X112577523Y-108148476D01*
X112482285Y-108196095D01*
%TO.C,C4*%
X87971333Y-104097142D02*
X87923714Y-104144761D01*
X87780857Y-104192380D01*
X87685619Y-104192380D01*
X87542761Y-104144761D01*
X87447523Y-104049523D01*
X87399904Y-103954285D01*
X87352285Y-103763809D01*
X87352285Y-103620952D01*
X87399904Y-103430476D01*
X87447523Y-103335238D01*
X87542761Y-103240000D01*
X87685619Y-103192380D01*
X87780857Y-103192380D01*
X87923714Y-103240000D01*
X87971333Y-103287619D01*
X88828476Y-103525714D02*
X88828476Y-104192380D01*
X88590380Y-103144761D02*
X88352285Y-103859047D01*
X88971333Y-103859047D01*
%TO.C,R6*%
X93559333Y-109672380D02*
X93226000Y-109196190D01*
X92987904Y-109672380D02*
X92987904Y-108672380D01*
X93368857Y-108672380D01*
X93464095Y-108720000D01*
X93511714Y-108767619D01*
X93559333Y-108862857D01*
X93559333Y-109005714D01*
X93511714Y-109100952D01*
X93464095Y-109148571D01*
X93368857Y-109196190D01*
X92987904Y-109196190D01*
X94416476Y-108672380D02*
X94226000Y-108672380D01*
X94130761Y-108720000D01*
X94083142Y-108767619D01*
X93987904Y-108910476D01*
X93940285Y-109100952D01*
X93940285Y-109481904D01*
X93987904Y-109577142D01*
X94035523Y-109624761D01*
X94130761Y-109672380D01*
X94321238Y-109672380D01*
X94416476Y-109624761D01*
X94464095Y-109577142D01*
X94511714Y-109481904D01*
X94511714Y-109243809D01*
X94464095Y-109148571D01*
X94416476Y-109100952D01*
X94321238Y-109053333D01*
X94130761Y-109053333D01*
X94035523Y-109100952D01*
X93987904Y-109148571D01*
X93940285Y-109243809D01*
%TO.C,J1*%
X118792666Y-88303380D02*
X118792666Y-89017666D01*
X118745047Y-89160523D01*
X118649809Y-89255761D01*
X118506952Y-89303380D01*
X118411714Y-89303380D01*
X119792666Y-89303380D02*
X119221238Y-89303380D01*
X119506952Y-89303380D02*
X119506952Y-88303380D01*
X119411714Y-88446238D01*
X119316476Y-88541476D01*
X119221238Y-88589095D01*
%TO.C,R7*%
X93305333Y-112466380D02*
X92972000Y-111990190D01*
X92733904Y-112466380D02*
X92733904Y-111466380D01*
X93114857Y-111466380D01*
X93210095Y-111514000D01*
X93257714Y-111561619D01*
X93305333Y-111656857D01*
X93305333Y-111799714D01*
X93257714Y-111894952D01*
X93210095Y-111942571D01*
X93114857Y-111990190D01*
X92733904Y-111990190D01*
X93638666Y-111466380D02*
X94305333Y-111466380D01*
X93876761Y-112466380D01*
%TO.C,C3*%
X94829333Y-94591142D02*
X94781714Y-94638761D01*
X94638857Y-94686380D01*
X94543619Y-94686380D01*
X94400761Y-94638761D01*
X94305523Y-94543523D01*
X94257904Y-94448285D01*
X94210285Y-94257809D01*
X94210285Y-94114952D01*
X94257904Y-93924476D01*
X94305523Y-93829238D01*
X94400761Y-93734000D01*
X94543619Y-93686380D01*
X94638857Y-93686380D01*
X94781714Y-93734000D01*
X94829333Y-93781619D01*
X95162666Y-93686380D02*
X95781714Y-93686380D01*
X95448380Y-94067333D01*
X95591238Y-94067333D01*
X95686476Y-94114952D01*
X95734095Y-94162571D01*
X95781714Y-94257809D01*
X95781714Y-94495904D01*
X95734095Y-94591142D01*
X95686476Y-94638761D01*
X95591238Y-94686380D01*
X95305523Y-94686380D01*
X95210285Y-94638761D01*
X95162666Y-94591142D01*
%TO.C,R8*%
X85685333Y-104192380D02*
X85352000Y-103716190D01*
X85113904Y-104192380D02*
X85113904Y-103192380D01*
X85494857Y-103192380D01*
X85590095Y-103240000D01*
X85637714Y-103287619D01*
X85685333Y-103382857D01*
X85685333Y-103525714D01*
X85637714Y-103620952D01*
X85590095Y-103668571D01*
X85494857Y-103716190D01*
X85113904Y-103716190D01*
X86256761Y-103620952D02*
X86161523Y-103573333D01*
X86113904Y-103525714D01*
X86066285Y-103430476D01*
X86066285Y-103382857D01*
X86113904Y-103287619D01*
X86161523Y-103240000D01*
X86256761Y-103192380D01*
X86447238Y-103192380D01*
X86542476Y-103240000D01*
X86590095Y-103287619D01*
X86637714Y-103382857D01*
X86637714Y-103430476D01*
X86590095Y-103525714D01*
X86542476Y-103573333D01*
X86447238Y-103620952D01*
X86256761Y-103620952D01*
X86161523Y-103668571D01*
X86113904Y-103716190D01*
X86066285Y-103811428D01*
X86066285Y-104001904D01*
X86113904Y-104097142D01*
X86161523Y-104144761D01*
X86256761Y-104192380D01*
X86447238Y-104192380D01*
X86542476Y-104144761D01*
X86590095Y-104097142D01*
X86637714Y-104001904D01*
X86637714Y-103811428D01*
X86590095Y-103716190D01*
X86542476Y-103668571D01*
X86447238Y-103620952D01*
%TO.C,C5*%
X90257333Y-104097142D02*
X90209714Y-104144761D01*
X90066857Y-104192380D01*
X89971619Y-104192380D01*
X89828761Y-104144761D01*
X89733523Y-104049523D01*
X89685904Y-103954285D01*
X89638285Y-103763809D01*
X89638285Y-103620952D01*
X89685904Y-103430476D01*
X89733523Y-103335238D01*
X89828761Y-103240000D01*
X89971619Y-103192380D01*
X90066857Y-103192380D01*
X90209714Y-103240000D01*
X90257333Y-103287619D01*
X91162095Y-103192380D02*
X90685904Y-103192380D01*
X90638285Y-103668571D01*
X90685904Y-103620952D01*
X90781142Y-103573333D01*
X91019238Y-103573333D01*
X91114476Y-103620952D01*
X91162095Y-103668571D01*
X91209714Y-103763809D01*
X91209714Y-104001904D01*
X91162095Y-104097142D01*
X91114476Y-104144761D01*
X91019238Y-104192380D01*
X90781142Y-104192380D01*
X90685904Y-104144761D01*
X90638285Y-104097142D01*
%TO.C,C1*%
X90765333Y-94591142D02*
X90717714Y-94638761D01*
X90574857Y-94686380D01*
X90479619Y-94686380D01*
X90336761Y-94638761D01*
X90241523Y-94543523D01*
X90193904Y-94448285D01*
X90146285Y-94257809D01*
X90146285Y-94114952D01*
X90193904Y-93924476D01*
X90241523Y-93829238D01*
X90336761Y-93734000D01*
X90479619Y-93686380D01*
X90574857Y-93686380D01*
X90717714Y-93734000D01*
X90765333Y-93781619D01*
X91717714Y-94686380D02*
X91146285Y-94686380D01*
X91432000Y-94686380D02*
X91432000Y-93686380D01*
X91336761Y-93829238D01*
X91241523Y-93924476D01*
X91146285Y-93972095D01*
D12*
%TO.C,VR1*%
X83060000Y-97734000D02*
G75*
G03*
X83060000Y-97734000I-100000J0D01*
G01*
D13*
X83110000Y-92484000D02*
X83490000Y-92484000D01*
X83110000Y-95984000D02*
X83110000Y-92484000D01*
X89610000Y-92484000D02*
X89610000Y-95984000D01*
X89230000Y-92484000D02*
X89610000Y-92484000D01*
D14*
%TO.C,R9*%
X82831000Y-100972936D02*
X82831000Y-101427064D01*
X84301000Y-100972936D02*
X84301000Y-101427064D01*
%TO.C,J2*%
X83760000Y-106361000D02*
X85090000Y-106361000D01*
X83760000Y-108961000D02*
X86420000Y-108961000D01*
X83760000Y-108961000D02*
X83760000Y-111561000D01*
X83760000Y-107691000D02*
X83760000Y-106361000D01*
X86420000Y-108961000D02*
X86420000Y-111561000D01*
X83760000Y-111561000D02*
X86420000Y-111561000D01*
%TO.C,C2*%
X115323252Y-111479000D02*
X114800748Y-111479000D01*
X115323252Y-110009000D02*
X114800748Y-110009000D01*
%TO.C,R2*%
X92229000Y-91212936D02*
X92229000Y-91667064D01*
X93699000Y-91212936D02*
X93699000Y-91667064D01*
D12*
%TO.C,U1*%
X96834000Y-88466000D02*
G75*
G03*
X96834000Y-88466000I-100000J0D01*
G01*
D13*
X115934000Y-80976000D02*
X115934000Y-87696000D01*
X97934000Y-87696000D02*
X97934000Y-80976000D01*
X97934000Y-105746000D02*
X97934000Y-106476000D01*
X115934000Y-106476000D02*
X114689000Y-106476000D01*
X97934000Y-80976000D02*
X115934000Y-80976000D01*
X115934000Y-105746000D02*
X115934000Y-106476000D01*
X97934000Y-106476000D02*
X99179000Y-106476000D01*
D14*
%TO.C,R1*%
X114834936Y-109193000D02*
X115289064Y-109193000D01*
X114834936Y-107723000D02*
X115289064Y-107723000D01*
%TO.C,C4*%
X87403000Y-100938748D02*
X87403000Y-101461252D01*
X88873000Y-100938748D02*
X88873000Y-101461252D01*
%TO.C,R6*%
X96038936Y-109955000D02*
X96493064Y-109955000D01*
X96038936Y-108485000D02*
X96493064Y-108485000D01*
%TO.C,J1*%
X117796000Y-89851000D02*
X119126000Y-89851000D01*
X117796000Y-92451000D02*
X117796000Y-107751000D01*
X117796000Y-92451000D02*
X120456000Y-92451000D01*
X117796000Y-107751000D02*
X120456000Y-107751000D01*
X120456000Y-92451000D02*
X120456000Y-107751000D01*
X117796000Y-91181000D02*
X117796000Y-89851000D01*
%TO.C,R7*%
X96038936Y-112749000D02*
X96493064Y-112749000D01*
X96038936Y-111279000D02*
X96493064Y-111279000D01*
%TO.C,C3*%
X94261000Y-91701252D02*
X94261000Y-91178748D01*
X95731000Y-91701252D02*
X95731000Y-91178748D01*
%TO.C,R8*%
X86587000Y-100972936D02*
X86587000Y-101427064D01*
X85117000Y-100972936D02*
X85117000Y-101427064D01*
%TO.C,C5*%
X91159000Y-100938748D02*
X91159000Y-101461252D01*
X89689000Y-100938748D02*
X89689000Y-101461252D01*
%TO.C,C1*%
X91667000Y-91178748D02*
X91667000Y-91701252D01*
X90197000Y-91178748D02*
X90197000Y-91701252D01*
%TD*%
M02*
