M48
; DRILL file {KiCad (6.0.7)} date Sat Apr 15 22:34:53 2023
; FORMAT={-:-/ absolute / metric / decimal}
; #@! TF.CreationDate,2023-04-15T22:34:53+02:00
; #@! TF.GenerationSoftware,Kicad,Pcbnew,(6.0.7)
; #@! TF.FileFunction,Plated,1,2,PTH
FMAT,2
METRIC
; #@! TA.AperFunction,Plated,PTH,ComponentDrill
T1C0.200
; #@! TA.AperFunction,Plated,PTH,ViaDrill
T2C0.400
; #@! TA.AperFunction,Plated,PTH,ComponentDrill
T3C0.500
; #@! TA.AperFunction,Plated,PTH,ComponentDrill
T4C1.000
; #@! TA.AperFunction,Plated,PTH,ComponentDrill
T5C1.300
%
G90
G05
T1
X104.034Y-95.486
X104.034Y-96.886
X104.734Y-94.786
X104.734Y-96.186
X104.734Y-97.586
X105.434Y-95.486
X105.434Y-96.886
X106.134Y-94.786
X106.134Y-96.186
X106.134Y-97.586
X106.834Y-95.486
X106.834Y-96.886
T2
X83.82Y-94.996
X85.09Y-99.438
X88.138Y-99.06
X89.154Y-110.236
X90.17Y-87.122
X90.424Y-81.788
X90.424Y-116.078
X91.44Y-85.598
X93.726Y-110.236
X93.98Y-89.154
X94.234Y-96.774
X94.742Y-104.394
X95.25Y-113.538
X96.52Y-94.488
X99.822Y-102.108
X100.076Y-95.25
X100.33Y-103.378
X101.854Y-118.11
X102.87Y-91.186
X104.154Y-100.808
X104.281Y-89.821
X105.156Y-108.204
X106.172Y-95.504
X106.68Y-92.71
X110.744Y-102.87
X111.824Y-89.906
X112.522Y-109.474
X112.753Y-94.982
X112.776Y-113.538
X113.792Y-99.314
X117.602Y-97.79
X118.498Y-83.85
X119.126Y-110.998
T3
X84.11Y-89.534
X84.11Y-91.134
X84.11Y-92.734
X85.61Y-89.534
X85.61Y-92.734
X87.11Y-89.534
X87.11Y-92.734
X88.61Y-89.534
X88.61Y-91.134
X88.61Y-92.734
T4
X85.09Y-107.691
X85.09Y-110.231
X119.126Y-91.181
X119.126Y-93.721
X119.126Y-96.261
X119.126Y-98.801
X119.126Y-101.341
X119.126Y-103.881
X119.126Y-106.421
T5
X94.1Y-115.616
X99.1Y-115.616
X104.1Y-115.616
X109.1Y-115.616
T0
M30
