%TF.GenerationSoftware,KiCad,Pcbnew,(6.0.7)*%
%TF.CreationDate,2023-04-15T21:03:17+02:00*%
%TF.ProjectId,sensor board,73656e73-6f72-4206-926f-6172642e6b69,rev?*%
%TF.SameCoordinates,Original*%
%TF.FileFunction,Paste,Top*%
%TF.FilePolarity,Positive*%
%FSLAX46Y46*%
G04 Gerber Fmt 4.6, Leading zero omitted, Abs format (unit mm)*
G04 Created by KiCad (PCBNEW (6.0.7)) date 2023-04-15 21:03:17*
%MOMM*%
%LPD*%
G01*
G04 APERTURE LIST*
G04 Aperture macros list*
%AMRoundRect*
0 Rectangle with rounded corners*
0 $1 Rounding radius*
0 $2 $3 $4 $5 $6 $7 $8 $9 X,Y pos of 4 corners*
0 Add a 4 corners polygon primitive as box body*
4,1,4,$2,$3,$4,$5,$6,$7,$8,$9,$2,$3,0*
0 Add four circle primitives for the rounded corners*
1,1,$1+$1,$2,$3*
1,1,$1+$1,$4,$5*
1,1,$1+$1,$6,$7*
1,1,$1+$1,$8,$9*
0 Add four rect primitives between the rounded corners*
20,1,$1+$1,$2,$3,$4,$5,0*
20,1,$1+$1,$4,$5,$6,$7,0*
20,1,$1+$1,$6,$7,$8,$9,0*
20,1,$1+$1,$8,$9,$2,$3,0*%
G04 Aperture macros list end*
%ADD10C,0.010000*%
%ADD11RoundRect,0.250000X-0.450000X0.350000X-0.450000X-0.350000X0.450000X-0.350000X0.450000X0.350000X0*%
%ADD12RoundRect,0.250000X-0.475000X0.337500X-0.475000X-0.337500X0.475000X-0.337500X0.475000X0.337500X0*%
%ADD13RoundRect,0.250000X0.350000X0.450000X-0.350000X0.450000X-0.350000X-0.450000X0.350000X-0.450000X0*%
%ADD14R,1.500000X0.900000*%
%ADD15R,0.900000X1.500000*%
%ADD16R,0.900000X0.900000*%
%ADD17RoundRect,0.250000X0.450000X-0.350000X0.450000X0.350000X-0.450000X0.350000X-0.450000X-0.350000X0*%
%ADD18RoundRect,0.250000X0.475000X-0.337500X0.475000X0.337500X-0.475000X0.337500X-0.475000X-0.337500X0*%
%ADD19R,1.500000X1.500000*%
%ADD20RoundRect,0.250000X0.337500X0.475000X-0.337500X0.475000X-0.337500X-0.475000X0.337500X-0.475000X0*%
G04 APERTURE END LIST*
%TO.C,VR1*%
G36*
X96975000Y-122285000D02*
G01*
X93525000Y-122285000D01*
X93525000Y-120135000D01*
X96975000Y-120135000D01*
X96975000Y-122285000D01*
G37*
D10*
X96975000Y-122285000D02*
X93525000Y-122285000D01*
X93525000Y-120135000D01*
X96975000Y-120135000D01*
X96975000Y-122285000D01*
G36*
X94255000Y-116085000D02*
G01*
X93705000Y-116085000D01*
X93705000Y-113935000D01*
X94255000Y-113935000D01*
X94255000Y-116085000D01*
G37*
X94255000Y-116085000D02*
X93705000Y-116085000D01*
X93705000Y-113935000D01*
X94255000Y-113935000D01*
X94255000Y-116085000D01*
G36*
X96795000Y-116085000D02*
G01*
X96245000Y-116085000D01*
X96245000Y-113935000D01*
X96795000Y-113935000D01*
X96795000Y-116085000D01*
G37*
X96795000Y-116085000D02*
X96245000Y-116085000D01*
X96245000Y-113935000D01*
X96795000Y-113935000D01*
X96795000Y-116085000D01*
G36*
X95525000Y-116085000D02*
G01*
X94975000Y-116085000D01*
X94975000Y-113935000D01*
X95525000Y-113935000D01*
X95525000Y-116085000D01*
G37*
X95525000Y-116085000D02*
X94975000Y-116085000D01*
X94975000Y-113935000D01*
X95525000Y-113935000D01*
X95525000Y-116085000D01*
G36*
X92985000Y-116085000D02*
G01*
X92435000Y-116085000D01*
X92435000Y-113935000D01*
X92985000Y-113935000D01*
X92985000Y-116085000D01*
G37*
X92985000Y-116085000D02*
X92435000Y-116085000D01*
X92435000Y-113935000D01*
X92985000Y-113935000D01*
X92985000Y-116085000D01*
G36*
X98065000Y-116085000D02*
G01*
X97515000Y-116085000D01*
X97515000Y-113935000D01*
X98065000Y-113935000D01*
X98065000Y-116085000D01*
G37*
X98065000Y-116085000D02*
X97515000Y-116085000D01*
X97515000Y-113935000D01*
X98065000Y-113935000D01*
X98065000Y-116085000D01*
%TD*%
D11*
%TO.C,R9*%
X99605500Y-110144000D03*
X99605500Y-112144000D03*
%TD*%
D12*
%TO.C,C2*%
X114010000Y-107950000D03*
X114010000Y-110025000D03*
%TD*%
D13*
%TO.C,R2*%
X88122000Y-89408000D03*
X86122000Y-89408000D03*
%TD*%
D14*
%TO.C,U1*%
X91250000Y-88466000D03*
X91250000Y-89736000D03*
X91250000Y-91006000D03*
X91250000Y-92276000D03*
X91250000Y-93546000D03*
X91250000Y-94816000D03*
X91250000Y-96086000D03*
X91250000Y-97356000D03*
X91250000Y-98626000D03*
X91250000Y-99896000D03*
X91250000Y-101166000D03*
X91250000Y-102436000D03*
X91250000Y-103706000D03*
X91250000Y-104976000D03*
D15*
X93015000Y-106226000D03*
X94285000Y-106226000D03*
X95555000Y-106226000D03*
X96825000Y-106226000D03*
X98095000Y-106226000D03*
X99365000Y-106226000D03*
X100635000Y-106226000D03*
X101905000Y-106226000D03*
X103175000Y-106226000D03*
X104445000Y-106226000D03*
X105715000Y-106226000D03*
X106985000Y-106226000D03*
D14*
X108750000Y-104976000D03*
X108750000Y-103706000D03*
X108750000Y-102436000D03*
X108750000Y-101166000D03*
X108750000Y-99896000D03*
X108750000Y-98626000D03*
X108750000Y-97356000D03*
X108750000Y-96086000D03*
X108750000Y-94816000D03*
X108750000Y-93546000D03*
X108750000Y-92276000D03*
X108750000Y-91006000D03*
X108750000Y-89736000D03*
X108750000Y-88466000D03*
D16*
X98500000Y-96186000D03*
X97100000Y-96186000D03*
X99900000Y-96186000D03*
X97100000Y-97586000D03*
X98500000Y-97586000D03*
X99900000Y-97586000D03*
X97100000Y-94786000D03*
X98500000Y-94786000D03*
X99900000Y-94786000D03*
%TD*%
D17*
%TO.C,R1*%
X111724000Y-109987500D03*
X111724000Y-107987500D03*
%TD*%
D18*
%TO.C,C4*%
X95033500Y-112181500D03*
X95033500Y-110106500D03*
%TD*%
D19*
%TO.C,SW1*%
X113792000Y-104230000D03*
X113792000Y-96430000D03*
%TD*%
%TO.C,SW2*%
X84328000Y-103900000D03*
X84328000Y-96100000D03*
%TD*%
D11*
%TO.C,R6*%
X94234000Y-140224000D03*
X94234000Y-142224000D03*
%TD*%
%TO.C,R7*%
X104140000Y-140224000D03*
X104140000Y-142224000D03*
%TD*%
D12*
%TO.C,C3*%
X88138000Y-95990500D03*
X88138000Y-98065500D03*
%TD*%
D17*
%TO.C,R8*%
X97319500Y-112144000D03*
X97319500Y-110144000D03*
%TD*%
D18*
%TO.C,C5*%
X92747500Y-112181500D03*
X92747500Y-110106500D03*
%TD*%
D20*
%TO.C,C1*%
X88159500Y-91440000D03*
X86084500Y-91440000D03*
%TD*%
M02*
