M48
; DRILL file {KiCad (6.0.7)} date Sat Apr 15 21:03:28 2023
; FORMAT={-:-/ absolute / metric / decimal}
; #@! TF.CreationDate,2023-04-15T21:03:28+02:00
; #@! TF.GenerationSoftware,Kicad,Pcbnew,(6.0.7)
; #@! TF.FileFunction,Plated,1,2,PTH
FMAT,2
METRIC
; #@! TA.AperFunction,Plated,PTH,ComponentDrill
T1C0.200
; #@! TA.AperFunction,Plated,PTH,ViaDrill
T2C0.400
; #@! TA.AperFunction,Plated,PTH,ComponentDrill
T3C0.500
; #@! TA.AperFunction,Plated,PTH,ComponentDrill
T4C1.000
; #@! TA.AperFunction,Plated,PTH,ComponentDrill
T5C1.300
%
G90
G05
T1
X97.1Y-95.486
X97.1Y-96.886
X97.8Y-94.786
X97.8Y-96.186
X97.8Y-97.586
X98.5Y-95.486
X98.5Y-96.886
X99.2Y-94.786
X99.2Y-96.186
X99.2Y-97.586
X99.9Y-95.486
X99.9Y-96.886
T2
X83.058Y-129.286
X83.267Y-89.119
X83.312Y-106.934
X83.566Y-123.19
X83.566Y-136.906
X83.586Y-111.347
X84.582Y-143.002
X86.11Y-93.742
X86.36Y-130.048
X87.63Y-122.682
X88.121Y-143.476
X88.392Y-113.03
X89.399Y-86.244
X89.408Y-81.788
X89.588Y-89.736
X90.548Y-146.414
X90.932Y-150.114
X91.44Y-108.458
X92.71Y-94.742
X92.71Y-96.012
X92.71Y-102.362
X92.964Y-138.684
X93.726Y-126.238
X94.082Y-113.132
X94.189Y-98.189
X94.996Y-99.568
X94.996Y-128.524
X97.028Y-103.632
X97.282Y-133.35
X97.511Y-88.927
X98.298Y-126.492
X100.33Y-103.378
X101.051Y-131.525
X101.092Y-108.966
X101.346Y-119.888
X101.854Y-91.948
X102.362Y-141.478
X104.154Y-100.808
X104.281Y-89.821
X104.394Y-114.554
X106.172Y-95.504
X106.934Y-99.568
X108.204Y-109.474
X111.76Y-111.506
X112.01Y-87.522
X112.014Y-105.918
X112.268Y-82.55
X113.03Y-150.114
X113.224Y-144.179
X115.824Y-89.408
X116.586Y-101.346
X117.44Y-143.668
X117.856Y-118.618
X118.27Y-128.146
X118.364Y-111.252
X118.845Y-138.238
T3
X93.0Y-119.61
X93.0Y-121.21
X93.0Y-122.81
X94.5Y-119.61
X94.5Y-122.81
X96.0Y-119.61
X96.0Y-122.81
X97.5Y-119.61
X97.5Y-121.21
X97.5Y-122.81
T4
X85.052Y-115.057
X85.052Y-117.597
X119.126Y-91.181
X119.126Y-93.721
X119.126Y-96.261
X119.126Y-98.801
X119.126Y-101.341
X119.126Y-103.881
X119.126Y-106.421
T5
X94.1Y-148.382
X99.1Y-148.382
X104.1Y-148.382
X109.1Y-148.382
T0
M30
