%TF.GenerationSoftware,KiCad,Pcbnew,(6.0.7)*%
%TF.CreationDate,2023-04-15T21:03:17+02:00*%
%TF.ProjectId,sensor board,73656e73-6f72-4206-926f-6172642e6b69,rev?*%
%TF.SameCoordinates,Original*%
%TF.FileFunction,Legend,Top*%
%TF.FilePolarity,Positive*%
%FSLAX46Y46*%
G04 Gerber Fmt 4.6, Leading zero omitted, Abs format (unit mm)*
G04 Created by KiCad (PCBNEW (6.0.7)) date 2023-04-15 21:03:17*
%MOMM*%
%LPD*%
G01*
G04 APERTURE LIST*
%ADD10C,0.010000*%
%ADD11C,0.150000*%
%ADD12C,0.120000*%
%ADD13C,0.127000*%
%ADD14C,0.200000*%
G04 APERTURE END LIST*
D10*
G36*
X101030307Y-99504932D02*
G01*
X101032214Y-99485090D01*
X101035149Y-99465436D01*
X101039096Y-99446043D01*
X101044042Y-99426983D01*
X101049972Y-99408328D01*
X101056873Y-99390152D01*
X101064729Y-99372527D01*
X101073526Y-99355525D01*
X101083346Y-99339094D01*
X101094269Y-99323154D01*
X101106234Y-99307735D01*
X101119185Y-99292864D01*
X101133063Y-99278572D01*
X101147811Y-99264886D01*
X101163370Y-99251838D01*
X101179682Y-99239454D01*
X101196689Y-99227765D01*
X101214334Y-99216800D01*
X101232558Y-99206587D01*
X101251302Y-99197156D01*
X101270510Y-99188536D01*
X101290122Y-99180755D01*
X101310082Y-99173844D01*
X101330331Y-99167830D01*
X101359965Y-99160879D01*
X101389599Y-99154858D01*
X101419234Y-99149765D01*
X101448870Y-99145600D01*
X101478506Y-99142362D01*
X101508142Y-99140050D01*
X101537778Y-99138664D01*
X101567415Y-99138202D01*
X101605565Y-99139095D01*
X101642260Y-99141761D01*
X101677553Y-99146177D01*
X101711492Y-99152323D01*
X101744129Y-99160176D01*
X101775515Y-99169714D01*
X101805700Y-99180917D01*
X101834734Y-99193761D01*
X101862669Y-99208227D01*
X101889555Y-99224290D01*
X101915442Y-99241932D01*
X101940382Y-99261128D01*
X101964424Y-99281858D01*
X101987620Y-99304101D01*
X102031675Y-99353035D01*
X102072951Y-99407756D01*
X102111853Y-99468092D01*
X102148788Y-99533868D01*
X102184158Y-99604912D01*
X102218371Y-99681049D01*
X102251830Y-99762105D01*
X102318108Y-99938284D01*
X102406992Y-100195089D01*
X102406992Y-98407227D01*
X102407853Y-98373197D01*
X102410407Y-98339668D01*
X102414611Y-98306678D01*
X102420421Y-98274266D01*
X102427793Y-98242470D01*
X102436685Y-98211326D01*
X102447053Y-98180874D01*
X102458853Y-98151151D01*
X102472043Y-98122196D01*
X102486578Y-98094045D01*
X102502415Y-98066738D01*
X102519512Y-98040312D01*
X102537824Y-98014805D01*
X102557307Y-97990255D01*
X102577920Y-97966700D01*
X102599618Y-97944178D01*
X102622357Y-97922726D01*
X102646095Y-97902384D01*
X102670788Y-97883188D01*
X102696392Y-97865177D01*
X102722865Y-97848389D01*
X102750162Y-97832862D01*
X102778241Y-97818633D01*
X102807057Y-97805741D01*
X102836568Y-97794223D01*
X102866730Y-97784118D01*
X102897500Y-97775463D01*
X102928833Y-97768297D01*
X102960688Y-97762657D01*
X102993020Y-97758582D01*
X103025786Y-97756109D01*
X103058943Y-97755276D01*
X103086597Y-97755853D01*
X103113992Y-97757572D01*
X103141098Y-97760421D01*
X103167887Y-97764384D01*
X103194328Y-97769446D01*
X103220394Y-97775594D01*
X103246056Y-97782813D01*
X103271283Y-97791087D01*
X103296049Y-97800403D01*
X103320322Y-97810747D01*
X103344075Y-97822102D01*
X103367279Y-97834456D01*
X103389904Y-97847794D01*
X103411922Y-97862100D01*
X103433303Y-97877361D01*
X103454019Y-97893561D01*
X103454019Y-96155090D01*
X103454880Y-96121059D01*
X103457434Y-96087531D01*
X103461638Y-96054541D01*
X103467447Y-96022129D01*
X103474820Y-95990332D01*
X103483712Y-95959189D01*
X103494080Y-95928737D01*
X103505880Y-95899014D01*
X103519070Y-95870059D01*
X103533605Y-95841908D01*
X103549442Y-95814601D01*
X103566539Y-95788175D01*
X103584850Y-95762668D01*
X103604334Y-95738118D01*
X103624947Y-95714563D01*
X103646644Y-95692040D01*
X103669384Y-95670589D01*
X103693122Y-95650247D01*
X103717815Y-95631051D01*
X103743419Y-95613040D01*
X103769892Y-95596252D01*
X103797189Y-95580725D01*
X103825267Y-95566496D01*
X103854084Y-95553604D01*
X103883595Y-95542086D01*
X103913757Y-95531981D01*
X103944526Y-95523326D01*
X103975860Y-95516160D01*
X104007715Y-95510520D01*
X104040047Y-95506445D01*
X104072813Y-95503972D01*
X104105970Y-95503139D01*
X104140000Y-95504000D01*
X104173529Y-95506554D01*
X104206519Y-95510758D01*
X104238931Y-95516567D01*
X104270727Y-95523940D01*
X104301871Y-95532832D01*
X104332323Y-95543200D01*
X104362045Y-95555000D01*
X104391001Y-95568190D01*
X104419151Y-95582725D01*
X104446458Y-95598562D01*
X104472885Y-95615659D01*
X104498392Y-95633970D01*
X104522942Y-95653454D01*
X104546497Y-95674067D01*
X104569019Y-95695764D01*
X104590470Y-95718504D01*
X104610813Y-95742242D01*
X104630009Y-95766935D01*
X104648019Y-95792539D01*
X104664808Y-95819012D01*
X104680335Y-95846309D01*
X104694564Y-95874387D01*
X104707456Y-95903204D01*
X104718974Y-95932715D01*
X104729079Y-95962877D01*
X104737733Y-95993646D01*
X104744900Y-96024980D01*
X104750539Y-96056835D01*
X104754615Y-96089167D01*
X104757088Y-96121933D01*
X104757921Y-96155090D01*
X104757921Y-97883772D01*
X104778636Y-97867571D01*
X104800017Y-97852311D01*
X104822034Y-97838005D01*
X104844658Y-97824667D01*
X104867862Y-97812313D01*
X104891614Y-97800958D01*
X104915888Y-97790614D01*
X104940653Y-97781298D01*
X104965880Y-97773023D01*
X104991542Y-97765805D01*
X105017608Y-97759657D01*
X105044050Y-97754594D01*
X105070839Y-97750631D01*
X105097945Y-97747783D01*
X105125341Y-97746063D01*
X105152997Y-97745486D01*
X105186215Y-97746294D01*
X105219143Y-97748706D01*
X105251722Y-97752710D01*
X105283895Y-97758291D01*
X105315605Y-97765434D01*
X105346792Y-97774124D01*
X105377400Y-97784349D01*
X105407371Y-97796093D01*
X105436646Y-97809342D01*
X105465169Y-97824082D01*
X105492881Y-97840298D01*
X105519724Y-97857977D01*
X105545640Y-97877103D01*
X105570572Y-97897662D01*
X105594463Y-97919641D01*
X105617253Y-97943024D01*
X105621413Y-97947630D01*
X105626502Y-97953977D01*
X105632520Y-97961950D01*
X105639465Y-97971429D01*
X105656136Y-97994436D01*
X105676509Y-98022055D01*
X105695765Y-98058263D01*
X105715839Y-98100609D01*
X105725856Y-98124265D01*
X105735687Y-98149672D01*
X105745200Y-98176903D01*
X105754265Y-98206029D01*
X105762752Y-98237123D01*
X105770531Y-98270257D01*
X105777471Y-98305503D01*
X105783441Y-98342934D01*
X105788312Y-98382621D01*
X105791952Y-98424637D01*
X105794232Y-98469054D01*
X105795021Y-98515944D01*
X105795021Y-98555425D01*
X105813560Y-98540959D01*
X105832172Y-98527217D01*
X105850928Y-98514226D01*
X105869900Y-98502017D01*
X105889162Y-98490618D01*
X105908784Y-98480059D01*
X105928841Y-98470367D01*
X105949402Y-98461573D01*
X105970542Y-98453705D01*
X105992333Y-98446792D01*
X106014846Y-98440863D01*
X106038153Y-98435947D01*
X106062328Y-98432073D01*
X106087442Y-98429270D01*
X106113568Y-98427567D01*
X106140778Y-98426993D01*
X106140778Y-98426996D01*
X106140777Y-98426998D01*
X106140776Y-98427001D01*
X106140775Y-98427003D01*
X106140772Y-98427012D01*
X106140771Y-98427014D01*
X106173616Y-98427875D01*
X106205471Y-98430429D01*
X106236332Y-98434633D01*
X106266193Y-98440442D01*
X106295048Y-98447815D01*
X106322892Y-98456707D01*
X106349719Y-98467074D01*
X106375525Y-98478874D01*
X106400303Y-98492063D01*
X106424049Y-98506598D01*
X106446757Y-98522435D01*
X106468421Y-98539530D01*
X106489036Y-98557841D01*
X106508597Y-98577324D01*
X106527098Y-98597935D01*
X106544534Y-98619631D01*
X106560899Y-98642369D01*
X106576188Y-98666104D01*
X106590396Y-98690795D01*
X106603516Y-98716397D01*
X106615544Y-98742867D01*
X106626475Y-98770161D01*
X106645021Y-98827049D01*
X106659110Y-98886714D01*
X106668700Y-98948808D01*
X106673747Y-99012984D01*
X106674207Y-99078895D01*
X106674207Y-101350783D01*
X106672220Y-101495691D01*
X106666182Y-101637735D01*
X106655977Y-101776827D01*
X106641490Y-101912881D01*
X106622604Y-102045810D01*
X106599203Y-102175527D01*
X106571173Y-102301946D01*
X106538396Y-102424979D01*
X106500758Y-102544540D01*
X106458142Y-102660541D01*
X106410433Y-102772897D01*
X106357515Y-102881521D01*
X106299272Y-102986324D01*
X106235589Y-103087222D01*
X106166348Y-103184126D01*
X106091436Y-103276951D01*
X106004823Y-103373955D01*
X105915242Y-103464910D01*
X105822507Y-103549787D01*
X105726429Y-103628558D01*
X105626819Y-103701193D01*
X105523491Y-103767663D01*
X105416255Y-103827940D01*
X105304924Y-103881995D01*
X105189311Y-103929799D01*
X105069226Y-103971322D01*
X104944481Y-104006537D01*
X104814890Y-104035413D01*
X104680263Y-104057923D01*
X104540413Y-104074037D01*
X104395152Y-104083727D01*
X104244292Y-104086963D01*
X104004189Y-104080573D01*
X103888771Y-104072557D01*
X103776413Y-104061304D01*
X103667094Y-104046795D01*
X103560791Y-104029012D01*
X103457483Y-104007937D01*
X103357148Y-103983553D01*
X103259765Y-103955841D01*
X103165312Y-103924782D01*
X103073767Y-103890359D01*
X102985109Y-103852554D01*
X102899316Y-103811349D01*
X102816365Y-103766726D01*
X102736237Y-103718666D01*
X102658908Y-103667151D01*
X102584357Y-103612164D01*
X102512563Y-103553686D01*
X102443503Y-103491700D01*
X102377156Y-103426186D01*
X102313501Y-103357128D01*
X102252516Y-103284507D01*
X102194178Y-103208304D01*
X102138467Y-103128503D01*
X102085361Y-103045084D01*
X102034837Y-102958030D01*
X101986875Y-102867323D01*
X101941453Y-102772944D01*
X101898548Y-102674876D01*
X101858139Y-102573100D01*
X101820205Y-102467598D01*
X101784724Y-102358352D01*
X101677142Y-101988052D01*
X101559374Y-101564737D01*
X101322914Y-100684076D01*
X101053751Y-99661719D01*
X101046924Y-99642987D01*
X101041239Y-99623863D01*
X101036682Y-99604418D01*
X101033238Y-99584726D01*
X101030892Y-99564858D01*
X101029632Y-99544888D01*
X101029533Y-99534564D01*
X101283382Y-99534564D01*
X101283498Y-99541566D01*
X101283844Y-99548670D01*
X101284422Y-99555859D01*
X101285230Y-99563120D01*
X101286269Y-99570439D01*
X101287539Y-99577799D01*
X101289040Y-99585187D01*
X101290772Y-99592588D01*
X101561170Y-100619890D01*
X101800555Y-101503953D01*
X101920769Y-101928384D01*
X102031605Y-102299099D01*
X102098671Y-102492322D01*
X102174100Y-102672031D01*
X102258153Y-102838369D01*
X102351090Y-102991483D01*
X102400971Y-103063125D01*
X102453171Y-103131516D01*
X102507723Y-103196672D01*
X102564658Y-103258613D01*
X102624010Y-103317356D01*
X102685810Y-103372919D01*
X102750092Y-103425321D01*
X102816889Y-103474579D01*
X102886231Y-103520712D01*
X102958153Y-103563737D01*
X103032687Y-103603673D01*
X103109865Y-103640538D01*
X103189720Y-103674350D01*
X103272284Y-103705126D01*
X103445671Y-103757647D01*
X103630286Y-103798245D01*
X103826390Y-103827064D01*
X104034243Y-103844249D01*
X104254105Y-103849946D01*
X104390378Y-103846947D01*
X104521501Y-103838001D01*
X104647646Y-103823179D01*
X104768987Y-103802554D01*
X104885699Y-103776198D01*
X104997955Y-103744183D01*
X105105927Y-103706582D01*
X105209791Y-103663467D01*
X105309720Y-103614911D01*
X105405886Y-103560987D01*
X105498464Y-103501765D01*
X105587628Y-103437320D01*
X105673550Y-103367722D01*
X105756405Y-103293046D01*
X105836367Y-103213362D01*
X105913608Y-103128744D01*
X105981348Y-103043555D01*
X106043879Y-102954720D01*
X106101315Y-102862297D01*
X106153773Y-102766343D01*
X106201368Y-102666918D01*
X106244216Y-102564078D01*
X106282434Y-102457882D01*
X106316137Y-102348387D01*
X106345441Y-102235651D01*
X106370462Y-102119732D01*
X106391315Y-102000689D01*
X106408117Y-101878578D01*
X106420984Y-101753458D01*
X106430031Y-101625387D01*
X106435374Y-101494422D01*
X106437129Y-101360622D01*
X106437129Y-99948135D01*
X106447016Y-99079023D01*
X106446075Y-99038774D01*
X106443196Y-98999655D01*
X106438291Y-98961868D01*
X106435051Y-98943537D01*
X106431272Y-98925614D01*
X106426944Y-98908126D01*
X106422055Y-98891098D01*
X106416594Y-98874554D01*
X106410551Y-98858521D01*
X106403915Y-98843022D01*
X106396674Y-98828085D01*
X106388819Y-98813734D01*
X106380337Y-98799993D01*
X106371219Y-98786890D01*
X106361454Y-98774449D01*
X106351030Y-98762694D01*
X106339936Y-98751653D01*
X106328163Y-98741349D01*
X106315699Y-98731809D01*
X106302533Y-98723057D01*
X106288654Y-98715118D01*
X106274052Y-98708019D01*
X106258715Y-98701785D01*
X106242633Y-98696440D01*
X106225795Y-98692010D01*
X106208190Y-98688520D01*
X106189807Y-98685997D01*
X106170636Y-98684464D01*
X106150665Y-98683947D01*
X106130552Y-98684464D01*
X106110968Y-98685997D01*
X106091919Y-98688520D01*
X106073412Y-98692010D01*
X106055455Y-98696440D01*
X106038056Y-98701785D01*
X106021220Y-98708019D01*
X106004956Y-98715118D01*
X105989271Y-98723056D01*
X105974172Y-98731808D01*
X105959666Y-98741349D01*
X105945761Y-98751653D01*
X105932463Y-98762694D01*
X105919781Y-98774448D01*
X105907720Y-98786890D01*
X105896289Y-98799993D01*
X105885495Y-98813733D01*
X105875345Y-98828085D01*
X105865846Y-98843022D01*
X105857005Y-98858520D01*
X105848830Y-98874554D01*
X105841328Y-98891098D01*
X105834506Y-98908126D01*
X105828371Y-98925614D01*
X105818193Y-98961867D01*
X105810851Y-98999655D01*
X105806403Y-99038774D01*
X105804908Y-99079023D01*
X105804908Y-99948285D01*
X105804736Y-99954740D01*
X105804225Y-99961127D01*
X105803386Y-99967439D01*
X105802227Y-99973665D01*
X105800756Y-99979797D01*
X105798984Y-99985825D01*
X105796918Y-99991741D01*
X105794568Y-99997536D01*
X105791944Y-100003201D01*
X105789054Y-100008726D01*
X105785906Y-100014102D01*
X105782511Y-100019321D01*
X105778877Y-100024374D01*
X105775014Y-100029251D01*
X105770929Y-100033943D01*
X105766633Y-100038442D01*
X105762135Y-100042738D01*
X105757442Y-100046823D01*
X105752565Y-100050686D01*
X105747513Y-100054320D01*
X105742294Y-100057715D01*
X105736917Y-100060863D01*
X105731392Y-100063753D01*
X105725727Y-100066377D01*
X105719932Y-100068727D01*
X105714016Y-100070793D01*
X105707988Y-100072565D01*
X105701856Y-100074036D01*
X105695629Y-100075195D01*
X105689318Y-100076035D01*
X105682930Y-100076545D01*
X105676475Y-100076717D01*
X105670021Y-100076545D01*
X105663633Y-100076035D01*
X105657322Y-100075195D01*
X105651096Y-100074036D01*
X105644964Y-100072565D01*
X105638935Y-100070793D01*
X105633019Y-100068727D01*
X105627224Y-100066378D01*
X105621560Y-100063753D01*
X105616035Y-100060863D01*
X105610658Y-100057716D01*
X105605439Y-100054321D01*
X105600387Y-100050687D01*
X105595510Y-100046823D01*
X105590817Y-100042739D01*
X105586319Y-100038443D01*
X105582023Y-100033944D01*
X105577938Y-100029252D01*
X105574074Y-100024375D01*
X105570441Y-100019322D01*
X105567045Y-100014103D01*
X105563898Y-100008727D01*
X105561008Y-100003202D01*
X105558383Y-99997537D01*
X105556034Y-99991742D01*
X105553968Y-99985826D01*
X105552196Y-99979797D01*
X105550725Y-99973665D01*
X105549565Y-99967439D01*
X105548726Y-99961128D01*
X105548216Y-99954740D01*
X105548044Y-99948285D01*
X105548044Y-98397439D01*
X105547527Y-98377186D01*
X105545994Y-98357190D01*
X105543470Y-98337477D01*
X105539981Y-98318071D01*
X105535551Y-98298998D01*
X105530206Y-98280283D01*
X105523971Y-98261952D01*
X105516872Y-98244030D01*
X105508934Y-98226542D01*
X105500182Y-98209514D01*
X105490642Y-98192970D01*
X105480338Y-98176936D01*
X105469296Y-98161438D01*
X105457542Y-98146501D01*
X105445101Y-98132149D01*
X105431997Y-98118409D01*
X105418257Y-98105306D01*
X105403906Y-98092864D01*
X105388968Y-98081110D01*
X105373470Y-98070069D01*
X105357437Y-98059765D01*
X105340893Y-98050224D01*
X105323864Y-98041472D01*
X105306376Y-98033534D01*
X105288454Y-98026435D01*
X105270123Y-98020200D01*
X105251409Y-98014856D01*
X105232336Y-98010426D01*
X105212930Y-98006936D01*
X105193216Y-98004412D01*
X105173221Y-98002880D01*
X105152968Y-98002363D01*
X105132715Y-98002880D01*
X105112719Y-98004412D01*
X105093005Y-98006936D01*
X105073599Y-98010426D01*
X105054527Y-98014856D01*
X105035812Y-98020200D01*
X105017481Y-98026435D01*
X104999559Y-98033534D01*
X104982071Y-98041472D01*
X104965042Y-98050224D01*
X104948498Y-98059765D01*
X104932465Y-98070069D01*
X104916967Y-98081110D01*
X104902029Y-98092864D01*
X104887678Y-98105306D01*
X104873938Y-98118409D01*
X104860834Y-98132149D01*
X104848393Y-98146501D01*
X104836639Y-98161438D01*
X104825597Y-98176936D01*
X104815293Y-98192970D01*
X104805753Y-98209514D01*
X104797001Y-98226542D01*
X104789063Y-98244030D01*
X104781964Y-98261952D01*
X104775729Y-98280283D01*
X104770384Y-98298998D01*
X104765954Y-98318071D01*
X104762465Y-98337477D01*
X104759941Y-98357190D01*
X104758408Y-98377186D01*
X104757892Y-98397439D01*
X104757892Y-99948214D01*
X104757720Y-99954669D01*
X104757209Y-99961057D01*
X104756370Y-99967368D01*
X104755210Y-99973594D01*
X104753740Y-99979726D01*
X104751967Y-99985755D01*
X104749902Y-99991671D01*
X104747552Y-99997466D01*
X104744928Y-100003130D01*
X104742037Y-100008655D01*
X104738890Y-100014032D01*
X104735495Y-100019251D01*
X104731861Y-100024303D01*
X104727998Y-100029180D01*
X104723913Y-100033873D01*
X104719617Y-100038372D01*
X104715118Y-100042668D01*
X104710426Y-100046752D01*
X104705549Y-100050616D01*
X104700497Y-100054250D01*
X104695277Y-100057645D01*
X104689901Y-100060792D01*
X104684376Y-100063682D01*
X104678711Y-100066307D01*
X104672916Y-100068656D01*
X104667000Y-100070722D01*
X104660971Y-100072495D01*
X104654839Y-100073965D01*
X104648613Y-100075125D01*
X104642302Y-100075964D01*
X104635914Y-100076474D01*
X104629459Y-100076647D01*
X104623005Y-100076474D01*
X104616617Y-100075964D01*
X104610306Y-100075125D01*
X104604080Y-100073965D01*
X104597948Y-100072495D01*
X104591919Y-100070722D01*
X104586003Y-100068657D01*
X104580208Y-100066307D01*
X104574544Y-100063683D01*
X104569019Y-100060792D01*
X104563642Y-100057645D01*
X104558423Y-100054250D01*
X104553371Y-100050616D01*
X104548494Y-100046753D01*
X104543801Y-100042668D01*
X104539302Y-100038372D01*
X104535006Y-100033874D01*
X104530922Y-100029181D01*
X104527058Y-100024304D01*
X104523424Y-100019252D01*
X104520029Y-100014033D01*
X104516882Y-100008656D01*
X104513992Y-100003131D01*
X104511367Y-99997467D01*
X104509018Y-99991672D01*
X104506952Y-99985755D01*
X104505179Y-99979727D01*
X104503709Y-99973595D01*
X104502549Y-99967369D01*
X104501710Y-99961057D01*
X104501200Y-99954669D01*
X104501028Y-99948214D01*
X104501028Y-96155148D01*
X104500511Y-96134895D01*
X104498978Y-96114899D01*
X104496454Y-96095186D01*
X104492965Y-96075780D01*
X104488535Y-96056707D01*
X104483190Y-96037993D01*
X104476955Y-96019661D01*
X104469856Y-96001739D01*
X104461918Y-95984251D01*
X104453166Y-95967223D01*
X104443626Y-95950679D01*
X104433322Y-95934645D01*
X104422280Y-95919147D01*
X104410526Y-95904210D01*
X104398085Y-95889858D01*
X104384981Y-95876118D01*
X104371241Y-95863015D01*
X104356890Y-95850574D01*
X104341952Y-95838819D01*
X104326454Y-95827778D01*
X104310420Y-95817474D01*
X104293877Y-95807934D01*
X104276848Y-95799182D01*
X104259360Y-95791243D01*
X104241438Y-95784144D01*
X104223107Y-95777910D01*
X104204392Y-95772565D01*
X104185320Y-95768135D01*
X104165914Y-95764645D01*
X104146200Y-95762122D01*
X104126204Y-95760589D01*
X104105952Y-95760072D01*
X104085699Y-95760589D01*
X104065703Y-95762122D01*
X104045989Y-95764645D01*
X104026583Y-95768135D01*
X104007511Y-95772565D01*
X103988796Y-95777910D01*
X103970465Y-95784144D01*
X103952543Y-95791243D01*
X103935055Y-95799182D01*
X103918026Y-95807934D01*
X103901482Y-95817474D01*
X103885449Y-95827778D01*
X103869951Y-95838819D01*
X103855013Y-95850574D01*
X103840662Y-95863015D01*
X103826922Y-95876118D01*
X103813818Y-95889859D01*
X103801377Y-95904210D01*
X103789622Y-95919147D01*
X103778581Y-95934646D01*
X103768277Y-95950679D01*
X103758737Y-95967223D01*
X103749985Y-95984251D01*
X103742046Y-96001739D01*
X103734947Y-96019662D01*
X103728713Y-96037993D01*
X103723368Y-96056707D01*
X103718938Y-96075780D01*
X103715448Y-96095186D01*
X103712925Y-96114899D01*
X103711392Y-96134895D01*
X103710875Y-96155148D01*
X103710806Y-99938337D01*
X103710634Y-99944792D01*
X103710124Y-99951179D01*
X103709284Y-99957491D01*
X103708125Y-99963717D01*
X103706654Y-99969848D01*
X103704882Y-99975877D01*
X103702816Y-99981793D01*
X103700466Y-99987588D01*
X103697842Y-99993253D01*
X103694952Y-99998778D01*
X103691804Y-100004154D01*
X103688409Y-100009373D01*
X103684775Y-100014426D01*
X103680912Y-100019303D01*
X103676827Y-100023995D01*
X103672531Y-100028494D01*
X103668032Y-100032790D01*
X103663340Y-100036875D01*
X103658463Y-100040738D01*
X103653410Y-100044372D01*
X103648191Y-100047767D01*
X103642815Y-100050915D01*
X103637290Y-100053805D01*
X103631625Y-100056429D01*
X103625830Y-100058779D01*
X103619914Y-100060845D01*
X103613886Y-100062617D01*
X103607754Y-100064088D01*
X103601528Y-100065247D01*
X103595216Y-100066087D01*
X103588829Y-100066597D01*
X103582374Y-100066769D01*
X103575919Y-100066597D01*
X103569532Y-100066087D01*
X103563221Y-100065247D01*
X103556994Y-100064088D01*
X103550863Y-100062617D01*
X103544834Y-100060845D01*
X103538918Y-100058779D01*
X103533123Y-100056430D01*
X103527459Y-100053805D01*
X103521934Y-100050915D01*
X103516557Y-100047768D01*
X103511338Y-100044373D01*
X103506285Y-100040739D01*
X103501408Y-100036875D01*
X103496716Y-100032791D01*
X103492217Y-100028495D01*
X103487921Y-100023996D01*
X103483837Y-100019304D01*
X103479973Y-100014427D01*
X103476339Y-100009374D01*
X103472944Y-100004155D01*
X103469797Y-99998779D01*
X103466906Y-99993254D01*
X103464282Y-99987589D01*
X103461932Y-99981794D01*
X103459866Y-99975878D01*
X103458094Y-99969849D01*
X103456623Y-99963717D01*
X103455464Y-99957491D01*
X103454624Y-99951180D01*
X103454114Y-99944792D01*
X103453942Y-99938337D01*
X103453942Y-98397421D01*
X103453425Y-98377168D01*
X103451893Y-98357172D01*
X103449369Y-98337459D01*
X103445879Y-98318053D01*
X103441449Y-98298980D01*
X103436104Y-98280266D01*
X103429870Y-98261934D01*
X103422771Y-98244012D01*
X103414833Y-98226524D01*
X103406081Y-98209496D01*
X103396540Y-98192952D01*
X103386236Y-98176919D01*
X103375195Y-98161420D01*
X103363441Y-98146483D01*
X103350999Y-98132132D01*
X103337896Y-98118391D01*
X103324156Y-98105288D01*
X103309804Y-98092847D01*
X103294867Y-98081092D01*
X103279369Y-98070051D01*
X103263335Y-98059747D01*
X103246791Y-98050207D01*
X103229763Y-98041455D01*
X103212275Y-98033516D01*
X103194353Y-98026417D01*
X103176022Y-98020183D01*
X103157307Y-98014838D01*
X103138234Y-98010408D01*
X103118828Y-98006918D01*
X103099115Y-98004395D01*
X103079119Y-98002862D01*
X103058866Y-98002345D01*
X103038613Y-98002862D01*
X103018617Y-98004395D01*
X102998904Y-98006918D01*
X102979498Y-98010408D01*
X102960425Y-98014838D01*
X102941710Y-98020183D01*
X102923379Y-98026417D01*
X102905457Y-98033516D01*
X102887969Y-98041455D01*
X102870941Y-98050207D01*
X102854397Y-98059747D01*
X102838363Y-98070051D01*
X102822865Y-98081092D01*
X102807928Y-98092847D01*
X102793576Y-98105288D01*
X102779836Y-98118391D01*
X102766733Y-98132132D01*
X102754291Y-98146483D01*
X102742537Y-98161420D01*
X102731496Y-98176919D01*
X102721192Y-98192952D01*
X102711651Y-98209496D01*
X102702899Y-98226524D01*
X102694961Y-98244012D01*
X102687862Y-98261934D01*
X102681628Y-98280266D01*
X102676283Y-98298980D01*
X102671853Y-98318053D01*
X102668363Y-98337459D01*
X102665839Y-98357172D01*
X102664307Y-98377168D01*
X102663790Y-98397421D01*
X102663721Y-100106259D01*
X102663721Y-100234691D01*
X102665234Y-100325887D01*
X102666050Y-100407303D01*
X102666171Y-100479577D01*
X102665596Y-100543344D01*
X102664325Y-100599241D01*
X102662359Y-100647904D01*
X102661115Y-100669722D01*
X102659697Y-100689970D01*
X102658105Y-100708728D01*
X102656340Y-100726076D01*
X102654401Y-100742092D01*
X102652288Y-100756857D01*
X102650001Y-100770450D01*
X102647541Y-100782951D01*
X102644906Y-100794438D01*
X102642098Y-100804993D01*
X102639117Y-100814694D01*
X102635961Y-100823620D01*
X102632632Y-100831853D01*
X102629129Y-100839470D01*
X102625452Y-100846551D01*
X102621602Y-100853177D01*
X102617578Y-100859426D01*
X102613381Y-100865379D01*
X102604465Y-100876711D01*
X102598907Y-100882037D01*
X102593332Y-100886914D01*
X102587728Y-100891357D01*
X102582079Y-100895380D01*
X102576372Y-100898997D01*
X102570592Y-100902224D01*
X102564725Y-100905074D01*
X102558757Y-100907563D01*
X102552673Y-100909704D01*
X102546460Y-100911513D01*
X102540103Y-100913003D01*
X102533587Y-100914190D01*
X102526899Y-100915088D01*
X102520025Y-100915712D01*
X102512949Y-100916075D01*
X102505659Y-100916193D01*
X102496575Y-100915908D01*
X102487833Y-100915076D01*
X102479426Y-100913726D01*
X102471350Y-100911889D01*
X102463599Y-100909597D01*
X102456168Y-100906879D01*
X102449052Y-100903767D01*
X102442244Y-100900292D01*
X102435740Y-100896483D01*
X102429534Y-100892373D01*
X102423621Y-100887991D01*
X102417996Y-100883368D01*
X102412652Y-100878536D01*
X102407585Y-100873524D01*
X102402789Y-100868365D01*
X102398259Y-100863087D01*
X102389975Y-100852303D01*
X102382689Y-100841417D01*
X102376358Y-100830677D01*
X102370939Y-100820327D01*
X102366389Y-100810615D01*
X102362665Y-100801786D01*
X102357521Y-100787761D01*
X102080943Y-100027154D01*
X102028879Y-99886555D01*
X102004706Y-99822100D01*
X101981097Y-99761696D01*
X101957546Y-99705459D01*
X101933546Y-99653504D01*
X101921219Y-99629169D01*
X101908590Y-99605948D01*
X101895596Y-99583855D01*
X101882173Y-99562905D01*
X101868257Y-99543113D01*
X101853787Y-99524493D01*
X101838697Y-99507059D01*
X101822926Y-99490826D01*
X101806409Y-99475809D01*
X101789083Y-99462022D01*
X101770885Y-99449479D01*
X101751753Y-99438194D01*
X101731621Y-99428183D01*
X101710428Y-99419460D01*
X101688109Y-99412039D01*
X101664602Y-99405935D01*
X101639843Y-99401163D01*
X101613768Y-99397736D01*
X101586316Y-99395669D01*
X101557421Y-99394977D01*
X101535201Y-99395422D01*
X101512981Y-99396681D01*
X101490760Y-99398635D01*
X101468540Y-99401169D01*
X101446319Y-99404164D01*
X101424098Y-99407505D01*
X101379656Y-99414751D01*
X101375984Y-99415738D01*
X101372369Y-99416838D01*
X101365313Y-99419357D01*
X101358487Y-99422281D01*
X101351893Y-99425580D01*
X101345529Y-99429225D01*
X101339397Y-99433188D01*
X101333495Y-99437439D01*
X101327824Y-99441951D01*
X101322384Y-99446693D01*
X101317176Y-99451637D01*
X101312198Y-99456754D01*
X101307451Y-99462016D01*
X101302935Y-99467393D01*
X101298649Y-99472857D01*
X101294595Y-99478379D01*
X101290772Y-99483929D01*
X101289040Y-99489598D01*
X101287539Y-99495485D01*
X101286269Y-99501575D01*
X101285230Y-99507854D01*
X101284422Y-99514307D01*
X101283844Y-99520920D01*
X101283498Y-99527677D01*
X101283382Y-99534564D01*
X101029533Y-99534564D01*
X101029441Y-99524889D01*
X101030307Y-99504932D01*
G37*
X101030307Y-99504932D02*
X101032214Y-99485090D01*
X101035149Y-99465436D01*
X101039096Y-99446043D01*
X101044042Y-99426983D01*
X101049972Y-99408328D01*
X101056873Y-99390152D01*
X101064729Y-99372527D01*
X101073526Y-99355525D01*
X101083346Y-99339094D01*
X101094269Y-99323154D01*
X101106234Y-99307735D01*
X101119185Y-99292864D01*
X101133063Y-99278572D01*
X101147811Y-99264886D01*
X101163370Y-99251838D01*
X101179682Y-99239454D01*
X101196689Y-99227765D01*
X101214334Y-99216800D01*
X101232558Y-99206587D01*
X101251302Y-99197156D01*
X101270510Y-99188536D01*
X101290122Y-99180755D01*
X101310082Y-99173844D01*
X101330331Y-99167830D01*
X101359965Y-99160879D01*
X101389599Y-99154858D01*
X101419234Y-99149765D01*
X101448870Y-99145600D01*
X101478506Y-99142362D01*
X101508142Y-99140050D01*
X101537778Y-99138664D01*
X101567415Y-99138202D01*
X101605565Y-99139095D01*
X101642260Y-99141761D01*
X101677553Y-99146177D01*
X101711492Y-99152323D01*
X101744129Y-99160176D01*
X101775515Y-99169714D01*
X101805700Y-99180917D01*
X101834734Y-99193761D01*
X101862669Y-99208227D01*
X101889555Y-99224290D01*
X101915442Y-99241932D01*
X101940382Y-99261128D01*
X101964424Y-99281858D01*
X101987620Y-99304101D01*
X102031675Y-99353035D01*
X102072951Y-99407756D01*
X102111853Y-99468092D01*
X102148788Y-99533868D01*
X102184158Y-99604912D01*
X102218371Y-99681049D01*
X102251830Y-99762105D01*
X102318108Y-99938284D01*
X102406992Y-100195089D01*
X102406992Y-98407227D01*
X102407853Y-98373197D01*
X102410407Y-98339668D01*
X102414611Y-98306678D01*
X102420421Y-98274266D01*
X102427793Y-98242470D01*
X102436685Y-98211326D01*
X102447053Y-98180874D01*
X102458853Y-98151151D01*
X102472043Y-98122196D01*
X102486578Y-98094045D01*
X102502415Y-98066738D01*
X102519512Y-98040312D01*
X102537824Y-98014805D01*
X102557307Y-97990255D01*
X102577920Y-97966700D01*
X102599618Y-97944178D01*
X102622357Y-97922726D01*
X102646095Y-97902384D01*
X102670788Y-97883188D01*
X102696392Y-97865177D01*
X102722865Y-97848389D01*
X102750162Y-97832862D01*
X102778241Y-97818633D01*
X102807057Y-97805741D01*
X102836568Y-97794223D01*
X102866730Y-97784118D01*
X102897500Y-97775463D01*
X102928833Y-97768297D01*
X102960688Y-97762657D01*
X102993020Y-97758582D01*
X103025786Y-97756109D01*
X103058943Y-97755276D01*
X103086597Y-97755853D01*
X103113992Y-97757572D01*
X103141098Y-97760421D01*
X103167887Y-97764384D01*
X103194328Y-97769446D01*
X103220394Y-97775594D01*
X103246056Y-97782813D01*
X103271283Y-97791087D01*
X103296049Y-97800403D01*
X103320322Y-97810747D01*
X103344075Y-97822102D01*
X103367279Y-97834456D01*
X103389904Y-97847794D01*
X103411922Y-97862100D01*
X103433303Y-97877361D01*
X103454019Y-97893561D01*
X103454019Y-96155090D01*
X103454880Y-96121059D01*
X103457434Y-96087531D01*
X103461638Y-96054541D01*
X103467447Y-96022129D01*
X103474820Y-95990332D01*
X103483712Y-95959189D01*
X103494080Y-95928737D01*
X103505880Y-95899014D01*
X103519070Y-95870059D01*
X103533605Y-95841908D01*
X103549442Y-95814601D01*
X103566539Y-95788175D01*
X103584850Y-95762668D01*
X103604334Y-95738118D01*
X103624947Y-95714563D01*
X103646644Y-95692040D01*
X103669384Y-95670589D01*
X103693122Y-95650247D01*
X103717815Y-95631051D01*
X103743419Y-95613040D01*
X103769892Y-95596252D01*
X103797189Y-95580725D01*
X103825267Y-95566496D01*
X103854084Y-95553604D01*
X103883595Y-95542086D01*
X103913757Y-95531981D01*
X103944526Y-95523326D01*
X103975860Y-95516160D01*
X104007715Y-95510520D01*
X104040047Y-95506445D01*
X104072813Y-95503972D01*
X104105970Y-95503139D01*
X104140000Y-95504000D01*
X104173529Y-95506554D01*
X104206519Y-95510758D01*
X104238931Y-95516567D01*
X104270727Y-95523940D01*
X104301871Y-95532832D01*
X104332323Y-95543200D01*
X104362045Y-95555000D01*
X104391001Y-95568190D01*
X104419151Y-95582725D01*
X104446458Y-95598562D01*
X104472885Y-95615659D01*
X104498392Y-95633970D01*
X104522942Y-95653454D01*
X104546497Y-95674067D01*
X104569019Y-95695764D01*
X104590470Y-95718504D01*
X104610813Y-95742242D01*
X104630009Y-95766935D01*
X104648019Y-95792539D01*
X104664808Y-95819012D01*
X104680335Y-95846309D01*
X104694564Y-95874387D01*
X104707456Y-95903204D01*
X104718974Y-95932715D01*
X104729079Y-95962877D01*
X104737733Y-95993646D01*
X104744900Y-96024980D01*
X104750539Y-96056835D01*
X104754615Y-96089167D01*
X104757088Y-96121933D01*
X104757921Y-96155090D01*
X104757921Y-97883772D01*
X104778636Y-97867571D01*
X104800017Y-97852311D01*
X104822034Y-97838005D01*
X104844658Y-97824667D01*
X104867862Y-97812313D01*
X104891614Y-97800958D01*
X104915888Y-97790614D01*
X104940653Y-97781298D01*
X104965880Y-97773023D01*
X104991542Y-97765805D01*
X105017608Y-97759657D01*
X105044050Y-97754594D01*
X105070839Y-97750631D01*
X105097945Y-97747783D01*
X105125341Y-97746063D01*
X105152997Y-97745486D01*
X105186215Y-97746294D01*
X105219143Y-97748706D01*
X105251722Y-97752710D01*
X105283895Y-97758291D01*
X105315605Y-97765434D01*
X105346792Y-97774124D01*
X105377400Y-97784349D01*
X105407371Y-97796093D01*
X105436646Y-97809342D01*
X105465169Y-97824082D01*
X105492881Y-97840298D01*
X105519724Y-97857977D01*
X105545640Y-97877103D01*
X105570572Y-97897662D01*
X105594463Y-97919641D01*
X105617253Y-97943024D01*
X105621413Y-97947630D01*
X105626502Y-97953977D01*
X105632520Y-97961950D01*
X105639465Y-97971429D01*
X105656136Y-97994436D01*
X105676509Y-98022055D01*
X105695765Y-98058263D01*
X105715839Y-98100609D01*
X105725856Y-98124265D01*
X105735687Y-98149672D01*
X105745200Y-98176903D01*
X105754265Y-98206029D01*
X105762752Y-98237123D01*
X105770531Y-98270257D01*
X105777471Y-98305503D01*
X105783441Y-98342934D01*
X105788312Y-98382621D01*
X105791952Y-98424637D01*
X105794232Y-98469054D01*
X105795021Y-98515944D01*
X105795021Y-98555425D01*
X105813560Y-98540959D01*
X105832172Y-98527217D01*
X105850928Y-98514226D01*
X105869900Y-98502017D01*
X105889162Y-98490618D01*
X105908784Y-98480059D01*
X105928841Y-98470367D01*
X105949402Y-98461573D01*
X105970542Y-98453705D01*
X105992333Y-98446792D01*
X106014846Y-98440863D01*
X106038153Y-98435947D01*
X106062328Y-98432073D01*
X106087442Y-98429270D01*
X106113568Y-98427567D01*
X106140778Y-98426993D01*
X106140778Y-98426996D01*
X106140777Y-98426998D01*
X106140776Y-98427001D01*
X106140775Y-98427003D01*
X106140772Y-98427012D01*
X106140771Y-98427014D01*
X106173616Y-98427875D01*
X106205471Y-98430429D01*
X106236332Y-98434633D01*
X106266193Y-98440442D01*
X106295048Y-98447815D01*
X106322892Y-98456707D01*
X106349719Y-98467074D01*
X106375525Y-98478874D01*
X106400303Y-98492063D01*
X106424049Y-98506598D01*
X106446757Y-98522435D01*
X106468421Y-98539530D01*
X106489036Y-98557841D01*
X106508597Y-98577324D01*
X106527098Y-98597935D01*
X106544534Y-98619631D01*
X106560899Y-98642369D01*
X106576188Y-98666104D01*
X106590396Y-98690795D01*
X106603516Y-98716397D01*
X106615544Y-98742867D01*
X106626475Y-98770161D01*
X106645021Y-98827049D01*
X106659110Y-98886714D01*
X106668700Y-98948808D01*
X106673747Y-99012984D01*
X106674207Y-99078895D01*
X106674207Y-101350783D01*
X106672220Y-101495691D01*
X106666182Y-101637735D01*
X106655977Y-101776827D01*
X106641490Y-101912881D01*
X106622604Y-102045810D01*
X106599203Y-102175527D01*
X106571173Y-102301946D01*
X106538396Y-102424979D01*
X106500758Y-102544540D01*
X106458142Y-102660541D01*
X106410433Y-102772897D01*
X106357515Y-102881521D01*
X106299272Y-102986324D01*
X106235589Y-103087222D01*
X106166348Y-103184126D01*
X106091436Y-103276951D01*
X106004823Y-103373955D01*
X105915242Y-103464910D01*
X105822507Y-103549787D01*
X105726429Y-103628558D01*
X105626819Y-103701193D01*
X105523491Y-103767663D01*
X105416255Y-103827940D01*
X105304924Y-103881995D01*
X105189311Y-103929799D01*
X105069226Y-103971322D01*
X104944481Y-104006537D01*
X104814890Y-104035413D01*
X104680263Y-104057923D01*
X104540413Y-104074037D01*
X104395152Y-104083727D01*
X104244292Y-104086963D01*
X104004189Y-104080573D01*
X103888771Y-104072557D01*
X103776413Y-104061304D01*
X103667094Y-104046795D01*
X103560791Y-104029012D01*
X103457483Y-104007937D01*
X103357148Y-103983553D01*
X103259765Y-103955841D01*
X103165312Y-103924782D01*
X103073767Y-103890359D01*
X102985109Y-103852554D01*
X102899316Y-103811349D01*
X102816365Y-103766726D01*
X102736237Y-103718666D01*
X102658908Y-103667151D01*
X102584357Y-103612164D01*
X102512563Y-103553686D01*
X102443503Y-103491700D01*
X102377156Y-103426186D01*
X102313501Y-103357128D01*
X102252516Y-103284507D01*
X102194178Y-103208304D01*
X102138467Y-103128503D01*
X102085361Y-103045084D01*
X102034837Y-102958030D01*
X101986875Y-102867323D01*
X101941453Y-102772944D01*
X101898548Y-102674876D01*
X101858139Y-102573100D01*
X101820205Y-102467598D01*
X101784724Y-102358352D01*
X101677142Y-101988052D01*
X101559374Y-101564737D01*
X101322914Y-100684076D01*
X101053751Y-99661719D01*
X101046924Y-99642987D01*
X101041239Y-99623863D01*
X101036682Y-99604418D01*
X101033238Y-99584726D01*
X101030892Y-99564858D01*
X101029632Y-99544888D01*
X101029533Y-99534564D01*
X101283382Y-99534564D01*
X101283498Y-99541566D01*
X101283844Y-99548670D01*
X101284422Y-99555859D01*
X101285230Y-99563120D01*
X101286269Y-99570439D01*
X101287539Y-99577799D01*
X101289040Y-99585187D01*
X101290772Y-99592588D01*
X101561170Y-100619890D01*
X101800555Y-101503953D01*
X101920769Y-101928384D01*
X102031605Y-102299099D01*
X102098671Y-102492322D01*
X102174100Y-102672031D01*
X102258153Y-102838369D01*
X102351090Y-102991483D01*
X102400971Y-103063125D01*
X102453171Y-103131516D01*
X102507723Y-103196672D01*
X102564658Y-103258613D01*
X102624010Y-103317356D01*
X102685810Y-103372919D01*
X102750092Y-103425321D01*
X102816889Y-103474579D01*
X102886231Y-103520712D01*
X102958153Y-103563737D01*
X103032687Y-103603673D01*
X103109865Y-103640538D01*
X103189720Y-103674350D01*
X103272284Y-103705126D01*
X103445671Y-103757647D01*
X103630286Y-103798245D01*
X103826390Y-103827064D01*
X104034243Y-103844249D01*
X104254105Y-103849946D01*
X104390378Y-103846947D01*
X104521501Y-103838001D01*
X104647646Y-103823179D01*
X104768987Y-103802554D01*
X104885699Y-103776198D01*
X104997955Y-103744183D01*
X105105927Y-103706582D01*
X105209791Y-103663467D01*
X105309720Y-103614911D01*
X105405886Y-103560987D01*
X105498464Y-103501765D01*
X105587628Y-103437320D01*
X105673550Y-103367722D01*
X105756405Y-103293046D01*
X105836367Y-103213362D01*
X105913608Y-103128744D01*
X105981348Y-103043555D01*
X106043879Y-102954720D01*
X106101315Y-102862297D01*
X106153773Y-102766343D01*
X106201368Y-102666918D01*
X106244216Y-102564078D01*
X106282434Y-102457882D01*
X106316137Y-102348387D01*
X106345441Y-102235651D01*
X106370462Y-102119732D01*
X106391315Y-102000689D01*
X106408117Y-101878578D01*
X106420984Y-101753458D01*
X106430031Y-101625387D01*
X106435374Y-101494422D01*
X106437129Y-101360622D01*
X106437129Y-99948135D01*
X106447016Y-99079023D01*
X106446075Y-99038774D01*
X106443196Y-98999655D01*
X106438291Y-98961868D01*
X106435051Y-98943537D01*
X106431272Y-98925614D01*
X106426944Y-98908126D01*
X106422055Y-98891098D01*
X106416594Y-98874554D01*
X106410551Y-98858521D01*
X106403915Y-98843022D01*
X106396674Y-98828085D01*
X106388819Y-98813734D01*
X106380337Y-98799993D01*
X106371219Y-98786890D01*
X106361454Y-98774449D01*
X106351030Y-98762694D01*
X106339936Y-98751653D01*
X106328163Y-98741349D01*
X106315699Y-98731809D01*
X106302533Y-98723057D01*
X106288654Y-98715118D01*
X106274052Y-98708019D01*
X106258715Y-98701785D01*
X106242633Y-98696440D01*
X106225795Y-98692010D01*
X106208190Y-98688520D01*
X106189807Y-98685997D01*
X106170636Y-98684464D01*
X106150665Y-98683947D01*
X106130552Y-98684464D01*
X106110968Y-98685997D01*
X106091919Y-98688520D01*
X106073412Y-98692010D01*
X106055455Y-98696440D01*
X106038056Y-98701785D01*
X106021220Y-98708019D01*
X106004956Y-98715118D01*
X105989271Y-98723056D01*
X105974172Y-98731808D01*
X105959666Y-98741349D01*
X105945761Y-98751653D01*
X105932463Y-98762694D01*
X105919781Y-98774448D01*
X105907720Y-98786890D01*
X105896289Y-98799993D01*
X105885495Y-98813733D01*
X105875345Y-98828085D01*
X105865846Y-98843022D01*
X105857005Y-98858520D01*
X105848830Y-98874554D01*
X105841328Y-98891098D01*
X105834506Y-98908126D01*
X105828371Y-98925614D01*
X105818193Y-98961867D01*
X105810851Y-98999655D01*
X105806403Y-99038774D01*
X105804908Y-99079023D01*
X105804908Y-99948285D01*
X105804736Y-99954740D01*
X105804225Y-99961127D01*
X105803386Y-99967439D01*
X105802227Y-99973665D01*
X105800756Y-99979797D01*
X105798984Y-99985825D01*
X105796918Y-99991741D01*
X105794568Y-99997536D01*
X105791944Y-100003201D01*
X105789054Y-100008726D01*
X105785906Y-100014102D01*
X105782511Y-100019321D01*
X105778877Y-100024374D01*
X105775014Y-100029251D01*
X105770929Y-100033943D01*
X105766633Y-100038442D01*
X105762135Y-100042738D01*
X105757442Y-100046823D01*
X105752565Y-100050686D01*
X105747513Y-100054320D01*
X105742294Y-100057715D01*
X105736917Y-100060863D01*
X105731392Y-100063753D01*
X105725727Y-100066377D01*
X105719932Y-100068727D01*
X105714016Y-100070793D01*
X105707988Y-100072565D01*
X105701856Y-100074036D01*
X105695629Y-100075195D01*
X105689318Y-100076035D01*
X105682930Y-100076545D01*
X105676475Y-100076717D01*
X105670021Y-100076545D01*
X105663633Y-100076035D01*
X105657322Y-100075195D01*
X105651096Y-100074036D01*
X105644964Y-100072565D01*
X105638935Y-100070793D01*
X105633019Y-100068727D01*
X105627224Y-100066378D01*
X105621560Y-100063753D01*
X105616035Y-100060863D01*
X105610658Y-100057716D01*
X105605439Y-100054321D01*
X105600387Y-100050687D01*
X105595510Y-100046823D01*
X105590817Y-100042739D01*
X105586319Y-100038443D01*
X105582023Y-100033944D01*
X105577938Y-100029252D01*
X105574074Y-100024375D01*
X105570441Y-100019322D01*
X105567045Y-100014103D01*
X105563898Y-100008727D01*
X105561008Y-100003202D01*
X105558383Y-99997537D01*
X105556034Y-99991742D01*
X105553968Y-99985826D01*
X105552196Y-99979797D01*
X105550725Y-99973665D01*
X105549565Y-99967439D01*
X105548726Y-99961128D01*
X105548216Y-99954740D01*
X105548044Y-99948285D01*
X105548044Y-98397439D01*
X105547527Y-98377186D01*
X105545994Y-98357190D01*
X105543470Y-98337477D01*
X105539981Y-98318071D01*
X105535551Y-98298998D01*
X105530206Y-98280283D01*
X105523971Y-98261952D01*
X105516872Y-98244030D01*
X105508934Y-98226542D01*
X105500182Y-98209514D01*
X105490642Y-98192970D01*
X105480338Y-98176936D01*
X105469296Y-98161438D01*
X105457542Y-98146501D01*
X105445101Y-98132149D01*
X105431997Y-98118409D01*
X105418257Y-98105306D01*
X105403906Y-98092864D01*
X105388968Y-98081110D01*
X105373470Y-98070069D01*
X105357437Y-98059765D01*
X105340893Y-98050224D01*
X105323864Y-98041472D01*
X105306376Y-98033534D01*
X105288454Y-98026435D01*
X105270123Y-98020200D01*
X105251409Y-98014856D01*
X105232336Y-98010426D01*
X105212930Y-98006936D01*
X105193216Y-98004412D01*
X105173221Y-98002880D01*
X105152968Y-98002363D01*
X105132715Y-98002880D01*
X105112719Y-98004412D01*
X105093005Y-98006936D01*
X105073599Y-98010426D01*
X105054527Y-98014856D01*
X105035812Y-98020200D01*
X105017481Y-98026435D01*
X104999559Y-98033534D01*
X104982071Y-98041472D01*
X104965042Y-98050224D01*
X104948498Y-98059765D01*
X104932465Y-98070069D01*
X104916967Y-98081110D01*
X104902029Y-98092864D01*
X104887678Y-98105306D01*
X104873938Y-98118409D01*
X104860834Y-98132149D01*
X104848393Y-98146501D01*
X104836639Y-98161438D01*
X104825597Y-98176936D01*
X104815293Y-98192970D01*
X104805753Y-98209514D01*
X104797001Y-98226542D01*
X104789063Y-98244030D01*
X104781964Y-98261952D01*
X104775729Y-98280283D01*
X104770384Y-98298998D01*
X104765954Y-98318071D01*
X104762465Y-98337477D01*
X104759941Y-98357190D01*
X104758408Y-98377186D01*
X104757892Y-98397439D01*
X104757892Y-99948214D01*
X104757720Y-99954669D01*
X104757209Y-99961057D01*
X104756370Y-99967368D01*
X104755210Y-99973594D01*
X104753740Y-99979726D01*
X104751967Y-99985755D01*
X104749902Y-99991671D01*
X104747552Y-99997466D01*
X104744928Y-100003130D01*
X104742037Y-100008655D01*
X104738890Y-100014032D01*
X104735495Y-100019251D01*
X104731861Y-100024303D01*
X104727998Y-100029180D01*
X104723913Y-100033873D01*
X104719617Y-100038372D01*
X104715118Y-100042668D01*
X104710426Y-100046752D01*
X104705549Y-100050616D01*
X104700497Y-100054250D01*
X104695277Y-100057645D01*
X104689901Y-100060792D01*
X104684376Y-100063682D01*
X104678711Y-100066307D01*
X104672916Y-100068656D01*
X104667000Y-100070722D01*
X104660971Y-100072495D01*
X104654839Y-100073965D01*
X104648613Y-100075125D01*
X104642302Y-100075964D01*
X104635914Y-100076474D01*
X104629459Y-100076647D01*
X104623005Y-100076474D01*
X104616617Y-100075964D01*
X104610306Y-100075125D01*
X104604080Y-100073965D01*
X104597948Y-100072495D01*
X104591919Y-100070722D01*
X104586003Y-100068657D01*
X104580208Y-100066307D01*
X104574544Y-100063683D01*
X104569019Y-100060792D01*
X104563642Y-100057645D01*
X104558423Y-100054250D01*
X104553371Y-100050616D01*
X104548494Y-100046753D01*
X104543801Y-100042668D01*
X104539302Y-100038372D01*
X104535006Y-100033874D01*
X104530922Y-100029181D01*
X104527058Y-100024304D01*
X104523424Y-100019252D01*
X104520029Y-100014033D01*
X104516882Y-100008656D01*
X104513992Y-100003131D01*
X104511367Y-99997467D01*
X104509018Y-99991672D01*
X104506952Y-99985755D01*
X104505179Y-99979727D01*
X104503709Y-99973595D01*
X104502549Y-99967369D01*
X104501710Y-99961057D01*
X104501200Y-99954669D01*
X104501028Y-99948214D01*
X104501028Y-96155148D01*
X104500511Y-96134895D01*
X104498978Y-96114899D01*
X104496454Y-96095186D01*
X104492965Y-96075780D01*
X104488535Y-96056707D01*
X104483190Y-96037993D01*
X104476955Y-96019661D01*
X104469856Y-96001739D01*
X104461918Y-95984251D01*
X104453166Y-95967223D01*
X104443626Y-95950679D01*
X104433322Y-95934645D01*
X104422280Y-95919147D01*
X104410526Y-95904210D01*
X104398085Y-95889858D01*
X104384981Y-95876118D01*
X104371241Y-95863015D01*
X104356890Y-95850574D01*
X104341952Y-95838819D01*
X104326454Y-95827778D01*
X104310420Y-95817474D01*
X104293877Y-95807934D01*
X104276848Y-95799182D01*
X104259360Y-95791243D01*
X104241438Y-95784144D01*
X104223107Y-95777910D01*
X104204392Y-95772565D01*
X104185320Y-95768135D01*
X104165914Y-95764645D01*
X104146200Y-95762122D01*
X104126204Y-95760589D01*
X104105952Y-95760072D01*
X104085699Y-95760589D01*
X104065703Y-95762122D01*
X104045989Y-95764645D01*
X104026583Y-95768135D01*
X104007511Y-95772565D01*
X103988796Y-95777910D01*
X103970465Y-95784144D01*
X103952543Y-95791243D01*
X103935055Y-95799182D01*
X103918026Y-95807934D01*
X103901482Y-95817474D01*
X103885449Y-95827778D01*
X103869951Y-95838819D01*
X103855013Y-95850574D01*
X103840662Y-95863015D01*
X103826922Y-95876118D01*
X103813818Y-95889859D01*
X103801377Y-95904210D01*
X103789622Y-95919147D01*
X103778581Y-95934646D01*
X103768277Y-95950679D01*
X103758737Y-95967223D01*
X103749985Y-95984251D01*
X103742046Y-96001739D01*
X103734947Y-96019662D01*
X103728713Y-96037993D01*
X103723368Y-96056707D01*
X103718938Y-96075780D01*
X103715448Y-96095186D01*
X103712925Y-96114899D01*
X103711392Y-96134895D01*
X103710875Y-96155148D01*
X103710806Y-99938337D01*
X103710634Y-99944792D01*
X103710124Y-99951179D01*
X103709284Y-99957491D01*
X103708125Y-99963717D01*
X103706654Y-99969848D01*
X103704882Y-99975877D01*
X103702816Y-99981793D01*
X103700466Y-99987588D01*
X103697842Y-99993253D01*
X103694952Y-99998778D01*
X103691804Y-100004154D01*
X103688409Y-100009373D01*
X103684775Y-100014426D01*
X103680912Y-100019303D01*
X103676827Y-100023995D01*
X103672531Y-100028494D01*
X103668032Y-100032790D01*
X103663340Y-100036875D01*
X103658463Y-100040738D01*
X103653410Y-100044372D01*
X103648191Y-100047767D01*
X103642815Y-100050915D01*
X103637290Y-100053805D01*
X103631625Y-100056429D01*
X103625830Y-100058779D01*
X103619914Y-100060845D01*
X103613886Y-100062617D01*
X103607754Y-100064088D01*
X103601528Y-100065247D01*
X103595216Y-100066087D01*
X103588829Y-100066597D01*
X103582374Y-100066769D01*
X103575919Y-100066597D01*
X103569532Y-100066087D01*
X103563221Y-100065247D01*
X103556994Y-100064088D01*
X103550863Y-100062617D01*
X103544834Y-100060845D01*
X103538918Y-100058779D01*
X103533123Y-100056430D01*
X103527459Y-100053805D01*
X103521934Y-100050915D01*
X103516557Y-100047768D01*
X103511338Y-100044373D01*
X103506285Y-100040739D01*
X103501408Y-100036875D01*
X103496716Y-100032791D01*
X103492217Y-100028495D01*
X103487921Y-100023996D01*
X103483837Y-100019304D01*
X103479973Y-100014427D01*
X103476339Y-100009374D01*
X103472944Y-100004155D01*
X103469797Y-99998779D01*
X103466906Y-99993254D01*
X103464282Y-99987589D01*
X103461932Y-99981794D01*
X103459866Y-99975878D01*
X103458094Y-99969849D01*
X103456623Y-99963717D01*
X103455464Y-99957491D01*
X103454624Y-99951180D01*
X103454114Y-99944792D01*
X103453942Y-99938337D01*
X103453942Y-98397421D01*
X103453425Y-98377168D01*
X103451893Y-98357172D01*
X103449369Y-98337459D01*
X103445879Y-98318053D01*
X103441449Y-98298980D01*
X103436104Y-98280266D01*
X103429870Y-98261934D01*
X103422771Y-98244012D01*
X103414833Y-98226524D01*
X103406081Y-98209496D01*
X103396540Y-98192952D01*
X103386236Y-98176919D01*
X103375195Y-98161420D01*
X103363441Y-98146483D01*
X103350999Y-98132132D01*
X103337896Y-98118391D01*
X103324156Y-98105288D01*
X103309804Y-98092847D01*
X103294867Y-98081092D01*
X103279369Y-98070051D01*
X103263335Y-98059747D01*
X103246791Y-98050207D01*
X103229763Y-98041455D01*
X103212275Y-98033516D01*
X103194353Y-98026417D01*
X103176022Y-98020183D01*
X103157307Y-98014838D01*
X103138234Y-98010408D01*
X103118828Y-98006918D01*
X103099115Y-98004395D01*
X103079119Y-98002862D01*
X103058866Y-98002345D01*
X103038613Y-98002862D01*
X103018617Y-98004395D01*
X102998904Y-98006918D01*
X102979498Y-98010408D01*
X102960425Y-98014838D01*
X102941710Y-98020183D01*
X102923379Y-98026417D01*
X102905457Y-98033516D01*
X102887969Y-98041455D01*
X102870941Y-98050207D01*
X102854397Y-98059747D01*
X102838363Y-98070051D01*
X102822865Y-98081092D01*
X102807928Y-98092847D01*
X102793576Y-98105288D01*
X102779836Y-98118391D01*
X102766733Y-98132132D01*
X102754291Y-98146483D01*
X102742537Y-98161420D01*
X102731496Y-98176919D01*
X102721192Y-98192952D01*
X102711651Y-98209496D01*
X102702899Y-98226524D01*
X102694961Y-98244012D01*
X102687862Y-98261934D01*
X102681628Y-98280266D01*
X102676283Y-98298980D01*
X102671853Y-98318053D01*
X102668363Y-98337459D01*
X102665839Y-98357172D01*
X102664307Y-98377168D01*
X102663790Y-98397421D01*
X102663721Y-100106259D01*
X102663721Y-100234691D01*
X102665234Y-100325887D01*
X102666050Y-100407303D01*
X102666171Y-100479577D01*
X102665596Y-100543344D01*
X102664325Y-100599241D01*
X102662359Y-100647904D01*
X102661115Y-100669722D01*
X102659697Y-100689970D01*
X102658105Y-100708728D01*
X102656340Y-100726076D01*
X102654401Y-100742092D01*
X102652288Y-100756857D01*
X102650001Y-100770450D01*
X102647541Y-100782951D01*
X102644906Y-100794438D01*
X102642098Y-100804993D01*
X102639117Y-100814694D01*
X102635961Y-100823620D01*
X102632632Y-100831853D01*
X102629129Y-100839470D01*
X102625452Y-100846551D01*
X102621602Y-100853177D01*
X102617578Y-100859426D01*
X102613381Y-100865379D01*
X102604465Y-100876711D01*
X102598907Y-100882037D01*
X102593332Y-100886914D01*
X102587728Y-100891357D01*
X102582079Y-100895380D01*
X102576372Y-100898997D01*
X102570592Y-100902224D01*
X102564725Y-100905074D01*
X102558757Y-100907563D01*
X102552673Y-100909704D01*
X102546460Y-100911513D01*
X102540103Y-100913003D01*
X102533587Y-100914190D01*
X102526899Y-100915088D01*
X102520025Y-100915712D01*
X102512949Y-100916075D01*
X102505659Y-100916193D01*
X102496575Y-100915908D01*
X102487833Y-100915076D01*
X102479426Y-100913726D01*
X102471350Y-100911889D01*
X102463599Y-100909597D01*
X102456168Y-100906879D01*
X102449052Y-100903767D01*
X102442244Y-100900292D01*
X102435740Y-100896483D01*
X102429534Y-100892373D01*
X102423621Y-100887991D01*
X102417996Y-100883368D01*
X102412652Y-100878536D01*
X102407585Y-100873524D01*
X102402789Y-100868365D01*
X102398259Y-100863087D01*
X102389975Y-100852303D01*
X102382689Y-100841417D01*
X102376358Y-100830677D01*
X102370939Y-100820327D01*
X102366389Y-100810615D01*
X102362665Y-100801786D01*
X102357521Y-100787761D01*
X102080943Y-100027154D01*
X102028879Y-99886555D01*
X102004706Y-99822100D01*
X101981097Y-99761696D01*
X101957546Y-99705459D01*
X101933546Y-99653504D01*
X101921219Y-99629169D01*
X101908590Y-99605948D01*
X101895596Y-99583855D01*
X101882173Y-99562905D01*
X101868257Y-99543113D01*
X101853787Y-99524493D01*
X101838697Y-99507059D01*
X101822926Y-99490826D01*
X101806409Y-99475809D01*
X101789083Y-99462022D01*
X101770885Y-99449479D01*
X101751753Y-99438194D01*
X101731621Y-99428183D01*
X101710428Y-99419460D01*
X101688109Y-99412039D01*
X101664602Y-99405935D01*
X101639843Y-99401163D01*
X101613768Y-99397736D01*
X101586316Y-99395669D01*
X101557421Y-99394977D01*
X101535201Y-99395422D01*
X101512981Y-99396681D01*
X101490760Y-99398635D01*
X101468540Y-99401169D01*
X101446319Y-99404164D01*
X101424098Y-99407505D01*
X101379656Y-99414751D01*
X101375984Y-99415738D01*
X101372369Y-99416838D01*
X101365313Y-99419357D01*
X101358487Y-99422281D01*
X101351893Y-99425580D01*
X101345529Y-99429225D01*
X101339397Y-99433188D01*
X101333495Y-99437439D01*
X101327824Y-99441951D01*
X101322384Y-99446693D01*
X101317176Y-99451637D01*
X101312198Y-99456754D01*
X101307451Y-99462016D01*
X101302935Y-99467393D01*
X101298649Y-99472857D01*
X101294595Y-99478379D01*
X101290772Y-99483929D01*
X101289040Y-99489598D01*
X101287539Y-99495485D01*
X101286269Y-99501575D01*
X101285230Y-99507854D01*
X101284422Y-99514307D01*
X101283844Y-99520920D01*
X101283498Y-99527677D01*
X101283382Y-99534564D01*
X101029533Y-99534564D01*
X101029441Y-99524889D01*
X101030307Y-99504932D01*
D11*
X106649047Y-139114000D02*
X106553809Y-139066380D01*
X106410952Y-139066380D01*
X106268095Y-139114000D01*
X106172857Y-139209238D01*
X106125238Y-139304476D01*
X106077619Y-139494952D01*
X106077619Y-139637809D01*
X106125238Y-139828285D01*
X106172857Y-139923523D01*
X106268095Y-140018761D01*
X106410952Y-140066380D01*
X106506190Y-140066380D01*
X106649047Y-140018761D01*
X106696666Y-139971142D01*
X106696666Y-139637809D01*
X106506190Y-139637809D01*
X107315714Y-139066380D02*
X107506190Y-139066380D01*
X107601428Y-139114000D01*
X107696666Y-139209238D01*
X107744285Y-139399714D01*
X107744285Y-139733047D01*
X107696666Y-139923523D01*
X107601428Y-140018761D01*
X107506190Y-140066380D01*
X107315714Y-140066380D01*
X107220476Y-140018761D01*
X107125238Y-139923523D01*
X107077619Y-139733047D01*
X107077619Y-139399714D01*
X107125238Y-139209238D01*
X107220476Y-139114000D01*
X107315714Y-139066380D01*
X108744285Y-140066380D02*
X108410952Y-139590190D01*
X108172857Y-140066380D02*
X108172857Y-139066380D01*
X108553809Y-139066380D01*
X108649047Y-139114000D01*
X108696666Y-139161619D01*
X108744285Y-139256857D01*
X108744285Y-139399714D01*
X108696666Y-139494952D01*
X108649047Y-139542571D01*
X108553809Y-139590190D01*
X108172857Y-139590190D01*
X109125238Y-139780666D02*
X109601428Y-139780666D01*
X109030000Y-140066380D02*
X109363333Y-139066380D01*
X109696666Y-140066380D01*
X110030000Y-140066380D02*
X110030000Y-139066380D01*
X110601428Y-140066380D02*
X110172857Y-139494952D01*
X110601428Y-139066380D02*
X110030000Y-139637809D01*
X111791904Y-140066380D02*
X111791904Y-139066380D01*
X112268095Y-140066380D02*
X112268095Y-139066380D01*
X112839523Y-140066380D01*
X112839523Y-139066380D01*
X113315714Y-140066380D02*
X113315714Y-139066380D01*
X113553809Y-139066380D01*
X113696666Y-139114000D01*
X113791904Y-139209238D01*
X113839523Y-139304476D01*
X113887142Y-139494952D01*
X113887142Y-139637809D01*
X113839523Y-139828285D01*
X113791904Y-139923523D01*
X113696666Y-140018761D01*
X113553809Y-140066380D01*
X113315714Y-140066380D01*
X114315714Y-139066380D02*
X114315714Y-139875904D01*
X114363333Y-139971142D01*
X114410952Y-140018761D01*
X114506190Y-140066380D01*
X114696666Y-140066380D01*
X114791904Y-140018761D01*
X114839523Y-139971142D01*
X114887142Y-139875904D01*
X114887142Y-139066380D01*
X115315714Y-140018761D02*
X115458571Y-140066380D01*
X115696666Y-140066380D01*
X115791904Y-140018761D01*
X115839523Y-139971142D01*
X115887142Y-139875904D01*
X115887142Y-139780666D01*
X115839523Y-139685428D01*
X115791904Y-139637809D01*
X115696666Y-139590190D01*
X115506190Y-139542571D01*
X115410952Y-139494952D01*
X115363333Y-139447333D01*
X115315714Y-139352095D01*
X115315714Y-139256857D01*
X115363333Y-139161619D01*
X115410952Y-139114000D01*
X115506190Y-139066380D01*
X115744285Y-139066380D01*
X115887142Y-139114000D01*
X116172857Y-139066380D02*
X116744285Y-139066380D01*
X116458571Y-140066380D02*
X116458571Y-139066380D01*
X117649047Y-140066380D02*
X117315714Y-139590190D01*
X117077619Y-140066380D02*
X117077619Y-139066380D01*
X117458571Y-139066380D01*
X117553809Y-139114000D01*
X117601428Y-139161619D01*
X117649047Y-139256857D01*
X117649047Y-139399714D01*
X117601428Y-139494952D01*
X117553809Y-139542571D01*
X117458571Y-139590190D01*
X117077619Y-139590190D01*
X118077619Y-140066380D02*
X118077619Y-139066380D01*
X118553809Y-139542571D02*
X118887142Y-139542571D01*
X119029999Y-140066380D02*
X118553809Y-140066380D01*
X118553809Y-139066380D01*
X119029999Y-139066380D01*
X119410952Y-140018761D02*
X119553809Y-140066380D01*
X119791904Y-140066380D01*
X119887142Y-140018761D01*
X119934761Y-139971142D01*
X119982380Y-139875904D01*
X119982380Y-139780666D01*
X119934761Y-139685428D01*
X119887142Y-139637809D01*
X119791904Y-139590190D01*
X119601428Y-139542571D01*
X119506190Y-139494952D01*
X119458571Y-139447333D01*
X119410952Y-139352095D01*
X119410952Y-139256857D01*
X119458571Y-139161619D01*
X119506190Y-139114000D01*
X119601428Y-139066380D01*
X119839523Y-139066380D01*
X119982380Y-139114000D01*
X108125238Y-141676380D02*
X108125238Y-140676380D01*
X108506190Y-140676380D01*
X108601428Y-140724000D01*
X108649047Y-140771619D01*
X108696666Y-140866857D01*
X108696666Y-141009714D01*
X108649047Y-141104952D01*
X108601428Y-141152571D01*
X108506190Y-141200190D01*
X108125238Y-141200190D01*
X109125238Y-141676380D02*
X109125238Y-141009714D01*
X109125238Y-141200190D02*
X109172857Y-141104952D01*
X109220476Y-141057333D01*
X109315714Y-141009714D01*
X109410952Y-141009714D01*
X109887142Y-141676380D02*
X109791904Y-141628761D01*
X109744285Y-141581142D01*
X109696666Y-141485904D01*
X109696666Y-141200190D01*
X109744285Y-141104952D01*
X109791904Y-141057333D01*
X109887142Y-141009714D01*
X110030000Y-141009714D01*
X110125238Y-141057333D01*
X110172857Y-141104952D01*
X110220476Y-141200190D01*
X110220476Y-141485904D01*
X110172857Y-141581142D01*
X110125238Y-141628761D01*
X110030000Y-141676380D01*
X109887142Y-141676380D01*
X110649047Y-141009714D02*
X110649047Y-141866857D01*
X110601428Y-141962095D01*
X110506190Y-142009714D01*
X110458571Y-142009714D01*
X110649047Y-140676380D02*
X110601428Y-140724000D01*
X110649047Y-140771619D01*
X110696666Y-140724000D01*
X110649047Y-140676380D01*
X110649047Y-140771619D01*
X111506190Y-141628761D02*
X111410952Y-141676380D01*
X111220476Y-141676380D01*
X111125238Y-141628761D01*
X111077619Y-141533523D01*
X111077619Y-141152571D01*
X111125238Y-141057333D01*
X111220476Y-141009714D01*
X111410952Y-141009714D01*
X111506190Y-141057333D01*
X111553809Y-141152571D01*
X111553809Y-141247809D01*
X111077619Y-141343047D01*
X112410952Y-141628761D02*
X112315714Y-141676380D01*
X112125238Y-141676380D01*
X112030000Y-141628761D01*
X111982380Y-141581142D01*
X111934761Y-141485904D01*
X111934761Y-141200190D01*
X111982380Y-141104952D01*
X112030000Y-141057333D01*
X112125238Y-141009714D01*
X112315714Y-141009714D01*
X112410952Y-141057333D01*
X112696666Y-141009714D02*
X113077619Y-141009714D01*
X112839523Y-140676380D02*
X112839523Y-141533523D01*
X112887142Y-141628761D01*
X112982380Y-141676380D01*
X113077619Y-141676380D01*
X114506190Y-141152571D02*
X114172857Y-141152571D01*
X114172857Y-141676380D02*
X114172857Y-140676380D01*
X114649047Y-140676380D01*
X115030000Y-141152571D02*
X115363333Y-141152571D01*
X115506190Y-141676380D02*
X115030000Y-141676380D01*
X115030000Y-140676380D01*
X115506190Y-140676380D01*
X115934761Y-141676380D02*
X115934761Y-140676380D01*
X116506190Y-141676380D01*
X116506190Y-140676380D01*
X116982380Y-141676380D02*
X116982380Y-140676380D01*
X117363333Y-140676380D02*
X118030000Y-141676380D01*
X118030000Y-140676380D02*
X117363333Y-141676380D01*
X106196666Y-143238761D02*
X106339523Y-143286380D01*
X106577619Y-143286380D01*
X106672857Y-143238761D01*
X106720476Y-143191142D01*
X106768095Y-143095904D01*
X106768095Y-143000666D01*
X106720476Y-142905428D01*
X106672857Y-142857809D01*
X106577619Y-142810190D01*
X106387142Y-142762571D01*
X106291904Y-142714952D01*
X106244285Y-142667333D01*
X106196666Y-142572095D01*
X106196666Y-142476857D01*
X106244285Y-142381619D01*
X106291904Y-142334000D01*
X106387142Y-142286380D01*
X106625238Y-142286380D01*
X106768095Y-142334000D01*
X107577619Y-143238761D02*
X107482380Y-143286380D01*
X107291904Y-143286380D01*
X107196666Y-143238761D01*
X107149047Y-143143523D01*
X107149047Y-142762571D01*
X107196666Y-142667333D01*
X107291904Y-142619714D01*
X107482380Y-142619714D01*
X107577619Y-142667333D01*
X107625238Y-142762571D01*
X107625238Y-142857809D01*
X107149047Y-142953047D01*
X108053809Y-142619714D02*
X108053809Y-143286380D01*
X108053809Y-142714952D02*
X108101428Y-142667333D01*
X108196666Y-142619714D01*
X108339523Y-142619714D01*
X108434761Y-142667333D01*
X108482380Y-142762571D01*
X108482380Y-143286380D01*
X108910952Y-143238761D02*
X109006190Y-143286380D01*
X109196666Y-143286380D01*
X109291904Y-143238761D01*
X109339523Y-143143523D01*
X109339523Y-143095904D01*
X109291904Y-143000666D01*
X109196666Y-142953047D01*
X109053809Y-142953047D01*
X108958571Y-142905428D01*
X108910952Y-142810190D01*
X108910952Y-142762571D01*
X108958571Y-142667333D01*
X109053809Y-142619714D01*
X109196666Y-142619714D01*
X109291904Y-142667333D01*
X109910952Y-143286380D02*
X109815714Y-143238761D01*
X109768095Y-143191142D01*
X109720476Y-143095904D01*
X109720476Y-142810190D01*
X109768095Y-142714952D01*
X109815714Y-142667333D01*
X109910952Y-142619714D01*
X110053809Y-142619714D01*
X110149047Y-142667333D01*
X110196666Y-142714952D01*
X110244285Y-142810190D01*
X110244285Y-143095904D01*
X110196666Y-143191142D01*
X110149047Y-143238761D01*
X110053809Y-143286380D01*
X109910952Y-143286380D01*
X110672857Y-143286380D02*
X110672857Y-142619714D01*
X110672857Y-142810190D02*
X110720476Y-142714952D01*
X110768095Y-142667333D01*
X110863333Y-142619714D01*
X110958571Y-142619714D01*
X112053809Y-143286380D02*
X112053809Y-142286380D01*
X112053809Y-142667333D02*
X112149047Y-142619714D01*
X112339523Y-142619714D01*
X112434761Y-142667333D01*
X112482380Y-142714952D01*
X112530000Y-142810190D01*
X112530000Y-143095904D01*
X112482380Y-143191142D01*
X112434761Y-143238761D01*
X112339523Y-143286380D01*
X112149047Y-143286380D01*
X112053809Y-143238761D01*
X113101428Y-143286380D02*
X113006190Y-143238761D01*
X112958571Y-143191142D01*
X112910952Y-143095904D01*
X112910952Y-142810190D01*
X112958571Y-142714952D01*
X113006190Y-142667333D01*
X113101428Y-142619714D01*
X113244285Y-142619714D01*
X113339523Y-142667333D01*
X113387142Y-142714952D01*
X113434761Y-142810190D01*
X113434761Y-143095904D01*
X113387142Y-143191142D01*
X113339523Y-143238761D01*
X113244285Y-143286380D01*
X113101428Y-143286380D01*
X114291904Y-143286380D02*
X114291904Y-142762571D01*
X114244285Y-142667333D01*
X114149047Y-142619714D01*
X113958571Y-142619714D01*
X113863333Y-142667333D01*
X114291904Y-143238761D02*
X114196666Y-143286380D01*
X113958571Y-143286380D01*
X113863333Y-143238761D01*
X113815714Y-143143523D01*
X113815714Y-143048285D01*
X113863333Y-142953047D01*
X113958571Y-142905428D01*
X114196666Y-142905428D01*
X114291904Y-142857809D01*
X114768095Y-143286380D02*
X114768095Y-142619714D01*
X114768095Y-142810190D02*
X114815714Y-142714952D01*
X114863333Y-142667333D01*
X114958571Y-142619714D01*
X115053809Y-142619714D01*
X115815714Y-143286380D02*
X115815714Y-142286380D01*
X115815714Y-143238761D02*
X115720476Y-143286380D01*
X115530000Y-143286380D01*
X115434761Y-143238761D01*
X115387142Y-143191142D01*
X115339523Y-143095904D01*
X115339523Y-142810190D01*
X115387142Y-142714952D01*
X115434761Y-142667333D01*
X115530000Y-142619714D01*
X115720476Y-142619714D01*
X115815714Y-142667333D01*
X116910952Y-142286380D02*
X117244285Y-143286380D01*
X117577619Y-142286380D01*
X118434761Y-143286380D02*
X117863333Y-143286380D01*
X118149047Y-143286380D02*
X118149047Y-142286380D01*
X118053809Y-142429238D01*
X117958571Y-142524476D01*
X117863333Y-142572095D01*
X118863333Y-143191142D02*
X118910952Y-143238761D01*
X118863333Y-143286380D01*
X118815714Y-143238761D01*
X118863333Y-143191142D01*
X118863333Y-143286380D01*
X119530000Y-142286380D02*
X119625238Y-142286380D01*
X119720476Y-142334000D01*
X119768095Y-142381619D01*
X119815714Y-142476857D01*
X119863333Y-142667333D01*
X119863333Y-142905428D01*
X119815714Y-143095904D01*
X119768095Y-143191142D01*
X119720476Y-143238761D01*
X119625238Y-143286380D01*
X119530000Y-143286380D01*
X119434761Y-143238761D01*
X119387142Y-143191142D01*
X119339523Y-143095904D01*
X119291904Y-142905428D01*
X119291904Y-142667333D01*
X119339523Y-142476857D01*
X119387142Y-142381619D01*
X119434761Y-142334000D01*
X119530000Y-142286380D01*
%TO.C,R9*%
X99438833Y-109056380D02*
X99105500Y-108580190D01*
X98867404Y-109056380D02*
X98867404Y-108056380D01*
X99248357Y-108056380D01*
X99343595Y-108104000D01*
X99391214Y-108151619D01*
X99438833Y-108246857D01*
X99438833Y-108389714D01*
X99391214Y-108484952D01*
X99343595Y-108532571D01*
X99248357Y-108580190D01*
X98867404Y-108580190D01*
X99915023Y-109056380D02*
X100105500Y-109056380D01*
X100200738Y-109008761D01*
X100248357Y-108961142D01*
X100343595Y-108818285D01*
X100391214Y-108627809D01*
X100391214Y-108246857D01*
X100343595Y-108151619D01*
X100295976Y-108104000D01*
X100200738Y-108056380D01*
X100010261Y-108056380D01*
X99915023Y-108104000D01*
X99867404Y-108151619D01*
X99819785Y-108246857D01*
X99819785Y-108484952D01*
X99867404Y-108580190D01*
X99915023Y-108627809D01*
X100010261Y-108675428D01*
X100200738Y-108675428D01*
X100295976Y-108627809D01*
X100343595Y-108580190D01*
X100391214Y-108484952D01*
%TO.C,J2*%
X84719166Y-112179380D02*
X84719166Y-112893666D01*
X84671547Y-113036523D01*
X84576309Y-113131761D01*
X84433452Y-113179380D01*
X84338214Y-113179380D01*
X85147738Y-112274619D02*
X85195357Y-112227000D01*
X85290595Y-112179380D01*
X85528690Y-112179380D01*
X85623928Y-112227000D01*
X85671547Y-112274619D01*
X85719166Y-112369857D01*
X85719166Y-112465095D01*
X85671547Y-112607952D01*
X85100119Y-113179380D01*
X85719166Y-113179380D01*
%TO.C,C2*%
X113843333Y-106586642D02*
X113795714Y-106634261D01*
X113652857Y-106681880D01*
X113557619Y-106681880D01*
X113414761Y-106634261D01*
X113319523Y-106539023D01*
X113271904Y-106443785D01*
X113224285Y-106253309D01*
X113224285Y-106110452D01*
X113271904Y-105919976D01*
X113319523Y-105824738D01*
X113414761Y-105729500D01*
X113557619Y-105681880D01*
X113652857Y-105681880D01*
X113795714Y-105729500D01*
X113843333Y-105777119D01*
X114224285Y-105777119D02*
X114271904Y-105729500D01*
X114367142Y-105681880D01*
X114605238Y-105681880D01*
X114700476Y-105729500D01*
X114748095Y-105777119D01*
X114795714Y-105872357D01*
X114795714Y-105967595D01*
X114748095Y-106110452D01*
X114176666Y-106681880D01*
X114795714Y-106681880D01*
%TO.C,R2*%
X83907333Y-89860380D02*
X83574000Y-89384190D01*
X83335904Y-89860380D02*
X83335904Y-88860380D01*
X83716857Y-88860380D01*
X83812095Y-88908000D01*
X83859714Y-88955619D01*
X83907333Y-89050857D01*
X83907333Y-89193714D01*
X83859714Y-89288952D01*
X83812095Y-89336571D01*
X83716857Y-89384190D01*
X83335904Y-89384190D01*
X84288285Y-88955619D02*
X84335904Y-88908000D01*
X84431142Y-88860380D01*
X84669238Y-88860380D01*
X84764476Y-88908000D01*
X84812095Y-88955619D01*
X84859714Y-89050857D01*
X84859714Y-89146095D01*
X84812095Y-89288952D01*
X84240666Y-89860380D01*
X84859714Y-89860380D01*
%TO.C,U1*%
X92663095Y-79043380D02*
X92663095Y-79852904D01*
X92710714Y-79948142D01*
X92758333Y-79995761D01*
X92853571Y-80043380D01*
X93044047Y-80043380D01*
X93139285Y-79995761D01*
X93186904Y-79948142D01*
X93234523Y-79852904D01*
X93234523Y-79043380D01*
X94234523Y-80043380D02*
X93663095Y-80043380D01*
X93948809Y-80043380D02*
X93948809Y-79043380D01*
X93853571Y-79186238D01*
X93758333Y-79281476D01*
X93663095Y-79329095D01*
%TO.C,R1*%
X111557333Y-106645880D02*
X111224000Y-106169690D01*
X110985904Y-106645880D02*
X110985904Y-105645880D01*
X111366857Y-105645880D01*
X111462095Y-105693500D01*
X111509714Y-105741119D01*
X111557333Y-105836357D01*
X111557333Y-105979214D01*
X111509714Y-106074452D01*
X111462095Y-106122071D01*
X111366857Y-106169690D01*
X110985904Y-106169690D01*
X112509714Y-106645880D02*
X111938285Y-106645880D01*
X112224000Y-106645880D02*
X112224000Y-105645880D01*
X112128761Y-105788738D01*
X112033523Y-105883976D01*
X111938285Y-105931595D01*
%TO.C,C4*%
X94866833Y-108961142D02*
X94819214Y-109008761D01*
X94676357Y-109056380D01*
X94581119Y-109056380D01*
X94438261Y-109008761D01*
X94343023Y-108913523D01*
X94295404Y-108818285D01*
X94247785Y-108627809D01*
X94247785Y-108484952D01*
X94295404Y-108294476D01*
X94343023Y-108199238D01*
X94438261Y-108104000D01*
X94581119Y-108056380D01*
X94676357Y-108056380D01*
X94819214Y-108104000D01*
X94866833Y-108151619D01*
X95723976Y-108389714D02*
X95723976Y-109056380D01*
X95485880Y-108008761D02*
X95247785Y-108723047D01*
X95866833Y-108723047D01*
%TO.C,SW1*%
X112458666Y-94892761D02*
X112601523Y-94940380D01*
X112839619Y-94940380D01*
X112934857Y-94892761D01*
X112982476Y-94845142D01*
X113030095Y-94749904D01*
X113030095Y-94654666D01*
X112982476Y-94559428D01*
X112934857Y-94511809D01*
X112839619Y-94464190D01*
X112649142Y-94416571D01*
X112553904Y-94368952D01*
X112506285Y-94321333D01*
X112458666Y-94226095D01*
X112458666Y-94130857D01*
X112506285Y-94035619D01*
X112553904Y-93988000D01*
X112649142Y-93940380D01*
X112887238Y-93940380D01*
X113030095Y-93988000D01*
X113363428Y-93940380D02*
X113601523Y-94940380D01*
X113792000Y-94226095D01*
X113982476Y-94940380D01*
X114220571Y-93940380D01*
X115125333Y-94940380D02*
X114553904Y-94940380D01*
X114839619Y-94940380D02*
X114839619Y-93940380D01*
X114744380Y-94083238D01*
X114649142Y-94178476D01*
X114553904Y-94226095D01*
%TO.C,SW2*%
X82994666Y-94638761D02*
X83137523Y-94686380D01*
X83375619Y-94686380D01*
X83470857Y-94638761D01*
X83518476Y-94591142D01*
X83566095Y-94495904D01*
X83566095Y-94400666D01*
X83518476Y-94305428D01*
X83470857Y-94257809D01*
X83375619Y-94210190D01*
X83185142Y-94162571D01*
X83089904Y-94114952D01*
X83042285Y-94067333D01*
X82994666Y-93972095D01*
X82994666Y-93876857D01*
X83042285Y-93781619D01*
X83089904Y-93734000D01*
X83185142Y-93686380D01*
X83423238Y-93686380D01*
X83566095Y-93734000D01*
X83899428Y-93686380D02*
X84137523Y-94686380D01*
X84328000Y-93972095D01*
X84518476Y-94686380D01*
X84756571Y-93686380D01*
X85089904Y-93781619D02*
X85137523Y-93734000D01*
X85232761Y-93686380D01*
X85470857Y-93686380D01*
X85566095Y-93734000D01*
X85613714Y-93781619D01*
X85661333Y-93876857D01*
X85661333Y-93972095D01*
X85613714Y-94114952D01*
X85042285Y-94686380D01*
X85661333Y-94686380D01*
%TO.C,R6*%
X94067333Y-139136380D02*
X93734000Y-138660190D01*
X93495904Y-139136380D02*
X93495904Y-138136380D01*
X93876857Y-138136380D01*
X93972095Y-138184000D01*
X94019714Y-138231619D01*
X94067333Y-138326857D01*
X94067333Y-138469714D01*
X94019714Y-138564952D01*
X93972095Y-138612571D01*
X93876857Y-138660190D01*
X93495904Y-138660190D01*
X94924476Y-138136380D02*
X94734000Y-138136380D01*
X94638761Y-138184000D01*
X94591142Y-138231619D01*
X94495904Y-138374476D01*
X94448285Y-138564952D01*
X94448285Y-138945904D01*
X94495904Y-139041142D01*
X94543523Y-139088761D01*
X94638761Y-139136380D01*
X94829238Y-139136380D01*
X94924476Y-139088761D01*
X94972095Y-139041142D01*
X95019714Y-138945904D01*
X95019714Y-138707809D01*
X94972095Y-138612571D01*
X94924476Y-138564952D01*
X94829238Y-138517333D01*
X94638761Y-138517333D01*
X94543523Y-138564952D01*
X94495904Y-138612571D01*
X94448285Y-138707809D01*
%TO.C,J1*%
X118792666Y-88303380D02*
X118792666Y-89017666D01*
X118745047Y-89160523D01*
X118649809Y-89255761D01*
X118506952Y-89303380D01*
X118411714Y-89303380D01*
X119792666Y-89303380D02*
X119221238Y-89303380D01*
X119506952Y-89303380D02*
X119506952Y-88303380D01*
X119411714Y-88446238D01*
X119316476Y-88541476D01*
X119221238Y-88589095D01*
%TO.C,R7*%
X103973333Y-139136380D02*
X103640000Y-138660190D01*
X103401904Y-139136380D02*
X103401904Y-138136380D01*
X103782857Y-138136380D01*
X103878095Y-138184000D01*
X103925714Y-138231619D01*
X103973333Y-138326857D01*
X103973333Y-138469714D01*
X103925714Y-138564952D01*
X103878095Y-138612571D01*
X103782857Y-138660190D01*
X103401904Y-138660190D01*
X104306666Y-138136380D02*
X104973333Y-138136380D01*
X104544761Y-139136380D01*
%TO.C,C3*%
X87971333Y-94591142D02*
X87923714Y-94638761D01*
X87780857Y-94686380D01*
X87685619Y-94686380D01*
X87542761Y-94638761D01*
X87447523Y-94543523D01*
X87399904Y-94448285D01*
X87352285Y-94257809D01*
X87352285Y-94114952D01*
X87399904Y-93924476D01*
X87447523Y-93829238D01*
X87542761Y-93734000D01*
X87685619Y-93686380D01*
X87780857Y-93686380D01*
X87923714Y-93734000D01*
X87971333Y-93781619D01*
X88304666Y-93686380D02*
X88923714Y-93686380D01*
X88590380Y-94067333D01*
X88733238Y-94067333D01*
X88828476Y-94114952D01*
X88876095Y-94162571D01*
X88923714Y-94257809D01*
X88923714Y-94495904D01*
X88876095Y-94591142D01*
X88828476Y-94638761D01*
X88733238Y-94686380D01*
X88447523Y-94686380D01*
X88352285Y-94638761D01*
X88304666Y-94591142D01*
%TO.C,VR1*%
X99337380Y-118594523D02*
X100337380Y-118261190D01*
X99337380Y-117927857D01*
X100337380Y-117023095D02*
X99861190Y-117356428D01*
X100337380Y-117594523D02*
X99337380Y-117594523D01*
X99337380Y-117213571D01*
X99385000Y-117118333D01*
X99432619Y-117070714D01*
X99527857Y-117023095D01*
X99670714Y-117023095D01*
X99765952Y-117070714D01*
X99813571Y-117118333D01*
X99861190Y-117213571D01*
X99861190Y-117594523D01*
X100337380Y-116070714D02*
X100337380Y-116642142D01*
X100337380Y-116356428D02*
X99337380Y-116356428D01*
X99480238Y-116451666D01*
X99575476Y-116546904D01*
X99623095Y-116642142D01*
%TO.C,R8*%
X97152833Y-109056380D02*
X96819500Y-108580190D01*
X96581404Y-109056380D02*
X96581404Y-108056380D01*
X96962357Y-108056380D01*
X97057595Y-108104000D01*
X97105214Y-108151619D01*
X97152833Y-108246857D01*
X97152833Y-108389714D01*
X97105214Y-108484952D01*
X97057595Y-108532571D01*
X96962357Y-108580190D01*
X96581404Y-108580190D01*
X97724261Y-108484952D02*
X97629023Y-108437333D01*
X97581404Y-108389714D01*
X97533785Y-108294476D01*
X97533785Y-108246857D01*
X97581404Y-108151619D01*
X97629023Y-108104000D01*
X97724261Y-108056380D01*
X97914738Y-108056380D01*
X98009976Y-108104000D01*
X98057595Y-108151619D01*
X98105214Y-108246857D01*
X98105214Y-108294476D01*
X98057595Y-108389714D01*
X98009976Y-108437333D01*
X97914738Y-108484952D01*
X97724261Y-108484952D01*
X97629023Y-108532571D01*
X97581404Y-108580190D01*
X97533785Y-108675428D01*
X97533785Y-108865904D01*
X97581404Y-108961142D01*
X97629023Y-109008761D01*
X97724261Y-109056380D01*
X97914738Y-109056380D01*
X98009976Y-109008761D01*
X98057595Y-108961142D01*
X98105214Y-108865904D01*
X98105214Y-108675428D01*
X98057595Y-108580190D01*
X98009976Y-108532571D01*
X97914738Y-108484952D01*
%TO.C,C5*%
X92580833Y-108961142D02*
X92533214Y-109008761D01*
X92390357Y-109056380D01*
X92295119Y-109056380D01*
X92152261Y-109008761D01*
X92057023Y-108913523D01*
X92009404Y-108818285D01*
X91961785Y-108627809D01*
X91961785Y-108484952D01*
X92009404Y-108294476D01*
X92057023Y-108199238D01*
X92152261Y-108104000D01*
X92295119Y-108056380D01*
X92390357Y-108056380D01*
X92533214Y-108104000D01*
X92580833Y-108151619D01*
X93485595Y-108056380D02*
X93009404Y-108056380D01*
X92961785Y-108532571D01*
X93009404Y-108484952D01*
X93104642Y-108437333D01*
X93342738Y-108437333D01*
X93437976Y-108484952D01*
X93485595Y-108532571D01*
X93533214Y-108627809D01*
X93533214Y-108865904D01*
X93485595Y-108961142D01*
X93437976Y-109008761D01*
X93342738Y-109056380D01*
X93104642Y-109056380D01*
X93009404Y-109008761D01*
X92961785Y-108961142D01*
%TO.C,C1*%
X83907333Y-91797142D02*
X83859714Y-91844761D01*
X83716857Y-91892380D01*
X83621619Y-91892380D01*
X83478761Y-91844761D01*
X83383523Y-91749523D01*
X83335904Y-91654285D01*
X83288285Y-91463809D01*
X83288285Y-91320952D01*
X83335904Y-91130476D01*
X83383523Y-91035238D01*
X83478761Y-90940000D01*
X83621619Y-90892380D01*
X83716857Y-90892380D01*
X83859714Y-90940000D01*
X83907333Y-90987619D01*
X84859714Y-91892380D02*
X84288285Y-91892380D01*
X84574000Y-91892380D02*
X84574000Y-90892380D01*
X84478761Y-91035238D01*
X84383523Y-91130476D01*
X84288285Y-91178095D01*
D12*
%TO.C,R9*%
X98870500Y-110916936D02*
X98870500Y-111371064D01*
X100340500Y-110916936D02*
X100340500Y-111371064D01*
%TO.C,J2*%
X83722500Y-118927000D02*
X86382500Y-118927000D01*
X86382500Y-116327000D02*
X86382500Y-118927000D01*
X83722500Y-115057000D02*
X83722500Y-113727000D01*
X83722500Y-116327000D02*
X83722500Y-118927000D01*
X83722500Y-116327000D02*
X86382500Y-116327000D01*
X83722500Y-113727000D02*
X85052500Y-113727000D01*
%TO.C,C2*%
X114745000Y-108726248D02*
X114745000Y-109248752D01*
X113275000Y-108726248D02*
X113275000Y-109248752D01*
%TO.C,R2*%
X87349064Y-90143000D02*
X86894936Y-90143000D01*
X87349064Y-88673000D02*
X86894936Y-88673000D01*
D13*
%TO.C,U1*%
X91000000Y-106476000D02*
X92245000Y-106476000D01*
X109000000Y-105746000D02*
X109000000Y-106476000D01*
X91000000Y-80976000D02*
X109000000Y-80976000D01*
X109000000Y-106476000D02*
X107755000Y-106476000D01*
X91000000Y-105746000D02*
X91000000Y-106476000D01*
X91000000Y-87696000D02*
X91000000Y-80976000D01*
X109000000Y-80976000D02*
X109000000Y-87696000D01*
D14*
X89900000Y-88466000D02*
G75*
G03*
X89900000Y-88466000I-100000J0D01*
G01*
D12*
%TO.C,R1*%
X112459000Y-109214564D02*
X112459000Y-108760436D01*
X110989000Y-109214564D02*
X110989000Y-108760436D01*
%TO.C,C4*%
X95768500Y-111405252D02*
X95768500Y-110882748D01*
X94298500Y-111405252D02*
X94298500Y-110882748D01*
%TO.C,SW1*%
X115642000Y-97270000D02*
X115642000Y-103390000D01*
X111942000Y-103390000D02*
X111942000Y-97270000D01*
X111942000Y-97270000D02*
X115642000Y-97270000D01*
X115642000Y-103390000D02*
X111942000Y-103390000D01*
%TO.C,SW2*%
X82478000Y-96940000D02*
X86178000Y-96940000D01*
X86178000Y-96940000D02*
X86178000Y-103060000D01*
X82478000Y-103060000D02*
X82478000Y-96940000D01*
X86178000Y-103060000D02*
X82478000Y-103060000D01*
%TO.C,R6*%
X93499000Y-140996936D02*
X93499000Y-141451064D01*
X94969000Y-140996936D02*
X94969000Y-141451064D01*
%TO.C,J1*%
X117796000Y-89851000D02*
X119126000Y-89851000D01*
X117796000Y-92451000D02*
X117796000Y-107751000D01*
X117796000Y-92451000D02*
X120456000Y-92451000D01*
X117796000Y-107751000D02*
X120456000Y-107751000D01*
X120456000Y-92451000D02*
X120456000Y-107751000D01*
X117796000Y-91181000D02*
X117796000Y-89851000D01*
%TO.C,R7*%
X103405000Y-140996936D02*
X103405000Y-141451064D01*
X104875000Y-140996936D02*
X104875000Y-141451064D01*
%TO.C,C3*%
X87403000Y-96766748D02*
X87403000Y-97289252D01*
X88873000Y-96766748D02*
X88873000Y-97289252D01*
D13*
%TO.C,VR1*%
X92380000Y-119860000D02*
X92000000Y-119860000D01*
X92000000Y-119860000D02*
X92000000Y-116360000D01*
X98500000Y-116360000D02*
X98500000Y-119860000D01*
X98500000Y-119860000D02*
X98120000Y-119860000D01*
D14*
X98750000Y-114610000D02*
G75*
G03*
X98750000Y-114610000I-100000J0D01*
G01*
D12*
%TO.C,R8*%
X96584500Y-111371064D02*
X96584500Y-110916936D01*
X98054500Y-111371064D02*
X98054500Y-110916936D01*
%TO.C,C5*%
X92012500Y-111405252D02*
X92012500Y-110882748D01*
X93482500Y-111405252D02*
X93482500Y-110882748D01*
%TO.C,C1*%
X87383252Y-90705000D02*
X86860748Y-90705000D01*
X87383252Y-92175000D02*
X86860748Y-92175000D01*
%TD*%
M02*
